<svg width="60" height="60" viewBox="0 0 60 60" fill="none" xmlns="http://www.w3.org/2000/svg">
<g id="Simplification" clip-path="url(#clip0_2899_501)">
<g id="Vector">
<mask id="path-1-outside-1_2899_501" maskUnits="userSpaceOnUse" x="-0.521484" y="-0.414062" width="61" height="61" fill="black">
<rect fill="white" x="-0.521484" y="-0.414062" width="61" height="61"/>
<path d="M32.8266 1.58873C33.1153 1.69192 33.4041 1.79483 33.6931 1.89732C34.2719 2.10318 34.85 2.3112 35.4276 2.52091C36.12 2.7723 36.8136 3.01988 37.5083 3.26461C37.7046 3.33379 37.9008 3.40298 38.0971 3.47217C38.1926 3.50581 38.288 3.53945 38.3864 3.57411C38.7781 3.71248 39.1694 3.85188 39.5608 3.99124C41.1989 4.57429 42.8404 5.14708 44.4818 5.72007C46.5633 6.44671 48.6446 7.17374 50.7231 7.90885C50.9271 7.98097 51.131 8.05301 51.335 8.12497C51.8707 8.314 52.4059 8.50435 52.9401 8.69746C53.1119 8.7595 53.2837 8.82123 53.4557 8.88268C53.7114 8.97442 53.9665 9.06773 54.2215 9.16152C54.2974 9.18854 54.3734 9.21557 54.4517 9.24341C55.079 9.47758 55.3843 9.73649 55.7305 10.3119C55.8529 10.6874 55.8634 11.0422 55.8695 11.4363C55.8718 11.5676 55.8741 11.699 55.8765 11.8343C55.8794 12.046 55.8794 12.046 55.8824 12.262C55.8848 12.4069 55.8872 12.5519 55.8896 12.7013C55.8959 13.0859 55.9017 13.4704 55.9073 13.8549C55.9131 14.2477 55.9195 14.6405 55.9259 15.0333C55.9382 15.8032 55.95 16.5732 55.9612 17.3431C56.0393 17.3803 56.1175 17.4175 56.1979 17.4559C56.3525 17.5315 56.3525 17.5315 56.5102 17.6086C56.6121 17.6579 56.714 17.7072 56.819 17.758C57.5103 18.1574 58.0142 18.8546 58.3081 19.599C58.5434 20.5942 58.5401 21.7261 58.035 22.6289C57.819 23.0563 57.7797 23.3408 57.9141 23.8075C57.9697 23.9443 58.0254 24.081 58.0828 24.2219C58.1126 24.2964 58.1424 24.3708 58.1731 24.4475C58.2686 24.6849 58.366 24.9215 58.4636 25.1581C58.5271 25.3148 58.5904 25.4716 58.6536 25.6284C58.9909 26.4646 58.9909 26.4646 59.3383 27.2965C59.7101 28.1877 59.8915 29.1232 59.5436 30.0616C59.1089 30.8104 58.5567 31.1855 57.7556 31.4484C57.2581 31.5742 56.7709 31.573 56.2605 31.5695C56.1492 31.5698 56.0379 31.5702 55.9232 31.5705C55.6893 31.5708 55.4554 31.5701 55.2215 31.5686C54.866 31.5668 54.5107 31.5686 54.1552 31.5709C53.9267 31.5706 53.6982 31.5702 53.4697 31.5695C53.3122 31.5706 53.3122 31.5706 53.1516 31.5717C52.2893 31.5622 51.4291 31.4319 50.7689 30.8197C50.3844 33.1656 50.3916 35.087 50.9997 37.3822C51.2152 37.4053 51.2152 37.4053 51.4351 37.4289C52.1428 37.5048 52.6314 37.8296 53.1055 38.349C53.6708 39.069 53.8285 39.7556 53.7689 40.6634C53.7333 40.8204 53.6955 40.9769 53.6535 41.1322C53.8035 41.1225 53.9534 41.1129 54.1079 41.1029C54.8412 41.1076 55.4177 41.3165 55.9671 41.8161C56.6708 42.5885 56.8245 43.2583 56.8054 44.2995C56.7218 45.0973 56.3302 45.6613 55.7305 46.1713C55.2158 46.531 54.7205 46.7078 54.1151 46.8744C53.4125 49.3402 53.5022 51.4074 54.1151 53.9056C54.2507 53.9153 54.3864 53.925 54.5261 53.9349C55.3522 54.0444 55.8927 54.4556 56.3971 55.1045C56.8679 55.7965 56.8511 56.6097 56.7689 57.4213C56.5639 58.2 56.0253 58.7305 55.3843 59.1791C54.9147 59.412 54.5315 59.443 54.0114 59.4436C53.9324 59.444 53.8533 59.4444 53.7719 59.4448C53.5064 59.4459 53.241 59.4453 52.9756 59.4448C52.7836 59.4452 52.5915 59.4458 52.3995 59.4464C51.8714 59.4478 51.3432 59.4478 50.815 59.4475C50.2456 59.4475 49.6761 59.4488 49.1066 59.4499C47.9905 59.4518 46.8743 59.4525 45.7582 59.4526C44.8506 59.4527 43.943 59.4532 43.0354 59.4539C40.4616 59.456 37.8878 59.4571 35.314 59.4569C35.1058 59.4569 35.1058 59.4569 34.8934 59.4569C34.7544 59.4569 34.6155 59.4569 34.4723 59.4568C32.222 59.4567 29.9717 59.459 27.7215 59.4623C25.4104 59.4657 23.0992 59.4673 20.7881 59.4671C19.4909 59.467 18.1936 59.4676 16.8963 59.4702C15.7913 59.4723 14.6862 59.4728 13.5812 59.4712C13.0178 59.4705 12.4544 59.4704 11.891 59.4725C11.3742 59.4743 10.8575 59.474 10.3407 59.4719C10.1547 59.4716 9.96874 59.472 9.78277 59.4733C8.2423 59.4835 6.79541 59.2617 5.40836 58.5272C5.33248 58.4875 5.25661 58.4478 5.17843 58.4069C2.98892 57.2081 1.51407 55.1377 0.756915 52.7557C0.163348 50.2556 0.525416 47.6798 1.78095 45.4672C2.21303 44.7541 2.75393 44.1709 3.34586 43.5931C3.42142 43.5155 3.49697 43.4378 3.57482 43.3578C4.60012 42.3655 5.91911 41.7482 7.26893 41.3666C6.96388 41.0474 6.66137 40.7551 6.31701 40.4803C4.74222 39.1104 3.8528 36.9708 3.57663 34.9213C3.40968 32.1975 4.06203 29.6605 5.85547 27.5677C7.17641 26.1637 9.03922 25.0023 10.9612 24.7259C11.1897 24.7259 11.4182 24.7259 11.6535 24.7259C11.6535 21.8642 11.6535 19.0025 11.6535 16.0541C11.2347 15.9381 10.8159 15.822 10.3843 15.7025C10.1255 15.6194 9.86738 15.5337 9.6106 15.4441C9.47313 15.3964 9.33566 15.3487 9.19403 15.2995C9.04842 15.2485 8.90281 15.1974 8.75722 15.1463C8.60372 15.0927 8.45022 15.0392 8.29671 14.9857C7.9772 14.8742 7.65779 14.7623 7.33846 14.6503C6.93201 14.5077 6.52529 14.366 6.11849 14.2244C5.80219 14.1143 5.48604 14.0037 5.16993 13.893C5.02012 13.8405 4.87026 13.7883 4.72035 13.7361C2.10023 12.8242 2.10023 12.8242 1.60247 11.9662C1.3742 11.4151 1.441 10.8357 1.62951 10.2826C2.10888 9.56852 2.68559 9.27253 3.468 9.01091C3.55987 8.97879 3.65174 8.94666 3.74639 8.91356C4.05232 8.80695 4.35893 8.7025 4.66557 8.59801C4.88379 8.52238 5.10195 8.44659 5.32007 8.37065C5.79249 8.20637 6.26518 8.04291 6.73804 7.87995C7.80966 7.51011 8.87882 7.13307 9.94827 6.75683C10.4964 6.56402 11.0446 6.3718 11.5931 6.18016C12.7189 5.78673 13.8442 5.39299 14.9645 4.98397C15.1225 4.92676 15.2805 4.86958 15.4385 4.81245C15.711 4.71354 15.9829 4.61325 16.2542 4.51118C16.8914 4.28106 17.3401 4.14236 17.9997 4.33532C18.3251 4.61246 18.3434 4.78392 18.3963 5.21422C18.3353 5.71046 18.2648 5.78797 17.8843 6.09313C17.5659 6.24364 17.237 6.35219 16.9031 6.46163C16.8046 6.49519 16.7061 6.52875 16.6046 6.56333C16.3911 6.63589 16.1774 6.70782 15.9636 6.77918C15.5051 6.93219 15.0476 7.0882 14.5901 7.24402C14.3519 7.32508 14.1138 7.40598 13.8755 7.48673C12.7703 7.86172 11.6699 8.25003 10.5704 8.64185C10.0601 8.82365 9.54949 9.00469 9.03892 9.18578C8.89046 9.23844 8.89046 9.23844 8.73902 9.29217C7.76188 9.63873 6.78455 9.98471 5.80618 10.3277C5.62912 10.3898 5.45212 10.4522 5.27519 10.5147C5.03369 10.6 4.79198 10.6847 4.55018 10.7692C4.41439 10.8169 4.27859 10.8646 4.13868 10.9138C3.8074 11.015 3.8074 11.015 3.46124 11.015C3.46124 11.0923 3.46124 11.1697 3.46124 11.2494C3.6097 11.2802 3.75816 11.3111 3.91112 11.3429C4.49342 11.4747 5.04762 11.6601 5.60938 11.8623C5.76457 11.9174 5.76457 11.9174 5.92289 11.9737C6.14116 12.0513 6.35933 12.1292 6.57741 12.2074C6.90327 12.3242 7.2294 12.4402 7.55559 12.5561C8.92669 13.0441 10.2918 13.5475 11.6535 14.0619C11.6595 13.9902 11.6655 13.9186 11.6717 13.8448C11.6806 13.7504 11.6895 13.656 11.6986 13.5588C11.707 13.4654 11.7154 13.372 11.724 13.2758C11.8352 12.6111 12.2901 12.2083 12.8074 11.8353C13.8866 11.4534 15.0811 11.3498 16.2112 11.1908C16.2991 11.1783 16.387 11.1658 16.4775 11.1529C24.988 9.94522 33.5471 10.041 42.043 11.3153C42.1227 11.327 42.2024 11.3387 42.2846 11.3508C44.5651 11.6891 44.5651 11.6891 45.2305 12.4213C45.5065 12.9719 45.692 13.44 45.692 14.0619C45.816 14.0147 45.9401 13.9676 46.0679 13.919C47.6481 13.3214 49.2397 12.7595 50.8338 12.2015C51.2201 12.0663 51.6063 11.9309 51.9924 11.7954C52.2303 11.7119 52.4682 11.6285 52.7062 11.5454C52.8123 11.5081 52.9184 11.4709 53.0277 11.4325C53.1211 11.3999 53.2144 11.3672 53.3105 11.3336C53.5424 11.2528 53.5424 11.2528 53.7689 11.1322C53.7071 11.1104 53.6452 11.0887 53.5815 11.0663C53.493 11.0352 53.4045 11.0041 53.3134 10.972C53.2124 10.9365 53.1114 10.901 53.0073 10.8644C52.7761 10.7831 52.5448 10.7018 52.3136 10.6205C51.65 10.3873 50.9864 10.154 50.3229 9.92069C48.9678 9.44431 47.6127 8.96789 46.2577 8.49135C44.2359 7.78037 42.2141 7.06949 40.1919 6.36C40.0603 6.31384 39.9287 6.26767 39.7931 6.2201C39.1314 5.98795 38.4697 5.75594 37.8078 5.52421C36.5866 5.09647 35.366 4.66739 34.147 4.23327C33.5923 4.03576 33.0373 3.8389 32.4824 3.64206C32.2193 3.5485 31.9562 3.45461 31.6933 3.36037C31.3299 3.23011 30.9662 3.10099 30.6023 2.9721C30.496 2.93364 30.3897 2.89517 30.2802 2.85555C29.3362 2.5234 28.5908 2.36464 27.6131 2.6924C27.4881 2.73202 27.4881 2.73202 27.3605 2.77243C26.1612 3.15799 24.9753 3.58911 23.7905 4.01811C23.4819 4.12958 23.1727 4.23921 22.8634 4.34859C22.7709 4.38264 22.6783 4.41669 22.5829 4.45177C21.9919 4.65893 21.5102 4.7362 20.8843 4.68688C20.5959 4.50377 20.5959 4.50377 20.4228 4.21813C20.3615 3.78217 20.3315 3.52246 20.5958 3.16155C20.9886 2.845 21.3938 2.70946 21.866 2.54912C21.9629 2.51504 22.0597 2.48095 22.1595 2.44584C22.4696 2.33707 22.7803 2.23023 23.091 2.1234C23.2938 2.05257 23.4964 1.98162 23.6991 1.91054C24.1026 1.76915 24.5068 1.63027 24.9116 1.49272C25.2902 1.36335 25.664 1.22618 26.0364 1.07959C28.5098 0.125103 30.4017 0.697494 32.8266 1.58873ZM15.4468 13.1976C15.3672 13.2098 15.2876 13.222 15.2055 13.2346C14.9826 13.2691 14.7599 13.3052 14.5373 13.3414C14.4116 13.3617 14.2859 13.382 14.1563 13.403C13.8225 13.4619 13.8225 13.4619 13.4997 13.7103C13.4492 13.9797 13.4492 13.9797 13.4604 14.2963C13.4604 14.4183 13.4605 14.5403 13.4605 14.666C13.4623 14.798 13.4641 14.9301 13.4659 15.0662C13.4664 15.2011 13.4669 15.3361 13.4674 15.4751C13.4693 15.9074 13.4737 16.3396 13.4781 16.7718C13.4798 17.0644 13.4814 17.3569 13.4828 17.6494C13.4866 18.3676 13.4924 19.0858 13.4997 19.8041C13.6087 19.8045 13.7177 19.8048 13.83 19.8052C16.4801 19.8147 19.1302 19.8255 21.7802 19.8378C23.0618 19.8436 24.3433 19.8491 25.6249 19.8535C26.7417 19.8574 27.8585 19.862 28.9753 19.8677C29.5668 19.8706 30.1583 19.8732 30.7498 19.8748C31.3063 19.8763 31.8628 19.8789 32.4193 19.8823C32.6238 19.8833 32.8282 19.884 33.0327 19.8842C33.3115 19.8846 33.5902 19.8864 33.869 19.8886C33.9502 19.8884 34.0315 19.8882 34.1152 19.8879C34.5288 19.8928 34.8467 19.9123 35.192 20.1556C35.3541 20.4848 35.3361 20.7285 35.3074 21.0931C35.186 21.3466 35.186 21.3466 34.9612 21.5619C34.66 21.6093 34.4065 21.626 34.1049 21.6227C34.0169 21.6236 33.929 21.6245 33.8384 21.6254C33.5428 21.6277 33.2474 21.6268 32.9518 21.6259C32.7403 21.6269 32.5289 21.6281 32.3174 21.6295C31.7424 21.6328 31.1674 21.6332 30.5924 21.6331C29.9918 21.6334 29.3913 21.6364 28.7907 21.6392C27.653 21.6439 26.5154 21.6463 25.3777 21.6478C24.0827 21.6497 22.7877 21.6542 21.4926 21.6589C18.8283 21.6686 16.164 21.6748 13.4997 21.6791C13.4997 22.6459 13.4997 23.6127 13.4997 24.6088C23.5139 24.6088 33.5282 24.6088 43.8459 24.6088C43.8459 23.642 43.8459 22.6752 43.8459 21.6791C43.4334 21.676 43.021 21.673 42.596 21.6699C42.1973 21.6654 41.7987 21.6601 41.4 21.6547C41.1225 21.6514 40.8451 21.649 40.5676 21.6473C40.1692 21.6448 39.7709 21.6393 39.3724 21.6333C39.248 21.6331 39.1236 21.633 38.9955 21.6329C38.88 21.6305 38.7645 21.6282 38.6455 21.6259C38.5438 21.6248 38.4421 21.6238 38.3373 21.6227C38.0766 21.5619 38.0766 21.5619 37.8707 21.3459C37.6812 21.0043 37.682 20.776 37.7305 20.39C37.9087 20.1513 38.0445 20.0548 38.3074 19.9213C38.4852 19.9074 38.6637 19.9005 38.842 19.8972C38.9529 19.8949 39.0637 19.8925 39.178 19.8901C39.3579 19.8872 39.3579 19.8872 39.5415 19.8842C39.6641 19.8817 39.7867 19.8793 39.913 19.8768C40.3057 19.8691 40.6984 19.8622 41.091 19.8553C41.3568 19.8503 41.6226 19.8452 41.8884 19.84C42.5409 19.8274 43.1933 19.8155 43.8459 19.8041C43.8546 18.9594 43.8607 18.1147 43.8649 17.2699C43.8666 16.9824 43.869 16.695 43.872 16.4075C43.8762 15.9947 43.8781 15.582 43.8797 15.1692C43.8814 15.0403 43.8832 14.9114 43.8851 14.7786C43.8851 14.6589 43.8851 14.5393 43.8852 14.416C43.8859 14.3107 43.8867 14.2053 43.8875 14.0967C43.8659 13.8218 43.8659 13.8218 43.6959 13.6211C43.3644 13.3758 42.9708 13.356 42.5739 13.3002C42.4811 13.286 42.3882 13.2718 42.2926 13.2572C41.9884 13.2113 41.684 13.1677 41.3795 13.1244C41.1679 13.0934 40.9564 13.0624 40.7448 13.0313C39.0134 12.7802 37.2817 12.5656 35.5382 12.4213C35.3968 12.4092 35.2554 12.3971 35.1098 12.3847C28.5507 11.8477 21.9447 12.1858 15.4468 13.1976ZM53.3925 13.2924C53.2875 13.3292 53.1825 13.3661 53.0743 13.4041C52.9592 13.4447 52.8441 13.4853 52.7255 13.5272C52.6062 13.5692 52.4869 13.6112 52.364 13.6545C52.1091 13.7442 51.8543 13.8341 51.5995 13.924C51.219 14.0583 50.8383 14.1922 50.4577 14.326C50.2088 14.4137 49.96 14.5015 49.7111 14.5892C49.6009 14.628 49.4907 14.6667 49.3771 14.7066C48.1438 15.1426 46.9198 15.6006 45.692 16.0541C45.692 18.8771 45.692 21.7002 45.692 24.6088C47.6339 24.6088 49.5759 24.6088 51.5766 24.6088C52.2411 23.5767 52.2411 23.5767 52.0382 22.9681C51.9644 22.7909 51.8874 22.6152 51.8074 22.4408C51.3763 21.5008 51.323 20.6076 51.6415 19.6136C52.1316 18.3883 52.819 17.9972 53.9997 17.3431C53.9997 15.9509 53.9997 14.5588 53.9997 13.1244C53.7882 13.1244 53.5904 13.2227 53.3925 13.2924ZM53.4205 19.9441C53.2041 20.3488 53.1654 20.7554 53.192 21.2103C53.3763 21.7827 53.7061 22.21 54.2305 22.4994C54.7461 22.6523 55.1417 22.6605 55.6511 22.4847C56.0526 22.2003 56.3194 21.8891 56.5382 21.4447C56.6001 20.8709 56.5986 20.4055 56.3579 19.8773C55.9371 19.4171 55.545 19.141 54.9156 19.0497C54.2766 19.1463 53.8179 19.419 53.4205 19.9441ZM55.7513 24.3151C55.354 24.4087 54.9533 24.3864 54.5478 24.3817C54.4618 24.3812 54.3758 24.3806 54.2873 24.3801C54.076 24.3787 53.8648 24.3766 53.6535 24.3744C53.403 24.9804 53.1545 25.5871 52.9077 26.1947C52.8235 26.4012 52.7388 26.6075 52.6535 26.8136C52.531 27.11 52.4104 27.4072 52.2901 27.7046C52.2517 27.7964 52.2132 27.8882 52.1736 27.9828C52.0239 28.3575 51.9215 28.6368 51.9287 29.0442C52.0769 29.3855 52.1646 29.4845 52.4997 29.6478C52.8629 29.6986 53.2224 29.6971 53.5886 29.6945C53.7474 29.695 53.7474 29.695 53.9093 29.6955C54.1328 29.6958 54.3562 29.6951 54.5797 29.6937C54.9216 29.6918 55.2633 29.6936 55.6052 29.6959C55.8224 29.6957 56.0397 29.6952 56.2569 29.6945C56.3591 29.6952 56.4613 29.6959 56.5665 29.6967C56.9608 29.6921 57.2797 29.6722 57.6519 29.535C57.8783 29.1874 57.8202 28.9268 57.7564 28.5245C57.6562 28.0844 57.5034 27.681 57.3274 27.267C57.2917 27.18 57.256 27.0931 57.2192 27.0035C57.1064 26.7296 56.9918 26.4565 56.8771 26.1835C56.7997 25.9964 56.7224 25.8092 56.6452 25.622C56.4571 25.1665 56.2673 24.7116 56.0766 24.2572C55.9435 24.2521 55.9435 24.2521 55.7513 24.3151ZM17.5382 30.2338C17.5382 31.3552 17.5382 32.4767 17.5382 33.6322C18.2459 33.4373 18.2459 33.4373 18.9228 33.1634C19.136 33.1653 19.136 33.1653 19.3915 33.1927C19.5149 33.2045 19.5149 33.2045 19.6408 33.2165C20.1049 33.3094 20.5509 33.4803 20.9997 33.6322C20.9997 32.5107 20.9997 31.3892 20.9997 30.2338C19.8574 30.2338 18.7151 30.2338 17.5382 30.2338ZM7.0945 29.0454C5.80899 30.7114 5.23686 32.5673 5.42278 34.6869C5.71731 36.6674 6.63862 38.4219 8.22807 39.6454C9.91904 40.8094 11.5384 41.1873 13.5684 41.1776C13.7317 41.1781 13.895 41.1788 14.0583 41.1795C14.5021 41.1812 14.9459 41.1807 15.3898 41.1799C15.8703 41.1793 16.3508 41.1808 16.8312 41.182C17.7703 41.184 18.7094 41.1841 19.6484 41.1835C20.4115 41.183 21.1745 41.1832 21.9375 41.1838C22.0463 41.1839 22.1551 41.184 22.2672 41.1841C22.4883 41.1842 22.7094 41.1844 22.9305 41.1846C24.9998 41.1862 27.069 41.1856 29.1383 41.1842C31.0319 41.1831 32.9255 41.1846 34.8191 41.1874C36.7649 41.1902 38.7107 41.1914 40.6565 41.1906C41.7484 41.1902 42.8402 41.1904 43.9321 41.1925C44.8606 41.1942 45.7892 41.1943 46.7177 41.1923C47.1915 41.1913 47.6652 41.191 48.139 41.1928C48.5725 41.1944 49.0059 41.1939 49.4394 41.1916C49.6708 41.1909 49.9023 41.1926 50.1337 41.1943C50.3395 41.1926 50.3395 41.1926 50.5495 41.1909C50.7272 41.1908 50.7272 41.1908 50.9084 41.1908C51.3188 41.1161 51.5121 40.9572 51.8074 40.6634C51.9512 40.3239 51.9512 40.3239 51.9228 39.9603C51.7185 39.6384 51.5694 39.4293 51.2305 39.2572C51.077 39.2462 50.923 39.2424 50.7691 39.2422C50.6235 39.2417 50.6235 39.2417 50.475 39.2412C50.3678 39.2414 50.2606 39.2416 50.1501 39.2418C49.98 39.2414 49.98 39.2414 49.8064 39.2411C49.4239 39.2403 49.0414 39.2405 48.6589 39.2406C48.3857 39.2402 48.1124 39.2398 47.8392 39.2393C47.2496 39.2384 46.6599 39.2378 46.0703 39.2374C45.1386 39.2368 44.2069 39.2348 43.2752 39.2326C42.9566 39.2318 42.6379 39.2311 42.3193 39.2304C42.2397 39.2302 42.1601 39.23 42.078 39.2298C41.1712 39.2277 40.2645 39.2258 39.3577 39.224C39.2748 39.2239 39.1919 39.2237 39.1064 39.2235C37.7626 39.221 36.4188 39.2197 35.0749 39.2188C33.6959 39.2179 32.317 39.2152 30.938 39.2109C30.1635 39.2085 29.3889 39.207 28.6144 39.2077C27.8861 39.2082 27.1578 39.2066 26.4295 39.2033C26.1618 39.2025 25.8941 39.2025 25.6263 39.2034C25.2616 39.2044 24.8971 39.2026 24.5324 39.2C24.4257 39.201 24.319 39.202 24.2091 39.203C23.4965 39.1938 23.4965 39.1938 23.1263 38.9238C22.8998 38.5772 22.8943 38.3761 22.9612 37.9681C23.1314 37.7156 23.1314 37.7156 23.4228 37.4994C23.7791 37.453 24.0944 37.4353 24.4507 37.4386C24.6082 37.4372 24.6082 37.4372 24.7689 37.4359C25.1215 37.4335 25.474 37.4345 25.8266 37.4354C26.079 37.4344 26.3315 37.4332 26.5839 37.4317C27.27 37.4285 27.956 37.4281 28.6421 37.4282C29.3588 37.4278 30.0755 37.4248 30.7921 37.4221C31.9953 37.4179 33.1985 37.4153 34.4017 37.4139C35.6409 37.4126 36.8802 37.4102 38.1194 37.4065C38.1958 37.4063 38.2722 37.4061 38.3509 37.4058C38.7342 37.4047 39.1174 37.4035 39.5006 37.4023C42.6798 37.3927 45.859 37.3863 49.0382 37.3822C49.0141 37.2624 48.99 37.1427 48.9652 37.0193C48.9335 36.8601 48.9018 36.7009 48.87 36.5417C48.8542 36.4631 48.8384 36.3844 48.822 36.3033C48.408 34.2195 48.6295 32.3088 49.0382 30.2338C40.3947 30.2338 31.7512 30.2338 22.8459 30.2338C22.8078 31.9353 22.7697 33.6369 22.7305 35.39C22.2689 35.8588 22.2689 35.8588 21.829 35.8734C21.226 35.7798 20.6742 35.53 20.1234 35.2724C19.4479 34.9702 19.0239 35.0675 18.3603 35.3209C18.121 35.4171 17.8826 35.5152 17.6445 35.6145C17.1743 35.8027 16.7819 35.9409 16.2689 35.8588C16.0227 35.6946 16.0227 35.6946 15.8074 35.39C15.7356 34.9996 15.7376 34.6126 15.7371 34.2163C15.7352 34.1025 15.7333 33.9887 15.7313 33.8715C15.7257 33.5085 15.7232 33.1456 15.7209 32.7826C15.7176 32.5363 15.7142 32.29 15.7105 32.0438C15.702 31.4404 15.6962 30.8371 15.692 30.2338C15.1709 30.2221 14.6498 30.2136 14.1286 30.208C13.9518 30.2057 13.775 30.2025 13.5982 30.1984C12.2845 30.1688 11.119 30.2354 10.1076 31.1896C9.30831 32.1241 9.07104 32.9595 9.08309 34.1724C9.15974 35.1241 9.57163 35.9252 10.2689 36.5619C11.0325 37.145 11.7435 37.4111 12.7076 37.4121C12.7869 37.4125 12.8661 37.413 12.9478 37.4134C13.1187 37.4142 13.2897 37.4145 13.4606 37.4143C13.7312 37.4142 14.0019 37.4158 14.2725 37.4177C15.0416 37.4231 15.8106 37.426 16.5797 37.4268C17.0511 37.4274 17.5225 37.4302 17.9938 37.4345C18.1732 37.4356 18.3525 37.4359 18.5318 37.4353C18.7823 37.4344 19.0327 37.4365 19.2832 37.4391C19.4968 37.4396 19.4968 37.4396 19.7148 37.4401C20.1443 37.5105 20.2814 37.6172 20.5382 37.9681C20.5959 38.3197 20.5959 38.3197 20.5382 38.6713C20.2817 39.0215 20.1445 39.1288 19.7158 39.1995C19.5028 39.2001 19.5028 39.2001 19.2854 39.2007C19.2067 39.2015 19.128 39.2023 19.047 39.2031C18.7869 39.2052 18.527 39.2038 18.267 39.2023C18.085 39.2026 17.903 39.203 17.721 39.2036C17.3389 39.2043 16.9569 39.2033 16.5748 39.2011C16.0891 39.1985 15.6035 39.2 15.1178 39.2028C14.7413 39.2045 14.3648 39.2039 13.9883 39.2027C13.8095 39.2024 13.6308 39.2028 13.452 39.2039C11.6704 39.2125 10.1408 38.8647 8.76578 37.6431C7.60875 36.4243 7.33578 34.9302 7.35953 33.3086C7.40504 32.0056 8.00684 30.8237 8.86854 29.8726C10.1778 28.679 11.6814 28.4226 13.3803 28.4292C13.5398 28.4286 13.6994 28.4278 13.859 28.4269C14.2942 28.4248 14.7294 28.4248 15.1646 28.4252C15.6352 28.4253 16.1058 28.4234 16.5763 28.4217C17.3905 28.419 18.2047 28.4176 19.0189 28.4171C20.1961 28.4163 21.3733 28.4136 22.5504 28.4105C24.4606 28.4054 26.3707 28.4019 28.2808 28.3994C30.1357 28.3969 31.9907 28.3937 33.8456 28.3895C33.9601 28.3893 34.0745 28.389 34.1924 28.3887C34.7665 28.3874 35.3406 28.3861 35.9148 28.3848C40.6738 28.3739 45.4329 28.3655 50.192 28.3588C50.4205 27.74 50.6489 27.1213 50.8843 26.4838C45.9474 26.4731 41.0104 26.4648 36.0735 26.4598C35.49 26.4592 34.9066 26.4586 34.3231 26.458C34.207 26.4579 34.0908 26.4578 33.9712 26.4576C32.0929 26.4556 30.2146 26.4519 28.3363 26.4476C26.4077 26.4432 24.479 26.4406 22.5503 26.4396C21.3611 26.439 20.172 26.437 18.9828 26.4332C18.1663 26.4307 17.3498 26.4299 16.5332 26.4305C16.0628 26.4308 15.5924 26.4304 15.122 26.4279C12.0736 26.4123 9.26286 26.5383 7.0945 29.0454ZM3.91241 45.7318C2.50398 47.4346 2.26134 49.4256 2.42278 51.5619C2.50266 52.0984 2.67266 52.588 2.88432 53.0853C2.92344 53.1852 2.96255 53.285 3.00286 53.3879C3.77268 55.1547 5.29531 56.4696 7.03816 57.1869C8.39757 57.6549 9.74229 57.6729 11.1621 57.6713C11.3468 57.6715 11.5314 57.6718 11.7161 57.6721C12.2218 57.6728 12.7274 57.6728 13.2331 57.6727C13.7791 57.6726 14.3251 57.6733 14.8711 57.6738C15.9399 57.6748 17.0087 57.6751 18.0775 57.6752C18.9459 57.6753 19.8144 57.6755 20.6828 57.6759C23.1448 57.6769 25.6068 57.6774 28.0687 57.6774C28.2014 57.6774 28.334 57.6773 28.4707 57.6773C28.6035 57.6773 28.7363 57.6773 28.8731 57.6773C31.0279 57.6773 33.1826 57.6784 35.3374 57.6801C37.5497 57.6817 39.762 57.6825 41.9743 57.6824C43.2164 57.6824 44.4586 57.6827 45.7007 57.684C46.7577 57.6851 47.8146 57.6853 48.8715 57.6845C49.4109 57.6841 49.9504 57.6841 50.4898 57.6851C50.9833 57.6861 51.4768 57.6859 51.9702 57.6849C52.149 57.6847 52.3278 57.6849 52.5066 57.6856C52.7492 57.6864 52.9917 57.6858 53.2342 57.6848C53.4365 57.6848 53.4365 57.6848 53.6429 57.6849C54.0888 57.6483 54.4185 57.532 54.7858 57.2748C55.0004 56.9535 54.9824 56.7453 54.9228 56.3666C54.7321 56.0646 54.6473 55.948 54.3459 55.7806C53.8368 55.6928 53.3319 55.7017 52.8166 55.706C52.5886 55.7042 52.3607 55.7023 52.1328 55.7004C51.8143 55.6984 51.4958 55.6991 51.1774 55.6997C50.6195 55.7005 50.0617 55.6978 49.5039 55.694C49.2071 55.6923 48.9104 55.6918 48.6136 55.6928C48.4792 55.6924 48.3448 55.692 48.2063 55.6915C48.0882 55.6917 47.97 55.6919 47.8482 55.6921C47.5302 55.6627 47.3427 55.6054 47.0766 55.4291C46.9146 55.0999 46.9325 54.8562 46.9612 54.4916C47.0677 54.2388 47.0677 54.2388 47.3074 54.0228C47.6707 53.9481 48.0316 53.9519 48.4013 53.9514C48.5619 53.9485 48.5619 53.9485 48.7258 53.9455C49.0679 53.9398 49.4099 53.9373 49.7521 53.9349C49.984 53.9316 50.2159 53.9281 50.4478 53.9244C51.0164 53.9157 51.5849 53.9099 52.1535 53.9056C52.1295 53.7776 52.1054 53.6495 52.0806 53.5176C52.0489 53.3476 52.0171 53.1775 51.9854 53.0075C51.9696 52.9233 51.9537 52.8392 51.9374 52.7525C51.5545 50.6946 51.7066 48.7998 52.1535 46.7572C49.4501 46.7572 46.7466 46.7572 43.9612 46.7572C43.9416 48.433 43.9416 48.433 43.9269 50.1088C43.9235 50.3191 43.9199 50.5294 43.9162 50.7397C43.916 50.8487 43.9159 50.9576 43.9158 51.0698C43.899 51.8372 43.899 51.8372 43.6339 52.2177C43.2579 52.4655 43.0186 52.4382 42.5766 52.3822C42.1474 52.2365 41.7429 52.0383 41.3338 51.8432C40.6229 51.5215 40.2007 51.5689 39.4757 51.8443C39.2364 51.9406 38.998 52.0387 38.7599 52.138C38.2897 52.3262 37.8973 52.4643 37.3843 52.3822C37.1381 52.218 37.1381 52.218 36.9228 51.9134C36.851 51.523 36.853 51.136 36.8525 50.7397C36.8506 50.6259 36.8486 50.5122 36.8467 50.3949C36.8411 50.032 36.8386 49.669 36.8362 49.306C36.833 49.0597 36.8295 48.8135 36.8259 48.5672C36.8173 47.9639 36.8116 47.3606 36.8074 46.7572C33.2551 46.7465 29.7028 46.7382 26.1505 46.7333C25.7308 46.7327 25.3111 46.7321 24.8915 46.7314C24.7661 46.7313 24.7661 46.7313 24.6383 46.7311C23.2867 46.729 21.9351 46.7253 20.5835 46.721C19.1959 46.7166 17.8083 46.714 16.4208 46.7131C15.6417 46.7125 14.8626 46.7111 14.0835 46.7076C13.3499 46.7044 12.6164 46.7035 11.8828 46.7042C11.6138 46.704 11.3449 46.7031 11.076 46.7013C10.708 46.699 10.3401 46.6995 9.97214 46.7008C9.8664 46.6995 9.76067 46.6981 9.65173 46.6967C8.77233 46.7049 8.04622 46.9572 7.29778 47.4237C6.50368 48.2526 6.07751 49.1838 5.95643 50.3314C6.07997 51.5024 6.49968 52.3415 7.34511 53.1517C8.28768 53.9098 9.42868 53.9569 10.5832 53.9492C10.7271 53.9496 10.8711 53.9501 11.0195 53.9506C11.4162 53.9515 11.8128 53.9508 12.2094 53.9495C12.6383 53.9484 13.0672 53.9494 13.4961 53.9502C14.2383 53.9513 14.9804 53.9511 15.7226 53.9502C16.796 53.9489 17.8694 53.9499 18.9428 53.9516C20.6851 53.9544 22.4273 53.956 24.1696 53.9565C24.3258 53.9565 24.3258 53.9565 24.4852 53.9566C25.6485 53.9569 26.8119 53.9569 27.9752 53.9568C28.3977 53.9568 28.8203 53.9567 29.2428 53.9567C29.3471 53.9567 29.4514 53.9567 29.5588 53.9567C31.2957 53.9566 33.0326 53.9583 34.7695 53.9615C35.8408 53.9633 36.912 53.9636 37.9833 53.9618C38.7163 53.9607 39.4494 53.9613 40.1824 53.9631C40.6057 53.9642 41.0289 53.9644 41.4522 53.9626C41.9103 53.9607 42.3684 53.9623 42.8265 53.9644C43.0285 53.9626 43.0285 53.9626 43.2346 53.9609C43.4179 53.9626 43.4179 53.9626 43.6048 53.9643C43.7106 53.9643 43.8164 53.9643 43.9254 53.9642C44.192 54.0228 44.192 54.0228 44.3995 54.2384C44.5852 54.5775 44.5782 54.8123 44.5382 55.1947C44.3074 55.5463 44.3074 55.5463 43.9612 55.6634C43.7667 55.6744 43.5717 55.6786 43.3768 55.6788C43.2553 55.6793 43.1337 55.6797 43.0085 55.6802C42.8075 55.6801 42.8075 55.6801 42.6024 55.6799C42.3894 55.6804 42.3894 55.6804 42.1721 55.681C41.7772 55.6818 41.3822 55.6821 40.9873 55.6822C40.5616 55.6824 40.1359 55.6833 39.7102 55.6841C38.7787 55.6857 37.8473 55.6864 36.9158 55.6869C36.3339 55.6872 35.752 55.6877 35.1701 55.6882C33.5585 55.6897 31.9469 55.6909 30.3353 55.6913C30.1805 55.6913 30.1805 55.6913 30.0226 55.6914C29.9191 55.6914 29.8157 55.6914 29.7091 55.6914C29.4995 55.6915 29.2899 55.6915 29.0803 55.6916C28.9764 55.6916 28.8724 55.6916 28.7653 55.6917C27.0827 55.6921 25.4 55.6942 23.7174 55.6969C21.9891 55.6997 20.2609 55.7011 18.5326 55.7013C17.5625 55.7014 16.5925 55.7021 15.6225 55.7042C14.7959 55.706 13.9694 55.7066 13.1429 55.7056C12.7216 55.7052 12.3003 55.7053 11.879 55.7069C11.421 55.7087 10.963 55.7077 10.505 55.7065C10.3736 55.7075 10.2422 55.7084 10.1068 55.7094C8.50725 55.6995 7.07012 55.3438 5.84781 54.2531C4.80805 53.149 4.29211 51.7987 4.23288 50.2875C4.2677 48.8771 4.77841 47.4116 5.76893 46.4056C6.81039 45.5598 7.84526 44.9853 9.19155 44.9841C9.26906 44.9839 9.34656 44.9837 9.42642 44.9834C9.6873 44.9828 9.94817 44.983 10.2091 44.9832C10.3975 44.9829 10.586 44.9826 10.7744 44.9822C11.2932 44.9813 11.812 44.9811 12.3309 44.981C12.89 44.9808 13.4492 44.9799 14.0083 44.9791C14.9775 44.9777 15.9468 44.9768 16.916 44.976C18.4473 44.9748 19.9786 44.9724 21.5099 44.9698C22.0336 44.9689 22.5573 44.9681 23.0809 44.9672C23.2118 44.967 23.3427 44.9668 23.4775 44.9665C24.9676 44.9641 26.4577 44.9619 27.9478 44.9598C28.084 44.9596 28.2202 44.9594 28.3606 44.9592C30.5695 44.9561 32.7784 44.9539 34.9873 44.952C37.2538 44.9499 39.5203 44.9466 41.7868 44.942C43.1856 44.9393 44.5844 44.9376 45.9832 44.9374C46.9413 44.9372 47.8994 44.9357 48.8574 44.9331C49.4107 44.9317 49.9638 44.9309 50.5171 44.9316C51.0232 44.9322 51.5293 44.9312 52.0354 44.9289C52.2188 44.9284 52.4022 44.9285 52.5856 44.9292C52.8343 44.93 53.083 44.9288 53.3318 44.927C53.4701 44.9268 53.6085 44.9266 53.751 44.9265C54.265 44.864 54.5617 44.6629 54.9228 44.2963C54.9902 43.9596 54.9902 43.9596 54.9228 43.5931C54.6278 43.2143 54.4544 43.029 53.9821 42.934C53.7748 42.9341 53.7748 42.9341 53.5633 42.9341C53.4857 42.9333 53.4082 42.9325 53.3282 42.9317C53.0677 42.9298 52.8073 42.9321 52.5468 42.9344C52.3583 42.9339 52.1698 42.9331 51.9814 42.9321C51.4631 42.9301 50.9448 42.9318 50.4265 42.934C49.8676 42.9358 49.3088 42.9343 48.7499 42.9331C47.6547 42.9314 46.5595 42.9329 45.4643 42.9354C44.1887 42.9382 42.9131 42.938 41.6375 42.9377C39.3607 42.9372 37.084 42.9397 34.8072 42.9437C32.5988 42.9476 30.3905 42.9492 28.1821 42.9485C25.7776 42.9477 23.3732 42.948 20.9688 42.9503C20.8415 42.9504 20.7142 42.9505 20.5831 42.9507C20.3275 42.9509 20.0719 42.9511 19.8164 42.9514C18.9277 42.9522 18.039 42.9523 17.1503 42.9521C16.0663 42.9519 14.9824 42.9531 13.8984 42.9559C13.3455 42.9572 12.7927 42.9581 12.2398 42.9574C11.7331 42.9568 11.2264 42.9578 10.7197 42.9601C10.537 42.9607 10.3543 42.9606 10.1716 42.96C7.54122 42.951 5.68233 43.7965 3.91241 45.7318ZM38.6535 46.7572C38.6535 47.8787 38.6535 49.0002 38.6535 50.1556C39.0343 50.0396 39.4151 49.9236 39.8074 49.8041C40.5107 49.6093 40.9579 49.7784 41.6125 50.049C41.8716 50.1697 41.8716 50.1697 42.1151 50.1556C42.1151 49.0341 42.1151 47.9127 42.1151 46.7572C40.9728 46.7572 39.8305 46.7572 38.6535 46.7572Z"/>
</mask>
<path d="M32.8266 1.58873C33.1153 1.69192 33.4041 1.79483 33.6931 1.89732C34.2719 2.10318 34.85 2.3112 35.4276 2.52091C36.12 2.7723 36.8136 3.01988 37.5083 3.26461C37.7046 3.33379 37.9008 3.40298 38.0971 3.47217C38.1926 3.50581 38.288 3.53945 38.3864 3.57411C38.7781 3.71248 39.1694 3.85188 39.5608 3.99124C41.1989 4.57429 42.8404 5.14708 44.4818 5.72007C46.5633 6.44671 48.6446 7.17374 50.7231 7.90885C50.9271 7.98097 51.131 8.05301 51.335 8.12497C51.8707 8.314 52.4059 8.50435 52.9401 8.69746C53.1119 8.7595 53.2837 8.82123 53.4557 8.88268C53.7114 8.97442 53.9665 9.06773 54.2215 9.16152C54.2974 9.18854 54.3734 9.21557 54.4517 9.24341C55.079 9.47758 55.3843 9.73649 55.7305 10.3119C55.8529 10.6874 55.8634 11.0422 55.8695 11.4363C55.8718 11.5676 55.8741 11.699 55.8765 11.8343C55.8794 12.046 55.8794 12.046 55.8824 12.262C55.8848 12.4069 55.8872 12.5519 55.8896 12.7013C55.8959 13.0859 55.9017 13.4704 55.9073 13.8549C55.9131 14.2477 55.9195 14.6405 55.9259 15.0333C55.9382 15.8032 55.95 16.5732 55.9612 17.3431C56.0393 17.3803 56.1175 17.4175 56.1979 17.4559C56.3525 17.5315 56.3525 17.5315 56.5102 17.6086C56.6121 17.6579 56.714 17.7072 56.819 17.758C57.5103 18.1574 58.0142 18.8546 58.3081 19.599C58.5434 20.5942 58.5401 21.7261 58.035 22.6289C57.819 23.0563 57.7797 23.3408 57.9141 23.8075C57.9697 23.9443 58.0254 24.081 58.0828 24.2219C58.1126 24.2964 58.1424 24.3708 58.1731 24.4475C58.2686 24.6849 58.366 24.9215 58.4636 25.1581C58.5271 25.3148 58.5904 25.4716 58.6536 25.6284C58.9909 26.4646 58.9909 26.4646 59.3383 27.2965C59.7101 28.1877 59.8915 29.1232 59.5436 30.0616C59.1089 30.8104 58.5567 31.1855 57.7556 31.4484C57.2581 31.5742 56.7709 31.573 56.2605 31.5695C56.1492 31.5698 56.0379 31.5702 55.9232 31.5705C55.6893 31.5708 55.4554 31.5701 55.2215 31.5686C54.866 31.5668 54.5107 31.5686 54.1552 31.5709C53.9267 31.5706 53.6982 31.5702 53.4697 31.5695C53.3122 31.5706 53.3122 31.5706 53.1516 31.5717C52.2893 31.5622 51.4291 31.4319 50.7689 30.8197C50.3844 33.1656 50.3916 35.087 50.9997 37.3822C51.2152 37.4053 51.2152 37.4053 51.4351 37.4289C52.1428 37.5048 52.6314 37.8296 53.1055 38.349C53.6708 39.069 53.8285 39.7556 53.7689 40.6634C53.7333 40.8204 53.6955 40.9769 53.6535 41.1322C53.8035 41.1225 53.9534 41.1129 54.1079 41.1029C54.8412 41.1076 55.4177 41.3165 55.9671 41.8161C56.6708 42.5885 56.8245 43.2583 56.8054 44.2995C56.7218 45.0973 56.3302 45.6613 55.7305 46.1713C55.2158 46.531 54.7205 46.7078 54.1151 46.8744C53.4125 49.3402 53.5022 51.4074 54.1151 53.9056C54.2507 53.9153 54.3864 53.925 54.5261 53.9349C55.3522 54.0444 55.8927 54.4556 56.3971 55.1045C56.8679 55.7965 56.8511 56.6097 56.7689 57.4213C56.5639 58.2 56.0253 58.7305 55.3843 59.1791C54.9147 59.412 54.5315 59.443 54.0114 59.4436C53.9324 59.444 53.8533 59.4444 53.7719 59.4448C53.5064 59.4459 53.241 59.4453 52.9756 59.4448C52.7836 59.4452 52.5915 59.4458 52.3995 59.4464C51.8714 59.4478 51.3432 59.4478 50.815 59.4475C50.2456 59.4475 49.6761 59.4488 49.1066 59.4499C47.9905 59.4518 46.8743 59.4525 45.7582 59.4526C44.8506 59.4527 43.943 59.4532 43.0354 59.4539C40.4616 59.456 37.8878 59.4571 35.314 59.4569C35.1058 59.4569 35.1058 59.4569 34.8934 59.4569C34.7544 59.4569 34.6155 59.4569 34.4723 59.4568C32.222 59.4567 29.9717 59.459 27.7215 59.4623C25.4104 59.4657 23.0992 59.4673 20.7881 59.4671C19.4909 59.467 18.1936 59.4676 16.8963 59.4702C15.7913 59.4723 14.6862 59.4728 13.5812 59.4712C13.0178 59.4705 12.4544 59.4704 11.891 59.4725C11.3742 59.4743 10.8575 59.474 10.3407 59.4719C10.1547 59.4716 9.96874 59.472 9.78277 59.4733C8.2423 59.4835 6.79541 59.2617 5.40836 58.5272C5.33248 58.4875 5.25661 58.4478 5.17843 58.4069C2.98892 57.2081 1.51407 55.1377 0.756915 52.7557C0.163348 50.2556 0.525416 47.6798 1.78095 45.4672C2.21303 44.7541 2.75393 44.1709 3.34586 43.5931C3.42142 43.5155 3.49697 43.4378 3.57482 43.3578C4.60012 42.3655 5.91911 41.7482 7.26893 41.3666C6.96388 41.0474 6.66137 40.7551 6.31701 40.4803C4.74222 39.1104 3.8528 36.9708 3.57663 34.9213C3.40968 32.1975 4.06203 29.6605 5.85547 27.5677C7.17641 26.1637 9.03922 25.0023 10.9612 24.7259C11.1897 24.7259 11.4182 24.7259 11.6535 24.7259C11.6535 21.8642 11.6535 19.0025 11.6535 16.0541C11.2347 15.9381 10.8159 15.822 10.3843 15.7025C10.1255 15.6194 9.86738 15.5337 9.6106 15.4441C9.47313 15.3964 9.33566 15.3487 9.19403 15.2995C9.04842 15.2485 8.90281 15.1974 8.75722 15.1463C8.60372 15.0927 8.45022 15.0392 8.29671 14.9857C7.9772 14.8742 7.65779 14.7623 7.33846 14.6503C6.93201 14.5077 6.52529 14.366 6.11849 14.2244C5.80219 14.1143 5.48604 14.0037 5.16993 13.893C5.02012 13.8405 4.87026 13.7883 4.72035 13.7361C2.10023 12.8242 2.10023 12.8242 1.60247 11.9662C1.3742 11.4151 1.441 10.8357 1.62951 10.2826C2.10888 9.56852 2.68559 9.27253 3.468 9.01091C3.55987 8.97879 3.65174 8.94666 3.74639 8.91356C4.05232 8.80695 4.35893 8.7025 4.66557 8.59801C4.88379 8.52238 5.10195 8.44659 5.32007 8.37065C5.79249 8.20637 6.26518 8.04291 6.73804 7.87995C7.80966 7.51011 8.87882 7.13307 9.94827 6.75683C10.4964 6.56402 11.0446 6.3718 11.5931 6.18016C12.7189 5.78673 13.8442 5.39299 14.9645 4.98397C15.1225 4.92676 15.2805 4.86958 15.4385 4.81245C15.711 4.71354 15.9829 4.61325 16.2542 4.51118C16.8914 4.28106 17.3401 4.14236 17.9997 4.33532C18.3251 4.61246 18.3434 4.78392 18.3963 5.21422C18.3353 5.71046 18.2648 5.78797 17.8843 6.09313C17.5659 6.24364 17.237 6.35219 16.9031 6.46163C16.8046 6.49519 16.7061 6.52875 16.6046 6.56333C16.3911 6.63589 16.1774 6.70782 15.9636 6.77918C15.5051 6.93219 15.0476 7.0882 14.5901 7.24402C14.3519 7.32508 14.1138 7.40598 13.8755 7.48673C12.7703 7.86172 11.6699 8.25003 10.5704 8.64185C10.0601 8.82365 9.54949 9.00469 9.03892 9.18578C8.89046 9.23844 8.89046 9.23844 8.73902 9.29217C7.76188 9.63873 6.78455 9.98471 5.80618 10.3277C5.62912 10.3898 5.45212 10.4522 5.27519 10.5147C5.03369 10.6 4.79198 10.6847 4.55018 10.7692C4.41439 10.8169 4.27859 10.8646 4.13868 10.9138C3.8074 11.015 3.8074 11.015 3.46124 11.015C3.46124 11.0923 3.46124 11.1697 3.46124 11.2494C3.6097 11.2802 3.75816 11.3111 3.91112 11.3429C4.49342 11.4747 5.04762 11.6601 5.60938 11.8623C5.76457 11.9174 5.76457 11.9174 5.92289 11.9737C6.14116 12.0513 6.35933 12.1292 6.57741 12.2074C6.90327 12.3242 7.2294 12.4402 7.55559 12.5561C8.92669 13.0441 10.2918 13.5475 11.6535 14.0619C11.6595 13.9902 11.6655 13.9186 11.6717 13.8448C11.6806 13.7504 11.6895 13.656 11.6986 13.5588C11.707 13.4654 11.7154 13.372 11.724 13.2758C11.8352 12.6111 12.2901 12.2083 12.8074 11.8353C13.8866 11.4534 15.0811 11.3498 16.2112 11.1908C16.2991 11.1783 16.387 11.1658 16.4775 11.1529C24.988 9.94522 33.5471 10.041 42.043 11.3153C42.1227 11.327 42.2024 11.3387 42.2846 11.3508C44.5651 11.6891 44.5651 11.6891 45.2305 12.4213C45.5065 12.9719 45.692 13.44 45.692 14.0619C45.816 14.0147 45.9401 13.9676 46.0679 13.919C47.6481 13.3214 49.2397 12.7595 50.8338 12.2015C51.2201 12.0663 51.6063 11.9309 51.9924 11.7954C52.2303 11.7119 52.4682 11.6285 52.7062 11.5454C52.8123 11.5081 52.9184 11.4709 53.0277 11.4325C53.1211 11.3999 53.2144 11.3672 53.3105 11.3336C53.5424 11.2528 53.5424 11.2528 53.7689 11.1322C53.7071 11.1104 53.6452 11.0887 53.5815 11.0663C53.493 11.0352 53.4045 11.0041 53.3134 10.972C53.2124 10.9365 53.1114 10.901 53.0073 10.8644C52.7761 10.7831 52.5448 10.7018 52.3136 10.6205C51.65 10.3873 50.9864 10.154 50.3229 9.92069C48.9678 9.44431 47.6127 8.96789 46.2577 8.49135C44.2359 7.78037 42.2141 7.06949 40.1919 6.36C40.0603 6.31384 39.9287 6.26767 39.7931 6.2201C39.1314 5.98795 38.4697 5.75594 37.8078 5.52421C36.5866 5.09647 35.366 4.66739 34.147 4.23327C33.5923 4.03576 33.0373 3.8389 32.4824 3.64206C32.2193 3.5485 31.9562 3.45461 31.6933 3.36037C31.3299 3.23011 30.9662 3.10099 30.6023 2.9721C30.496 2.93364 30.3897 2.89517 30.2802 2.85555C29.3362 2.5234 28.5908 2.36464 27.6131 2.6924C27.4881 2.73202 27.4881 2.73202 27.3605 2.77243C26.1612 3.15799 24.9753 3.58911 23.7905 4.01811C23.4819 4.12958 23.1727 4.23921 22.8634 4.34859C22.7709 4.38264 22.6783 4.41669 22.5829 4.45177C21.9919 4.65893 21.5102 4.7362 20.8843 4.68688C20.5959 4.50377 20.5959 4.50377 20.4228 4.21813C20.3615 3.78217 20.3315 3.52246 20.5958 3.16155C20.9886 2.845 21.3938 2.70946 21.866 2.54912C21.9629 2.51504 22.0597 2.48095 22.1595 2.44584C22.4696 2.33707 22.7803 2.23023 23.091 2.1234C23.2938 2.05257 23.4964 1.98162 23.6991 1.91054C24.1026 1.76915 24.5068 1.63027 24.9116 1.49272C25.2902 1.36335 25.664 1.22618 26.0364 1.07959C28.5098 0.125103 30.4017 0.697494 32.8266 1.58873ZM15.4468 13.1976C15.3672 13.2098 15.2876 13.222 15.2055 13.2346C14.9826 13.2691 14.7599 13.3052 14.5373 13.3414C14.4116 13.3617 14.2859 13.382 14.1563 13.403C13.8225 13.4619 13.8225 13.4619 13.4997 13.7103C13.4492 13.9797 13.4492 13.9797 13.4604 14.2963C13.4604 14.4183 13.4605 14.5403 13.4605 14.666C13.4623 14.798 13.4641 14.9301 13.4659 15.0662C13.4664 15.2011 13.4669 15.3361 13.4674 15.4751C13.4693 15.9074 13.4737 16.3396 13.4781 16.7718C13.4798 17.0644 13.4814 17.3569 13.4828 17.6494C13.4866 18.3676 13.4924 19.0858 13.4997 19.8041C13.6087 19.8045 13.7177 19.8048 13.83 19.8052C16.4801 19.8147 19.1302 19.8255 21.7802 19.8378C23.0618 19.8436 24.3433 19.8491 25.6249 19.8535C26.7417 19.8574 27.8585 19.862 28.9753 19.8677C29.5668 19.8706 30.1583 19.8732 30.7498 19.8748C31.3063 19.8763 31.8628 19.8789 32.4193 19.8823C32.6238 19.8833 32.8282 19.884 33.0327 19.8842C33.3115 19.8846 33.5902 19.8864 33.869 19.8886C33.9502 19.8884 34.0315 19.8882 34.1152 19.8879C34.5288 19.8928 34.8467 19.9123 35.192 20.1556C35.3541 20.4848 35.3361 20.7285 35.3074 21.0931C35.186 21.3466 35.186 21.3466 34.9612 21.5619C34.66 21.6093 34.4065 21.626 34.1049 21.6227C34.0169 21.6236 33.929 21.6245 33.8384 21.6254C33.5428 21.6277 33.2474 21.6268 32.9518 21.6259C32.7403 21.6269 32.5289 21.6281 32.3174 21.6295C31.7424 21.6328 31.1674 21.6332 30.5924 21.6331C29.9918 21.6334 29.3913 21.6364 28.7907 21.6392C27.653 21.6439 26.5154 21.6463 25.3777 21.6478C24.0827 21.6497 22.7877 21.6542 21.4926 21.6589C18.8283 21.6686 16.164 21.6748 13.4997 21.6791C13.4997 22.6459 13.4997 23.6127 13.4997 24.6088C23.5139 24.6088 33.5282 24.6088 43.8459 24.6088C43.8459 23.642 43.8459 22.6752 43.8459 21.6791C43.4334 21.676 43.021 21.673 42.596 21.6699C42.1973 21.6654 41.7987 21.6601 41.4 21.6547C41.1225 21.6514 40.8451 21.649 40.5676 21.6473C40.1692 21.6448 39.7709 21.6393 39.3724 21.6333C39.248 21.6331 39.1236 21.633 38.9955 21.6329C38.88 21.6305 38.7645 21.6282 38.6455 21.6259C38.5438 21.6248 38.4421 21.6238 38.3373 21.6227C38.0766 21.5619 38.0766 21.5619 37.8707 21.3459C37.6812 21.0043 37.682 20.776 37.7305 20.39C37.9087 20.1513 38.0445 20.0548 38.3074 19.9213C38.4852 19.9074 38.6637 19.9005 38.842 19.8972C38.9529 19.8949 39.0637 19.8925 39.178 19.8901C39.3579 19.8872 39.3579 19.8872 39.5415 19.8842C39.6641 19.8817 39.7867 19.8793 39.913 19.8768C40.3057 19.8691 40.6984 19.8622 41.091 19.8553C41.3568 19.8503 41.6226 19.8452 41.8884 19.84C42.5409 19.8274 43.1933 19.8155 43.8459 19.8041C43.8546 18.9594 43.8607 18.1147 43.8649 17.2699C43.8666 16.9824 43.869 16.695 43.872 16.4075C43.8762 15.9947 43.8781 15.582 43.8797 15.1692C43.8814 15.0403 43.8832 14.9114 43.8851 14.7786C43.8851 14.6589 43.8851 14.5393 43.8852 14.416C43.8859 14.3107 43.8867 14.2053 43.8875 14.0967C43.8659 13.8218 43.8659 13.8218 43.6959 13.6211C43.3644 13.3758 42.9708 13.356 42.5739 13.3002C42.4811 13.286 42.3882 13.2718 42.2926 13.2572C41.9884 13.2113 41.684 13.1677 41.3795 13.1244C41.1679 13.0934 40.9564 13.0624 40.7448 13.0313C39.0134 12.7802 37.2817 12.5656 35.5382 12.4213C35.3968 12.4092 35.2554 12.3971 35.1098 12.3847C28.5507 11.8477 21.9447 12.1858 15.4468 13.1976ZM53.3925 13.2924C53.2875 13.3292 53.1825 13.3661 53.0743 13.4041C52.9592 13.4447 52.8441 13.4853 52.7255 13.5272C52.6062 13.5692 52.4869 13.6112 52.364 13.6545C52.1091 13.7442 51.8543 13.8341 51.5995 13.924C51.219 14.0583 50.8383 14.1922 50.4577 14.326C50.2088 14.4137 49.96 14.5015 49.7111 14.5892C49.6009 14.628 49.4907 14.6667 49.3771 14.7066C48.1438 15.1426 46.9198 15.6006 45.692 16.0541C45.692 18.8771 45.692 21.7002 45.692 24.6088C47.6339 24.6088 49.5759 24.6088 51.5766 24.6088C52.2411 23.5767 52.2411 23.5767 52.0382 22.9681C51.9644 22.7909 51.8874 22.6152 51.8074 22.4408C51.3763 21.5008 51.323 20.6076 51.6415 19.6136C52.1316 18.3883 52.819 17.9972 53.9997 17.3431C53.9997 15.9509 53.9997 14.5588 53.9997 13.1244C53.7882 13.1244 53.5904 13.2227 53.3925 13.2924ZM53.4205 19.9441C53.2041 20.3488 53.1654 20.7554 53.192 21.2103C53.3763 21.7827 53.7061 22.21 54.2305 22.4994C54.7461 22.6523 55.1417 22.6605 55.6511 22.4847C56.0526 22.2003 56.3194 21.8891 56.5382 21.4447C56.6001 20.8709 56.5986 20.4055 56.3579 19.8773C55.9371 19.4171 55.545 19.141 54.9156 19.0497C54.2766 19.1463 53.8179 19.419 53.4205 19.9441ZM55.7513 24.3151C55.354 24.4087 54.9533 24.3864 54.5478 24.3817C54.4618 24.3812 54.3758 24.3806 54.2873 24.3801C54.076 24.3787 53.8648 24.3766 53.6535 24.3744C53.403 24.9804 53.1545 25.5871 52.9077 26.1947C52.8235 26.4012 52.7388 26.6075 52.6535 26.8136C52.531 27.11 52.4104 27.4072 52.2901 27.7046C52.2517 27.7964 52.2132 27.8882 52.1736 27.9828C52.0239 28.3575 51.9215 28.6368 51.9287 29.0442C52.0769 29.3855 52.1646 29.4845 52.4997 29.6478C52.8629 29.6986 53.2224 29.6971 53.5886 29.6945C53.7474 29.695 53.7474 29.695 53.9093 29.6955C54.1328 29.6958 54.3562 29.6951 54.5797 29.6937C54.9216 29.6918 55.2633 29.6936 55.6052 29.6959C55.8224 29.6957 56.0397 29.6952 56.2569 29.6945C56.3591 29.6952 56.4613 29.6959 56.5665 29.6967C56.9608 29.6921 57.2797 29.6722 57.6519 29.535C57.8783 29.1874 57.8202 28.9268 57.7564 28.5245C57.6562 28.0844 57.5034 27.681 57.3274 27.267C57.2917 27.18 57.256 27.0931 57.2192 27.0035C57.1064 26.7296 56.9918 26.4565 56.8771 26.1835C56.7997 25.9964 56.7224 25.8092 56.6452 25.622C56.4571 25.1665 56.2673 24.7116 56.0766 24.2572C55.9435 24.2521 55.9435 24.2521 55.7513 24.3151ZM17.5382 30.2338C17.5382 31.3552 17.5382 32.4767 17.5382 33.6322C18.2459 33.4373 18.2459 33.4373 18.9228 33.1634C19.136 33.1653 19.136 33.1653 19.3915 33.1927C19.5149 33.2045 19.5149 33.2045 19.6408 33.2165C20.1049 33.3094 20.5509 33.4803 20.9997 33.6322C20.9997 32.5107 20.9997 31.3892 20.9997 30.2338C19.8574 30.2338 18.7151 30.2338 17.5382 30.2338ZM7.0945 29.0454C5.80899 30.7114 5.23686 32.5673 5.42278 34.6869C5.71731 36.6674 6.63862 38.4219 8.22807 39.6454C9.91904 40.8094 11.5384 41.1873 13.5684 41.1776C13.7317 41.1781 13.895 41.1788 14.0583 41.1795C14.5021 41.1812 14.9459 41.1807 15.3898 41.1799C15.8703 41.1793 16.3508 41.1808 16.8312 41.182C17.7703 41.184 18.7094 41.1841 19.6484 41.1835C20.4115 41.183 21.1745 41.1832 21.9375 41.1838C22.0463 41.1839 22.1551 41.184 22.2672 41.1841C22.4883 41.1842 22.7094 41.1844 22.9305 41.1846C24.9998 41.1862 27.069 41.1856 29.1383 41.1842C31.0319 41.1831 32.9255 41.1846 34.8191 41.1874C36.7649 41.1902 38.7107 41.1914 40.6565 41.1906C41.7484 41.1902 42.8402 41.1904 43.9321 41.1925C44.8606 41.1942 45.7892 41.1943 46.7177 41.1923C47.1915 41.1913 47.6652 41.191 48.139 41.1928C48.5725 41.1944 49.0059 41.1939 49.4394 41.1916C49.6708 41.1909 49.9023 41.1926 50.1337 41.1943C50.3395 41.1926 50.3395 41.1926 50.5495 41.1909C50.7272 41.1908 50.7272 41.1908 50.9084 41.1908C51.3188 41.1161 51.5121 40.9572 51.8074 40.6634C51.9512 40.3239 51.9512 40.3239 51.9228 39.9603C51.7185 39.6384 51.5694 39.4293 51.2305 39.2572C51.077 39.2462 50.923 39.2424 50.7691 39.2422C50.6235 39.2417 50.6235 39.2417 50.475 39.2412C50.3678 39.2414 50.2606 39.2416 50.1501 39.2418C49.98 39.2414 49.98 39.2414 49.8064 39.2411C49.4239 39.2403 49.0414 39.2405 48.6589 39.2406C48.3857 39.2402 48.1124 39.2398 47.8392 39.2393C47.2496 39.2384 46.6599 39.2378 46.0703 39.2374C45.1386 39.2368 44.2069 39.2348 43.2752 39.2326C42.9566 39.2318 42.6379 39.2311 42.3193 39.2304C42.2397 39.2302 42.1601 39.23 42.078 39.2298C41.1712 39.2277 40.2645 39.2258 39.3577 39.224C39.2748 39.2239 39.1919 39.2237 39.1064 39.2235C37.7626 39.221 36.4188 39.2197 35.0749 39.2188C33.6959 39.2179 32.317 39.2152 30.938 39.2109C30.1635 39.2085 29.3889 39.207 28.6144 39.2077C27.8861 39.2082 27.1578 39.2066 26.4295 39.2033C26.1618 39.2025 25.8941 39.2025 25.6263 39.2034C25.2616 39.2044 24.8971 39.2026 24.5324 39.2C24.4257 39.201 24.319 39.202 24.2091 39.203C23.4965 39.1938 23.4965 39.1938 23.1263 38.9238C22.8998 38.5772 22.8943 38.3761 22.9612 37.9681C23.1314 37.7156 23.1314 37.7156 23.4228 37.4994C23.7791 37.453 24.0944 37.4353 24.4507 37.4386C24.6082 37.4372 24.6082 37.4372 24.7689 37.4359C25.1215 37.4335 25.474 37.4345 25.8266 37.4354C26.079 37.4344 26.3315 37.4332 26.5839 37.4317C27.27 37.4285 27.956 37.4281 28.6421 37.4282C29.3588 37.4278 30.0755 37.4248 30.7921 37.4221C31.9953 37.4179 33.1985 37.4153 34.4017 37.4139C35.6409 37.4126 36.8802 37.4102 38.1194 37.4065C38.1958 37.4063 38.2722 37.4061 38.3509 37.4058C38.7342 37.4047 39.1174 37.4035 39.5006 37.4023C42.6798 37.3927 45.859 37.3863 49.0382 37.3822C49.0141 37.2624 48.99 37.1427 48.9652 37.0193C48.9335 36.8601 48.9018 36.7009 48.87 36.5417C48.8542 36.4631 48.8384 36.3844 48.822 36.3033C48.408 34.2195 48.6295 32.3088 49.0382 30.2338C40.3947 30.2338 31.7512 30.2338 22.8459 30.2338C22.8078 31.9353 22.7697 33.6369 22.7305 35.39C22.2689 35.8588 22.2689 35.8588 21.829 35.8734C21.226 35.7798 20.6742 35.53 20.1234 35.2724C19.4479 34.9702 19.0239 35.0675 18.3603 35.3209C18.121 35.4171 17.8826 35.5152 17.6445 35.6145C17.1743 35.8027 16.7819 35.9409 16.2689 35.8588C16.0227 35.6946 16.0227 35.6946 15.8074 35.39C15.7356 34.9996 15.7376 34.6126 15.7371 34.2163C15.7352 34.1025 15.7333 33.9887 15.7313 33.8715C15.7257 33.5085 15.7232 33.1456 15.7209 32.7826C15.7176 32.5363 15.7142 32.29 15.7105 32.0438C15.702 31.4404 15.6962 30.8371 15.692 30.2338C15.1709 30.2221 14.6498 30.2136 14.1286 30.208C13.9518 30.2057 13.775 30.2025 13.5982 30.1984C12.2845 30.1688 11.119 30.2354 10.1076 31.1896C9.30831 32.1241 9.07104 32.9595 9.08309 34.1724C9.15974 35.1241 9.57163 35.9252 10.2689 36.5619C11.0325 37.145 11.7435 37.4111 12.7076 37.4121C12.7869 37.4125 12.8661 37.413 12.9478 37.4134C13.1187 37.4142 13.2897 37.4145 13.4606 37.4143C13.7312 37.4142 14.0019 37.4158 14.2725 37.4177C15.0416 37.4231 15.8106 37.426 16.5797 37.4268C17.0511 37.4274 17.5225 37.4302 17.9938 37.4345C18.1732 37.4356 18.3525 37.4359 18.5318 37.4353C18.7823 37.4344 19.0327 37.4365 19.2832 37.4391C19.4968 37.4396 19.4968 37.4396 19.7148 37.4401C20.1443 37.5105 20.2814 37.6172 20.5382 37.9681C20.5959 38.3197 20.5959 38.3197 20.5382 38.6713C20.2817 39.0215 20.1445 39.1288 19.7158 39.1995C19.5028 39.2001 19.5028 39.2001 19.2854 39.2007C19.2067 39.2015 19.128 39.2023 19.047 39.2031C18.7869 39.2052 18.527 39.2038 18.267 39.2023C18.085 39.2026 17.903 39.203 17.721 39.2036C17.3389 39.2043 16.9569 39.2033 16.5748 39.2011C16.0891 39.1985 15.6035 39.2 15.1178 39.2028C14.7413 39.2045 14.3648 39.2039 13.9883 39.2027C13.8095 39.2024 13.6308 39.2028 13.452 39.2039C11.6704 39.2125 10.1408 38.8647 8.76578 37.6431C7.60875 36.4243 7.33578 34.9302 7.35953 33.3086C7.40504 32.0056 8.00684 30.8237 8.86854 29.8726C10.1778 28.679 11.6814 28.4226 13.3803 28.4292C13.5398 28.4286 13.6994 28.4278 13.859 28.4269C14.2942 28.4248 14.7294 28.4248 15.1646 28.4252C15.6352 28.4253 16.1058 28.4234 16.5763 28.4217C17.3905 28.419 18.2047 28.4176 19.0189 28.4171C20.1961 28.4163 21.3733 28.4136 22.5504 28.4105C24.4606 28.4054 26.3707 28.4019 28.2808 28.3994C30.1357 28.3969 31.9907 28.3937 33.8456 28.3895C33.9601 28.3893 34.0745 28.389 34.1924 28.3887C34.7665 28.3874 35.3406 28.3861 35.9148 28.3848C40.6738 28.3739 45.4329 28.3655 50.192 28.3588C50.4205 27.74 50.6489 27.1213 50.8843 26.4838C45.9474 26.4731 41.0104 26.4648 36.0735 26.4598C35.49 26.4592 34.9066 26.4586 34.3231 26.458C34.207 26.4579 34.0908 26.4578 33.9712 26.4576C32.0929 26.4556 30.2146 26.4519 28.3363 26.4476C26.4077 26.4432 24.479 26.4406 22.5503 26.4396C21.3611 26.439 20.172 26.437 18.9828 26.4332C18.1663 26.4307 17.3498 26.4299 16.5332 26.4305C16.0628 26.4308 15.5924 26.4304 15.122 26.4279C12.0736 26.4123 9.26286 26.5383 7.0945 29.0454ZM3.91241 45.7318C2.50398 47.4346 2.26134 49.4256 2.42278 51.5619C2.50266 52.0984 2.67266 52.588 2.88432 53.0853C2.92344 53.1852 2.96255 53.285 3.00286 53.3879C3.77268 55.1547 5.29531 56.4696 7.03816 57.1869C8.39757 57.6549 9.74229 57.6729 11.1621 57.6713C11.3468 57.6715 11.5314 57.6718 11.7161 57.6721C12.2218 57.6728 12.7274 57.6728 13.2331 57.6727C13.7791 57.6726 14.3251 57.6733 14.8711 57.6738C15.9399 57.6748 17.0087 57.6751 18.0775 57.6752C18.9459 57.6753 19.8144 57.6755 20.6828 57.6759C23.1448 57.6769 25.6068 57.6774 28.0687 57.6774C28.2014 57.6774 28.334 57.6773 28.4707 57.6773C28.6035 57.6773 28.7363 57.6773 28.8731 57.6773C31.0279 57.6773 33.1826 57.6784 35.3374 57.6801C37.5497 57.6817 39.762 57.6825 41.9743 57.6824C43.2164 57.6824 44.4586 57.6827 45.7007 57.684C46.7577 57.6851 47.8146 57.6853 48.8715 57.6845C49.4109 57.6841 49.9504 57.6841 50.4898 57.6851C50.9833 57.6861 51.4768 57.6859 51.9702 57.6849C52.149 57.6847 52.3278 57.6849 52.5066 57.6856C52.7492 57.6864 52.9917 57.6858 53.2342 57.6848C53.4365 57.6848 53.4365 57.6848 53.6429 57.6849C54.0888 57.6483 54.4185 57.532 54.7858 57.2748C55.0004 56.9535 54.9824 56.7453 54.9228 56.3666C54.7321 56.0646 54.6473 55.948 54.3459 55.7806C53.8368 55.6928 53.3319 55.7017 52.8166 55.706C52.5886 55.7042 52.3607 55.7023 52.1328 55.7004C51.8143 55.6984 51.4958 55.6991 51.1774 55.6997C50.6195 55.7005 50.0617 55.6978 49.5039 55.694C49.2071 55.6923 48.9104 55.6918 48.6136 55.6928C48.4792 55.6924 48.3448 55.692 48.2063 55.6915C48.0882 55.6917 47.97 55.6919 47.8482 55.6921C47.5302 55.6627 47.3427 55.6054 47.0766 55.4291C46.9146 55.0999 46.9325 54.8562 46.9612 54.4916C47.0677 54.2388 47.0677 54.2388 47.3074 54.0228C47.6707 53.9481 48.0316 53.9519 48.4013 53.9514C48.5619 53.9485 48.5619 53.9485 48.7258 53.9455C49.0679 53.9398 49.4099 53.9373 49.7521 53.9349C49.984 53.9316 50.2159 53.9281 50.4478 53.9244C51.0164 53.9157 51.5849 53.9099 52.1535 53.9056C52.1295 53.7776 52.1054 53.6495 52.0806 53.5176C52.0489 53.3476 52.0171 53.1775 51.9854 53.0075C51.9696 52.9233 51.9537 52.8392 51.9374 52.7525C51.5545 50.6946 51.7066 48.7998 52.1535 46.7572C49.4501 46.7572 46.7466 46.7572 43.9612 46.7572C43.9416 48.433 43.9416 48.433 43.9269 50.1088C43.9235 50.3191 43.9199 50.5294 43.9162 50.7397C43.916 50.8487 43.9159 50.9576 43.9158 51.0698C43.899 51.8372 43.899 51.8372 43.6339 52.2177C43.2579 52.4655 43.0186 52.4382 42.5766 52.3822C42.1474 52.2365 41.7429 52.0383 41.3338 51.8432C40.6229 51.5215 40.2007 51.5689 39.4757 51.8443C39.2364 51.9406 38.998 52.0387 38.7599 52.138C38.2897 52.3262 37.8973 52.4643 37.3843 52.3822C37.1381 52.218 37.1381 52.218 36.9228 51.9134C36.851 51.523 36.853 51.136 36.8525 50.7397C36.8506 50.6259 36.8486 50.5122 36.8467 50.3949C36.8411 50.032 36.8386 49.669 36.8362 49.306C36.833 49.0597 36.8295 48.8135 36.8259 48.5672C36.8173 47.9639 36.8116 47.3606 36.8074 46.7572C33.2551 46.7465 29.7028 46.7382 26.1505 46.7333C25.7308 46.7327 25.3111 46.7321 24.8915 46.7314C24.7661 46.7313 24.7661 46.7313 24.6383 46.7311C23.2867 46.729 21.9351 46.7253 20.5835 46.721C19.1959 46.7166 17.8083 46.714 16.4208 46.7131C15.6417 46.7125 14.8626 46.7111 14.0835 46.7076C13.3499 46.7044 12.6164 46.7035 11.8828 46.7042C11.6138 46.704 11.3449 46.7031 11.076 46.7013C10.708 46.699 10.3401 46.6995 9.97214 46.7008C9.8664 46.6995 9.76067 46.6981 9.65173 46.6967C8.77233 46.7049 8.04622 46.9572 7.29778 47.4237C6.50368 48.2526 6.07751 49.1838 5.95643 50.3314C6.07997 51.5024 6.49968 52.3415 7.34511 53.1517C8.28768 53.9098 9.42868 53.9569 10.5832 53.9492C10.7271 53.9496 10.8711 53.9501 11.0195 53.9506C11.4162 53.9515 11.8128 53.9508 12.2094 53.9495C12.6383 53.9484 13.0672 53.9494 13.4961 53.9502C14.2383 53.9513 14.9804 53.9511 15.7226 53.9502C16.796 53.9489 17.8694 53.9499 18.9428 53.9516C20.6851 53.9544 22.4273 53.956 24.1696 53.9565C24.3258 53.9565 24.3258 53.9565 24.4852 53.9566C25.6485 53.9569 26.8119 53.9569 27.9752 53.9568C28.3977 53.9568 28.8203 53.9567 29.2428 53.9567C29.3471 53.9567 29.4514 53.9567 29.5588 53.9567C31.2957 53.9566 33.0326 53.9583 34.7695 53.9615C35.8408 53.9633 36.912 53.9636 37.9833 53.9618C38.7163 53.9607 39.4494 53.9613 40.1824 53.9631C40.6057 53.9642 41.0289 53.9644 41.4522 53.9626C41.9103 53.9607 42.3684 53.9623 42.8265 53.9644C43.0285 53.9626 43.0285 53.9626 43.2346 53.9609C43.4179 53.9626 43.4179 53.9626 43.6048 53.9643C43.7106 53.9643 43.8164 53.9643 43.9254 53.9642C44.192 54.0228 44.192 54.0228 44.3995 54.2384C44.5852 54.5775 44.5782 54.8123 44.5382 55.1947C44.3074 55.5463 44.3074 55.5463 43.9612 55.6634C43.7667 55.6744 43.5717 55.6786 43.3768 55.6788C43.2553 55.6793 43.1337 55.6797 43.0085 55.6802C42.8075 55.6801 42.8075 55.6801 42.6024 55.6799C42.3894 55.6804 42.3894 55.6804 42.1721 55.681C41.7772 55.6818 41.3822 55.6821 40.9873 55.6822C40.5616 55.6824 40.1359 55.6833 39.7102 55.6841C38.7787 55.6857 37.8473 55.6864 36.9158 55.6869C36.3339 55.6872 35.752 55.6877 35.1701 55.6882C33.5585 55.6897 31.9469 55.6909 30.3353 55.6913C30.1805 55.6913 30.1805 55.6913 30.0226 55.6914C29.9191 55.6914 29.8157 55.6914 29.7091 55.6914C29.4995 55.6915 29.2899 55.6915 29.0803 55.6916C28.9764 55.6916 28.8724 55.6916 28.7653 55.6917C27.0827 55.6921 25.4 55.6942 23.7174 55.6969C21.9891 55.6997 20.2609 55.7011 18.5326 55.7013C17.5625 55.7014 16.5925 55.7021 15.6225 55.7042C14.7959 55.706 13.9694 55.7066 13.1429 55.7056C12.7216 55.7052 12.3003 55.7053 11.879 55.7069C11.421 55.7087 10.963 55.7077 10.505 55.7065C10.3736 55.7075 10.2422 55.7084 10.1068 55.7094C8.50725 55.6995 7.07012 55.3438 5.84781 54.2531C4.80805 53.149 4.29211 51.7987 4.23288 50.2875C4.2677 48.8771 4.77841 47.4116 5.76893 46.4056C6.81039 45.5598 7.84526 44.9853 9.19155 44.9841C9.26906 44.9839 9.34656 44.9837 9.42642 44.9834C9.6873 44.9828 9.94817 44.983 10.2091 44.9832C10.3975 44.9829 10.586 44.9826 10.7744 44.9822C11.2932 44.9813 11.812 44.9811 12.3309 44.981C12.89 44.9808 13.4492 44.9799 14.0083 44.9791C14.9775 44.9777 15.9468 44.9768 16.916 44.976C18.4473 44.9748 19.9786 44.9724 21.5099 44.9698C22.0336 44.9689 22.5573 44.9681 23.0809 44.9672C23.2118 44.967 23.3427 44.9668 23.4775 44.9665C24.9676 44.9641 26.4577 44.9619 27.9478 44.9598C28.084 44.9596 28.2202 44.9594 28.3606 44.9592C30.5695 44.9561 32.7784 44.9539 34.9873 44.952C37.2538 44.9499 39.5203 44.9466 41.7868 44.942C43.1856 44.9393 44.5844 44.9376 45.9832 44.9374C46.9413 44.9372 47.8994 44.9357 48.8574 44.9331C49.4107 44.9317 49.9638 44.9309 50.5171 44.9316C51.0232 44.9322 51.5293 44.9312 52.0354 44.9289C52.2188 44.9284 52.4022 44.9285 52.5856 44.9292C52.8343 44.93 53.083 44.9288 53.3318 44.927C53.4701 44.9268 53.6085 44.9266 53.751 44.9265C54.265 44.864 54.5617 44.6629 54.9228 44.2963C54.9902 43.9596 54.9902 43.9596 54.9228 43.5931C54.6278 43.2143 54.4544 43.029 53.9821 42.934C53.7748 42.9341 53.7748 42.9341 53.5633 42.9341C53.4857 42.9333 53.4082 42.9325 53.3282 42.9317C53.0677 42.9298 52.8073 42.9321 52.5468 42.9344C52.3583 42.9339 52.1698 42.9331 51.9814 42.9321C51.4631 42.9301 50.9448 42.9318 50.4265 42.934C49.8676 42.9358 49.3088 42.9343 48.7499 42.9331C47.6547 42.9314 46.5595 42.9329 45.4643 42.9354C44.1887 42.9382 42.9131 42.938 41.6375 42.9377C39.3607 42.9372 37.084 42.9397 34.8072 42.9437C32.5988 42.9476 30.3905 42.9492 28.1821 42.9485C25.7776 42.9477 23.3732 42.948 20.9688 42.9503C20.8415 42.9504 20.7142 42.9505 20.5831 42.9507C20.3275 42.9509 20.0719 42.9511 19.8164 42.9514C18.9277 42.9522 18.039 42.9523 17.1503 42.9521C16.0663 42.9519 14.9824 42.9531 13.8984 42.9559C13.3455 42.9572 12.7927 42.9581 12.2398 42.9574C11.7331 42.9568 11.2264 42.9578 10.7197 42.9601C10.537 42.9607 10.3543 42.9606 10.1716 42.96C7.54122 42.951 5.68233 43.7965 3.91241 45.7318ZM38.6535 46.7572C38.6535 47.8787 38.6535 49.0002 38.6535 50.1556C39.0343 50.0396 39.4151 49.9236 39.8074 49.8041C40.5107 49.6093 40.9579 49.7784 41.6125 50.049C41.8716 50.1697 41.8716 50.1697 42.1151 50.1556C42.1151 49.0341 42.1151 47.9127 42.1151 46.7572C40.9728 46.7572 39.8305 46.7572 38.6535 46.7572Z" fill="black"/>
<path d="M32.8266 1.58873C33.1153 1.69192 33.4041 1.79483 33.6931 1.89732C34.2719 2.10318 34.85 2.3112 35.4276 2.52091C36.12 2.7723 36.8136 3.01988 37.5083 3.26461C37.7046 3.33379 37.9008 3.40298 38.0971 3.47217C38.1926 3.50581 38.288 3.53945 38.3864 3.57411C38.7781 3.71248 39.1694 3.85188 39.5608 3.99124C41.1989 4.57429 42.8404 5.14708 44.4818 5.72007C46.5633 6.44671 48.6446 7.17374 50.7231 7.90885C50.9271 7.98097 51.131 8.05301 51.335 8.12497C51.8707 8.314 52.4059 8.50435 52.9401 8.69746C53.1119 8.7595 53.2837 8.82123 53.4557 8.88268C53.7114 8.97442 53.9665 9.06773 54.2215 9.16152C54.2974 9.18854 54.3734 9.21557 54.4517 9.24341C55.079 9.47758 55.3843 9.73649 55.7305 10.3119C55.8529 10.6874 55.8634 11.0422 55.8695 11.4363C55.8718 11.5676 55.8741 11.699 55.8765 11.8343C55.8794 12.046 55.8794 12.046 55.8824 12.262C55.8848 12.4069 55.8872 12.5519 55.8896 12.7013C55.8959 13.0859 55.9017 13.4704 55.9073 13.8549C55.9131 14.2477 55.9195 14.6405 55.9259 15.0333C55.9382 15.8032 55.95 16.5732 55.9612 17.3431C56.0393 17.3803 56.1175 17.4175 56.1979 17.4559C56.3525 17.5315 56.3525 17.5315 56.5102 17.6086C56.6121 17.6579 56.714 17.7072 56.819 17.758C57.5103 18.1574 58.0142 18.8546 58.3081 19.599C58.5434 20.5942 58.5401 21.7261 58.035 22.6289C57.819 23.0563 57.7797 23.3408 57.9141 23.8075C57.9697 23.9443 58.0254 24.081 58.0828 24.2219C58.1126 24.2964 58.1424 24.3708 58.1731 24.4475C58.2686 24.6849 58.366 24.9215 58.4636 25.1581C58.5271 25.3148 58.5904 25.4716 58.6536 25.6284C58.9909 26.4646 58.9909 26.4646 59.3383 27.2965C59.7101 28.1877 59.8915 29.1232 59.5436 30.0616C59.1089 30.8104 58.5567 31.1855 57.7556 31.4484C57.2581 31.5742 56.7709 31.573 56.2605 31.5695C56.1492 31.5698 56.0379 31.5702 55.9232 31.5705C55.6893 31.5708 55.4554 31.5701 55.2215 31.5686C54.866 31.5668 54.5107 31.5686 54.1552 31.5709C53.9267 31.5706 53.6982 31.5702 53.4697 31.5695C53.3122 31.5706 53.3122 31.5706 53.1516 31.5717C52.2893 31.5622 51.4291 31.4319 50.7689 30.8197C50.3844 33.1656 50.3916 35.087 50.9997 37.3822C51.2152 37.4053 51.2152 37.4053 51.4351 37.4289C52.1428 37.5048 52.6314 37.8296 53.1055 38.349C53.6708 39.069 53.8285 39.7556 53.7689 40.6634C53.7333 40.8204 53.6955 40.9769 53.6535 41.1322C53.8035 41.1225 53.9534 41.1129 54.1079 41.1029C54.8412 41.1076 55.4177 41.3165 55.9671 41.8161C56.6708 42.5885 56.8245 43.2583 56.8054 44.2995C56.7218 45.0973 56.3302 45.6613 55.7305 46.1713C55.2158 46.531 54.7205 46.7078 54.1151 46.8744C53.4125 49.3402 53.5022 51.4074 54.1151 53.9056C54.2507 53.9153 54.3864 53.925 54.5261 53.9349C55.3522 54.0444 55.8927 54.4556 56.3971 55.1045C56.8679 55.7965 56.8511 56.6097 56.7689 57.4213C56.5639 58.2 56.0253 58.7305 55.3843 59.1791C54.9147 59.412 54.5315 59.443 54.0114 59.4436C53.9324 59.444 53.8533 59.4444 53.7719 59.4448C53.5064 59.4459 53.241 59.4453 52.9756 59.4448C52.7836 59.4452 52.5915 59.4458 52.3995 59.4464C51.8714 59.4478 51.3432 59.4478 50.815 59.4475C50.2456 59.4475 49.6761 59.4488 49.1066 59.4499C47.9905 59.4518 46.8743 59.4525 45.7582 59.4526C44.8506 59.4527 43.943 59.4532 43.0354 59.4539C40.4616 59.456 37.8878 59.4571 35.314 59.4569C35.1058 59.4569 35.1058 59.4569 34.8934 59.4569C34.7544 59.4569 34.6155 59.4569 34.4723 59.4568C32.222 59.4567 29.9717 59.459 27.7215 59.4623C25.4104 59.4657 23.0992 59.4673 20.7881 59.4671C19.4909 59.467 18.1936 59.4676 16.8963 59.4702C15.7913 59.4723 14.6862 59.4728 13.5812 59.4712C13.0178 59.4705 12.4544 59.4704 11.891 59.4725C11.3742 59.4743 10.8575 59.474 10.3407 59.4719C10.1547 59.4716 9.96874 59.472 9.78277 59.4733C8.2423 59.4835 6.79541 59.2617 5.40836 58.5272C5.33248 58.4875 5.25661 58.4478 5.17843 58.4069C2.98892 57.2081 1.51407 55.1377 0.756915 52.7557C0.163348 50.2556 0.525416 47.6798 1.78095 45.4672C2.21303 44.7541 2.75393 44.1709 3.34586 43.5931C3.42142 43.5155 3.49697 43.4378 3.57482 43.3578C4.60012 42.3655 5.91911 41.7482 7.26893 41.3666C6.96388 41.0474 6.66137 40.7551 6.31701 40.4803C4.74222 39.1104 3.8528 36.9708 3.57663 34.9213C3.40968 32.1975 4.06203 29.6605 5.85547 27.5677C7.17641 26.1637 9.03922 25.0023 10.9612 24.7259C11.1897 24.7259 11.4182 24.7259 11.6535 24.7259C11.6535 21.8642 11.6535 19.0025 11.6535 16.0541C11.2347 15.9381 10.8159 15.822 10.3843 15.7025C10.1255 15.6194 9.86738 15.5337 9.6106 15.4441C9.47313 15.3964 9.33566 15.3487 9.19403 15.2995C9.04842 15.2485 8.90281 15.1974 8.75722 15.1463C8.60372 15.0927 8.45022 15.0392 8.29671 14.9857C7.9772 14.8742 7.65779 14.7623 7.33846 14.6503C6.93201 14.5077 6.52529 14.366 6.11849 14.2244C5.80219 14.1143 5.48604 14.0037 5.16993 13.893C5.02012 13.8405 4.87026 13.7883 4.72035 13.7361C2.10023 12.8242 2.10023 12.8242 1.60247 11.9662C1.3742 11.4151 1.441 10.8357 1.62951 10.2826C2.10888 9.56852 2.68559 9.27253 3.468 9.01091C3.55987 8.97879 3.65174 8.94666 3.74639 8.91356C4.05232 8.80695 4.35893 8.7025 4.66557 8.59801C4.88379 8.52238 5.10195 8.44659 5.32007 8.37065C5.79249 8.20637 6.26518 8.04291 6.73804 7.87995C7.80966 7.51011 8.87882 7.13307 9.94827 6.75683C10.4964 6.56402 11.0446 6.3718 11.5931 6.18016C12.7189 5.78673 13.8442 5.39299 14.9645 4.98397C15.1225 4.92676 15.2805 4.86958 15.4385 4.81245C15.711 4.71354 15.9829 4.61325 16.2542 4.51118C16.8914 4.28106 17.3401 4.14236 17.9997 4.33532C18.3251 4.61246 18.3434 4.78392 18.3963 5.21422C18.3353 5.71046 18.2648 5.78797 17.8843 6.09313C17.5659 6.24364 17.237 6.35219 16.9031 6.46163C16.8046 6.49519 16.7061 6.52875 16.6046 6.56333C16.3911 6.63589 16.1774 6.70782 15.9636 6.77918C15.5051 6.93219 15.0476 7.0882 14.5901 7.24402C14.3519 7.32508 14.1138 7.40598 13.8755 7.48673C12.7703 7.86172 11.6699 8.25003 10.5704 8.64185C10.0601 8.82365 9.54949 9.00469 9.03892 9.18578C8.89046 9.23844 8.89046 9.23844 8.73902 9.29217C7.76188 9.63873 6.78455 9.98471 5.80618 10.3277C5.62912 10.3898 5.45212 10.4522 5.27519 10.5147C5.03369 10.6 4.79198 10.6847 4.55018 10.7692C4.41439 10.8169 4.27859 10.8646 4.13868 10.9138C3.8074 11.015 3.8074 11.015 3.46124 11.015C3.46124 11.0923 3.46124 11.1697 3.46124 11.2494C3.6097 11.2802 3.75816 11.3111 3.91112 11.3429C4.49342 11.4747 5.04762 11.6601 5.60938 11.8623C5.76457 11.9174 5.76457 11.9174 5.92289 11.9737C6.14116 12.0513 6.35933 12.1292 6.57741 12.2074C6.90327 12.3242 7.2294 12.4402 7.55559 12.5561C8.92669 13.0441 10.2918 13.5475 11.6535 14.0619C11.6595 13.9902 11.6655 13.9186 11.6717 13.8448C11.6806 13.7504 11.6895 13.656 11.6986 13.5588C11.707 13.4654 11.7154 13.372 11.724 13.2758C11.8352 12.6111 12.2901 12.2083 12.8074 11.8353C13.8866 11.4534 15.0811 11.3498 16.2112 11.1908C16.2991 11.1783 16.387 11.1658 16.4775 11.1529C24.988 9.94522 33.5471 10.041 42.043 11.3153C42.1227 11.327 42.2024 11.3387 42.2846 11.3508C44.5651 11.6891 44.5651 11.6891 45.2305 12.4213C45.5065 12.9719 45.692 13.44 45.692 14.0619C45.816 14.0147 45.9401 13.9676 46.0679 13.919C47.6481 13.3214 49.2397 12.7595 50.8338 12.2015C51.2201 12.0663 51.6063 11.9309 51.9924 11.7954C52.2303 11.7119 52.4682 11.6285 52.7062 11.5454C52.8123 11.5081 52.9184 11.4709 53.0277 11.4325C53.1211 11.3999 53.2144 11.3672 53.3105 11.3336C53.5424 11.2528 53.5424 11.2528 53.7689 11.1322C53.7071 11.1104 53.6452 11.0887 53.5815 11.0663C53.493 11.0352 53.4045 11.0041 53.3134 10.972C53.2124 10.9365 53.1114 10.901 53.0073 10.8644C52.7761 10.7831 52.5448 10.7018 52.3136 10.6205C51.65 10.3873 50.9864 10.154 50.3229 9.92069C48.9678 9.44431 47.6127 8.96789 46.2577 8.49135C44.2359 7.78037 42.2141 7.06949 40.1919 6.36C40.0603 6.31384 39.9287 6.26767 39.7931 6.2201C39.1314 5.98795 38.4697 5.75594 37.8078 5.52421C36.5866 5.09647 35.366 4.66739 34.147 4.23327C33.5923 4.03576 33.0373 3.8389 32.4824 3.64206C32.2193 3.5485 31.9562 3.45461 31.6933 3.36037C31.3299 3.23011 30.9662 3.10099 30.6023 2.9721C30.496 2.93364 30.3897 2.89517 30.2802 2.85555C29.3362 2.5234 28.5908 2.36464 27.6131 2.6924C27.4881 2.73202 27.4881 2.73202 27.3605 2.77243C26.1612 3.15799 24.9753 3.58911 23.7905 4.01811C23.4819 4.12958 23.1727 4.23921 22.8634 4.34859C22.7709 4.38264 22.6783 4.41669 22.5829 4.45177C21.9919 4.65893 21.5102 4.7362 20.8843 4.68688C20.5959 4.50377 20.5959 4.50377 20.4228 4.21813C20.3615 3.78217 20.3315 3.52246 20.5958 3.16155C20.9886 2.845 21.3938 2.70946 21.866 2.54912C21.9629 2.51504 22.0597 2.48095 22.1595 2.44584C22.4696 2.33707 22.7803 2.23023 23.091 2.1234C23.2938 2.05257 23.4964 1.98162 23.6991 1.91054C24.1026 1.76915 24.5068 1.63027 24.9116 1.49272C25.2902 1.36335 25.664 1.22618 26.0364 1.07959C28.5098 0.125103 30.4017 0.697494 32.8266 1.58873ZM15.4468 13.1976C15.3672 13.2098 15.2876 13.222 15.2055 13.2346C14.9826 13.2691 14.7599 13.3052 14.5373 13.3414C14.4116 13.3617 14.2859 13.382 14.1563 13.403C13.8225 13.4619 13.8225 13.4619 13.4997 13.7103C13.4492 13.9797 13.4492 13.9797 13.4604 14.2963C13.4604 14.4183 13.4605 14.5403 13.4605 14.666C13.4623 14.798 13.4641 14.9301 13.4659 15.0662C13.4664 15.2011 13.4669 15.3361 13.4674 15.4751C13.4693 15.9074 13.4737 16.3396 13.4781 16.7718C13.4798 17.0644 13.4814 17.3569 13.4828 17.6494C13.4866 18.3676 13.4924 19.0858 13.4997 19.8041C13.6087 19.8045 13.7177 19.8048 13.83 19.8052C16.4801 19.8147 19.1302 19.8255 21.7802 19.8378C23.0618 19.8436 24.3433 19.8491 25.6249 19.8535C26.7417 19.8574 27.8585 19.862 28.9753 19.8677C29.5668 19.8706 30.1583 19.8732 30.7498 19.8748C31.3063 19.8763 31.8628 19.8789 32.4193 19.8823C32.6238 19.8833 32.8282 19.884 33.0327 19.8842C33.3115 19.8846 33.5902 19.8864 33.869 19.8886C33.9502 19.8884 34.0315 19.8882 34.1152 19.8879C34.5288 19.8928 34.8467 19.9123 35.192 20.1556C35.3541 20.4848 35.3361 20.7285 35.3074 21.0931C35.186 21.3466 35.186 21.3466 34.9612 21.5619C34.66 21.6093 34.4065 21.626 34.1049 21.6227C34.0169 21.6236 33.929 21.6245 33.8384 21.6254C33.5428 21.6277 33.2474 21.6268 32.9518 21.6259C32.7403 21.6269 32.5289 21.6281 32.3174 21.6295C31.7424 21.6328 31.1674 21.6332 30.5924 21.6331C29.9918 21.6334 29.3913 21.6364 28.7907 21.6392C27.653 21.6439 26.5154 21.6463 25.3777 21.6478C24.0827 21.6497 22.7877 21.6542 21.4926 21.6589C18.8283 21.6686 16.164 21.6748 13.4997 21.6791C13.4997 22.6459 13.4997 23.6127 13.4997 24.6088C23.5139 24.6088 33.5282 24.6088 43.8459 24.6088C43.8459 23.642 43.8459 22.6752 43.8459 21.6791C43.4334 21.676 43.021 21.673 42.596 21.6699C42.1973 21.6654 41.7987 21.6601 41.4 21.6547C41.1225 21.6514 40.8451 21.649 40.5676 21.6473C40.1692 21.6448 39.7709 21.6393 39.3724 21.6333C39.248 21.6331 39.1236 21.633 38.9955 21.6329C38.88 21.6305 38.7645 21.6282 38.6455 21.6259C38.5438 21.6248 38.4421 21.6238 38.3373 21.6227C38.0766 21.5619 38.0766 21.5619 37.8707 21.3459C37.6812 21.0043 37.682 20.776 37.7305 20.39C37.9087 20.1513 38.0445 20.0548 38.3074 19.9213C38.4852 19.9074 38.6637 19.9005 38.842 19.8972C38.9529 19.8949 39.0637 19.8925 39.178 19.8901C39.3579 19.8872 39.3579 19.8872 39.5415 19.8842C39.6641 19.8817 39.7867 19.8793 39.913 19.8768C40.3057 19.8691 40.6984 19.8622 41.091 19.8553C41.3568 19.8503 41.6226 19.8452 41.8884 19.84C42.5409 19.8274 43.1933 19.8155 43.8459 19.8041C43.8546 18.9594 43.8607 18.1147 43.8649 17.2699C43.8666 16.9824 43.869 16.695 43.872 16.4075C43.8762 15.9947 43.8781 15.582 43.8797 15.1692C43.8814 15.0403 43.8832 14.9114 43.8851 14.7786C43.8851 14.6589 43.8851 14.5393 43.8852 14.416C43.8859 14.3107 43.8867 14.2053 43.8875 14.0967C43.8659 13.8218 43.8659 13.8218 43.6959 13.6211C43.3644 13.3758 42.9708 13.356 42.5739 13.3002C42.4811 13.286 42.3882 13.2718 42.2926 13.2572C41.9884 13.2113 41.684 13.1677 41.3795 13.1244C41.1679 13.0934 40.9564 13.0624 40.7448 13.0313C39.0134 12.7802 37.2817 12.5656 35.5382 12.4213C35.3968 12.4092 35.2554 12.3971 35.1098 12.3847C28.5507 11.8477 21.9447 12.1858 15.4468 13.1976ZM53.3925 13.2924C53.2875 13.3292 53.1825 13.3661 53.0743 13.4041C52.9592 13.4447 52.8441 13.4853 52.7255 13.5272C52.6062 13.5692 52.4869 13.6112 52.364 13.6545C52.1091 13.7442 51.8543 13.8341 51.5995 13.924C51.219 14.0583 50.8383 14.1922 50.4577 14.326C50.2088 14.4137 49.96 14.5015 49.7111 14.5892C49.6009 14.628 49.4907 14.6667 49.3771 14.7066C48.1438 15.1426 46.9198 15.6006 45.692 16.0541C45.692 18.8771 45.692 21.7002 45.692 24.6088C47.6339 24.6088 49.5759 24.6088 51.5766 24.6088C52.2411 23.5767 52.2411 23.5767 52.0382 22.9681C51.9644 22.7909 51.8874 22.6152 51.8074 22.4408C51.3763 21.5008 51.323 20.6076 51.6415 19.6136C52.1316 18.3883 52.819 17.9972 53.9997 17.3431C53.9997 15.9509 53.9997 14.5588 53.9997 13.1244C53.7882 13.1244 53.5904 13.2227 53.3925 13.2924ZM53.4205 19.9441C53.2041 20.3488 53.1654 20.7554 53.192 21.2103C53.3763 21.7827 53.7061 22.21 54.2305 22.4994C54.7461 22.6523 55.1417 22.6605 55.6511 22.4847C56.0526 22.2003 56.3194 21.8891 56.5382 21.4447C56.6001 20.8709 56.5986 20.4055 56.3579 19.8773C55.9371 19.4171 55.545 19.141 54.9156 19.0497C54.2766 19.1463 53.8179 19.419 53.4205 19.9441ZM55.7513 24.3151C55.354 24.4087 54.9533 24.3864 54.5478 24.3817C54.4618 24.3812 54.3758 24.3806 54.2873 24.3801C54.076 24.3787 53.8648 24.3766 53.6535 24.3744C53.403 24.9804 53.1545 25.5871 52.9077 26.1947C52.8235 26.4012 52.7388 26.6075 52.6535 26.8136C52.531 27.11 52.4104 27.4072 52.2901 27.7046C52.2517 27.7964 52.2132 27.8882 52.1736 27.9828C52.0239 28.3575 51.9215 28.6368 51.9287 29.0442C52.0769 29.3855 52.1646 29.4845 52.4997 29.6478C52.8629 29.6986 53.2224 29.6971 53.5886 29.6945C53.7474 29.695 53.7474 29.695 53.9093 29.6955C54.1328 29.6958 54.3562 29.6951 54.5797 29.6937C54.9216 29.6918 55.2633 29.6936 55.6052 29.6959C55.8224 29.6957 56.0397 29.6952 56.2569 29.6945C56.3591 29.6952 56.4613 29.6959 56.5665 29.6967C56.9608 29.6921 57.2797 29.6722 57.6519 29.535C57.8783 29.1874 57.8202 28.9268 57.7564 28.5245C57.6562 28.0844 57.5034 27.681 57.3274 27.267C57.2917 27.18 57.256 27.0931 57.2192 27.0035C57.1064 26.7296 56.9918 26.4565 56.8771 26.1835C56.7997 25.9964 56.7224 25.8092 56.6452 25.622C56.4571 25.1665 56.2673 24.7116 56.0766 24.2572C55.9435 24.2521 55.9435 24.2521 55.7513 24.3151ZM17.5382 30.2338C17.5382 31.3552 17.5382 32.4767 17.5382 33.6322C18.2459 33.4373 18.2459 33.4373 18.9228 33.1634C19.136 33.1653 19.136 33.1653 19.3915 33.1927C19.5149 33.2045 19.5149 33.2045 19.6408 33.2165C20.1049 33.3094 20.5509 33.4803 20.9997 33.6322C20.9997 32.5107 20.9997 31.3892 20.9997 30.2338C19.8574 30.2338 18.7151 30.2338 17.5382 30.2338ZM7.0945 29.0454C5.80899 30.7114 5.23686 32.5673 5.42278 34.6869C5.71731 36.6674 6.63862 38.4219 8.22807 39.6454C9.91904 40.8094 11.5384 41.1873 13.5684 41.1776C13.7317 41.1781 13.895 41.1788 14.0583 41.1795C14.5021 41.1812 14.9459 41.1807 15.3898 41.1799C15.8703 41.1793 16.3508 41.1808 16.8312 41.182C17.7703 41.184 18.7094 41.1841 19.6484 41.1835C20.4115 41.183 21.1745 41.1832 21.9375 41.1838C22.0463 41.1839 22.1551 41.184 22.2672 41.1841C22.4883 41.1842 22.7094 41.1844 22.9305 41.1846C24.9998 41.1862 27.069 41.1856 29.1383 41.1842C31.0319 41.1831 32.9255 41.1846 34.8191 41.1874C36.7649 41.1902 38.7107 41.1914 40.6565 41.1906C41.7484 41.1902 42.8402 41.1904 43.9321 41.1925C44.8606 41.1942 45.7892 41.1943 46.7177 41.1923C47.1915 41.1913 47.6652 41.191 48.139 41.1928C48.5725 41.1944 49.0059 41.1939 49.4394 41.1916C49.6708 41.1909 49.9023 41.1926 50.1337 41.1943C50.3395 41.1926 50.3395 41.1926 50.5495 41.1909C50.7272 41.1908 50.7272 41.1908 50.9084 41.1908C51.3188 41.1161 51.5121 40.9572 51.8074 40.6634C51.9512 40.3239 51.9512 40.3239 51.9228 39.9603C51.7185 39.6384 51.5694 39.4293 51.2305 39.2572C51.077 39.2462 50.923 39.2424 50.7691 39.2422C50.6235 39.2417 50.6235 39.2417 50.475 39.2412C50.3678 39.2414 50.2606 39.2416 50.1501 39.2418C49.98 39.2414 49.98 39.2414 49.8064 39.2411C49.4239 39.2403 49.0414 39.2405 48.6589 39.2406C48.3857 39.2402 48.1124 39.2398 47.8392 39.2393C47.2496 39.2384 46.6599 39.2378 46.0703 39.2374C45.1386 39.2368 44.2069 39.2348 43.2752 39.2326C42.9566 39.2318 42.6379 39.2311 42.3193 39.2304C42.2397 39.2302 42.1601 39.23 42.078 39.2298C41.1712 39.2277 40.2645 39.2258 39.3577 39.224C39.2748 39.2239 39.1919 39.2237 39.1064 39.2235C37.7626 39.221 36.4188 39.2197 35.0749 39.2188C33.6959 39.2179 32.317 39.2152 30.938 39.2109C30.1635 39.2085 29.3889 39.207 28.6144 39.2077C27.8861 39.2082 27.1578 39.2066 26.4295 39.2033C26.1618 39.2025 25.8941 39.2025 25.6263 39.2034C25.2616 39.2044 24.8971 39.2026 24.5324 39.2C24.4257 39.201 24.319 39.202 24.2091 39.203C23.4965 39.1938 23.4965 39.1938 23.1263 38.9238C22.8998 38.5772 22.8943 38.3761 22.9612 37.9681C23.1314 37.7156 23.1314 37.7156 23.4228 37.4994C23.7791 37.453 24.0944 37.4353 24.4507 37.4386C24.6082 37.4372 24.6082 37.4372 24.7689 37.4359C25.1215 37.4335 25.474 37.4345 25.8266 37.4354C26.079 37.4344 26.3315 37.4332 26.5839 37.4317C27.27 37.4285 27.956 37.4281 28.6421 37.4282C29.3588 37.4278 30.0755 37.4248 30.7921 37.4221C31.9953 37.4179 33.1985 37.4153 34.4017 37.4139C35.6409 37.4126 36.8802 37.4102 38.1194 37.4065C38.1958 37.4063 38.2722 37.4061 38.3509 37.4058C38.7342 37.4047 39.1174 37.4035 39.5006 37.4023C42.6798 37.3927 45.859 37.3863 49.0382 37.3822C49.0141 37.2624 48.99 37.1427 48.9652 37.0193C48.9335 36.8601 48.9018 36.7009 48.87 36.5417C48.8542 36.4631 48.8384 36.3844 48.822 36.3033C48.408 34.2195 48.6295 32.3088 49.0382 30.2338C40.3947 30.2338 31.7512 30.2338 22.8459 30.2338C22.8078 31.9353 22.7697 33.6369 22.7305 35.39C22.2689 35.8588 22.2689 35.8588 21.829 35.8734C21.226 35.7798 20.6742 35.53 20.1234 35.2724C19.4479 34.9702 19.0239 35.0675 18.3603 35.3209C18.121 35.4171 17.8826 35.5152 17.6445 35.6145C17.1743 35.8027 16.7819 35.9409 16.2689 35.8588C16.0227 35.6946 16.0227 35.6946 15.8074 35.39C15.7356 34.9996 15.7376 34.6126 15.7371 34.2163C15.7352 34.1025 15.7333 33.9887 15.7313 33.8715C15.7257 33.5085 15.7232 33.1456 15.7209 32.7826C15.7176 32.5363 15.7142 32.29 15.7105 32.0438C15.702 31.4404 15.6962 30.8371 15.692 30.2338C15.1709 30.2221 14.6498 30.2136 14.1286 30.208C13.9518 30.2057 13.775 30.2025 13.5982 30.1984C12.2845 30.1688 11.119 30.2354 10.1076 31.1896C9.30831 32.1241 9.07104 32.9595 9.08309 34.1724C9.15974 35.1241 9.57163 35.9252 10.2689 36.5619C11.0325 37.145 11.7435 37.4111 12.7076 37.4121C12.7869 37.4125 12.8661 37.413 12.9478 37.4134C13.1187 37.4142 13.2897 37.4145 13.4606 37.4143C13.7312 37.4142 14.0019 37.4158 14.2725 37.4177C15.0416 37.4231 15.8106 37.426 16.5797 37.4268C17.0511 37.4274 17.5225 37.4302 17.9938 37.4345C18.1732 37.4356 18.3525 37.4359 18.5318 37.4353C18.7823 37.4344 19.0327 37.4365 19.2832 37.4391C19.4968 37.4396 19.4968 37.4396 19.7148 37.4401C20.1443 37.5105 20.2814 37.6172 20.5382 37.9681C20.5959 38.3197 20.5959 38.3197 20.5382 38.6713C20.2817 39.0215 20.1445 39.1288 19.7158 39.1995C19.5028 39.2001 19.5028 39.2001 19.2854 39.2007C19.2067 39.2015 19.128 39.2023 19.047 39.2031C18.7869 39.2052 18.527 39.2038 18.267 39.2023C18.085 39.2026 17.903 39.203 17.721 39.2036C17.3389 39.2043 16.9569 39.2033 16.5748 39.2011C16.0891 39.1985 15.6035 39.2 15.1178 39.2028C14.7413 39.2045 14.3648 39.2039 13.9883 39.2027C13.8095 39.2024 13.6308 39.2028 13.452 39.2039C11.6704 39.2125 10.1408 38.8647 8.76578 37.6431C7.60875 36.4243 7.33578 34.9302 7.35953 33.3086C7.40504 32.0056 8.00684 30.8237 8.86854 29.8726C10.1778 28.679 11.6814 28.4226 13.3803 28.4292C13.5398 28.4286 13.6994 28.4278 13.859 28.4269C14.2942 28.4248 14.7294 28.4248 15.1646 28.4252C15.6352 28.4253 16.1058 28.4234 16.5763 28.4217C17.3905 28.419 18.2047 28.4176 19.0189 28.4171C20.1961 28.4163 21.3733 28.4136 22.5504 28.4105C24.4606 28.4054 26.3707 28.4019 28.2808 28.3994C30.1357 28.3969 31.9907 28.3937 33.8456 28.3895C33.9601 28.3893 34.0745 28.389 34.1924 28.3887C34.7665 28.3874 35.3406 28.3861 35.9148 28.3848C40.6738 28.3739 45.4329 28.3655 50.192 28.3588C50.4205 27.74 50.6489 27.1213 50.8843 26.4838C45.9474 26.4731 41.0104 26.4648 36.0735 26.4598C35.49 26.4592 34.9066 26.4586 34.3231 26.458C34.207 26.4579 34.0908 26.4578 33.9712 26.4576C32.0929 26.4556 30.2146 26.4519 28.3363 26.4476C26.4077 26.4432 24.479 26.4406 22.5503 26.4396C21.3611 26.439 20.172 26.437 18.9828 26.4332C18.1663 26.4307 17.3498 26.4299 16.5332 26.4305C16.0628 26.4308 15.5924 26.4304 15.122 26.4279C12.0736 26.4123 9.26286 26.5383 7.0945 29.0454ZM3.91241 45.7318C2.50398 47.4346 2.26134 49.4256 2.42278 51.5619C2.50266 52.0984 2.67266 52.588 2.88432 53.0853C2.92344 53.1852 2.96255 53.285 3.00286 53.3879C3.77268 55.1547 5.29531 56.4696 7.03816 57.1869C8.39757 57.6549 9.74229 57.6729 11.1621 57.6713C11.3468 57.6715 11.5314 57.6718 11.7161 57.6721C12.2218 57.6728 12.7274 57.6728 13.2331 57.6727C13.7791 57.6726 14.3251 57.6733 14.8711 57.6738C15.9399 57.6748 17.0087 57.6751 18.0775 57.6752C18.9459 57.6753 19.8144 57.6755 20.6828 57.6759C23.1448 57.6769 25.6068 57.6774 28.0687 57.6774C28.2014 57.6774 28.334 57.6773 28.4707 57.6773C28.6035 57.6773 28.7363 57.6773 28.8731 57.6773C31.0279 57.6773 33.1826 57.6784 35.3374 57.6801C37.5497 57.6817 39.762 57.6825 41.9743 57.6824C43.2164 57.6824 44.4586 57.6827 45.7007 57.684C46.7577 57.6851 47.8146 57.6853 48.8715 57.6845C49.4109 57.6841 49.9504 57.6841 50.4898 57.6851C50.9833 57.6861 51.4768 57.6859 51.9702 57.6849C52.149 57.6847 52.3278 57.6849 52.5066 57.6856C52.7492 57.6864 52.9917 57.6858 53.2342 57.6848C53.4365 57.6848 53.4365 57.6848 53.6429 57.6849C54.0888 57.6483 54.4185 57.532 54.7858 57.2748C55.0004 56.9535 54.9824 56.7453 54.9228 56.3666C54.7321 56.0646 54.6473 55.948 54.3459 55.7806C53.8368 55.6928 53.3319 55.7017 52.8166 55.706C52.5886 55.7042 52.3607 55.7023 52.1328 55.7004C51.8143 55.6984 51.4958 55.6991 51.1774 55.6997C50.6195 55.7005 50.0617 55.6978 49.5039 55.694C49.2071 55.6923 48.9104 55.6918 48.6136 55.6928C48.4792 55.6924 48.3448 55.692 48.2063 55.6915C48.0882 55.6917 47.97 55.6919 47.8482 55.6921C47.5302 55.6627 47.3427 55.6054 47.0766 55.4291C46.9146 55.0999 46.9325 54.8562 46.9612 54.4916C47.0677 54.2388 47.0677 54.2388 47.3074 54.0228C47.6707 53.9481 48.0316 53.9519 48.4013 53.9514C48.5619 53.9485 48.5619 53.9485 48.7258 53.9455C49.0679 53.9398 49.4099 53.9373 49.7521 53.9349C49.984 53.9316 50.2159 53.9281 50.4478 53.9244C51.0164 53.9157 51.5849 53.9099 52.1535 53.9056C52.1295 53.7776 52.1054 53.6495 52.0806 53.5176C52.0489 53.3476 52.0171 53.1775 51.9854 53.0075C51.9696 52.9233 51.9537 52.8392 51.9374 52.7525C51.5545 50.6946 51.7066 48.7998 52.1535 46.7572C49.4501 46.7572 46.7466 46.7572 43.9612 46.7572C43.9416 48.433 43.9416 48.433 43.9269 50.1088C43.9235 50.3191 43.9199 50.5294 43.9162 50.7397C43.916 50.8487 43.9159 50.9576 43.9158 51.0698C43.899 51.8372 43.899 51.8372 43.6339 52.2177C43.2579 52.4655 43.0186 52.4382 42.5766 52.3822C42.1474 52.2365 41.7429 52.0383 41.3338 51.8432C40.6229 51.5215 40.2007 51.5689 39.4757 51.8443C39.2364 51.9406 38.998 52.0387 38.7599 52.138C38.2897 52.3262 37.8973 52.4643 37.3843 52.3822C37.1381 52.218 37.1381 52.218 36.9228 51.9134C36.851 51.523 36.853 51.136 36.8525 50.7397C36.8506 50.6259 36.8486 50.5122 36.8467 50.3949C36.8411 50.032 36.8386 49.669 36.8362 49.306C36.833 49.0597 36.8295 48.8135 36.8259 48.5672C36.8173 47.9639 36.8116 47.3606 36.8074 46.7572C33.2551 46.7465 29.7028 46.7382 26.1505 46.7333C25.7308 46.7327 25.3111 46.7321 24.8915 46.7314C24.7661 46.7313 24.7661 46.7313 24.6383 46.7311C23.2867 46.729 21.9351 46.7253 20.5835 46.721C19.1959 46.7166 17.8083 46.714 16.4208 46.7131C15.6417 46.7125 14.8626 46.7111 14.0835 46.7076C13.3499 46.7044 12.6164 46.7035 11.8828 46.7042C11.6138 46.704 11.3449 46.7031 11.076 46.7013C10.708 46.699 10.3401 46.6995 9.97214 46.7008C9.8664 46.6995 9.76067 46.6981 9.65173 46.6967C8.77233 46.7049 8.04622 46.9572 7.29778 47.4237C6.50368 48.2526 6.07751 49.1838 5.95643 50.3314C6.07997 51.5024 6.49968 52.3415 7.34511 53.1517C8.28768 53.9098 9.42868 53.9569 10.5832 53.9492C10.7271 53.9496 10.8711 53.9501 11.0195 53.9506C11.4162 53.9515 11.8128 53.9508 12.2094 53.9495C12.6383 53.9484 13.0672 53.9494 13.4961 53.9502C14.2383 53.9513 14.9804 53.9511 15.7226 53.9502C16.796 53.9489 17.8694 53.9499 18.9428 53.9516C20.6851 53.9544 22.4273 53.956 24.1696 53.9565C24.3258 53.9565 24.3258 53.9565 24.4852 53.9566C25.6485 53.9569 26.8119 53.9569 27.9752 53.9568C28.3977 53.9568 28.8203 53.9567 29.2428 53.9567C29.3471 53.9567 29.4514 53.9567 29.5588 53.9567C31.2957 53.9566 33.0326 53.9583 34.7695 53.9615C35.8408 53.9633 36.912 53.9636 37.9833 53.9618C38.7163 53.9607 39.4494 53.9613 40.1824 53.9631C40.6057 53.9642 41.0289 53.9644 41.4522 53.9626C41.9103 53.9607 42.3684 53.9623 42.8265 53.9644C43.0285 53.9626 43.0285 53.9626 43.2346 53.9609C43.4179 53.9626 43.4179 53.9626 43.6048 53.9643C43.7106 53.9643 43.8164 53.9643 43.9254 53.9642C44.192 54.0228 44.192 54.0228 44.3995 54.2384C44.5852 54.5775 44.5782 54.8123 44.5382 55.1947C44.3074 55.5463 44.3074 55.5463 43.9612 55.6634C43.7667 55.6744 43.5717 55.6786 43.3768 55.6788C43.2553 55.6793 43.1337 55.6797 43.0085 55.6802C42.8075 55.6801 42.8075 55.6801 42.6024 55.6799C42.3894 55.6804 42.3894 55.6804 42.1721 55.681C41.7772 55.6818 41.3822 55.6821 40.9873 55.6822C40.5616 55.6824 40.1359 55.6833 39.7102 55.6841C38.7787 55.6857 37.8473 55.6864 36.9158 55.6869C36.3339 55.6872 35.752 55.6877 35.1701 55.6882C33.5585 55.6897 31.9469 55.6909 30.3353 55.6913C30.1805 55.6913 30.1805 55.6913 30.0226 55.6914C29.9191 55.6914 29.8157 55.6914 29.7091 55.6914C29.4995 55.6915 29.2899 55.6915 29.0803 55.6916C28.9764 55.6916 28.8724 55.6916 28.7653 55.6917C27.0827 55.6921 25.4 55.6942 23.7174 55.6969C21.9891 55.6997 20.2609 55.7011 18.5326 55.7013C17.5625 55.7014 16.5925 55.7021 15.6225 55.7042C14.7959 55.706 13.9694 55.7066 13.1429 55.7056C12.7216 55.7052 12.3003 55.7053 11.879 55.7069C11.421 55.7087 10.963 55.7077 10.505 55.7065C10.3736 55.7075 10.2422 55.7084 10.1068 55.7094C8.50725 55.6995 7.07012 55.3438 5.84781 54.2531C4.80805 53.149 4.29211 51.7987 4.23288 50.2875C4.2677 48.8771 4.77841 47.4116 5.76893 46.4056C6.81039 45.5598 7.84526 44.9853 9.19155 44.9841C9.26906 44.9839 9.34656 44.9837 9.42642 44.9834C9.6873 44.9828 9.94817 44.983 10.2091 44.9832C10.3975 44.9829 10.586 44.9826 10.7744 44.9822C11.2932 44.9813 11.812 44.9811 12.3309 44.981C12.89 44.9808 13.4492 44.9799 14.0083 44.9791C14.9775 44.9777 15.9468 44.9768 16.916 44.976C18.4473 44.9748 19.9786 44.9724 21.5099 44.9698C22.0336 44.9689 22.5573 44.9681 23.0809 44.9672C23.2118 44.967 23.3427 44.9668 23.4775 44.9665C24.9676 44.9641 26.4577 44.9619 27.9478 44.9598C28.084 44.9596 28.2202 44.9594 28.3606 44.9592C30.5695 44.9561 32.7784 44.9539 34.9873 44.952C37.2538 44.9499 39.5203 44.9466 41.7868 44.942C43.1856 44.9393 44.5844 44.9376 45.9832 44.9374C46.9413 44.9372 47.8994 44.9357 48.8574 44.9331C49.4107 44.9317 49.9638 44.9309 50.5171 44.9316C51.0232 44.9322 51.5293 44.9312 52.0354 44.9289C52.2188 44.9284 52.4022 44.9285 52.5856 44.9292C52.8343 44.93 53.083 44.9288 53.3318 44.927C53.4701 44.9268 53.6085 44.9266 53.751 44.9265C54.265 44.864 54.5617 44.6629 54.9228 44.2963C54.9902 43.9596 54.9902 43.9596 54.9228 43.5931C54.6278 43.2143 54.4544 43.029 53.9821 42.934C53.7748 42.9341 53.7748 42.9341 53.5633 42.9341C53.4857 42.9333 53.4082 42.9325 53.3282 42.9317C53.0677 42.9298 52.8073 42.9321 52.5468 42.9344C52.3583 42.9339 52.1698 42.9331 51.9814 42.9321C51.4631 42.9301 50.9448 42.9318 50.4265 42.934C49.8676 42.9358 49.3088 42.9343 48.7499 42.9331C47.6547 42.9314 46.5595 42.9329 45.4643 42.9354C44.1887 42.9382 42.9131 42.938 41.6375 42.9377C39.3607 42.9372 37.084 42.9397 34.8072 42.9437C32.5988 42.9476 30.3905 42.9492 28.1821 42.9485C25.7776 42.9477 23.3732 42.948 20.9688 42.9503C20.8415 42.9504 20.7142 42.9505 20.5831 42.9507C20.3275 42.9509 20.0719 42.9511 19.8164 42.9514C18.9277 42.9522 18.039 42.9523 17.1503 42.9521C16.0663 42.9519 14.9824 42.9531 13.8984 42.9559C13.3455 42.9572 12.7927 42.9581 12.2398 42.9574C11.7331 42.9568 11.2264 42.9578 10.7197 42.9601C10.537 42.9607 10.3543 42.9606 10.1716 42.96C7.54122 42.951 5.68233 43.7965 3.91241 45.7318ZM38.6535 46.7572C38.6535 47.8787 38.6535 49.0002 38.6535 50.1556C39.0343 50.0396 39.4151 49.9236 39.8074 49.8041C40.5107 49.6093 40.9579 49.7784 41.6125 50.049C41.8716 50.1697 41.8716 50.1697 42.1151 50.1556C42.1151 49.0341 42.1151 47.9127 42.1151 46.7572C40.9728 46.7572 39.8305 46.7572 38.6535 46.7572Z" stroke="black" stroke-width="0.6" mask="url(#path-1-outside-1_2899_501)"/>
</g>
</g>
<defs>
<clipPath id="clip0_2899_501">
<rect width="60" height="60" fill="white"/>
</clipPath>
</defs>
</svg>
