<svg width="60" height="60" viewBox="0 0 60 60" fill="none" xmlns="http://www.w3.org/2000/svg">
<g id="Simplification">
<path id="Vector" d="M48.9843 3.51637C49.1021 3.5765 49.22 3.63662 49.3414 3.69856C50.2942 4.21445 51.0361 4.86607 51.7968 5.62575C51.9402 5.76714 51.9402 5.76714 52.0866 5.91139C54.1937 8.10892 54.9013 11.0095 54.8689 13.9671C54.824 15.6928 54.2281 17.1845 53.5546 18.7507C53.651 18.8488 53.7474 18.9468 53.8467 19.0478C56.5811 21.8777 58.062 25.3118 58.0444 29.2683C58.0441 29.3457 58.0439 29.4231 58.0436 29.5028C58.023 33.4302 56.4374 36.8403 53.6718 39.6101C51.9585 41.181 49.8879 42.3667 47.6513 43.0012C47.5692 43.0246 47.4872 43.048 47.4026 43.0721C46.7052 43.255 46.0933 43.2927 45.3515 43.3601C45.3515 47.15 45.3515 50.9398 45.3515 54.8445C48.6366 54.8213 48.6366 54.8213 51.9216 54.7917C52.5582 54.7891 52.5582 54.7891 52.8565 54.7886C53.0641 54.7877 53.2717 54.7856 53.4793 54.7826C53.7945 54.7783 54.1095 54.7778 54.4247 54.778C54.5625 54.7748 54.5625 54.7748 54.7031 54.7716C55.1766 54.7761 55.4626 54.8247 55.8367 55.127C56.2907 55.5923 56.2957 55.9067 56.292 56.5378C56.2242 57.0193 56.0157 57.2133 55.664 57.5398C55.3145 57.7145 54.9985 57.6724 54.6085 57.6731C54.5225 57.6734 54.4366 57.6737 54.3481 57.674C54.0572 57.6749 53.7663 57.675 53.4753 57.675C53.2659 57.6755 53.0564 57.676 52.8469 57.6766C52.2689 57.678 51.6909 57.6787 51.1129 57.6792C50.4905 57.6799 49.868 57.6812 49.2455 57.6825C47.7412 57.6854 46.2368 57.6871 44.7324 57.6886C44.3078 57.689 43.8831 57.6895 43.4585 57.69C40.8233 57.6929 38.1882 57.6955 35.5531 57.697C34.9424 57.6973 34.3318 57.6977 33.7211 57.698C33.4934 57.6982 33.4934 57.6982 33.2611 57.6983C30.8011 57.6998 28.341 57.7037 25.8809 57.7085C23.3572 57.7135 20.8335 57.7163 18.3097 57.7169C16.8919 57.7173 15.4742 57.7187 14.0564 57.7225C12.8492 57.7258 11.642 57.7271 10.4348 57.7258C9.81858 57.7252 9.2024 57.7255 8.58617 57.7284C8.02232 57.731 7.45854 57.731 6.89469 57.7287C6.69043 57.7284 6.48617 57.7291 6.28193 57.7308C6.00467 57.7331 5.72765 57.7317 5.4504 57.7294C5.21924 57.7297 5.21924 57.7297 4.98341 57.7299C4.44173 57.6343 4.25302 57.456 3.86712 57.0711C3.64888 56.6346 3.68298 56.14 3.74993 55.6648C3.94588 55.2985 4.19356 55.0328 4.57025 54.8445C4.89504 54.8343 5.21686 54.831 5.54162 54.8331C5.68548 54.8333 5.68548 54.8333 5.83225 54.8336C6.13913 54.8342 6.44599 54.8357 6.75286 54.8372C6.96069 54.8378 7.16851 54.8383 7.37634 54.8388C7.88629 54.8401 8.39624 54.8421 8.90618 54.8445C8.91622 54.7718 8.92626 54.6991 8.9366 54.6242C8.98227 54.2947 9.02845 53.9654 9.07464 53.636C9.09043 53.5216 9.10621 53.4071 9.12248 53.2892C9.13796 53.1793 9.15345 53.0695 9.1694 52.9562C9.19057 52.8043 9.19057 52.8043 9.21217 52.6494C9.25775 52.3836 9.25775 52.3836 9.37493 52.032C9.16213 52.0366 9.16213 52.0366 8.94504 52.0413C8.41697 52.0519 7.88892 52.0586 7.36077 52.0642C7.13252 52.0671 6.90429 52.0711 6.67607 52.0762C6.34733 52.0833 6.01874 52.0866 5.68994 52.0892C5.58847 52.0922 5.487 52.0953 5.38246 52.0984C4.88012 52.0986 4.55462 52.0725 4.15603 51.7501C3.71131 51.2821 3.70419 50.9663 3.70782 50.3387C3.77567 49.8572 3.98421 49.6632 4.33587 49.3367C4.6115 49.1989 4.77384 49.2053 5.08094 49.2062C5.23928 49.2062 5.23928 49.2062 5.40082 49.2062C5.51496 49.2068 5.6291 49.2074 5.7467 49.2081C5.86342 49.2082 5.98013 49.2084 6.10039 49.2086C6.47413 49.2092 6.84787 49.2107 7.22161 49.2122C7.4746 49.2128 7.72759 49.2133 7.98059 49.2138C8.60162 49.2151 9.22265 49.217 9.84368 49.2195C9.85372 49.1468 9.86376 49.0741 9.8741 48.9992C9.91977 48.6697 9.96595 48.3404 10.0121 48.011C10.0279 47.8966 10.0437 47.7821 10.06 47.6642C10.0755 47.5543 10.0909 47.4445 10.1069 47.3312C10.1281 47.1793 10.1281 47.1793 10.1497 47.0244C10.1952 46.7586 10.1952 46.7586 10.3124 46.407C10.2401 46.404 10.1677 46.401 10.0932 46.3978C8.55708 46.295 7.51609 45.5558 6.49652 44.4368C5.44938 43.1558 5.38143 41.6628 5.50775 40.0789C5.76505 38.6751 6.70181 37.5875 7.82815 36.7688C9.05527 36.096 10.1837 36.0262 11.5506 36.032C11.7562 36.0312 11.9617 36.0301 12.1672 36.0289C12.7222 36.0263 13.2771 36.0266 13.8321 36.0277C14.2969 36.0283 14.7616 36.0274 15.2264 36.0266C16.3236 36.0246 17.4207 36.025 18.5179 36.027C19.6466 36.0289 20.7752 36.0271 21.9038 36.0233C22.8759 36.0202 23.848 36.0193 24.82 36.0203C25.3993 36.0209 25.9785 36.0206 26.5577 36.0182C27.1028 36.0161 27.6477 36.0168 28.1927 36.0196C28.3916 36.0202 28.5906 36.0198 28.7895 36.0183C30.4064 36.0072 31.7544 36.2588 33.0212 37.357C34.0265 38.3658 34.6115 39.6039 34.6906 41.0306C34.6769 42.479 34.2618 43.8584 33.251 44.9321C32.2298 45.8616 31.1242 46.3192 29.7656 46.5242C29.7909 46.6697 29.8163 46.8151 29.8425 46.965C29.8754 47.1574 29.9084 47.3498 29.9413 47.5423C29.9581 47.638 29.9749 47.7336 29.9922 47.8322C30.008 47.9255 30.0239 48.0188 30.0402 48.1149C30.0549 48.2002 30.0697 48.2855 30.0848 48.3734C30.1201 48.6577 30.1224 48.9333 30.1171 49.2195C30.1831 49.2182 30.2491 49.2169 30.317 49.2156C31.0052 49.2026 31.6934 49.1937 32.3816 49.1873C32.6383 49.1844 32.8949 49.1804 33.1516 49.1753C33.521 49.1682 33.8904 49.1649 34.2599 49.1623C34.4313 49.1577 34.4313 49.1577 34.6062 49.1531C35.1362 49.1529 35.5075 49.1599 35.93 49.5014C36.3646 49.9718 36.3738 50.2893 36.3702 50.9128C36.3023 51.3943 36.0938 51.5883 35.7421 51.9148C35.3397 52.116 34.8771 52.0607 34.4338 52.0691C34.3275 52.0715 34.2212 52.0739 34.1117 52.0765C33.7714 52.0841 33.4311 52.091 33.0908 52.0979C32.8603 52.103 32.6299 52.1081 32.3995 52.1133C31.8341 52.1258 31.2686 52.1377 30.7031 52.1492C30.7284 52.2947 30.7538 52.4401 30.78 52.59C30.8129 52.7824 30.8459 52.9748 30.8788 53.1673C30.8956 53.263 30.9124 53.3586 30.9297 53.4572C30.9455 53.5505 30.9614 53.6438 30.9777 53.7399C30.9924 53.8252 31.0072 53.9105 31.0223 53.9984C31.0546 54.2586 31.0546 54.2586 31.0546 54.8445C34.8058 54.8445 38.557 54.8445 42.4218 54.8445C42.4218 51.0547 42.4218 47.2648 42.4218 43.3601C41.9577 43.3215 41.4937 43.2828 41.0156 43.2429C40.7058 43.1822 40.3975 43.1128 40.0927 43.0305C39.9504 42.9935 39.8081 42.9565 39.6615 42.9184C39.0774 42.7098 38.4891 42.4088 38.2031 41.8367C38.139 41.2697 38.1406 41.0173 38.4081 40.511C38.9489 39.8651 38.9489 39.8651 39.3563 39.8213C40.0693 39.8119 40.6914 39.9414 41.3744 40.1375C41.5266 40.1794 41.5266 40.1794 41.6818 40.2222C41.9288 40.2904 42.1754 40.3602 42.4218 40.4304C42.7394 38.3639 43.1124 35.8506 41.8179 34.0597C40.5911 32.5578 39.0882 31.2735 37.5829 30.0607C37.3382 29.8442 37.2742 29.7182 37.2335 29.3947C37.1974 28.4786 37.1974 28.4786 37.5439 28.0598C37.9244 27.7064 38.1207 27.6298 38.6279 27.5984C38.7236 27.5899 38.8194 27.5815 38.9181 27.5728C39.8521 27.8044 40.6513 28.9191 41.3085 29.5833C41.4049 29.6802 41.5013 29.7771 41.6006 29.8769C41.8355 30.1132 42.0702 30.3498 42.3046 30.5867C42.3047 30.5016 42.3047 30.4165 42.3048 30.3288C42.3066 28.2572 42.3115 26.1857 42.3201 24.1141C42.3242 23.1123 42.3271 22.1105 42.3275 21.1087C42.3279 20.2355 42.3303 19.3623 42.3352 18.4891C42.3377 18.0268 42.3391 17.5645 42.3382 17.1022C42.3373 16.6668 42.3391 16.2315 42.3431 15.7962C42.3445 15.5606 42.343 15.3251 42.3415 15.0896C42.3561 13.9351 42.3561 13.9351 42.705 13.5014C43.188 13.0891 43.5048 13.0917 44.1238 13.1015C44.5136 13.1341 44.7135 13.2082 44.9999 13.4773C45.3456 14.1312 45.4013 14.6563 45.3938 15.3884C45.3941 15.4958 45.3944 15.6032 45.3947 15.7139C45.3953 16.0725 45.3933 16.431 45.3914 16.7897C45.3913 17.0472 45.3914 17.3048 45.3916 17.5624C45.3917 18.2609 45.3896 18.9593 45.3871 19.6578C45.3849 20.388 45.3847 21.1182 45.3843 21.8485C45.3834 23.0739 45.3812 24.2993 45.378 25.5247C45.3748 26.7866 45.3723 28.0485 45.3708 29.3104C45.3707 29.3882 45.3706 29.466 45.3705 29.5462C45.3701 29.9368 45.3696 30.3273 45.3692 30.7178C45.3655 33.9554 45.3593 37.1929 45.3515 40.4304C45.707 40.3392 46.0624 40.2471 46.4176 40.1549C46.5175 40.1292 46.6174 40.1036 46.7203 40.0772C48.5505 39.6004 50.1365 38.7447 51.5624 37.5007C51.6343 37.4387 51.7062 37.3766 51.7803 37.3126C53.5741 35.6463 54.8262 32.9374 54.9816 30.495C55.0588 26.8952 54.3409 24.0964 51.8675 21.3845C51.1498 20.6388 50.2949 20.0496 49.4531 19.4539C49.613 18.9984 49.8225 18.6681 50.1196 18.2893C51.5957 16.2898 52.0379 14.1973 51.746 11.7648C51.4672 10.3468 50.7637 9.04302 49.8046 7.9695C49.7338 7.88913 49.6629 7.80877 49.5899 7.72597C48.4263 6.48415 46.8022 5.64102 45.1171 5.39137C45.0129 5.37566 44.9087 5.35995 44.8013 5.34377C42.5294 5.0772 40.4719 5.80684 38.6718 7.14919C37.0779 8.47827 36.1416 10.3858 35.8593 12.4226C35.6635 14.663 36.3549 16.878 37.8002 18.6043C37.8801 18.6907 37.96 18.7771 38.0424 18.8661C38.2031 19.1023 38.2031 19.1023 38.2145 19.3321C38.017 19.6991 37.6994 19.904 37.3681 20.1423C37.2276 20.2475 37.0873 20.3528 36.947 20.4582C36.7398 20.6119 36.5323 20.7651 36.3244 20.9178C34.3349 22.4879 33.1276 25.1477 32.7371 27.598C32.6452 28.4988 32.6953 29.411 32.7266 30.3148C32.7351 30.5773 32.7399 30.8396 32.7442 31.1021C32.7488 31.2564 32.7533 31.4107 32.758 31.5697C32.6756 32.1253 32.503 32.3041 32.1093 32.6961C31.672 32.9147 31.1792 32.8782 30.7031 32.8132C30.3057 32.6186 30.0651 32.3421 29.8461 31.9563C28.9858 28.5934 29.9232 24.7338 31.6406 21.7976C32.3314 20.7156 33.1906 19.7685 34.1015 18.8679C33.9558 18.4148 33.7918 17.9733 33.6143 17.5318C32.5397 14.8125 32.4585 11.8137 33.5658 9.07932C34.2091 7.59982 35.0854 6.41565 36.2109 5.27419C36.3373 5.14548 36.3373 5.14548 36.4663 5.01418C37.6064 3.93003 39.0534 3.16274 40.5468 2.69606C40.7172 2.64009 40.7172 2.64009 40.891 2.58299C43.5629 1.85826 46.5601 2.22966 48.9843 3.51637ZM8.789 39.8445C8.39033 40.3893 8.36364 40.9404 8.38159 41.5973C8.48608 42.2645 8.82301 42.7528 9.34518 43.1734C10.0064 43.5857 10.6954 43.6091 11.4541 43.6102C11.5306 43.6104 11.6071 43.6107 11.6859 43.611C11.9406 43.6117 12.1954 43.6116 12.4501 43.6115C12.6334 43.6119 12.8168 43.6123 13.0001 43.6127C13.4969 43.6137 13.9937 43.614 14.4906 43.6141C14.8013 43.6142 15.1119 43.6144 15.4226 43.6147C16.5072 43.6158 17.5918 43.6163 18.6764 43.6162C19.6862 43.6161 20.696 43.6174 21.7059 43.6192C22.5739 43.6208 23.442 43.6214 24.31 43.6213C24.828 43.6213 25.346 43.6216 25.8639 43.6229C26.3512 43.624 26.8385 43.624 27.3258 43.6232C27.5042 43.623 27.6825 43.6233 27.8609 43.624C29.1932 43.629 30.2778 43.6194 31.289 42.657C31.6999 42.1178 31.7077 41.5541 31.6882 40.896C31.6001 40.2512 31.3305 39.8326 30.8276 39.427C30.1464 38.9729 29.5622 38.8926 28.7471 38.8905C28.6698 38.8902 28.5925 38.8898 28.5129 38.8895C28.2548 38.8885 27.9968 38.8883 27.7387 38.8881C27.5533 38.8876 27.3679 38.887 27.1825 38.8864C26.6793 38.8848 26.1762 38.8841 25.673 38.8835C25.3584 38.8832 25.0438 38.8827 24.7291 38.8822C23.744 38.8806 22.7588 38.8795 21.7736 38.879C20.6379 38.8785 19.5021 38.8764 18.3663 38.873C17.4874 38.8705 16.6085 38.8693 15.7296 38.8692C15.2052 38.869 14.6807 38.8683 14.1562 38.8662C13.6626 38.8643 13.169 38.8641 12.6753 38.8651C12.4948 38.8652 12.3142 38.8647 12.1336 38.8635C10.8475 38.8557 9.72953 38.8816 8.789 39.8445ZM13.2421 46.407C12.9887 47.8068 12.9887 47.8068 12.8906 49.2195C17.6085 49.2195 22.3265 49.2195 27.1874 49.2195C27.0361 47.7936 27.0361 47.7936 26.7187 46.407C22.2714 46.407 17.8242 46.407 13.2421 46.407ZM12.3046 52.032C12.0512 53.4318 12.0512 53.4318 11.9531 54.8445C17.2898 54.8445 22.6265 54.8445 28.1249 54.8445C27.9736 53.4186 27.9736 53.4186 27.6562 52.032C22.5902 52.032 17.5242 52.032 12.3046 52.032Z" fill="white"/>
<path id="Vector_2" d="M12.3483 2.29341C12.4865 2.29422 12.6247 2.29502 12.7672 2.29585C13.8155 2.31511 14.7169 2.43867 15.7028 2.81343C15.8256 2.85724 15.9484 2.90105 16.0749 2.94619C18.6712 3.94248 20.5109 5.95116 21.6864 8.42207C22.2832 9.78116 22.3976 11.1854 22.4484 12.6499C22.4534 12.7859 22.4585 12.9219 22.4637 13.0621C22.4761 13.3959 22.488 13.7296 22.4997 14.0634C22.5968 14.1012 22.6939 14.1389 22.7939 14.1778C24.3921 14.8055 25.647 15.6987 26.484 17.2275C26.9601 18.3312 27.0935 19.2939 27.0993 20.4868C27.1029 20.6722 27.1029 20.6722 27.1066 20.8615C27.1122 21.9788 26.9019 22.7498 26.1288 23.5835C25.4543 24.1871 24.6972 24.3889 23.8099 24.3948C23.6726 24.3959 23.5352 24.3971 23.3938 24.3982C23.2457 24.3987 23.0976 24.3992 22.9451 24.3997C22.7922 24.4004 22.6393 24.4011 22.4817 24.4018C22.1579 24.403 21.8341 24.4037 21.5103 24.4041C21.0979 24.4047 20.6856 24.4075 20.2732 24.4109C19.8772 24.4136 19.4812 24.4138 19.0852 24.4144C18.9383 24.4158 18.7914 24.4173 18.6401 24.4188C17.5007 24.4159 16.5824 24.2553 15.6785 23.5336C14.752 22.597 14.7349 21.5258 14.7364 20.29C14.7589 18.49 15.3262 16.9344 16.5821 15.6171C17.35 14.9225 18.3869 14.1806 19.4528 14.1806C19.4101 11.5171 19.1246 9.21452 17.1868 7.20064C16.6934 6.74915 16.1758 6.40689 15.5856 6.09468C15.4252 6.00971 15.4252 6.00971 15.2615 5.92302C13.5057 5.09549 11.5662 5.12626 9.75551 5.76509C9.04805 6.05721 8.44854 6.43955 7.85121 6.915C7.7352 7.00563 7.61918 7.09627 7.49965 7.18966C6.05277 8.40721 5.48269 10.2549 5.2936 12.0667C5.2331 12.7713 5.24102 13.4783 5.24316 14.1848C5.24284 14.3654 5.24241 14.5459 5.24188 14.7265C5.24094 15.1113 5.24067 15.4961 5.24093 15.8809C5.24127 16.4896 5.23957 17.0983 5.23754 17.7071C5.23205 19.4366 5.22922 21.1662 5.22846 22.8958C5.22802 23.8541 5.22591 24.8123 5.222 25.7706C5.21963 26.3757 5.21935 26.9806 5.22063 27.5856C5.22093 27.9612 5.21929 28.3368 5.2171 28.7123C5.21648 28.8863 5.21665 29.0603 5.21769 29.2343C5.21899 29.4718 5.21715 29.7094 5.21514 29.9469C5.21495 30.1462 5.21495 30.1462 5.21475 30.3495C5.13144 30.8514 4.88411 31.1423 4.48207 31.4438C4.0778 31.5673 3.69549 31.5905 3.2809 31.5244C2.8412 31.2882 2.62038 31.1195 2.3434 30.7041C2.31292 30.3614 2.31292 30.3614 2.31127 29.9338C2.31066 29.8552 2.31005 29.7765 2.30941 29.6955C2.30765 29.4313 2.30757 29.1672 2.30749 28.903C2.3066 28.7137 2.30561 28.5245 2.30454 28.3352C2.30196 27.8201 2.30094 27.305 2.30034 26.7899C2.29991 26.4673 2.29918 26.1447 2.29835 25.8221C2.29547 24.6942 2.29395 23.5664 2.29353 22.4385C2.29311 21.3916 2.28962 20.3448 2.2847 19.2979C2.28061 18.3966 2.27882 17.4953 2.27874 16.594C2.27865 16.0569 2.27765 15.5198 2.27429 14.9828C2.25166 11.1299 2.66577 7.91833 5.46352 5.02535C7.32551 3.17494 9.73547 2.26991 12.3483 2.29341ZM18.2809 18.165C17.7807 18.9255 17.6784 19.6353 17.6803 20.538C17.68 20.6837 17.6797 20.8293 17.6794 20.9793C17.6549 21.3154 17.6549 21.3154 17.8122 21.4462C18.0057 21.4578 18.1998 21.4612 18.3937 21.4614C18.5177 21.4618 18.6417 21.4621 18.7694 21.4625C18.9043 21.4623 19.0391 21.4621 19.1781 21.4618C19.3155 21.4619 19.4529 21.462 19.5945 21.4622C19.8857 21.4622 20.1769 21.462 20.4682 21.4615C20.9157 21.4609 21.3632 21.4615 21.8107 21.4623C22.0929 21.4622 22.375 21.462 22.6571 21.4618C22.8594 21.4622 22.8594 21.4622 23.0659 21.4625C23.2518 21.462 23.2518 21.462 23.4415 21.4614C23.5512 21.4613 23.6609 21.4612 23.774 21.4611C24.0213 21.474 24.0213 21.474 24.1403 21.3291C24.2292 20.1179 24.2341 19.0262 23.4729 18.0194C22.8497 17.3307 22.1592 16.9569 21.2381 16.832C20.0269 16.7779 19.0827 17.2688 18.2809 18.165Z" fill="white"/>
<path id="Vector_3" d="M50.5075 25.7804C50.9633 25.9453 51.0663 26.0859 51.3131 26.5055C51.4633 27.0143 51.504 27.3864 51.3278 27.8898C51.0114 28.2711 50.7564 28.5616 50.2529 28.625C49.3369 28.6611 49.3369 28.6611 48.9181 28.3146C48.4933 27.8571 48.4819 27.5855 48.4896 26.9821C48.535 26.5146 48.736 26.2489 49.0779 25.9434C49.5262 25.6599 49.9949 25.7214 50.5075 25.7804Z" fill="white"/>
<path id="Vector_4" d="M4.33514 34.1018C4.70144 34.2978 4.96711 34.5455 5.15545 34.9222C5.22613 35.4836 5.26989 36.0313 4.92108 36.5042C4.50196 36.8535 4.17941 37.017 3.63201 37.0315C3.17235 36.9013 2.88914 36.7455 2.52606 36.4383C2.25757 35.9335 2.23661 35.4816 2.34295 34.9222C2.79832 34.0853 3.44931 33.977 4.33514 34.1018Z" fill="white"/>
</g>
</svg>
