<svg width="60" height="60" viewBox="0 0 60 60" fill="none" xmlns="http://www.w3.org/2000/svg">
<g id="Simplification" clip-path="url(#clip0_2899_535)">
<g id="Vector">
<mask id="path-1-outside-1_2899_535" maskUnits="userSpaceOnUse" x="-1.07617" y="-1.08203" width="62" height="62" fill="black">
<rect fill="white" x="-1.07617" y="-1.08203" width="62" height="62"/>
<path d="M22.0848 -0.0727692C22.2461 -0.0733608 22.4075 -0.0742082 22.5688 -0.0752885C23.011 -0.0775041 23.4531 -0.0760735 23.8953 -0.0740319C24.3726 -0.072464 24.8499 -0.0742739 25.3272 -0.0756517C26.2617 -0.077805 27.1961 -0.0768079 28.1306 -0.0747039C28.8899 -0.0730603 29.6491 -0.072604 30.4084 -0.0729979C30.5705 -0.0730818 30.5705 -0.0730818 30.7359 -0.0731674C30.9554 -0.0732877 31.1749 -0.0734114 31.3944 -0.0735384C33.3351 -0.0745423 35.2758 -0.0725883 37.2166 -0.0691053C39.1005 -0.0657243 40.9844 -0.0648966 42.8683 -0.0667021C44.9195 -0.0686651 46.9707 -0.0691406 49.0219 -0.0670876C49.2405 -0.0668714 49.4591 -0.0666564 49.6777 -0.0664426C49.7853 -0.0663357 49.8928 -0.0662288 50.0036 -0.0661187C50.7624 -0.0654611 51.5211 -0.0658499 52.2798 -0.0666236C53.2039 -0.0675285 54.1279 -0.0667434 55.052 -0.0637906C55.5237 -0.0623233 55.9953 -0.0616097 56.467 -0.0629166C56.8984 -0.0640896 57.3298 -0.0631104 57.7613 -0.0603875C57.9919 -0.0594926 58.2226 -0.0609062 58.4532 -0.0623919C58.6577 -0.0604499 58.6577 -0.0604499 58.8664 -0.0584687C58.9843 -0.0583291 59.1023 -0.0581894 59.2238 -0.0580456C59.6153 0.0169408 59.7543 0.162267 60 0.469597C60.0705 0.725487 60.0705 0.725487 60.0732 0.989616C60.0772 1.07648 60.0811 1.16334 60.0851 1.25283C59.8299 2.0665 58.6469 2.49468 57.9565 2.87194C57.6918 3.01837 57.427 3.16485 57.1623 3.31139C57.029 3.38496 56.8956 3.45853 56.7582 3.53432C56.1764 3.8565 55.5979 4.18439 55.0195 4.51257C54.0835 5.04259 53.1458 5.56955 52.207 6.0946C51.2197 6.64693 50.2332 7.20083 49.2481 7.75719C49.1357 7.82056 49.0234 7.88393 48.9077 7.94923C48.8031 8.00837 48.6985 8.06751 48.5907 8.12844C48.4995 8.17998 48.4083 8.23152 48.3143 8.28462C48.0276 8.44942 47.744 8.61894 47.4609 8.78991C47.5453 8.79455 47.6296 8.7992 47.7165 8.80398C50.144 8.94466 52.3885 9.11705 54.1406 11.0165C54.235 11.1777 54.3255 11.3414 54.4116 11.5072C54.7174 12.0454 55.1199 12.1322 55.6902 12.3083C56.821 12.7059 57.6331 13.7245 58.147 14.7665C58.8417 16.3639 59.0806 18.0162 59.079 19.7461C59.0795 19.9254 59.0795 19.9254 59.08 20.1083C59.081 20.5066 59.0812 20.9049 59.0814 21.3033C59.0819 21.5898 59.0825 21.8763 59.0831 22.1628C59.0847 22.9395 59.0854 23.7163 59.086 24.493C59.0863 24.9786 59.0868 25.4643 59.0873 25.9499C59.0887 27.2965 59.0899 28.6431 59.0903 29.9897C59.0904 30.0758 59.0904 30.1618 59.0904 30.2504C59.0904 30.3366 59.0905 30.4229 59.0905 30.5117C59.0906 30.6864 59.0906 30.8611 59.0907 31.0358C59.0907 31.1224 59.0907 31.2091 59.0907 31.2983C59.0912 32.7023 59.0932 34.1062 59.096 35.5102C59.0988 36.9541 59.1002 38.3981 59.1003 39.8421C59.1005 40.6518 59.1011 41.4615 59.1033 42.2712C59.1053 43.0329 59.1054 43.7946 59.1044 44.5564C59.1043 44.8353 59.1048 45.1142 59.106 45.3931C59.1152 47.7474 58.9528 49.7401 57.2365 51.5341C56.1731 52.5236 54.5859 53.5555 53.0859 53.5555C53.3915 53.8759 53.6937 54.1352 54.0645 54.3764C54.1643 54.4418 54.2641 54.5072 54.3669 54.5745C54.474 54.6438 54.581 54.7132 54.6913 54.7846C54.8026 54.8575 54.9139 54.9303 55.0285 55.0053C55.3841 55.2379 55.7401 55.4698 56.0962 55.7015C56.4502 55.932 56.8041 56.1627 57.1576 56.394C57.3772 56.5377 57.5971 56.6809 57.8173 56.8237C58.579 57.3217 59.3542 57.8316 60 58.4774C60.0394 58.7145 60.0394 58.7145 60.0439 58.9901C60.0473 59.0804 60.0506 59.1708 60.054 59.2639C59.9785 59.6387 59.8271 59.7629 59.5313 60.0008C59.2056 60.0607 59.2056 60.0607 58.8221 60.0625C58.6759 60.0643 58.5296 60.0661 58.3789 60.0679C58.2163 60.0675 58.0537 60.0671 57.8911 60.0667C57.7186 60.0679 57.5461 60.0693 57.3736 60.0709C56.8988 60.0747 56.4241 60.0755 55.9493 60.0759C55.4375 60.0767 54.9256 60.0803 54.4138 60.0834C53.2939 60.0898 52.174 60.0926 51.0541 60.0947C50.3544 60.096 49.6547 60.098 48.955 60.1001C47.0167 60.1058 45.0784 60.1106 43.1401 60.1122C42.954 60.1124 42.954 60.1124 42.7641 60.1125C42.5775 60.1127 42.5775 60.1127 42.3871 60.1128C42.1351 60.113 41.883 60.1132 41.631 60.1135C41.5059 60.1136 41.3809 60.1137 41.2521 60.1138C39.229 60.1156 37.2059 60.1238 35.1828 60.1347C33.1044 60.1459 31.0261 60.1517 28.9476 60.1522C27.7812 60.1527 26.6149 60.1553 25.4485 60.1639C24.4546 60.1711 23.4608 60.1735 22.4668 60.1696C21.9602 60.1678 21.4539 60.1682 20.9473 60.1748C17.2166 60.2208 17.2166 60.2208 15.8584 58.965C15.7962 58.9041 15.7341 58.8432 15.67 58.7804C15.3029 58.4415 14.8848 58.1721 14.4727 57.8915C14.3065 57.7746 14.1404 57.6574 13.9746 57.5399C13.8513 57.4529 13.8513 57.4529 13.7256 57.3641C10.8203 55.3134 7.91505 53.2626 5.00977 51.2118C4.88644 51.1247 4.88644 51.1247 4.76061 51.0359C4.59505 50.919 4.42951 50.8021 4.26399 50.6852C3.8421 50.3872 3.41986 50.0898 2.99699 49.7932C2.22711 49.2527 1.45859 48.7108 0.703133 48.1503C0.591952 48.0678 0.48077 47.9853 0.366219 47.9003C0.117196 47.6962 0.117196 47.6962 8.21799e-06 47.4618C-0.0113944 47.292 -0.0155507 47.1216 -0.0160475 46.9514C-0.0166422 46.8435 -0.0172372 46.7357 -0.0178499 46.6245C-0.0179083 46.5052 -0.0179669 46.3859 -0.018027 46.263C-0.0185405 46.1369 -0.0190535 46.0108 -0.0195826 45.8808C-0.021156 45.4554 -0.0218771 45.03 -0.0225939 44.6045C-0.0235194 44.3006 -0.0244884 43.9967 -0.0254978 43.6929C-0.0283729 42.7789 -0.0300863 41.865 -0.0315989 40.951C-0.0320338 40.693 -0.032499 40.4349 -0.0329758 40.1769C-0.0359329 38.5751 -0.0385172 36.9734 -0.0399746 35.3716C-0.0403179 35.0006 -0.0406656 34.6295 -0.0410188 34.2584C-0.0411063 34.1661 -0.0411934 34.0739 -0.0412835 33.9789C-0.0427669 32.4841 -0.0466607 30.9894 -0.051542 29.4947C-0.0565103 27.9608 -0.0592746 26.427 -0.0598873 24.8931C-0.0602877 24.0316 -0.0616698 23.1701 -0.0655253 22.3086C-0.0691451 21.4984 -0.0697941 20.6883 -0.0684096 19.8781C-0.0683836 19.5803 -0.069365 19.2825 -0.0714154 18.9848C-0.0740581 18.579 -0.0731105 18.1734 -0.071242 17.7677C-0.0728688 17.6492 -0.0744958 17.5307 -0.0761719 17.4086C-0.0670747 16.6097 -0.0670752 16.6097 0.27663 16.172C0.378704 16.0949 0.480779 16.0178 0.585946 15.9383C0.695768 15.8414 0.80559 15.7444 0.91874 15.6445C1.03944 15.5419 1.16045 15.4396 1.28175 15.3378C1.34779 15.2821 1.41383 15.2264 1.48187 15.169C2.01639 14.7212 2.56193 14.2887 3.11209 13.8603C3.64288 13.4465 4.1662 13.0242 4.68751 12.5985C5.33476 12.0702 5.98733 11.5499 6.64582 11.0357C7.17005 10.6253 7.68735 10.2069 8.20313 9.786C8.85041 9.25777 9.50296 8.73736 10.1614 8.2232C10.6857 7.81283 11.203 7.39443 11.7188 6.9735C12.366 6.44527 13.0186 5.92486 13.6771 5.4107C14.2013 5.00033 14.7186 4.58193 15.2344 4.161C15.881 3.63327 16.5328 3.11313 17.1909 2.59974C17.8121 2.11375 18.4234 1.61578 19.0322 1.11436C19.1057 1.05416 19.1792 0.99396 19.2549 0.931938C19.3506 0.853112 19.3506 0.853112 19.4483 0.772694C19.5667 0.680668 19.5667 0.680668 19.6875 0.586784C19.7953 0.487788 19.903 0.388793 20.0141 0.286797C20.6429 -0.156335 21.3432 -0.0796662 22.0848 -0.0727692ZM19.6875 3.39928C19.544 3.52192 19.3973 3.64109 19.2458 3.75359C18.5259 4.3099 17.8141 4.87463 17.1094 5.45007C16.4621 5.97832 15.8096 6.49871 15.1511 7.01287C14.6268 7.42324 14.1095 7.84164 13.5938 8.26256C12.9465 8.7908 12.2939 9.31121 11.6354 9.82537C11.0302 10.2992 10.4344 10.7843 9.83892 11.2703C9.33949 11.6773 8.83579 12.078 8.32764 12.474C7.71123 12.9547 7.10597 13.4476 6.50391 13.9462C5.96473 14.3925 5.42465 14.837 4.87342 15.2684C4.74045 15.3727 4.60811 15.4777 4.47642 15.5836C4.11999 15.8682 3.75925 16.1282 3.37464 16.3737C3.29309 16.4294 3.21153 16.4851 3.12751 16.5425C2.88575 16.7074 2.88575 16.7074 2.65086 16.842C2.37631 17.0358 2.25788 17.1558 2.10938 17.4618C2.01483 18.1606 2.06538 18.87 2.10938 19.5712C2.19203 19.5414 2.27468 19.5117 2.35984 19.4811C4.78422 18.6122 7.2206 17.78 9.66065 16.9564C11.8658 16.212 14.0687 15.4621 16.2648 14.6912C17.8378 14.1391 19.4146 13.5986 20.9936 13.0637C21.8504 12.7733 22.7068 12.4817 23.5632 12.1902C24.0159 12.0362 24.4688 11.8825 24.9217 11.7292C25.4305 11.5568 25.9387 11.3829 26.4465 11.2077C26.6297 11.1448 26.8131 11.0824 26.9966 11.0206C27.8761 10.7241 28.6831 10.4292 29.441 9.87673C30.8352 8.87296 32.8328 8.99691 34.464 9.02795C35.029 9.03752 35.5941 9.03913 36.1592 9.04214C36.872 9.04628 37.5846 9.05266 38.2973 9.06806C42.1426 9.15436 42.1426 9.15436 45.5225 7.4793C46.0432 7.10716 46.6071 6.81126 47.168 6.50475C47.3903 6.37934 47.6125 6.25365 47.8345 6.12756C48.5487 5.72389 49.2645 5.3232 49.9805 4.92272C50.224 4.78632 50.4675 4.64991 50.7111 4.51348C51.083 4.30514 51.455 4.09702 51.8273 3.88943C52.1983 3.68258 52.5689 3.47507 52.9395 3.26745C53.0518 3.20506 53.1641 3.14267 53.2798 3.07839C53.3844 3.01963 53.489 2.96087 53.5968 2.90032C53.7336 2.82393 53.7336 2.82393 53.8732 2.746C54.1777 2.55581 54.4478 2.33616 54.7266 2.11022C50.4828 2.08069 46.2391 2.05799 41.9953 2.0444C41.4938 2.04278 40.9923 2.04111 40.4908 2.03941C40.391 2.03907 40.2912 2.03874 40.1883 2.03839C38.5737 2.03278 36.9591 2.02262 35.3445 2.01077C33.6867 1.99869 32.0289 1.99155 30.3711 1.98894C29.3488 1.98717 28.3267 1.9816 27.3044 1.97111C26.6026 1.96428 25.9008 1.96224 25.1989 1.96391C24.7945 1.96473 24.3903 1.96351 23.9858 1.95656C22.1385 1.92947 20.9186 1.93675 19.6875 3.39928ZM29.5825 12.3861C29.1046 12.9583 29.0433 13.3043 29.0479 14.0414C29.0482 14.1302 29.0485 14.2191 29.0488 14.3106C29.0357 15.6718 29.0357 15.6718 29.2969 16.993C37.0313 16.993 44.7656 16.993 52.7344 16.993C52.8649 16.2097 52.9169 15.4356 52.9555 14.644C52.9671 14.4434 52.9855 14.2432 53.0049 14.0432C53.0469 13.4359 52.9878 13.0649 52.6318 12.5619C51.6784 11.4959 50.4506 11.0952 49.0492 10.9846C48.6162 10.972 48.1847 10.9703 47.7516 10.9728C47.5872 10.9726 47.4228 10.9721 47.2584 10.9715C46.8168 10.9705 46.3752 10.9715 45.9336 10.9731C45.4687 10.9744 45.0039 10.974 44.539 10.9737C43.7591 10.9736 42.9792 10.9749 42.1992 10.9771C41.3005 10.9796 40.4018 10.98 39.5031 10.9792C38.6343 10.9786 37.7655 10.9792 36.8967 10.9805C36.5288 10.9811 36.1609 10.9812 35.793 10.9809C35.3592 10.9807 34.9254 10.9817 34.4916 10.9835C34.2586 10.9843 34.0255 10.9839 33.7925 10.9834C32.1896 10.9928 30.7092 11.1392 29.5825 12.3861ZM23.3199 14.4079C23.2118 14.4442 23.2118 14.4442 23.1015 14.4812C22.8621 14.5618 22.6229 14.6428 22.3837 14.7239C22.2167 14.7803 22.0496 14.8367 21.8825 14.8931C21.5311 15.0118 21.1798 15.1307 20.8286 15.2498C20.3823 15.4012 19.9357 15.5518 19.4891 15.7021C19.1431 15.8187 18.7973 15.9357 18.4515 16.0529C18.2872 16.1085 18.1228 16.164 17.9584 16.2192C17.4392 16.394 16.922 16.5738 16.4063 16.7587C16.2704 16.807 16.1346 16.8554 15.9947 16.9052C15.8688 16.9532 15.743 17.0012 15.6134 17.0506C15.5032 17.092 15.393 17.1334 15.2796 17.176C14.7071 17.5212 14.5779 18.1366 14.4141 18.7508C14.3772 18.8715 14.3404 18.9922 14.3024 19.1166C13.968 20.3828 14.0281 21.6702 14.0625 22.9696C14.958 22.878 15.8171 22.6735 16.6903 22.4587C17.571 22.2556 18.3285 22.1573 19.1455 22.5961C19.5461 22.9298 19.7571 23.1784 19.9219 23.6727C19.9332 23.8449 19.9382 24.0175 19.9391 24.19C19.94 24.2957 19.9408 24.4015 19.9417 24.5105C19.942 24.6263 19.9423 24.7421 19.9426 24.8614C19.9438 25.0447 19.9438 25.0447 19.945 25.2317C19.9473 25.6367 19.9486 26.0417 19.9498 26.4468C19.9503 26.5851 19.9508 26.7233 19.9513 26.8658C19.9537 27.5977 19.9554 28.3296 19.9565 29.0615C19.9578 29.8175 19.9618 30.5734 19.9665 31.3293C19.9695 31.9106 19.9705 32.4919 19.9709 33.0732C19.9715 33.3518 19.9729 33.6305 19.975 33.9091C19.9779 34.2993 19.9778 34.6894 19.977 35.0796C19.9785 35.1945 19.98 35.3093 19.9815 35.4276C19.9761 36.1425 19.8698 36.5634 19.4531 37.1493C19.2394 37.3319 19.2394 37.3319 19.021 37.4349C18.9505 37.471 18.8799 37.5071 18.8072 37.5443C17.8075 37.797 16.9153 37.4983 15.9595 37.2079C15.7001 37.1304 15.4405 37.0535 15.1808 36.9772C15.0673 36.9428 14.9537 36.9084 14.8367 36.873C14.5078 36.779 14.5078 36.779 14.0625 36.7977C14.0537 37.4121 14.0474 38.0265 14.0432 38.6409C14.0415 38.849 14.0391 39.0571 14.036 39.2651C13.8869 41.5805 13.8869 41.5805 14.6613 43.6445C14.9856 43.8749 15.3056 44.0429 15.6665 44.2098C15.7916 44.275 15.9166 44.3402 16.0455 44.4073C16.3068 44.543 16.5696 44.6759 16.8338 44.806C17.3316 45.053 17.8179 45.3184 18.3051 45.5856C18.6525 45.7759 19.0014 45.9633 19.3506 46.1503C20.1483 46.5803 20.9338 47.0311 21.7166 47.4875C21.8112 47.5423 21.9059 47.5971 22.0033 47.6536C22.0855 47.7016 22.1676 47.7496 22.2522 47.799C22.5234 47.9429 22.8004 48.0528 23.0859 48.1649C23.0856 48.0127 23.0853 47.8606 23.085 47.7038C23.0773 44.0845 23.0715 40.4652 23.068 36.846C23.0676 36.3997 23.0671 35.9533 23.0666 35.507C23.0665 35.4182 23.0664 35.3293 23.0664 35.2378C23.0648 33.8027 23.0621 32.3677 23.0588 30.9326C23.0555 29.4581 23.0536 27.9835 23.0529 26.509C23.0524 25.6005 23.0509 24.692 23.048 23.7835C23.0459 23.0847 23.0457 22.3858 23.0462 21.687C23.0461 21.4019 23.0454 21.1168 23.044 20.8318C23.0335 18.5114 23.1539 16.2815 24.2578 14.1805C23.9181 14.1805 23.6419 14.2993 23.3199 14.4079ZM26.64 14.5921C24.8908 16.4234 25.0429 18.8783 25.0441 21.2386C25.0434 21.5265 25.0426 21.8144 25.0417 22.1023C25.0399 22.8005 25.0391 23.4987 25.039 24.1968C25.0389 24.7646 25.0384 25.3324 25.0376 25.9002C25.0356 27.5131 25.0345 29.1259 25.0347 30.7388C25.0347 30.8255 25.0347 30.9123 25.0347 31.0016C25.0347 31.0884 25.0347 31.1753 25.0347 31.2647C25.0348 32.6729 25.0326 34.0811 25.0293 35.4892C25.0259 36.9381 25.0243 38.387 25.0245 39.8359C25.0246 40.6482 25.0239 41.4604 25.0214 42.2727C25.019 43.0363 25.0191 43.7999 25.0208 44.5636C25.0211 44.8433 25.0205 45.123 25.0191 45.4027C25.0173 45.7855 25.0184 46.1683 25.0202 46.5511C25.019 46.6609 25.0178 46.7706 25.0165 46.8837C25.0296 48.1433 25.4446 49.1166 26.3196 50.0143C28.1114 51.6665 30.5927 51.9502 32.9297 51.9149C32.9314 51.7855 32.9331 51.6562 32.9349 51.5229C32.9417 51.0386 32.9508 50.5545 32.9605 50.0703C32.9643 49.8615 32.9676 49.6527 32.9703 49.4439C32.9743 49.1422 32.9804 48.8406 32.9869 48.5389C32.9877 48.4469 32.9884 48.355 32.9892 48.2602C33.0115 47.4019 33.1905 46.5092 33.7944 45.8606C34.5948 45.2008 35.4242 45.0318 36.4344 45.0441C36.5563 45.0432 36.6782 45.0424 36.8038 45.0415C37.2033 45.0396 37.6027 45.0418 38.0022 45.0443C38.2817 45.0442 38.5613 45.0439 38.8408 45.0435C39.4253 45.0431 40.0096 45.0449 40.5941 45.0481C41.3414 45.0521 42.0887 45.0514 42.8361 45.0492C43.4129 45.0479 43.9896 45.049 44.5664 45.0507C44.8419 45.0513 45.1174 45.0513 45.3929 45.0506C45.7785 45.0499 46.164 45.0523 46.5496 45.0555C46.6623 45.0548 46.775 45.054 46.8911 45.0532C47.7128 45.0647 48.4565 45.2191 49.0847 45.7815C49.8104 46.5404 49.9739 47.4239 49.9818 48.4359C49.984 48.536 49.9861 48.6361 49.9882 48.7393C49.9945 49.0556 49.9985 49.372 50.0024 49.6884C50.0063 49.9043 50.0104 50.1202 50.0146 50.3361C50.0245 50.8623 50.0323 51.3886 50.0391 51.9149C52.2144 51.79 54.2365 51.4292 55.8751 49.8724C56.7704 48.8259 56.9708 47.7518 56.9696 46.4275C56.9699 46.3107 56.9703 46.1939 56.9706 46.0735C56.9717 45.6816 56.9718 45.2897 56.972 44.8977C56.9726 44.6169 56.9731 44.336 56.9738 44.0551C56.9753 43.2914 56.9761 42.5277 56.9766 41.7639C56.9769 41.2863 56.9774 40.8087 56.9779 40.331C56.9794 39.0066 56.9806 37.6823 56.981 36.3579C56.981 36.2732 56.981 36.1884 56.981 36.1011C56.9811 36.0162 56.9811 35.9313 56.9811 35.8438C56.9812 35.6717 56.9812 35.4996 56.9813 35.3275C56.9813 35.2421 56.9813 35.1568 56.9814 35.0688C56.9818 33.6888 56.9839 32.3087 56.9866 30.9286C56.9894 29.5091 56.9908 28.0897 56.991 26.6702C56.9911 25.8743 56.9917 25.0783 56.9939 24.2824C56.9958 23.5325 56.9961 22.7827 56.995 22.0328C56.9949 21.7589 56.9954 21.485 56.9966 21.211C57.0252 17.627 57.0252 17.627 55.3542 14.5705C55.3017 14.5192 55.2493 14.4678 55.1953 14.4149C55.118 14.4536 55.0406 14.4923 54.9609 14.5321C54.9154 14.7872 54.9154 14.7872 54.9074 15.0997C54.8972 15.2834 54.8972 15.2834 54.8869 15.4707C54.8799 15.6057 54.8729 15.7407 54.8657 15.8798C54.0486 28.6991 54.0486 28.6991 50.7271 31.8804C49.8634 32.5906 49.0044 32.9426 47.8799 32.9478C47.7538 32.9486 47.6277 32.9495 47.4977 32.9503C47.3605 32.9506 47.2232 32.951 47.0819 32.9513C46.9364 32.952 46.7909 32.9528 46.6411 32.9536C46.1597 32.9559 45.6783 32.9573 45.1968 32.9585C45.0305 32.9589 44.8642 32.9594 44.6979 32.9599C43.9163 32.9621 43.1346 32.9638 42.3529 32.9648C41.4533 32.9659 40.5537 32.969 39.6542 32.9737C38.9571 32.9773 38.26 32.979 37.5629 32.9794C37.1474 32.9797 36.732 32.9807 36.3165 32.9837C35.852 32.9869 35.3876 32.9864 34.9232 32.9856C34.7195 32.9879 34.7195 32.9879 34.5117 32.9902C33.2372 32.9821 32.1085 32.6538 31.1719 31.7587C30.677 31.1893 30.3347 30.6158 30.0879 29.9056C30.0551 29.8134 30.0222 29.7211 29.9884 29.6261C28.2838 24.6898 27.4052 19.6051 26.9531 14.4149C26.8064 14.4018 26.8064 14.4018 26.64 14.5921ZM10.167 18.8493C9.95733 18.9152 9.74693 18.9787 9.53583 19.0397C8.29412 19.3567 8.29412 19.3567 7.37727 20.1702C7.25282 20.5623 7.18675 20.9201 7.14845 21.329C7.11959 21.4693 7.09074 21.6096 7.06101 21.7542C7.01887 22.3138 7.01899 22.8701 7.02393 23.431C7.02528 23.6414 7.02659 23.8517 7.02785 24.0621C7.0285 24.1655 7.02914 24.269 7.0298 24.3756C7.03028 24.453 7.03076 24.5304 7.03126 24.6102C7.71349 24.4627 8.39561 24.3146 9.0776 24.166C9.30981 24.1155 9.54205 24.0652 9.77432 24.015C10.1075 23.943 10.4405 23.8704 10.7735 23.7977C10.878 23.7752 10.9825 23.7528 11.0901 23.7296C11.5597 23.6634 11.5597 23.6634 11.9531 23.4383C11.9674 23.2474 11.9742 23.0558 11.9779 22.8643C11.981 22.7438 11.9841 22.6232 11.9873 22.499C11.9921 22.3041 11.9921 22.3041 11.9971 22.1053C12.0373 20.8066 12.1802 19.5576 12.4219 18.2821C11.662 18.2821 10.8873 18.6186 10.167 18.8493ZM29.5313 19.1024C29.6781 20.204 29.8283 21.2623 30.0732 22.3397C30.1034 22.4733 30.1335 22.607 30.1646 22.7446C30.631 24.7704 31.171 26.784 31.8311 28.7557C31.8607 28.8476 31.8903 28.9394 31.9208 29.034C32.1921 29.8095 32.5827 30.3596 33.2744 30.8125C33.9746 31.0648 34.7677 30.9744 35.5005 30.9603C35.6605 30.9586 35.8205 30.9569 35.9805 30.9555C36.3698 30.9514 36.7591 30.9456 37.1484 30.9383C37.1785 30.868 37.2086 30.7976 37.2397 30.7251C37.7721 29.5002 38.3518 28.7542 39.5947 28.2137C40.7649 27.9329 41.8883 27.9386 42.9785 28.4994C43.7548 28.9776 44.2464 29.4815 44.6137 30.3222C44.6646 30.4377 44.7155 30.5533 44.768 30.6723C44.8059 30.7601 44.8438 30.8479 44.8828 30.9383C45.3496 30.95 45.8164 30.9585 46.2833 30.9641C46.5192 30.9676 46.755 30.9735 46.9908 30.9795C48.1914 31.0102 48.1914 31.0102 49.2188 30.4696C49.9253 29.7058 50.2003 28.7191 50.5005 27.745C50.5254 27.666 50.5502 27.587 50.5758 27.5056C50.934 26.3668 51.2564 25.2207 51.5405 24.0609C51.5702 23.9405 51.5999 23.8202 51.6305 23.6962C51.9864 22.1761 52.225 20.6422 52.5 19.1024C44.9203 19.1024 37.3406 19.1024 29.5313 19.1024ZM2.6587 21.6879C2.17499 22.2166 2.07973 22.522 2.08649 23.2388C2.08725 23.38 2.08801 23.5212 2.08878 23.6668C2.09075 23.8138 2.09271 23.9607 2.09473 24.1122C2.09579 24.261 2.09685 24.4098 2.09794 24.5631C2.1007 24.9304 2.10456 25.2976 2.10938 25.6649C2.49028 25.5894 2.87112 25.5137 3.25196 25.4379C3.41375 25.4058 3.41375 25.4058 3.5788 25.3731C3.68304 25.3523 3.78727 25.3315 3.89466 25.3101C3.9904 25.2911 4.08613 25.2721 4.18477 25.2525C4.43231 25.2005 4.677 25.1422 4.92188 25.079C4.92482 24.9934 4.92776 24.9079 4.93078 24.8197C4.94453 24.4252 4.95884 24.0306 4.97315 23.6361C4.97776 23.5016 4.98237 23.3671 4.98711 23.2285C5.01775 22.3966 5.07067 21.5711 5.15626 20.743C4.35992 20.743 3.26567 21.1803 2.6587 21.6879ZM16.7313 24.5255C16.5911 24.5567 16.4509 24.5879 16.3065 24.6201C16.0876 24.6696 16.0876 24.6696 15.8643 24.7201C15.7174 24.7526 15.5706 24.7852 15.4193 24.8187C14.7227 24.9533 14.7227 24.9533 14.0625 25.1962C14.0625 28.2899 14.0625 31.3837 14.0625 34.5712C15.3387 34.9192 16.6149 35.2673 17.9297 35.6259C17.9297 31.9133 17.9297 28.2008 17.9297 24.3758C17.4939 24.3758 17.1542 24.4311 16.7313 24.5255ZM11.1421 25.7617C11.0494 25.7831 10.9566 25.8046 10.8611 25.8266C10.7157 25.8608 10.7157 25.8608 10.5675 25.8956C10.478 25.9164 10.3885 25.9371 10.2963 25.9585C9.96225 26.036 9.62835 26.1141 9.29444 26.1923C8.17417 26.4533 8.17417 26.4533 7.03126 26.7196C7.03126 28.6532 7.03126 30.5868 7.03126 32.579C8.42344 32.985 8.42344 32.985 9.84376 33.3993C10.8106 33.6849 10.8106 33.6849 11.1786 33.7943C11.5079 33.8863 11.5079 33.8863 11.9531 33.868C11.9531 31.161 11.9531 28.454 11.9531 25.6649C11.6509 25.6649 11.4323 25.6941 11.1421 25.7617ZM4.20365 27.3165C4.0945 27.3403 3.98535 27.3641 3.87289 27.3886C3.73324 27.4192 3.59359 27.4498 3.44972 27.4813C2.78625 27.6263 2.78625 27.6263 2.10938 27.7743C2.10938 28.8958 2.10938 30.0173 2.10938 31.1727C3.1866 31.5969 3.1866 31.5969 4.92188 31.993C4.92188 30.4075 4.92188 28.8219 4.92188 27.1883C4.68057 27.1883 4.43784 27.2653 4.20365 27.3165ZM39.6094 30.5868C39.5707 30.7028 39.532 30.8188 39.4922 30.9383C40.4977 30.9383 41.5031 30.9383 42.5391 30.9383C42.0422 30.2868 42.0422 30.2868 41.3283 30.0787C40.6118 30.0674 40.1888 30.1553 39.6094 30.5868ZM2.10938 33.3993C2.09568 33.7948 2.08741 34.1902 2.08009 34.5858C2.07616 34.6973 2.07223 34.8088 2.06818 34.9236C2.05863 35.6119 2.09999 36.0283 2.57813 36.5634C3.01229 36.9621 3.50224 37.2437 4.01368 37.5301C4.0883 37.5727 4.16293 37.6153 4.23982 37.6592C4.56191 37.8753 4.56191 37.8753 4.92188 37.9696C4.92188 36.7321 4.92188 35.4946 4.92188 34.2196C4.20514 33.9428 4.20514 33.9428 3.48267 33.7312C3.36031 33.7011 3.36031 33.7011 3.23548 33.6705C3.11312 33.6414 3.11312 33.6414 2.98829 33.6117C2.86049 33.5805 2.86049 33.5805 2.73011 33.5487C2.52333 33.4984 2.31637 33.4488 2.10938 33.3993ZM7.03126 34.8055C7.02434 35.2645 7.02025 35.7235 7.01661 36.1825C7.01465 36.3104 7.01268 36.4384 7.01066 36.5702C6.94677 38.0618 6.94677 38.0618 7.46877 39.3918C7.75932 39.6307 8.04989 39.8094 8.37983 39.9902C8.50521 40.0595 8.63059 40.1288 8.75977 40.2003C8.95555 40.307 8.95555 40.307 9.15528 40.4159C9.41203 40.557 9.66868 40.6983 9.92524 40.8398C10.0493 40.908 10.1734 40.9763 10.3012 41.0466C10.7446 41.2962 11.1782 41.56 11.6098 41.8295C11.8271 41.9728 11.8271 41.9728 12.0703 41.954C12.0316 40.0204 11.993 38.0868 11.9531 36.0946C11.2063 35.8819 10.4594 35.6692 9.68995 35.4501C9.45455 35.3828 9.21915 35.3155 8.97661 35.2461C8.79005 35.1932 8.60349 35.1404 8.41691 35.0875C8.32003 35.0597 8.22314 35.0318 8.12332 35.0032C8.03058 34.977 7.93783 34.9508 7.84227 34.9239C7.76186 34.901 7.68145 34.8781 7.5986 34.8545C7.36256 34.7926 7.36256 34.7926 7.03126 34.8055ZM2.10938 38.9071C1.87323 39.7672 1.7394 40.648 2.10938 41.4852C2.93716 42.3268 4.09557 42.8189 5.13898 43.3435C5.80826 43.6836 6.44286 44.0769 7.07965 44.4735C7.41631 44.6824 7.75538 44.8874 8.09418 45.0929C8.22943 45.1751 8.36466 45.2574 8.49988 45.3397C9.11354 45.7129 9.72757 46.0856 10.3416 46.4583C10.6835 46.6658 11.0253 46.8734 11.3672 47.0809C11.5039 47.1639 11.6406 47.2469 11.7774 47.33C15.332 49.4882 18.8867 51.6464 22.4414 53.8046C22.5091 53.8456 22.5767 53.8867 22.6465 53.929C22.7833 54.0121 22.9202 54.0952 23.057 54.1783C23.3967 54.3846 23.7364 54.5908 24.0761 54.7971C24.7164 55.1858 25.3566 55.5745 25.9968 55.9633C26.299 56.1468 26.6012 56.3303 26.9033 56.5138C27.0473 56.6012 27.1912 56.6886 27.3351 56.776C27.5348 56.8973 27.7344 57.0186 27.9341 57.1398C28.0476 57.2088 28.1611 57.2777 28.2781 57.3487C28.3823 57.4118 28.4864 57.4749 28.5938 57.5399C28.675 57.601 28.7563 57.6621 28.84 57.725C29.3138 57.9572 29.7214 57.9391 30.2423 57.9338C30.3495 57.934 30.4567 57.9344 30.5672 57.9347C30.9265 57.9352 31.2858 57.9333 31.6451 57.9314C31.9027 57.9313 32.1602 57.9313 32.4178 57.9315C33.1172 57.9316 33.8166 57.9296 34.5161 57.9271C35.2469 57.9249 35.9778 57.9247 36.7087 57.9243C37.9355 57.9233 39.1623 57.9211 40.389 57.918C41.6525 57.9148 42.916 57.9123 44.1796 57.9108C44.2575 57.9107 44.3354 57.9106 44.4156 57.9105C44.8065 57.91 45.1973 57.9096 45.5881 57.9092C48.8296 57.9055 52.071 57.8993 55.3125 57.8915C54.9736 57.5442 54.6474 57.2782 54.2354 57.0204C54.1148 56.9441 53.9941 56.8679 53.8699 56.7894C53.7441 56.7108 53.6183 56.6322 53.4888 56.5511C53.2442 56.3979 52.9999 56.2442 52.7559 56.0902C52.6279 56.012 52.5 55.9339 52.3681 55.8533C52.0474 55.6483 51.7722 55.4256 51.493 55.1672C49.7862 53.6744 47.9081 53.8183 45.7726 53.8577C45.2633 53.8654 44.754 53.8639 44.2447 53.8634C43.2812 53.8637 42.3178 53.8715 41.3543 53.8823C39.9452 53.8977 38.5361 53.9032 37.127 53.9071C37.0227 53.9074 36.9185 53.9077 36.8111 53.908C36.6029 53.9086 36.3947 53.9092 36.1865 53.9097C35.5842 53.9116 34.9819 53.916 34.3797 53.9226C31.1132 53.9576 27.9965 53.8856 25.2402 51.8787C24.6144 51.4377 23.9606 51.0769 23.2837 50.7211C22.373 50.2351 21.4682 49.7422 20.5737 49.2269C19.681 48.7131 18.785 48.2058 17.8857 47.7035C16.831 47.1141 15.7782 46.5216 14.7268 45.9263C13.8965 45.4565 13.0643 44.9902 12.2315 44.5248C11.235 43.9678 10.242 43.4051 9.25175 42.8372C8.33853 42.3142 7.42061 41.7999 6.50174 41.2869C5.87526 40.937 5.24977 40.5855 4.62617 40.2305C4.50356 40.1608 4.38096 40.091 4.25464 40.0192C4.02165 39.8866 3.78883 39.7536 3.5562 39.6203C3.39926 39.531 3.39926 39.531 3.23914 39.4399C3.14794 39.3878 3.05674 39.3356 2.96277 39.2819C2.68449 39.1358 2.40297 39.0188 2.10938 38.9071ZM2.10938 43.9462C1.86334 45.4054 1.86334 45.4054 2.2728 46.7617C2.72863 47.19 3.27184 47.4802 3.82045 47.7736C4.27136 48.0253 4.68093 48.3298 5.09766 48.6337C5.26348 48.7511 5.4295 48.8683 5.59571 48.9852C8.58399 51.0946 11.5723 53.204 14.5606 55.3134C14.6429 55.3715 14.7252 55.4296 14.81 55.4894C14.9745 55.6056 15.139 55.7217 15.3035 55.8379C15.7416 56.1472 16.18 56.4563 16.6187 56.7649C16.7106 56.8296 16.8025 56.8944 16.8972 56.9611C17.0746 57.086 17.2521 57.2108 17.4296 57.3355C18.0337 57.7611 18.0337 57.7611 18.1641 57.8915C18.3762 57.9025 18.5888 57.9052 18.8013 57.9048C18.9374 57.9048 19.0734 57.9048 19.2136 57.9048C19.3617 57.9041 19.5098 57.9035 19.6623 57.9029C19.813 57.9028 19.9637 57.9026 20.119 57.9024C20.5203 57.902 20.9216 57.9008 21.3229 57.8995C21.7321 57.8983 22.1414 57.8978 22.5506 57.8972C23.354 57.8959 24.1575 57.8939 24.9609 57.8915C24.6577 57.5765 24.3486 57.3657 23.9726 57.1398C23.8426 57.0613 23.7127 56.9829 23.5787 56.902C23.4364 56.8168 23.2942 56.7316 23.1519 56.6464C23.0039 56.5572 22.856 56.468 22.7081 56.3788C22.4007 56.1934 22.0931 56.0082 21.7855 55.8232C21.1524 55.4422 20.521 55.0583 19.8896 54.6745C19.5489 54.4674 19.208 54.2605 18.8672 54.0536C18.7305 53.9706 18.5938 53.8876 18.457 53.8046C18.3894 53.7635 18.3217 53.7224 18.252 53.68C11.0742 49.3221 11.0742 49.3221 10.8692 49.1976C10.7324 49.1146 10.5957 49.0316 10.4589 48.9486C10.1176 48.7413 9.77623 48.5341 9.43489 48.3268C8.81425 47.95 8.1936 47.5732 7.57291 47.1964C7.36265 47.0688 7.15239 46.9412 6.94214 46.8136C6.66748 46.6468 6.3928 46.4802 6.1181 46.3135C5.45166 45.9091 4.78575 45.5038 4.1208 45.097C3.93234 44.9818 3.93234 44.9818 3.74008 44.8643C3.50265 44.7191 3.26535 44.5737 3.0282 44.4281C2.92394 44.3644 2.81968 44.3007 2.71226 44.235C2.62084 44.179 2.52942 44.1229 2.43523 44.0652C2.24964 43.9365 2.24964 43.9365 2.10938 43.9462ZM35.1563 47.4618C34.6867 48.8705 35.0391 50.43 35.0391 51.9149C39.293 51.9149 43.5469 51.9149 47.9297 51.9149C47.9297 50.5227 47.9297 49.1305 47.9297 47.6962C47.4453 47.1173 47.4453 47.1173 47.0899 47.0371C47.0047 47.0372 46.9194 47.0373 46.8316 47.0374C46.7328 47.0361 46.6341 47.0348 46.5324 47.0334C46.4256 47.035 46.3189 47.0365 46.2089 47.0381C46.0385 47.0371 46.0385 47.0372 45.8646 47.0362C45.4895 47.0348 45.1146 47.0376 44.7395 47.0406C44.4788 47.0408 44.218 47.0408 43.9572 47.0406C43.411 47.0408 42.8648 47.043 42.3185 47.0467C41.618 47.0514 40.9175 47.0519 40.2169 47.051C39.6786 47.0506 39.1403 47.052 38.6019 47.0541C38.3436 47.0549 38.0853 47.0552 37.8269 47.0551C37.4661 47.0554 37.1054 47.0579 36.7447 47.061C36.6377 47.0607 36.5307 47.0603 36.4205 47.06C35.7126 47.0584 35.7126 47.0584 35.1563 47.4618Z"/>
</mask>
<path d="M22.0848 -0.0727692C22.2461 -0.0733608 22.4075 -0.0742082 22.5688 -0.0752885C23.011 -0.0775041 23.4531 -0.0760735 23.8953 -0.0740319C24.3726 -0.072464 24.8499 -0.0742739 25.3272 -0.0756517C26.2617 -0.077805 27.1961 -0.0768079 28.1306 -0.0747039C28.8899 -0.0730603 29.6491 -0.072604 30.4084 -0.0729979C30.5705 -0.0730818 30.5705 -0.0730818 30.7359 -0.0731674C30.9554 -0.0732877 31.1749 -0.0734114 31.3944 -0.0735384C33.3351 -0.0745423 35.2758 -0.0725883 37.2166 -0.0691053C39.1005 -0.0657243 40.9844 -0.0648966 42.8683 -0.0667021C44.9195 -0.0686651 46.9707 -0.0691406 49.0219 -0.0670876C49.2405 -0.0668714 49.4591 -0.0666564 49.6777 -0.0664426C49.7853 -0.0663357 49.8928 -0.0662288 50.0036 -0.0661187C50.7624 -0.0654611 51.5211 -0.0658499 52.2798 -0.0666236C53.2039 -0.0675285 54.1279 -0.0667434 55.052 -0.0637906C55.5237 -0.0623233 55.9953 -0.0616097 56.467 -0.0629166C56.8984 -0.0640896 57.3298 -0.0631104 57.7613 -0.0603875C57.9919 -0.0594926 58.2226 -0.0609062 58.4532 -0.0623919C58.6577 -0.0604499 58.6577 -0.0604499 58.8664 -0.0584687C58.9843 -0.0583291 59.1023 -0.0581894 59.2238 -0.0580456C59.6153 0.0169408 59.7543 0.162267 60 0.469597C60.0705 0.725487 60.0705 0.725487 60.0732 0.989616C60.0772 1.07648 60.0811 1.16334 60.0851 1.25283C59.8299 2.0665 58.6469 2.49468 57.9565 2.87194C57.6918 3.01837 57.427 3.16485 57.1623 3.31139C57.029 3.38496 56.8956 3.45853 56.7582 3.53432C56.1764 3.8565 55.5979 4.18439 55.0195 4.51257C54.0835 5.04259 53.1458 5.56955 52.207 6.0946C51.2197 6.64693 50.2332 7.20083 49.2481 7.75719C49.1357 7.82056 49.0234 7.88393 48.9077 7.94923C48.8031 8.00837 48.6985 8.06751 48.5907 8.12844C48.4995 8.17998 48.4083 8.23152 48.3143 8.28462C48.0276 8.44942 47.744 8.61894 47.4609 8.78991C47.5453 8.79455 47.6296 8.7992 47.7165 8.80398C50.144 8.94466 52.3885 9.11705 54.1406 11.0165C54.235 11.1777 54.3255 11.3414 54.4116 11.5072C54.7174 12.0454 55.1199 12.1322 55.6902 12.3083C56.821 12.7059 57.6331 13.7245 58.147 14.7665C58.8417 16.3639 59.0806 18.0162 59.079 19.7461C59.0795 19.9254 59.0795 19.9254 59.08 20.1083C59.081 20.5066 59.0812 20.9049 59.0814 21.3033C59.0819 21.5898 59.0825 21.8763 59.0831 22.1628C59.0847 22.9395 59.0854 23.7163 59.086 24.493C59.0863 24.9786 59.0868 25.4643 59.0873 25.9499C59.0887 27.2965 59.0899 28.6431 59.0903 29.9897C59.0904 30.0758 59.0904 30.1618 59.0904 30.2504C59.0904 30.3366 59.0905 30.4229 59.0905 30.5117C59.0906 30.6864 59.0906 30.8611 59.0907 31.0358C59.0907 31.1224 59.0907 31.2091 59.0907 31.2983C59.0912 32.7023 59.0932 34.1062 59.096 35.5102C59.0988 36.9541 59.1002 38.3981 59.1003 39.8421C59.1005 40.6518 59.1011 41.4615 59.1033 42.2712C59.1053 43.0329 59.1054 43.7946 59.1044 44.5564C59.1043 44.8353 59.1048 45.1142 59.106 45.3931C59.1152 47.7474 58.9528 49.7401 57.2365 51.5341C56.1731 52.5236 54.5859 53.5555 53.0859 53.5555C53.3915 53.8759 53.6937 54.1352 54.0645 54.3764C54.1643 54.4418 54.2641 54.5072 54.3669 54.5745C54.474 54.6438 54.581 54.7132 54.6913 54.7846C54.8026 54.8575 54.9139 54.9303 55.0285 55.0053C55.3841 55.2379 55.7401 55.4698 56.0962 55.7015C56.4502 55.932 56.8041 56.1627 57.1576 56.394C57.3772 56.5377 57.5971 56.6809 57.8173 56.8237C58.579 57.3217 59.3542 57.8316 60 58.4774C60.0394 58.7145 60.0394 58.7145 60.0439 58.9901C60.0473 59.0804 60.0506 59.1708 60.054 59.2639C59.9785 59.6387 59.8271 59.7629 59.5313 60.0008C59.2056 60.0607 59.2056 60.0607 58.8221 60.0625C58.6759 60.0643 58.5296 60.0661 58.3789 60.0679C58.2163 60.0675 58.0537 60.0671 57.8911 60.0667C57.7186 60.0679 57.5461 60.0693 57.3736 60.0709C56.8988 60.0747 56.4241 60.0755 55.9493 60.0759C55.4375 60.0767 54.9256 60.0803 54.4138 60.0834C53.2939 60.0898 52.174 60.0926 51.0541 60.0947C50.3544 60.096 49.6547 60.098 48.955 60.1001C47.0167 60.1058 45.0784 60.1106 43.1401 60.1122C42.954 60.1124 42.954 60.1124 42.7641 60.1125C42.5775 60.1127 42.5775 60.1127 42.3871 60.1128C42.1351 60.113 41.883 60.1132 41.631 60.1135C41.5059 60.1136 41.3809 60.1137 41.2521 60.1138C39.229 60.1156 37.2059 60.1238 35.1828 60.1347C33.1044 60.1459 31.0261 60.1517 28.9476 60.1522C27.7812 60.1527 26.6149 60.1553 25.4485 60.1639C24.4546 60.1711 23.4608 60.1735 22.4668 60.1696C21.9602 60.1678 21.4539 60.1682 20.9473 60.1748C17.2166 60.2208 17.2166 60.2208 15.8584 58.965C15.7962 58.9041 15.7341 58.8432 15.67 58.7804C15.3029 58.4415 14.8848 58.1721 14.4727 57.8915C14.3065 57.7746 14.1404 57.6574 13.9746 57.5399C13.8513 57.4529 13.8513 57.4529 13.7256 57.3641C10.8203 55.3134 7.91505 53.2626 5.00977 51.2118C4.88644 51.1247 4.88644 51.1247 4.76061 51.0359C4.59505 50.919 4.42951 50.8021 4.26399 50.6852C3.8421 50.3872 3.41986 50.0898 2.99699 49.7932C2.22711 49.2527 1.45859 48.7108 0.703133 48.1503C0.591952 48.0678 0.48077 47.9853 0.366219 47.9003C0.117196 47.6962 0.117196 47.6962 8.21799e-06 47.4618C-0.0113944 47.292 -0.0155507 47.1216 -0.0160475 46.9514C-0.0166422 46.8435 -0.0172372 46.7357 -0.0178499 46.6245C-0.0179083 46.5052 -0.0179669 46.3859 -0.018027 46.263C-0.0185405 46.1369 -0.0190535 46.0108 -0.0195826 45.8808C-0.021156 45.4554 -0.0218771 45.03 -0.0225939 44.6045C-0.0235194 44.3006 -0.0244884 43.9967 -0.0254978 43.6929C-0.0283729 42.7789 -0.0300863 41.865 -0.0315989 40.951C-0.0320338 40.693 -0.032499 40.4349 -0.0329758 40.1769C-0.0359329 38.5751 -0.0385172 36.9734 -0.0399746 35.3716C-0.0403179 35.0006 -0.0406656 34.6295 -0.0410188 34.2584C-0.0411063 34.1661 -0.0411934 34.0739 -0.0412835 33.9789C-0.0427669 32.4841 -0.0466607 30.9894 -0.051542 29.4947C-0.0565103 27.9608 -0.0592746 26.427 -0.0598873 24.8931C-0.0602877 24.0316 -0.0616698 23.1701 -0.0655253 22.3086C-0.0691451 21.4984 -0.0697941 20.6883 -0.0684096 19.8781C-0.0683836 19.5803 -0.069365 19.2825 -0.0714154 18.9848C-0.0740581 18.579 -0.0731105 18.1734 -0.071242 17.7677C-0.0728688 17.6492 -0.0744958 17.5307 -0.0761719 17.4086C-0.0670747 16.6097 -0.0670752 16.6097 0.27663 16.172C0.378704 16.0949 0.480779 16.0178 0.585946 15.9383C0.695768 15.8414 0.80559 15.7444 0.91874 15.6445C1.03944 15.5419 1.16045 15.4396 1.28175 15.3378C1.34779 15.2821 1.41383 15.2264 1.48187 15.169C2.01639 14.7212 2.56193 14.2887 3.11209 13.8603C3.64288 13.4465 4.1662 13.0242 4.68751 12.5985C5.33476 12.0702 5.98733 11.5499 6.64582 11.0357C7.17005 10.6253 7.68735 10.2069 8.20313 9.786C8.85041 9.25777 9.50296 8.73736 10.1614 8.2232C10.6857 7.81283 11.203 7.39443 11.7188 6.9735C12.366 6.44527 13.0186 5.92486 13.6771 5.4107C14.2013 5.00033 14.7186 4.58193 15.2344 4.161C15.881 3.63327 16.5328 3.11313 17.1909 2.59974C17.8121 2.11375 18.4234 1.61578 19.0322 1.11436C19.1057 1.05416 19.1792 0.99396 19.2549 0.931938C19.3506 0.853112 19.3506 0.853112 19.4483 0.772694C19.5667 0.680668 19.5667 0.680668 19.6875 0.586784C19.7953 0.487788 19.903 0.388793 20.0141 0.286797C20.6429 -0.156335 21.3432 -0.0796662 22.0848 -0.0727692ZM19.6875 3.39928C19.544 3.52192 19.3973 3.64109 19.2458 3.75359C18.5259 4.3099 17.8141 4.87463 17.1094 5.45007C16.4621 5.97832 15.8096 6.49871 15.1511 7.01287C14.6268 7.42324 14.1095 7.84164 13.5938 8.26256C12.9465 8.7908 12.2939 9.31121 11.6354 9.82537C11.0302 10.2992 10.4344 10.7843 9.83892 11.2703C9.33949 11.6773 8.83579 12.078 8.32764 12.474C7.71123 12.9547 7.10597 13.4476 6.50391 13.9462C5.96473 14.3925 5.42465 14.837 4.87342 15.2684C4.74045 15.3727 4.60811 15.4777 4.47642 15.5836C4.11999 15.8682 3.75925 16.1282 3.37464 16.3737C3.29309 16.4294 3.21153 16.4851 3.12751 16.5425C2.88575 16.7074 2.88575 16.7074 2.65086 16.842C2.37631 17.0358 2.25788 17.1558 2.10938 17.4618C2.01483 18.1606 2.06538 18.87 2.10938 19.5712C2.19203 19.5414 2.27468 19.5117 2.35984 19.4811C4.78422 18.6122 7.2206 17.78 9.66065 16.9564C11.8658 16.212 14.0687 15.4621 16.2648 14.6912C17.8378 14.1391 19.4146 13.5986 20.9936 13.0637C21.8504 12.7733 22.7068 12.4817 23.5632 12.1902C24.0159 12.0362 24.4688 11.8825 24.9217 11.7292C25.4305 11.5568 25.9387 11.3829 26.4465 11.2077C26.6297 11.1448 26.8131 11.0824 26.9966 11.0206C27.8761 10.7241 28.6831 10.4292 29.441 9.87673C30.8352 8.87296 32.8328 8.99691 34.464 9.02795C35.029 9.03752 35.5941 9.03913 36.1592 9.04214C36.872 9.04628 37.5846 9.05266 38.2973 9.06806C42.1426 9.15436 42.1426 9.15436 45.5225 7.4793C46.0432 7.10716 46.6071 6.81126 47.168 6.50475C47.3903 6.37934 47.6125 6.25365 47.8345 6.12756C48.5487 5.72389 49.2645 5.3232 49.9805 4.92272C50.224 4.78632 50.4675 4.64991 50.7111 4.51348C51.083 4.30514 51.455 4.09702 51.8273 3.88943C52.1983 3.68258 52.5689 3.47507 52.9395 3.26745C53.0518 3.20506 53.1641 3.14267 53.2798 3.07839C53.3844 3.01963 53.489 2.96087 53.5968 2.90032C53.7336 2.82393 53.7336 2.82393 53.8732 2.746C54.1777 2.55581 54.4478 2.33616 54.7266 2.11022C50.4828 2.08069 46.2391 2.05799 41.9953 2.0444C41.4938 2.04278 40.9923 2.04111 40.4908 2.03941C40.391 2.03907 40.2912 2.03874 40.1883 2.03839C38.5737 2.03278 36.9591 2.02262 35.3445 2.01077C33.6867 1.99869 32.0289 1.99155 30.3711 1.98894C29.3488 1.98717 28.3267 1.9816 27.3044 1.97111C26.6026 1.96428 25.9008 1.96224 25.1989 1.96391C24.7945 1.96473 24.3903 1.96351 23.9858 1.95656C22.1385 1.92947 20.9186 1.93675 19.6875 3.39928ZM29.5825 12.3861C29.1046 12.9583 29.0433 13.3043 29.0479 14.0414C29.0482 14.1302 29.0485 14.2191 29.0488 14.3106C29.0357 15.6718 29.0357 15.6718 29.2969 16.993C37.0313 16.993 44.7656 16.993 52.7344 16.993C52.8649 16.2097 52.9169 15.4356 52.9555 14.644C52.9671 14.4434 52.9855 14.2432 53.0049 14.0432C53.0469 13.4359 52.9878 13.0649 52.6318 12.5619C51.6784 11.4959 50.4506 11.0952 49.0492 10.9846C48.6162 10.972 48.1847 10.9703 47.7516 10.9728C47.5872 10.9726 47.4228 10.9721 47.2584 10.9715C46.8168 10.9705 46.3752 10.9715 45.9336 10.9731C45.4687 10.9744 45.0039 10.974 44.539 10.9737C43.7591 10.9736 42.9792 10.9749 42.1992 10.9771C41.3005 10.9796 40.4018 10.98 39.5031 10.9792C38.6343 10.9786 37.7655 10.9792 36.8967 10.9805C36.5288 10.9811 36.1609 10.9812 35.793 10.9809C35.3592 10.9807 34.9254 10.9817 34.4916 10.9835C34.2586 10.9843 34.0255 10.9839 33.7925 10.9834C32.1896 10.9928 30.7092 11.1392 29.5825 12.3861ZM23.3199 14.4079C23.2118 14.4442 23.2118 14.4442 23.1015 14.4812C22.8621 14.5618 22.6229 14.6428 22.3837 14.7239C22.2167 14.7803 22.0496 14.8367 21.8825 14.8931C21.5311 15.0118 21.1798 15.1307 20.8286 15.2498C20.3823 15.4012 19.9357 15.5518 19.4891 15.7021C19.1431 15.8187 18.7973 15.9357 18.4515 16.0529C18.2872 16.1085 18.1228 16.164 17.9584 16.2192C17.4392 16.394 16.922 16.5738 16.4063 16.7587C16.2704 16.807 16.1346 16.8554 15.9947 16.9052C15.8688 16.9532 15.743 17.0012 15.6134 17.0506C15.5032 17.092 15.393 17.1334 15.2796 17.176C14.7071 17.5212 14.5779 18.1366 14.4141 18.7508C14.3772 18.8715 14.3404 18.9922 14.3024 19.1166C13.968 20.3828 14.0281 21.6702 14.0625 22.9696C14.958 22.878 15.8171 22.6735 16.6903 22.4587C17.571 22.2556 18.3285 22.1573 19.1455 22.5961C19.5461 22.9298 19.7571 23.1784 19.9219 23.6727C19.9332 23.8449 19.9382 24.0175 19.9391 24.19C19.94 24.2957 19.9408 24.4015 19.9417 24.5105C19.942 24.6263 19.9423 24.7421 19.9426 24.8614C19.9438 25.0447 19.9438 25.0447 19.945 25.2317C19.9473 25.6367 19.9486 26.0417 19.9498 26.4468C19.9503 26.5851 19.9508 26.7233 19.9513 26.8658C19.9537 27.5977 19.9554 28.3296 19.9565 29.0615C19.9578 29.8175 19.9618 30.5734 19.9665 31.3293C19.9695 31.9106 19.9705 32.4919 19.9709 33.0732C19.9715 33.3518 19.9729 33.6305 19.975 33.9091C19.9779 34.2993 19.9778 34.6894 19.977 35.0796C19.9785 35.1945 19.98 35.3093 19.9815 35.4276C19.9761 36.1425 19.8698 36.5634 19.4531 37.1493C19.2394 37.3319 19.2394 37.3319 19.021 37.4349C18.9505 37.471 18.8799 37.5071 18.8072 37.5443C17.8075 37.797 16.9153 37.4983 15.9595 37.2079C15.7001 37.1304 15.4405 37.0535 15.1808 36.9772C15.0673 36.9428 14.9537 36.9084 14.8367 36.873C14.5078 36.779 14.5078 36.779 14.0625 36.7977C14.0537 37.4121 14.0474 38.0265 14.0432 38.6409C14.0415 38.849 14.0391 39.0571 14.036 39.2651C13.8869 41.5805 13.8869 41.5805 14.6613 43.6445C14.9856 43.8749 15.3056 44.0429 15.6665 44.2098C15.7916 44.275 15.9166 44.3402 16.0455 44.4073C16.3068 44.543 16.5696 44.6759 16.8338 44.806C17.3316 45.053 17.8179 45.3184 18.3051 45.5856C18.6525 45.7759 19.0014 45.9633 19.3506 46.1503C20.1483 46.5803 20.9338 47.0311 21.7166 47.4875C21.8112 47.5423 21.9059 47.5971 22.0033 47.6536C22.0855 47.7016 22.1676 47.7496 22.2522 47.799C22.5234 47.9429 22.8004 48.0528 23.0859 48.1649C23.0856 48.0127 23.0853 47.8606 23.085 47.7038C23.0773 44.0845 23.0715 40.4652 23.068 36.846C23.0676 36.3997 23.0671 35.9533 23.0666 35.507C23.0665 35.4182 23.0664 35.3293 23.0664 35.2378C23.0648 33.8027 23.0621 32.3677 23.0588 30.9326C23.0555 29.4581 23.0536 27.9835 23.0529 26.509C23.0524 25.6005 23.0509 24.692 23.048 23.7835C23.0459 23.0847 23.0457 22.3858 23.0462 21.687C23.0461 21.4019 23.0454 21.1168 23.044 20.8318C23.0335 18.5114 23.1539 16.2815 24.2578 14.1805C23.9181 14.1805 23.6419 14.2993 23.3199 14.4079ZM26.64 14.5921C24.8908 16.4234 25.0429 18.8783 25.0441 21.2386C25.0434 21.5265 25.0426 21.8144 25.0417 22.1023C25.0399 22.8005 25.0391 23.4987 25.039 24.1968C25.0389 24.7646 25.0384 25.3324 25.0376 25.9002C25.0356 27.5131 25.0345 29.1259 25.0347 30.7388C25.0347 30.8255 25.0347 30.9123 25.0347 31.0016C25.0347 31.0884 25.0347 31.1753 25.0347 31.2647C25.0348 32.6729 25.0326 34.0811 25.0293 35.4892C25.0259 36.9381 25.0243 38.387 25.0245 39.8359C25.0246 40.6482 25.0239 41.4604 25.0214 42.2727C25.019 43.0363 25.0191 43.7999 25.0208 44.5636C25.0211 44.8433 25.0205 45.123 25.0191 45.4027C25.0173 45.7855 25.0184 46.1683 25.0202 46.5511C25.019 46.6609 25.0178 46.7706 25.0165 46.8837C25.0296 48.1433 25.4446 49.1166 26.3196 50.0143C28.1114 51.6665 30.5927 51.9502 32.9297 51.9149C32.9314 51.7855 32.9331 51.6562 32.9349 51.5229C32.9417 51.0386 32.9508 50.5545 32.9605 50.0703C32.9643 49.8615 32.9676 49.6527 32.9703 49.4439C32.9743 49.1422 32.9804 48.8406 32.9869 48.5389C32.9877 48.4469 32.9884 48.355 32.9892 48.2602C33.0115 47.4019 33.1905 46.5092 33.7944 45.8606C34.5948 45.2008 35.4242 45.0318 36.4344 45.0441C36.5563 45.0432 36.6782 45.0424 36.8038 45.0415C37.2033 45.0396 37.6027 45.0418 38.0022 45.0443C38.2817 45.0442 38.5613 45.0439 38.8408 45.0435C39.4253 45.0431 40.0096 45.0449 40.5941 45.0481C41.3414 45.0521 42.0887 45.0514 42.8361 45.0492C43.4129 45.0479 43.9896 45.049 44.5664 45.0507C44.8419 45.0513 45.1174 45.0513 45.3929 45.0506C45.7785 45.0499 46.164 45.0523 46.5496 45.0555C46.6623 45.0548 46.775 45.054 46.8911 45.0532C47.7128 45.0647 48.4565 45.2191 49.0847 45.7815C49.8104 46.5404 49.9739 47.4239 49.9818 48.4359C49.984 48.536 49.9861 48.6361 49.9882 48.7393C49.9945 49.0556 49.9985 49.372 50.0024 49.6884C50.0063 49.9043 50.0104 50.1202 50.0146 50.3361C50.0245 50.8623 50.0323 51.3886 50.0391 51.9149C52.2144 51.79 54.2365 51.4292 55.8751 49.8724C56.7704 48.8259 56.9708 47.7518 56.9696 46.4275C56.9699 46.3107 56.9703 46.1939 56.9706 46.0735C56.9717 45.6816 56.9718 45.2897 56.972 44.8977C56.9726 44.6169 56.9731 44.336 56.9738 44.0551C56.9753 43.2914 56.9761 42.5277 56.9766 41.7639C56.9769 41.2863 56.9774 40.8087 56.9779 40.331C56.9794 39.0066 56.9806 37.6823 56.981 36.3579C56.981 36.2732 56.981 36.1884 56.981 36.1011C56.9811 36.0162 56.9811 35.9313 56.9811 35.8438C56.9812 35.6717 56.9812 35.4996 56.9813 35.3275C56.9813 35.2421 56.9813 35.1568 56.9814 35.0688C56.9818 33.6888 56.9839 32.3087 56.9866 30.9286C56.9894 29.5091 56.9908 28.0897 56.991 26.6702C56.9911 25.8743 56.9917 25.0783 56.9939 24.2824C56.9958 23.5325 56.9961 22.7827 56.995 22.0328C56.9949 21.7589 56.9954 21.485 56.9966 21.211C57.0252 17.627 57.0252 17.627 55.3542 14.5705C55.3017 14.5192 55.2493 14.4678 55.1953 14.4149C55.118 14.4536 55.0406 14.4923 54.9609 14.5321C54.9154 14.7872 54.9154 14.7872 54.9074 15.0997C54.8972 15.2834 54.8972 15.2834 54.8869 15.4707C54.8799 15.6057 54.8729 15.7407 54.8657 15.8798C54.0486 28.6991 54.0486 28.6991 50.7271 31.8804C49.8634 32.5906 49.0044 32.9426 47.8799 32.9478C47.7538 32.9486 47.6277 32.9495 47.4977 32.9503C47.3605 32.9506 47.2232 32.951 47.0819 32.9513C46.9364 32.952 46.7909 32.9528 46.6411 32.9536C46.1597 32.9559 45.6783 32.9573 45.1968 32.9585C45.0305 32.9589 44.8642 32.9594 44.6979 32.9599C43.9163 32.9621 43.1346 32.9638 42.3529 32.9648C41.4533 32.9659 40.5537 32.969 39.6542 32.9737C38.9571 32.9773 38.26 32.979 37.5629 32.9794C37.1474 32.9797 36.732 32.9807 36.3165 32.9837C35.852 32.9869 35.3876 32.9864 34.9232 32.9856C34.7195 32.9879 34.7195 32.9879 34.5117 32.9902C33.2372 32.9821 32.1085 32.6538 31.1719 31.7587C30.677 31.1893 30.3347 30.6158 30.0879 29.9056C30.0551 29.8134 30.0222 29.7211 29.9884 29.6261C28.2838 24.6898 27.4052 19.6051 26.9531 14.4149C26.8064 14.4018 26.8064 14.4018 26.64 14.5921ZM10.167 18.8493C9.95733 18.9152 9.74693 18.9787 9.53583 19.0397C8.29412 19.3567 8.29412 19.3567 7.37727 20.1702C7.25282 20.5623 7.18675 20.9201 7.14845 21.329C7.11959 21.4693 7.09074 21.6096 7.06101 21.7542C7.01887 22.3138 7.01899 22.8701 7.02393 23.431C7.02528 23.6414 7.02659 23.8517 7.02785 24.0621C7.0285 24.1655 7.02914 24.269 7.0298 24.3756C7.03028 24.453 7.03076 24.5304 7.03126 24.6102C7.71349 24.4627 8.39561 24.3146 9.0776 24.166C9.30981 24.1155 9.54205 24.0652 9.77432 24.015C10.1075 23.943 10.4405 23.8704 10.7735 23.7977C10.878 23.7752 10.9825 23.7528 11.0901 23.7296C11.5597 23.6634 11.5597 23.6634 11.9531 23.4383C11.9674 23.2474 11.9742 23.0558 11.9779 22.8643C11.981 22.7438 11.9841 22.6232 11.9873 22.499C11.9921 22.3041 11.9921 22.3041 11.9971 22.1053C12.0373 20.8066 12.1802 19.5576 12.4219 18.2821C11.662 18.2821 10.8873 18.6186 10.167 18.8493ZM29.5313 19.1024C29.6781 20.204 29.8283 21.2623 30.0732 22.3397C30.1034 22.4733 30.1335 22.607 30.1646 22.7446C30.631 24.7704 31.171 26.784 31.8311 28.7557C31.8607 28.8476 31.8903 28.9394 31.9208 29.034C32.1921 29.8095 32.5827 30.3596 33.2744 30.8125C33.9746 31.0648 34.7677 30.9744 35.5005 30.9603C35.6605 30.9586 35.8205 30.9569 35.9805 30.9555C36.3698 30.9514 36.7591 30.9456 37.1484 30.9383C37.1785 30.868 37.2086 30.7976 37.2397 30.7251C37.7721 29.5002 38.3518 28.7542 39.5947 28.2137C40.7649 27.9329 41.8883 27.9386 42.9785 28.4994C43.7548 28.9776 44.2464 29.4815 44.6137 30.3222C44.6646 30.4377 44.7155 30.5533 44.768 30.6723C44.8059 30.7601 44.8438 30.8479 44.8828 30.9383C45.3496 30.95 45.8164 30.9585 46.2833 30.9641C46.5192 30.9676 46.755 30.9735 46.9908 30.9795C48.1914 31.0102 48.1914 31.0102 49.2188 30.4696C49.9253 29.7058 50.2003 28.7191 50.5005 27.745C50.5254 27.666 50.5502 27.587 50.5758 27.5056C50.934 26.3668 51.2564 25.2207 51.5405 24.0609C51.5702 23.9405 51.5999 23.8202 51.6305 23.6962C51.9864 22.1761 52.225 20.6422 52.5 19.1024C44.9203 19.1024 37.3406 19.1024 29.5313 19.1024ZM2.6587 21.6879C2.17499 22.2166 2.07973 22.522 2.08649 23.2388C2.08725 23.38 2.08801 23.5212 2.08878 23.6668C2.09075 23.8138 2.09271 23.9607 2.09473 24.1122C2.09579 24.261 2.09685 24.4098 2.09794 24.5631C2.1007 24.9304 2.10456 25.2976 2.10938 25.6649C2.49028 25.5894 2.87112 25.5137 3.25196 25.4379C3.41375 25.4058 3.41375 25.4058 3.5788 25.3731C3.68304 25.3523 3.78727 25.3315 3.89466 25.3101C3.9904 25.2911 4.08613 25.2721 4.18477 25.2525C4.43231 25.2005 4.677 25.1422 4.92188 25.079C4.92482 24.9934 4.92776 24.9079 4.93078 24.8197C4.94453 24.4252 4.95884 24.0306 4.97315 23.6361C4.97776 23.5016 4.98237 23.3671 4.98711 23.2285C5.01775 22.3966 5.07067 21.5711 5.15626 20.743C4.35992 20.743 3.26567 21.1803 2.6587 21.6879ZM16.7313 24.5255C16.5911 24.5567 16.4509 24.5879 16.3065 24.6201C16.0876 24.6696 16.0876 24.6696 15.8643 24.7201C15.7174 24.7526 15.5706 24.7852 15.4193 24.8187C14.7227 24.9533 14.7227 24.9533 14.0625 25.1962C14.0625 28.2899 14.0625 31.3837 14.0625 34.5712C15.3387 34.9192 16.6149 35.2673 17.9297 35.6259C17.9297 31.9133 17.9297 28.2008 17.9297 24.3758C17.4939 24.3758 17.1542 24.4311 16.7313 24.5255ZM11.1421 25.7617C11.0494 25.7831 10.9566 25.8046 10.8611 25.8266C10.7157 25.8608 10.7157 25.8608 10.5675 25.8956C10.478 25.9164 10.3885 25.9371 10.2963 25.9585C9.96225 26.036 9.62835 26.1141 9.29444 26.1923C8.17417 26.4533 8.17417 26.4533 7.03126 26.7196C7.03126 28.6532 7.03126 30.5868 7.03126 32.579C8.42344 32.985 8.42344 32.985 9.84376 33.3993C10.8106 33.6849 10.8106 33.6849 11.1786 33.7943C11.5079 33.8863 11.5079 33.8863 11.9531 33.868C11.9531 31.161 11.9531 28.454 11.9531 25.6649C11.6509 25.6649 11.4323 25.6941 11.1421 25.7617ZM4.20365 27.3165C4.0945 27.3403 3.98535 27.3641 3.87289 27.3886C3.73324 27.4192 3.59359 27.4498 3.44972 27.4813C2.78625 27.6263 2.78625 27.6263 2.10938 27.7743C2.10938 28.8958 2.10938 30.0173 2.10938 31.1727C3.1866 31.5969 3.1866 31.5969 4.92188 31.993C4.92188 30.4075 4.92188 28.8219 4.92188 27.1883C4.68057 27.1883 4.43784 27.2653 4.20365 27.3165ZM39.6094 30.5868C39.5707 30.7028 39.532 30.8188 39.4922 30.9383C40.4977 30.9383 41.5031 30.9383 42.5391 30.9383C42.0422 30.2868 42.0422 30.2868 41.3283 30.0787C40.6118 30.0674 40.1888 30.1553 39.6094 30.5868ZM2.10938 33.3993C2.09568 33.7948 2.08741 34.1902 2.08009 34.5858C2.07616 34.6973 2.07223 34.8088 2.06818 34.9236C2.05863 35.6119 2.09999 36.0283 2.57813 36.5634C3.01229 36.9621 3.50224 37.2437 4.01368 37.5301C4.0883 37.5727 4.16293 37.6153 4.23982 37.6592C4.56191 37.8753 4.56191 37.8753 4.92188 37.9696C4.92188 36.7321 4.92188 35.4946 4.92188 34.2196C4.20514 33.9428 4.20514 33.9428 3.48267 33.7312C3.36031 33.7011 3.36031 33.7011 3.23548 33.6705C3.11312 33.6414 3.11312 33.6414 2.98829 33.6117C2.86049 33.5805 2.86049 33.5805 2.73011 33.5487C2.52333 33.4984 2.31637 33.4488 2.10938 33.3993ZM7.03126 34.8055C7.02434 35.2645 7.02025 35.7235 7.01661 36.1825C7.01465 36.3104 7.01268 36.4384 7.01066 36.5702C6.94677 38.0618 6.94677 38.0618 7.46877 39.3918C7.75932 39.6307 8.04989 39.8094 8.37983 39.9902C8.50521 40.0595 8.63059 40.1288 8.75977 40.2003C8.95555 40.307 8.95555 40.307 9.15528 40.4159C9.41203 40.557 9.66868 40.6983 9.92524 40.8398C10.0493 40.908 10.1734 40.9763 10.3012 41.0466C10.7446 41.2962 11.1782 41.56 11.6098 41.8295C11.8271 41.9728 11.8271 41.9728 12.0703 41.954C12.0316 40.0204 11.993 38.0868 11.9531 36.0946C11.2063 35.8819 10.4594 35.6692 9.68995 35.4501C9.45455 35.3828 9.21915 35.3155 8.97661 35.2461C8.79005 35.1932 8.60349 35.1404 8.41691 35.0875C8.32003 35.0597 8.22314 35.0318 8.12332 35.0032C8.03058 34.977 7.93783 34.9508 7.84227 34.9239C7.76186 34.901 7.68145 34.8781 7.5986 34.8545C7.36256 34.7926 7.36256 34.7926 7.03126 34.8055ZM2.10938 38.9071C1.87323 39.7672 1.7394 40.648 2.10938 41.4852C2.93716 42.3268 4.09557 42.8189 5.13898 43.3435C5.80826 43.6836 6.44286 44.0769 7.07965 44.4735C7.41631 44.6824 7.75538 44.8874 8.09418 45.0929C8.22943 45.1751 8.36466 45.2574 8.49988 45.3397C9.11354 45.7129 9.72757 46.0856 10.3416 46.4583C10.6835 46.6658 11.0253 46.8734 11.3672 47.0809C11.5039 47.1639 11.6406 47.2469 11.7774 47.33C15.332 49.4882 18.8867 51.6464 22.4414 53.8046C22.5091 53.8456 22.5767 53.8867 22.6465 53.929C22.7833 54.0121 22.9202 54.0952 23.057 54.1783C23.3967 54.3846 23.7364 54.5908 24.0761 54.7971C24.7164 55.1858 25.3566 55.5745 25.9968 55.9633C26.299 56.1468 26.6012 56.3303 26.9033 56.5138C27.0473 56.6012 27.1912 56.6886 27.3351 56.776C27.5348 56.8973 27.7344 57.0186 27.9341 57.1398C28.0476 57.2088 28.1611 57.2777 28.2781 57.3487C28.3823 57.4118 28.4864 57.4749 28.5938 57.5399C28.675 57.601 28.7563 57.6621 28.84 57.725C29.3138 57.9572 29.7214 57.9391 30.2423 57.9338C30.3495 57.934 30.4567 57.9344 30.5672 57.9347C30.9265 57.9352 31.2858 57.9333 31.6451 57.9314C31.9027 57.9313 32.1602 57.9313 32.4178 57.9315C33.1172 57.9316 33.8166 57.9296 34.5161 57.9271C35.2469 57.9249 35.9778 57.9247 36.7087 57.9243C37.9355 57.9233 39.1623 57.9211 40.389 57.918C41.6525 57.9148 42.916 57.9123 44.1796 57.9108C44.2575 57.9107 44.3354 57.9106 44.4156 57.9105C44.8065 57.91 45.1973 57.9096 45.5881 57.9092C48.8296 57.9055 52.071 57.8993 55.3125 57.8915C54.9736 57.5442 54.6474 57.2782 54.2354 57.0204C54.1148 56.9441 53.9941 56.8679 53.8699 56.7894C53.7441 56.7108 53.6183 56.6322 53.4888 56.5511C53.2442 56.3979 52.9999 56.2442 52.7559 56.0902C52.6279 56.012 52.5 55.9339 52.3681 55.8533C52.0474 55.6483 51.7722 55.4256 51.493 55.1672C49.7862 53.6744 47.9081 53.8183 45.7726 53.8577C45.2633 53.8654 44.754 53.8639 44.2447 53.8634C43.2812 53.8637 42.3178 53.8715 41.3543 53.8823C39.9452 53.8977 38.5361 53.9032 37.127 53.9071C37.0227 53.9074 36.9185 53.9077 36.8111 53.908C36.6029 53.9086 36.3947 53.9092 36.1865 53.9097C35.5842 53.9116 34.9819 53.916 34.3797 53.9226C31.1132 53.9576 27.9965 53.8856 25.2402 51.8787C24.6144 51.4377 23.9606 51.0769 23.2837 50.7211C22.373 50.2351 21.4682 49.7422 20.5737 49.2269C19.681 48.7131 18.785 48.2058 17.8857 47.7035C16.831 47.1141 15.7782 46.5216 14.7268 45.9263C13.8965 45.4565 13.0643 44.9902 12.2315 44.5248C11.235 43.9678 10.242 43.4051 9.25175 42.8372C8.33853 42.3142 7.42061 41.7999 6.50174 41.2869C5.87526 40.937 5.24977 40.5855 4.62617 40.2305C4.50356 40.1608 4.38096 40.091 4.25464 40.0192C4.02165 39.8866 3.78883 39.7536 3.5562 39.6203C3.39926 39.531 3.39926 39.531 3.23914 39.4399C3.14794 39.3878 3.05674 39.3356 2.96277 39.2819C2.68449 39.1358 2.40297 39.0188 2.10938 38.9071ZM2.10938 43.9462C1.86334 45.4054 1.86334 45.4054 2.2728 46.7617C2.72863 47.19 3.27184 47.4802 3.82045 47.7736C4.27136 48.0253 4.68093 48.3298 5.09766 48.6337C5.26348 48.7511 5.4295 48.8683 5.59571 48.9852C8.58399 51.0946 11.5723 53.204 14.5606 55.3134C14.6429 55.3715 14.7252 55.4296 14.81 55.4894C14.9745 55.6056 15.139 55.7217 15.3035 55.8379C15.7416 56.1472 16.18 56.4563 16.6187 56.7649C16.7106 56.8296 16.8025 56.8944 16.8972 56.9611C17.0746 57.086 17.2521 57.2108 17.4296 57.3355C18.0337 57.7611 18.0337 57.7611 18.1641 57.8915C18.3762 57.9025 18.5888 57.9052 18.8013 57.9048C18.9374 57.9048 19.0734 57.9048 19.2136 57.9048C19.3617 57.9041 19.5098 57.9035 19.6623 57.9029C19.813 57.9028 19.9637 57.9026 20.119 57.9024C20.5203 57.902 20.9216 57.9008 21.3229 57.8995C21.7321 57.8983 22.1414 57.8978 22.5506 57.8972C23.354 57.8959 24.1575 57.8939 24.9609 57.8915C24.6577 57.5765 24.3486 57.3657 23.9726 57.1398C23.8426 57.0613 23.7127 56.9829 23.5787 56.902C23.4364 56.8168 23.2942 56.7316 23.1519 56.6464C23.0039 56.5572 22.856 56.468 22.7081 56.3788C22.4007 56.1934 22.0931 56.0082 21.7855 55.8232C21.1524 55.4422 20.521 55.0583 19.8896 54.6745C19.5489 54.4674 19.208 54.2605 18.8672 54.0536C18.7305 53.9706 18.5938 53.8876 18.457 53.8046C18.3894 53.7635 18.3217 53.7224 18.252 53.68C11.0742 49.3221 11.0742 49.3221 10.8692 49.1976C10.7324 49.1146 10.5957 49.0316 10.4589 48.9486C10.1176 48.7413 9.77623 48.5341 9.43489 48.3268C8.81425 47.95 8.1936 47.5732 7.57291 47.1964C7.36265 47.0688 7.15239 46.9412 6.94214 46.8136C6.66748 46.6468 6.3928 46.4802 6.1181 46.3135C5.45166 45.9091 4.78575 45.5038 4.1208 45.097C3.93234 44.9818 3.93234 44.9818 3.74008 44.8643C3.50265 44.7191 3.26535 44.5737 3.0282 44.4281C2.92394 44.3644 2.81968 44.3007 2.71226 44.235C2.62084 44.179 2.52942 44.1229 2.43523 44.0652C2.24964 43.9365 2.24964 43.9365 2.10938 43.9462ZM35.1563 47.4618C34.6867 48.8705 35.0391 50.43 35.0391 51.9149C39.293 51.9149 43.5469 51.9149 47.9297 51.9149C47.9297 50.5227 47.9297 49.1305 47.9297 47.6962C47.4453 47.1173 47.4453 47.1173 47.0899 47.0371C47.0047 47.0372 46.9194 47.0373 46.8316 47.0374C46.7328 47.0361 46.6341 47.0348 46.5324 47.0334C46.4256 47.035 46.3189 47.0365 46.2089 47.0381C46.0385 47.0371 46.0385 47.0372 45.8646 47.0362C45.4895 47.0348 45.1146 47.0376 44.7395 47.0406C44.4788 47.0408 44.218 47.0408 43.9572 47.0406C43.411 47.0408 42.8648 47.043 42.3185 47.0467C41.618 47.0514 40.9175 47.0519 40.2169 47.051C39.6786 47.0506 39.1403 47.052 38.6019 47.0541C38.3436 47.0549 38.0853 47.0552 37.8269 47.0551C37.4661 47.0554 37.1054 47.0579 36.7447 47.061C36.6377 47.0607 36.5307 47.0603 36.4205 47.06C35.7126 47.0584 35.7126 47.0584 35.1563 47.4618Z" fill="white"/>
<path d="M22.0848 -0.0727692C22.2461 -0.0733608 22.4075 -0.0742082 22.5688 -0.0752885C23.011 -0.0775041 23.4531 -0.0760735 23.8953 -0.0740319C24.3726 -0.072464 24.8499 -0.0742739 25.3272 -0.0756517C26.2617 -0.077805 27.1961 -0.0768079 28.1306 -0.0747039C28.8899 -0.0730603 29.6491 -0.072604 30.4084 -0.0729979C30.5705 -0.0730818 30.5705 -0.0730818 30.7359 -0.0731674C30.9554 -0.0732877 31.1749 -0.0734114 31.3944 -0.0735384C33.3351 -0.0745423 35.2758 -0.0725883 37.2166 -0.0691053C39.1005 -0.0657243 40.9844 -0.0648966 42.8683 -0.0667021C44.9195 -0.0686651 46.9707 -0.0691406 49.0219 -0.0670876C49.2405 -0.0668714 49.4591 -0.0666564 49.6777 -0.0664426C49.7853 -0.0663357 49.8928 -0.0662288 50.0036 -0.0661187C50.7624 -0.0654611 51.5211 -0.0658499 52.2798 -0.0666236C53.2039 -0.0675285 54.1279 -0.0667434 55.052 -0.0637906C55.5237 -0.0623233 55.9953 -0.0616097 56.467 -0.0629166C56.8984 -0.0640896 57.3298 -0.0631104 57.7613 -0.0603875C57.9919 -0.0594926 58.2226 -0.0609062 58.4532 -0.0623919C58.6577 -0.0604499 58.6577 -0.0604499 58.8664 -0.0584687C58.9843 -0.0583291 59.1023 -0.0581894 59.2238 -0.0580456C59.6153 0.0169408 59.7543 0.162267 60 0.469597C60.0705 0.725487 60.0705 0.725487 60.0732 0.989616C60.0772 1.07648 60.0811 1.16334 60.0851 1.25283C59.8299 2.0665 58.6469 2.49468 57.9565 2.87194C57.6918 3.01837 57.427 3.16485 57.1623 3.31139C57.029 3.38496 56.8956 3.45853 56.7582 3.53432C56.1764 3.8565 55.5979 4.18439 55.0195 4.51257C54.0835 5.04259 53.1458 5.56955 52.207 6.0946C51.2197 6.64693 50.2332 7.20083 49.2481 7.75719C49.1357 7.82056 49.0234 7.88393 48.9077 7.94923C48.8031 8.00837 48.6985 8.06751 48.5907 8.12844C48.4995 8.17998 48.4083 8.23152 48.3143 8.28462C48.0276 8.44942 47.744 8.61894 47.4609 8.78991C47.5453 8.79455 47.6296 8.7992 47.7165 8.80398C50.144 8.94466 52.3885 9.11705 54.1406 11.0165C54.235 11.1777 54.3255 11.3414 54.4116 11.5072C54.7174 12.0454 55.1199 12.1322 55.6902 12.3083C56.821 12.7059 57.6331 13.7245 58.147 14.7665C58.8417 16.3639 59.0806 18.0162 59.079 19.7461C59.0795 19.9254 59.0795 19.9254 59.08 20.1083C59.081 20.5066 59.0812 20.9049 59.0814 21.3033C59.0819 21.5898 59.0825 21.8763 59.0831 22.1628C59.0847 22.9395 59.0854 23.7163 59.086 24.493C59.0863 24.9786 59.0868 25.4643 59.0873 25.9499C59.0887 27.2965 59.0899 28.6431 59.0903 29.9897C59.0904 30.0758 59.0904 30.1618 59.0904 30.2504C59.0904 30.3366 59.0905 30.4229 59.0905 30.5117C59.0906 30.6864 59.0906 30.8611 59.0907 31.0358C59.0907 31.1224 59.0907 31.2091 59.0907 31.2983C59.0912 32.7023 59.0932 34.1062 59.096 35.5102C59.0988 36.9541 59.1002 38.3981 59.1003 39.8421C59.1005 40.6518 59.1011 41.4615 59.1033 42.2712C59.1053 43.0329 59.1054 43.7946 59.1044 44.5564C59.1043 44.8353 59.1048 45.1142 59.106 45.3931C59.1152 47.7474 58.9528 49.7401 57.2365 51.5341C56.1731 52.5236 54.5859 53.5555 53.0859 53.5555C53.3915 53.8759 53.6937 54.1352 54.0645 54.3764C54.1643 54.4418 54.2641 54.5072 54.3669 54.5745C54.474 54.6438 54.581 54.7132 54.6913 54.7846C54.8026 54.8575 54.9139 54.9303 55.0285 55.0053C55.3841 55.2379 55.7401 55.4698 56.0962 55.7015C56.4502 55.932 56.8041 56.1627 57.1576 56.394C57.3772 56.5377 57.5971 56.6809 57.8173 56.8237C58.579 57.3217 59.3542 57.8316 60 58.4774C60.0394 58.7145 60.0394 58.7145 60.0439 58.9901C60.0473 59.0804 60.0506 59.1708 60.054 59.2639C59.9785 59.6387 59.8271 59.7629 59.5313 60.0008C59.2056 60.0607 59.2056 60.0607 58.8221 60.0625C58.6759 60.0643 58.5296 60.0661 58.3789 60.0679C58.2163 60.0675 58.0537 60.0671 57.8911 60.0667C57.7186 60.0679 57.5461 60.0693 57.3736 60.0709C56.8988 60.0747 56.4241 60.0755 55.9493 60.0759C55.4375 60.0767 54.9256 60.0803 54.4138 60.0834C53.2939 60.0898 52.174 60.0926 51.0541 60.0947C50.3544 60.096 49.6547 60.098 48.955 60.1001C47.0167 60.1058 45.0784 60.1106 43.1401 60.1122C42.954 60.1124 42.954 60.1124 42.7641 60.1125C42.5775 60.1127 42.5775 60.1127 42.3871 60.1128C42.1351 60.113 41.883 60.1132 41.631 60.1135C41.5059 60.1136 41.3809 60.1137 41.2521 60.1138C39.229 60.1156 37.2059 60.1238 35.1828 60.1347C33.1044 60.1459 31.0261 60.1517 28.9476 60.1522C27.7812 60.1527 26.6149 60.1553 25.4485 60.1639C24.4546 60.1711 23.4608 60.1735 22.4668 60.1696C21.9602 60.1678 21.4539 60.1682 20.9473 60.1748C17.2166 60.2208 17.2166 60.2208 15.8584 58.965C15.7962 58.9041 15.7341 58.8432 15.67 58.7804C15.3029 58.4415 14.8848 58.1721 14.4727 57.8915C14.3065 57.7746 14.1404 57.6574 13.9746 57.5399C13.8513 57.4529 13.8513 57.4529 13.7256 57.3641C10.8203 55.3134 7.91505 53.2626 5.00977 51.2118C4.88644 51.1247 4.88644 51.1247 4.76061 51.0359C4.59505 50.919 4.42951 50.8021 4.26399 50.6852C3.8421 50.3872 3.41986 50.0898 2.99699 49.7932C2.22711 49.2527 1.45859 48.7108 0.703133 48.1503C0.591952 48.0678 0.48077 47.9853 0.366219 47.9003C0.117196 47.6962 0.117196 47.6962 8.21799e-06 47.4618C-0.0113944 47.292 -0.0155507 47.1216 -0.0160475 46.9514C-0.0166422 46.8435 -0.0172372 46.7357 -0.0178499 46.6245C-0.0179083 46.5052 -0.0179669 46.3859 -0.018027 46.263C-0.0185405 46.1369 -0.0190535 46.0108 -0.0195826 45.8808C-0.021156 45.4554 -0.0218771 45.03 -0.0225939 44.6045C-0.0235194 44.3006 -0.0244884 43.9967 -0.0254978 43.6929C-0.0283729 42.7789 -0.0300863 41.865 -0.0315989 40.951C-0.0320338 40.693 -0.032499 40.4349 -0.0329758 40.1769C-0.0359329 38.5751 -0.0385172 36.9734 -0.0399746 35.3716C-0.0403179 35.0006 -0.0406656 34.6295 -0.0410188 34.2584C-0.0411063 34.1661 -0.0411934 34.0739 -0.0412835 33.9789C-0.0427669 32.4841 -0.0466607 30.9894 -0.051542 29.4947C-0.0565103 27.9608 -0.0592746 26.427 -0.0598873 24.8931C-0.0602877 24.0316 -0.0616698 23.1701 -0.0655253 22.3086C-0.0691451 21.4984 -0.0697941 20.6883 -0.0684096 19.8781C-0.0683836 19.5803 -0.069365 19.2825 -0.0714154 18.9848C-0.0740581 18.579 -0.0731105 18.1734 -0.071242 17.7677C-0.0728688 17.6492 -0.0744958 17.5307 -0.0761719 17.4086C-0.0670747 16.6097 -0.0670752 16.6097 0.27663 16.172C0.378704 16.0949 0.480779 16.0178 0.585946 15.9383C0.695768 15.8414 0.80559 15.7444 0.91874 15.6445C1.03944 15.5419 1.16045 15.4396 1.28175 15.3378C1.34779 15.2821 1.41383 15.2264 1.48187 15.169C2.01639 14.7212 2.56193 14.2887 3.11209 13.8603C3.64288 13.4465 4.1662 13.0242 4.68751 12.5985C5.33476 12.0702 5.98733 11.5499 6.64582 11.0357C7.17005 10.6253 7.68735 10.2069 8.20313 9.786C8.85041 9.25777 9.50296 8.73736 10.1614 8.2232C10.6857 7.81283 11.203 7.39443 11.7188 6.9735C12.366 6.44527 13.0186 5.92486 13.6771 5.4107C14.2013 5.00033 14.7186 4.58193 15.2344 4.161C15.881 3.63327 16.5328 3.11313 17.1909 2.59974C17.8121 2.11375 18.4234 1.61578 19.0322 1.11436C19.1057 1.05416 19.1792 0.99396 19.2549 0.931938C19.3506 0.853112 19.3506 0.853112 19.4483 0.772694C19.5667 0.680668 19.5667 0.680668 19.6875 0.586784C19.7953 0.487788 19.903 0.388793 20.0141 0.286797C20.6429 -0.156335 21.3432 -0.0796662 22.0848 -0.0727692ZM19.6875 3.39928C19.544 3.52192 19.3973 3.64109 19.2458 3.75359C18.5259 4.3099 17.8141 4.87463 17.1094 5.45007C16.4621 5.97832 15.8096 6.49871 15.1511 7.01287C14.6268 7.42324 14.1095 7.84164 13.5938 8.26256C12.9465 8.7908 12.2939 9.31121 11.6354 9.82537C11.0302 10.2992 10.4344 10.7843 9.83892 11.2703C9.33949 11.6773 8.83579 12.078 8.32764 12.474C7.71123 12.9547 7.10597 13.4476 6.50391 13.9462C5.96473 14.3925 5.42465 14.837 4.87342 15.2684C4.74045 15.3727 4.60811 15.4777 4.47642 15.5836C4.11999 15.8682 3.75925 16.1282 3.37464 16.3737C3.29309 16.4294 3.21153 16.4851 3.12751 16.5425C2.88575 16.7074 2.88575 16.7074 2.65086 16.842C2.37631 17.0358 2.25788 17.1558 2.10938 17.4618C2.01483 18.1606 2.06538 18.87 2.10938 19.5712C2.19203 19.5414 2.27468 19.5117 2.35984 19.4811C4.78422 18.6122 7.2206 17.78 9.66065 16.9564C11.8658 16.212 14.0687 15.4621 16.2648 14.6912C17.8378 14.1391 19.4146 13.5986 20.9936 13.0637C21.8504 12.7733 22.7068 12.4817 23.5632 12.1902C24.0159 12.0362 24.4688 11.8825 24.9217 11.7292C25.4305 11.5568 25.9387 11.3829 26.4465 11.2077C26.6297 11.1448 26.8131 11.0824 26.9966 11.0206C27.8761 10.7241 28.6831 10.4292 29.441 9.87673C30.8352 8.87296 32.8328 8.99691 34.464 9.02795C35.029 9.03752 35.5941 9.03913 36.1592 9.04214C36.872 9.04628 37.5846 9.05266 38.2973 9.06806C42.1426 9.15436 42.1426 9.15436 45.5225 7.4793C46.0432 7.10716 46.6071 6.81126 47.168 6.50475C47.3903 6.37934 47.6125 6.25365 47.8345 6.12756C48.5487 5.72389 49.2645 5.3232 49.9805 4.92272C50.224 4.78632 50.4675 4.64991 50.7111 4.51348C51.083 4.30514 51.455 4.09702 51.8273 3.88943C52.1983 3.68258 52.5689 3.47507 52.9395 3.26745C53.0518 3.20506 53.1641 3.14267 53.2798 3.07839C53.3844 3.01963 53.489 2.96087 53.5968 2.90032C53.7336 2.82393 53.7336 2.82393 53.8732 2.746C54.1777 2.55581 54.4478 2.33616 54.7266 2.11022C50.4828 2.08069 46.2391 2.05799 41.9953 2.0444C41.4938 2.04278 40.9923 2.04111 40.4908 2.03941C40.391 2.03907 40.2912 2.03874 40.1883 2.03839C38.5737 2.03278 36.9591 2.02262 35.3445 2.01077C33.6867 1.99869 32.0289 1.99155 30.3711 1.98894C29.3488 1.98717 28.3267 1.9816 27.3044 1.97111C26.6026 1.96428 25.9008 1.96224 25.1989 1.96391C24.7945 1.96473 24.3903 1.96351 23.9858 1.95656C22.1385 1.92947 20.9186 1.93675 19.6875 3.39928ZM29.5825 12.3861C29.1046 12.9583 29.0433 13.3043 29.0479 14.0414C29.0482 14.1302 29.0485 14.2191 29.0488 14.3106C29.0357 15.6718 29.0357 15.6718 29.2969 16.993C37.0313 16.993 44.7656 16.993 52.7344 16.993C52.8649 16.2097 52.9169 15.4356 52.9555 14.644C52.9671 14.4434 52.9855 14.2432 53.0049 14.0432C53.0469 13.4359 52.9878 13.0649 52.6318 12.5619C51.6784 11.4959 50.4506 11.0952 49.0492 10.9846C48.6162 10.972 48.1847 10.9703 47.7516 10.9728C47.5872 10.9726 47.4228 10.9721 47.2584 10.9715C46.8168 10.9705 46.3752 10.9715 45.9336 10.9731C45.4687 10.9744 45.0039 10.974 44.539 10.9737C43.7591 10.9736 42.9792 10.9749 42.1992 10.9771C41.3005 10.9796 40.4018 10.98 39.5031 10.9792C38.6343 10.9786 37.7655 10.9792 36.8967 10.9805C36.5288 10.9811 36.1609 10.9812 35.793 10.9809C35.3592 10.9807 34.9254 10.9817 34.4916 10.9835C34.2586 10.9843 34.0255 10.9839 33.7925 10.9834C32.1896 10.9928 30.7092 11.1392 29.5825 12.3861ZM23.3199 14.4079C23.2118 14.4442 23.2118 14.4442 23.1015 14.4812C22.8621 14.5618 22.6229 14.6428 22.3837 14.7239C22.2167 14.7803 22.0496 14.8367 21.8825 14.8931C21.5311 15.0118 21.1798 15.1307 20.8286 15.2498C20.3823 15.4012 19.9357 15.5518 19.4891 15.7021C19.1431 15.8187 18.7973 15.9357 18.4515 16.0529C18.2872 16.1085 18.1228 16.164 17.9584 16.2192C17.4392 16.394 16.922 16.5738 16.4063 16.7587C16.2704 16.807 16.1346 16.8554 15.9947 16.9052C15.8688 16.9532 15.743 17.0012 15.6134 17.0506C15.5032 17.092 15.393 17.1334 15.2796 17.176C14.7071 17.5212 14.5779 18.1366 14.4141 18.7508C14.3772 18.8715 14.3404 18.9922 14.3024 19.1166C13.968 20.3828 14.0281 21.6702 14.0625 22.9696C14.958 22.878 15.8171 22.6735 16.6903 22.4587C17.571 22.2556 18.3285 22.1573 19.1455 22.5961C19.5461 22.9298 19.7571 23.1784 19.9219 23.6727C19.9332 23.8449 19.9382 24.0175 19.9391 24.19C19.94 24.2957 19.9408 24.4015 19.9417 24.5105C19.942 24.6263 19.9423 24.7421 19.9426 24.8614C19.9438 25.0447 19.9438 25.0447 19.945 25.2317C19.9473 25.6367 19.9486 26.0417 19.9498 26.4468C19.9503 26.5851 19.9508 26.7233 19.9513 26.8658C19.9537 27.5977 19.9554 28.3296 19.9565 29.0615C19.9578 29.8175 19.9618 30.5734 19.9665 31.3293C19.9695 31.9106 19.9705 32.4919 19.9709 33.0732C19.9715 33.3518 19.9729 33.6305 19.975 33.9091C19.9779 34.2993 19.9778 34.6894 19.977 35.0796C19.9785 35.1945 19.98 35.3093 19.9815 35.4276C19.9761 36.1425 19.8698 36.5634 19.4531 37.1493C19.2394 37.3319 19.2394 37.3319 19.021 37.4349C18.9505 37.471 18.8799 37.5071 18.8072 37.5443C17.8075 37.797 16.9153 37.4983 15.9595 37.2079C15.7001 37.1304 15.4405 37.0535 15.1808 36.9772C15.0673 36.9428 14.9537 36.9084 14.8367 36.873C14.5078 36.779 14.5078 36.779 14.0625 36.7977C14.0537 37.4121 14.0474 38.0265 14.0432 38.6409C14.0415 38.849 14.0391 39.0571 14.036 39.2651C13.8869 41.5805 13.8869 41.5805 14.6613 43.6445C14.9856 43.8749 15.3056 44.0429 15.6665 44.2098C15.7916 44.275 15.9166 44.3402 16.0455 44.4073C16.3068 44.543 16.5696 44.6759 16.8338 44.806C17.3316 45.053 17.8179 45.3184 18.3051 45.5856C18.6525 45.7759 19.0014 45.9633 19.3506 46.1503C20.1483 46.5803 20.9338 47.0311 21.7166 47.4875C21.8112 47.5423 21.9059 47.5971 22.0033 47.6536C22.0855 47.7016 22.1676 47.7496 22.2522 47.799C22.5234 47.9429 22.8004 48.0528 23.0859 48.1649C23.0856 48.0127 23.0853 47.8606 23.085 47.7038C23.0773 44.0845 23.0715 40.4652 23.068 36.846C23.0676 36.3997 23.0671 35.9533 23.0666 35.507C23.0665 35.4182 23.0664 35.3293 23.0664 35.2378C23.0648 33.8027 23.0621 32.3677 23.0588 30.9326C23.0555 29.4581 23.0536 27.9835 23.0529 26.509C23.0524 25.6005 23.0509 24.692 23.048 23.7835C23.0459 23.0847 23.0457 22.3858 23.0462 21.687C23.0461 21.4019 23.0454 21.1168 23.044 20.8318C23.0335 18.5114 23.1539 16.2815 24.2578 14.1805C23.9181 14.1805 23.6419 14.2993 23.3199 14.4079ZM26.64 14.5921C24.8908 16.4234 25.0429 18.8783 25.0441 21.2386C25.0434 21.5265 25.0426 21.8144 25.0417 22.1023C25.0399 22.8005 25.0391 23.4987 25.039 24.1968C25.0389 24.7646 25.0384 25.3324 25.0376 25.9002C25.0356 27.5131 25.0345 29.1259 25.0347 30.7388C25.0347 30.8255 25.0347 30.9123 25.0347 31.0016C25.0347 31.0884 25.0347 31.1753 25.0347 31.2647C25.0348 32.6729 25.0326 34.0811 25.0293 35.4892C25.0259 36.9381 25.0243 38.387 25.0245 39.8359C25.0246 40.6482 25.0239 41.4604 25.0214 42.2727C25.019 43.0363 25.0191 43.7999 25.0208 44.5636C25.0211 44.8433 25.0205 45.123 25.0191 45.4027C25.0173 45.7855 25.0184 46.1683 25.0202 46.5511C25.019 46.6609 25.0178 46.7706 25.0165 46.8837C25.0296 48.1433 25.4446 49.1166 26.3196 50.0143C28.1114 51.6665 30.5927 51.9502 32.9297 51.9149C32.9314 51.7855 32.9331 51.6562 32.9349 51.5229C32.9417 51.0386 32.9508 50.5545 32.9605 50.0703C32.9643 49.8615 32.9676 49.6527 32.9703 49.4439C32.9743 49.1422 32.9804 48.8406 32.9869 48.5389C32.9877 48.4469 32.9884 48.355 32.9892 48.2602C33.0115 47.4019 33.1905 46.5092 33.7944 45.8606C34.5948 45.2008 35.4242 45.0318 36.4344 45.0441C36.5563 45.0432 36.6782 45.0424 36.8038 45.0415C37.2033 45.0396 37.6027 45.0418 38.0022 45.0443C38.2817 45.0442 38.5613 45.0439 38.8408 45.0435C39.4253 45.0431 40.0096 45.0449 40.5941 45.0481C41.3414 45.0521 42.0887 45.0514 42.8361 45.0492C43.4129 45.0479 43.9896 45.049 44.5664 45.0507C44.8419 45.0513 45.1174 45.0513 45.3929 45.0506C45.7785 45.0499 46.164 45.0523 46.5496 45.0555C46.6623 45.0548 46.775 45.054 46.8911 45.0532C47.7128 45.0647 48.4565 45.2191 49.0847 45.7815C49.8104 46.5404 49.9739 47.4239 49.9818 48.4359C49.984 48.536 49.9861 48.6361 49.9882 48.7393C49.9945 49.0556 49.9985 49.372 50.0024 49.6884C50.0063 49.9043 50.0104 50.1202 50.0146 50.3361C50.0245 50.8623 50.0323 51.3886 50.0391 51.9149C52.2144 51.79 54.2365 51.4292 55.8751 49.8724C56.7704 48.8259 56.9708 47.7518 56.9696 46.4275C56.9699 46.3107 56.9703 46.1939 56.9706 46.0735C56.9717 45.6816 56.9718 45.2897 56.972 44.8977C56.9726 44.6169 56.9731 44.336 56.9738 44.0551C56.9753 43.2914 56.9761 42.5277 56.9766 41.7639C56.9769 41.2863 56.9774 40.8087 56.9779 40.331C56.9794 39.0066 56.9806 37.6823 56.981 36.3579C56.981 36.2732 56.981 36.1884 56.981 36.1011C56.9811 36.0162 56.9811 35.9313 56.9811 35.8438C56.9812 35.6717 56.9812 35.4996 56.9813 35.3275C56.9813 35.2421 56.9813 35.1568 56.9814 35.0688C56.9818 33.6888 56.9839 32.3087 56.9866 30.9286C56.9894 29.5091 56.9908 28.0897 56.991 26.6702C56.9911 25.8743 56.9917 25.0783 56.9939 24.2824C56.9958 23.5325 56.9961 22.7827 56.995 22.0328C56.9949 21.7589 56.9954 21.485 56.9966 21.211C57.0252 17.627 57.0252 17.627 55.3542 14.5705C55.3017 14.5192 55.2493 14.4678 55.1953 14.4149C55.118 14.4536 55.0406 14.4923 54.9609 14.5321C54.9154 14.7872 54.9154 14.7872 54.9074 15.0997C54.8972 15.2834 54.8972 15.2834 54.8869 15.4707C54.8799 15.6057 54.8729 15.7407 54.8657 15.8798C54.0486 28.6991 54.0486 28.6991 50.7271 31.8804C49.8634 32.5906 49.0044 32.9426 47.8799 32.9478C47.7538 32.9486 47.6277 32.9495 47.4977 32.9503C47.3605 32.9506 47.2232 32.951 47.0819 32.9513C46.9364 32.952 46.7909 32.9528 46.6411 32.9536C46.1597 32.9559 45.6783 32.9573 45.1968 32.9585C45.0305 32.9589 44.8642 32.9594 44.6979 32.9599C43.9163 32.9621 43.1346 32.9638 42.3529 32.9648C41.4533 32.9659 40.5537 32.969 39.6542 32.9737C38.9571 32.9773 38.26 32.979 37.5629 32.9794C37.1474 32.9797 36.732 32.9807 36.3165 32.9837C35.852 32.9869 35.3876 32.9864 34.9232 32.9856C34.7195 32.9879 34.7195 32.9879 34.5117 32.9902C33.2372 32.9821 32.1085 32.6538 31.1719 31.7587C30.677 31.1893 30.3347 30.6158 30.0879 29.9056C30.0551 29.8134 30.0222 29.7211 29.9884 29.6261C28.2838 24.6898 27.4052 19.6051 26.9531 14.4149C26.8064 14.4018 26.8064 14.4018 26.64 14.5921ZM10.167 18.8493C9.95733 18.9152 9.74693 18.9787 9.53583 19.0397C8.29412 19.3567 8.29412 19.3567 7.37727 20.1702C7.25282 20.5623 7.18675 20.9201 7.14845 21.329C7.11959 21.4693 7.09074 21.6096 7.06101 21.7542C7.01887 22.3138 7.01899 22.8701 7.02393 23.431C7.02528 23.6414 7.02659 23.8517 7.02785 24.0621C7.0285 24.1655 7.02914 24.269 7.0298 24.3756C7.03028 24.453 7.03076 24.5304 7.03126 24.6102C7.71349 24.4627 8.39561 24.3146 9.0776 24.166C9.30981 24.1155 9.54205 24.0652 9.77432 24.015C10.1075 23.943 10.4405 23.8704 10.7735 23.7977C10.878 23.7752 10.9825 23.7528 11.0901 23.7296C11.5597 23.6634 11.5597 23.6634 11.9531 23.4383C11.9674 23.2474 11.9742 23.0558 11.9779 22.8643C11.981 22.7438 11.9841 22.6232 11.9873 22.499C11.9921 22.3041 11.9921 22.3041 11.9971 22.1053C12.0373 20.8066 12.1802 19.5576 12.4219 18.2821C11.662 18.2821 10.8873 18.6186 10.167 18.8493ZM29.5313 19.1024C29.6781 20.204 29.8283 21.2623 30.0732 22.3397C30.1034 22.4733 30.1335 22.607 30.1646 22.7446C30.631 24.7704 31.171 26.784 31.8311 28.7557C31.8607 28.8476 31.8903 28.9394 31.9208 29.034C32.1921 29.8095 32.5827 30.3596 33.2744 30.8125C33.9746 31.0648 34.7677 30.9744 35.5005 30.9603C35.6605 30.9586 35.8205 30.9569 35.9805 30.9555C36.3698 30.9514 36.7591 30.9456 37.1484 30.9383C37.1785 30.868 37.2086 30.7976 37.2397 30.7251C37.7721 29.5002 38.3518 28.7542 39.5947 28.2137C40.7649 27.9329 41.8883 27.9386 42.9785 28.4994C43.7548 28.9776 44.2464 29.4815 44.6137 30.3222C44.6646 30.4377 44.7155 30.5533 44.768 30.6723C44.8059 30.7601 44.8438 30.8479 44.8828 30.9383C45.3496 30.95 45.8164 30.9585 46.2833 30.9641C46.5192 30.9676 46.755 30.9735 46.9908 30.9795C48.1914 31.0102 48.1914 31.0102 49.2188 30.4696C49.9253 29.7058 50.2003 28.7191 50.5005 27.745C50.5254 27.666 50.5502 27.587 50.5758 27.5056C50.934 26.3668 51.2564 25.2207 51.5405 24.0609C51.5702 23.9405 51.5999 23.8202 51.6305 23.6962C51.9864 22.1761 52.225 20.6422 52.5 19.1024C44.9203 19.1024 37.3406 19.1024 29.5313 19.1024ZM2.6587 21.6879C2.17499 22.2166 2.07973 22.522 2.08649 23.2388C2.08725 23.38 2.08801 23.5212 2.08878 23.6668C2.09075 23.8138 2.09271 23.9607 2.09473 24.1122C2.09579 24.261 2.09685 24.4098 2.09794 24.5631C2.1007 24.9304 2.10456 25.2976 2.10938 25.6649C2.49028 25.5894 2.87112 25.5137 3.25196 25.4379C3.41375 25.4058 3.41375 25.4058 3.5788 25.3731C3.68304 25.3523 3.78727 25.3315 3.89466 25.3101C3.9904 25.2911 4.08613 25.2721 4.18477 25.2525C4.43231 25.2005 4.677 25.1422 4.92188 25.079C4.92482 24.9934 4.92776 24.9079 4.93078 24.8197C4.94453 24.4252 4.95884 24.0306 4.97315 23.6361C4.97776 23.5016 4.98237 23.3671 4.98711 23.2285C5.01775 22.3966 5.07067 21.5711 5.15626 20.743C4.35992 20.743 3.26567 21.1803 2.6587 21.6879ZM16.7313 24.5255C16.5911 24.5567 16.4509 24.5879 16.3065 24.6201C16.0876 24.6696 16.0876 24.6696 15.8643 24.7201C15.7174 24.7526 15.5706 24.7852 15.4193 24.8187C14.7227 24.9533 14.7227 24.9533 14.0625 25.1962C14.0625 28.2899 14.0625 31.3837 14.0625 34.5712C15.3387 34.9192 16.6149 35.2673 17.9297 35.6259C17.9297 31.9133 17.9297 28.2008 17.9297 24.3758C17.4939 24.3758 17.1542 24.4311 16.7313 24.5255ZM11.1421 25.7617C11.0494 25.7831 10.9566 25.8046 10.8611 25.8266C10.7157 25.8608 10.7157 25.8608 10.5675 25.8956C10.478 25.9164 10.3885 25.9371 10.2963 25.9585C9.96225 26.036 9.62835 26.1141 9.29444 26.1923C8.17417 26.4533 8.17417 26.4533 7.03126 26.7196C7.03126 28.6532 7.03126 30.5868 7.03126 32.579C8.42344 32.985 8.42344 32.985 9.84376 33.3993C10.8106 33.6849 10.8106 33.6849 11.1786 33.7943C11.5079 33.8863 11.5079 33.8863 11.9531 33.868C11.9531 31.161 11.9531 28.454 11.9531 25.6649C11.6509 25.6649 11.4323 25.6941 11.1421 25.7617ZM4.20365 27.3165C4.0945 27.3403 3.98535 27.3641 3.87289 27.3886C3.73324 27.4192 3.59359 27.4498 3.44972 27.4813C2.78625 27.6263 2.78625 27.6263 2.10938 27.7743C2.10938 28.8958 2.10938 30.0173 2.10938 31.1727C3.1866 31.5969 3.1866 31.5969 4.92188 31.993C4.92188 30.4075 4.92188 28.8219 4.92188 27.1883C4.68057 27.1883 4.43784 27.2653 4.20365 27.3165ZM39.6094 30.5868C39.5707 30.7028 39.532 30.8188 39.4922 30.9383C40.4977 30.9383 41.5031 30.9383 42.5391 30.9383C42.0422 30.2868 42.0422 30.2868 41.3283 30.0787C40.6118 30.0674 40.1888 30.1553 39.6094 30.5868ZM2.10938 33.3993C2.09568 33.7948 2.08741 34.1902 2.08009 34.5858C2.07616 34.6973 2.07223 34.8088 2.06818 34.9236C2.05863 35.6119 2.09999 36.0283 2.57813 36.5634C3.01229 36.9621 3.50224 37.2437 4.01368 37.5301C4.0883 37.5727 4.16293 37.6153 4.23982 37.6592C4.56191 37.8753 4.56191 37.8753 4.92188 37.9696C4.92188 36.7321 4.92188 35.4946 4.92188 34.2196C4.20514 33.9428 4.20514 33.9428 3.48267 33.7312C3.36031 33.7011 3.36031 33.7011 3.23548 33.6705C3.11312 33.6414 3.11312 33.6414 2.98829 33.6117C2.86049 33.5805 2.86049 33.5805 2.73011 33.5487C2.52333 33.4984 2.31637 33.4488 2.10938 33.3993ZM7.03126 34.8055C7.02434 35.2645 7.02025 35.7235 7.01661 36.1825C7.01465 36.3104 7.01268 36.4384 7.01066 36.5702C6.94677 38.0618 6.94677 38.0618 7.46877 39.3918C7.75932 39.6307 8.04989 39.8094 8.37983 39.9902C8.50521 40.0595 8.63059 40.1288 8.75977 40.2003C8.95555 40.307 8.95555 40.307 9.15528 40.4159C9.41203 40.557 9.66868 40.6983 9.92524 40.8398C10.0493 40.908 10.1734 40.9763 10.3012 41.0466C10.7446 41.2962 11.1782 41.56 11.6098 41.8295C11.8271 41.9728 11.8271 41.9728 12.0703 41.954C12.0316 40.0204 11.993 38.0868 11.9531 36.0946C11.2063 35.8819 10.4594 35.6692 9.68995 35.4501C9.45455 35.3828 9.21915 35.3155 8.97661 35.2461C8.79005 35.1932 8.60349 35.1404 8.41691 35.0875C8.32003 35.0597 8.22314 35.0318 8.12332 35.0032C8.03058 34.977 7.93783 34.9508 7.84227 34.9239C7.76186 34.901 7.68145 34.8781 7.5986 34.8545C7.36256 34.7926 7.36256 34.7926 7.03126 34.8055ZM2.10938 38.9071C1.87323 39.7672 1.7394 40.648 2.10938 41.4852C2.93716 42.3268 4.09557 42.8189 5.13898 43.3435C5.80826 43.6836 6.44286 44.0769 7.07965 44.4735C7.41631 44.6824 7.75538 44.8874 8.09418 45.0929C8.22943 45.1751 8.36466 45.2574 8.49988 45.3397C9.11354 45.7129 9.72757 46.0856 10.3416 46.4583C10.6835 46.6658 11.0253 46.8734 11.3672 47.0809C11.5039 47.1639 11.6406 47.2469 11.7774 47.33C15.332 49.4882 18.8867 51.6464 22.4414 53.8046C22.5091 53.8456 22.5767 53.8867 22.6465 53.929C22.7833 54.0121 22.9202 54.0952 23.057 54.1783C23.3967 54.3846 23.7364 54.5908 24.0761 54.7971C24.7164 55.1858 25.3566 55.5745 25.9968 55.9633C26.299 56.1468 26.6012 56.3303 26.9033 56.5138C27.0473 56.6012 27.1912 56.6886 27.3351 56.776C27.5348 56.8973 27.7344 57.0186 27.9341 57.1398C28.0476 57.2088 28.1611 57.2777 28.2781 57.3487C28.3823 57.4118 28.4864 57.4749 28.5938 57.5399C28.675 57.601 28.7563 57.6621 28.84 57.725C29.3138 57.9572 29.7214 57.9391 30.2423 57.9338C30.3495 57.934 30.4567 57.9344 30.5672 57.9347C30.9265 57.9352 31.2858 57.9333 31.6451 57.9314C31.9027 57.9313 32.1602 57.9313 32.4178 57.9315C33.1172 57.9316 33.8166 57.9296 34.5161 57.9271C35.2469 57.9249 35.9778 57.9247 36.7087 57.9243C37.9355 57.9233 39.1623 57.9211 40.389 57.918C41.6525 57.9148 42.916 57.9123 44.1796 57.9108C44.2575 57.9107 44.3354 57.9106 44.4156 57.9105C44.8065 57.91 45.1973 57.9096 45.5881 57.9092C48.8296 57.9055 52.071 57.8993 55.3125 57.8915C54.9736 57.5442 54.6474 57.2782 54.2354 57.0204C54.1148 56.9441 53.9941 56.8679 53.8699 56.7894C53.7441 56.7108 53.6183 56.6322 53.4888 56.5511C53.2442 56.3979 52.9999 56.2442 52.7559 56.0902C52.6279 56.012 52.5 55.9339 52.3681 55.8533C52.0474 55.6483 51.7722 55.4256 51.493 55.1672C49.7862 53.6744 47.9081 53.8183 45.7726 53.8577C45.2633 53.8654 44.754 53.8639 44.2447 53.8634C43.2812 53.8637 42.3178 53.8715 41.3543 53.8823C39.9452 53.8977 38.5361 53.9032 37.127 53.9071C37.0227 53.9074 36.9185 53.9077 36.8111 53.908C36.6029 53.9086 36.3947 53.9092 36.1865 53.9097C35.5842 53.9116 34.9819 53.916 34.3797 53.9226C31.1132 53.9576 27.9965 53.8856 25.2402 51.8787C24.6144 51.4377 23.9606 51.0769 23.2837 50.7211C22.373 50.2351 21.4682 49.7422 20.5737 49.2269C19.681 48.7131 18.785 48.2058 17.8857 47.7035C16.831 47.1141 15.7782 46.5216 14.7268 45.9263C13.8965 45.4565 13.0643 44.9902 12.2315 44.5248C11.235 43.9678 10.242 43.4051 9.25175 42.8372C8.33853 42.3142 7.42061 41.7999 6.50174 41.2869C5.87526 40.937 5.24977 40.5855 4.62617 40.2305C4.50356 40.1608 4.38096 40.091 4.25464 40.0192C4.02165 39.8866 3.78883 39.7536 3.5562 39.6203C3.39926 39.531 3.39926 39.531 3.23914 39.4399C3.14794 39.3878 3.05674 39.3356 2.96277 39.2819C2.68449 39.1358 2.40297 39.0188 2.10938 38.9071ZM2.10938 43.9462C1.86334 45.4054 1.86334 45.4054 2.2728 46.7617C2.72863 47.19 3.27184 47.4802 3.82045 47.7736C4.27136 48.0253 4.68093 48.3298 5.09766 48.6337C5.26348 48.7511 5.4295 48.8683 5.59571 48.9852C8.58399 51.0946 11.5723 53.204 14.5606 55.3134C14.6429 55.3715 14.7252 55.4296 14.81 55.4894C14.9745 55.6056 15.139 55.7217 15.3035 55.8379C15.7416 56.1472 16.18 56.4563 16.6187 56.7649C16.7106 56.8296 16.8025 56.8944 16.8972 56.9611C17.0746 57.086 17.2521 57.2108 17.4296 57.3355C18.0337 57.7611 18.0337 57.7611 18.1641 57.8915C18.3762 57.9025 18.5888 57.9052 18.8013 57.9048C18.9374 57.9048 19.0734 57.9048 19.2136 57.9048C19.3617 57.9041 19.5098 57.9035 19.6623 57.9029C19.813 57.9028 19.9637 57.9026 20.119 57.9024C20.5203 57.902 20.9216 57.9008 21.3229 57.8995C21.7321 57.8983 22.1414 57.8978 22.5506 57.8972C23.354 57.8959 24.1575 57.8939 24.9609 57.8915C24.6577 57.5765 24.3486 57.3657 23.9726 57.1398C23.8426 57.0613 23.7127 56.9829 23.5787 56.902C23.4364 56.8168 23.2942 56.7316 23.1519 56.6464C23.0039 56.5572 22.856 56.468 22.7081 56.3788C22.4007 56.1934 22.0931 56.0082 21.7855 55.8232C21.1524 55.4422 20.521 55.0583 19.8896 54.6745C19.5489 54.4674 19.208 54.2605 18.8672 54.0536C18.7305 53.9706 18.5938 53.8876 18.457 53.8046C18.3894 53.7635 18.3217 53.7224 18.252 53.68C11.0742 49.3221 11.0742 49.3221 10.8692 49.1976C10.7324 49.1146 10.5957 49.0316 10.4589 48.9486C10.1176 48.7413 9.77623 48.5341 9.43489 48.3268C8.81425 47.95 8.1936 47.5732 7.57291 47.1964C7.36265 47.0688 7.15239 46.9412 6.94214 46.8136C6.66748 46.6468 6.3928 46.4802 6.1181 46.3135C5.45166 45.9091 4.78575 45.5038 4.1208 45.097C3.93234 44.9818 3.93234 44.9818 3.74008 44.8643C3.50265 44.7191 3.26535 44.5737 3.0282 44.4281C2.92394 44.3644 2.81968 44.3007 2.71226 44.235C2.62084 44.179 2.52942 44.1229 2.43523 44.0652C2.24964 43.9365 2.24964 43.9365 2.10938 43.9462ZM35.1563 47.4618C34.6867 48.8705 35.0391 50.43 35.0391 51.9149C39.293 51.9149 43.5469 51.9149 47.9297 51.9149C47.9297 50.5227 47.9297 49.1305 47.9297 47.6962C47.4453 47.1173 47.4453 47.1173 47.0899 47.0371C47.0047 47.0372 46.9194 47.0373 46.8316 47.0374C46.7328 47.0361 46.6341 47.0348 46.5324 47.0334C46.4256 47.035 46.3189 47.0365 46.2089 47.0381C46.0385 47.0371 46.0385 47.0372 45.8646 47.0362C45.4895 47.0348 45.1146 47.0376 44.7395 47.0406C44.4788 47.0408 44.218 47.0408 43.9572 47.0406C43.411 47.0408 42.8648 47.043 42.3185 47.0467C41.618 47.0514 40.9175 47.0519 40.2169 47.051C39.6786 47.0506 39.1403 47.052 38.6019 47.0541C38.3436 47.0549 38.0853 47.0552 37.8269 47.0551C37.4661 47.0554 37.1054 47.0579 36.7447 47.061C36.6377 47.0607 36.5307 47.0603 36.4205 47.06C35.7126 47.0584 35.7126 47.0584 35.1563 47.4618Z" stroke="white" stroke-width="0.4" mask="url(#path-1-outside-1_2899_535)"/>
</g>
<path id="Vector_2" d="M33.8169 36.0206L33.8173 36.0202L33.8084 36.0137C33.0424 35.4512 32.0698 35.322 31.0966 35.3919C30.1227 35.4619 29.1344 35.7323 28.3253 35.9837L28.3252 35.9835L28.3194 35.9857C27.5668 36.2719 26.975 36.6936 26.627 37.4592L26.62 37.4745L26.6184 37.4913C26.5439 38.2945 26.5591 39.0043 26.9675 39.7391L26.9673 39.7392L26.9707 39.7444C27.7974 41.0381 29.2612 41.5662 30.647 41.8979L30.6477 41.8981L30.9287 41.9632C31.4458 42.0839 31.9517 42.1835 32.4934 42.1924L32.4933 42.1926L32.4999 42.1923C33.3742 42.1489 34.0322 41.8398 34.6418 41.2025L34.6483 41.1957L34.6534 41.1878C35.0702 40.5459 35.2218 39.9056 35.1909 39.1486L35.1914 39.1485L35.1899 39.1383C35.0326 38.0534 34.6674 36.8008 33.8169 36.0206ZM32.6289 38.5647L32.6289 38.5647L32.6293 38.5657C32.7131 38.8103 32.7681 39.0028 32.786 39.1937C32.8024 39.3686 32.7879 39.5463 32.7303 39.7639C32.6344 39.7918 32.5818 39.8063 32.5237 39.8179C32.4566 39.8313 32.3818 39.841 32.2265 39.8606C31.7244 39.7899 31.1643 39.6909 30.6352 39.5226C30.102 39.353 29.6068 39.1149 29.2349 38.77C29.1712 38.7022 29.1271 38.655 29.0951 38.6152C29.0635 38.576 29.0483 38.5494 29.0398 38.5246C29.0313 38.5 29.027 38.4702 29.0279 38.4209C29.0286 38.3824 29.0323 38.3363 29.0381 38.2757C30.0014 37.921 31.0625 37.643 32.0797 37.7159C32.2575 37.8131 32.3275 37.8536 32.3733 37.9042C32.4184 37.9541 32.4429 38.0171 32.5066 38.1946L32.6289 38.5647Z" fill="white" stroke="white" stroke-width="0.2"/>
<path id="Vector_3" d="M54.8005 36.6117L54.7925 36.6029L54.7826 36.5962C53.9746 36.0457 52.6748 35.5581 51.3823 35.4016C50.0939 35.2457 48.7806 35.4153 47.9759 36.2199L47.9755 36.2195L47.9685 36.2282C47.1526 37.2492 46.8051 38.599 46.8444 39.873L46.8437 39.873L46.8454 39.8844C46.9565 40.642 47.3098 41.1766 47.8625 41.675L47.8685 41.6804L47.8754 41.6848C48.8251 42.2953 49.7783 42.2544 50.8246 42.0366L50.8246 42.0366L50.8266 42.0361L51.0865 41.9765C51.0865 41.9765 51.0866 41.9765 51.0866 41.9765C52.147 41.7336 53.124 41.3979 54.0357 40.7674L54.0358 40.7677L54.0419 40.7627C54.7682 40.1713 55.3331 39.4509 55.4504 38.4775L55.451 38.4775L55.4512 38.4671C55.4573 38.0832 55.4311 37.7674 55.3333 37.4719C55.2351 37.1753 55.0671 36.9064 54.8005 36.6117ZM49.1975 39.6947C49.1782 39.6606 49.1733 39.6222 49.165 39.4863C49.2278 38.9041 49.3729 38.3738 49.7096 37.9098C50.5345 37.7656 50.9352 37.6982 51.3404 37.7436C51.7432 37.7887 52.1533 37.9453 52.9857 38.2706V38.2712V38.2719V38.2726V38.2733V38.274V38.2747V38.2754V38.2761V38.2768V38.2775V38.2782V38.2789V38.2796V38.2802V38.2809V38.2816V38.2823V38.283V38.2837V38.2844V38.2851V38.2858V38.2865V38.2872V38.2879V38.2886V38.2892V38.2899V38.2906V38.2913V38.292V38.2927V38.2934V38.2941V38.2948V38.2955V38.2962V38.2968V38.2975V38.2982V38.2989V38.2996V38.3003V38.301V38.3017V38.3024V38.3031V38.3038V38.3044V38.3051V38.3058V38.3065V38.3072V38.3079V38.3086V38.3093V38.31V38.3107V38.3113V38.312V38.3127V38.3134V38.3141V38.3148V38.3155V38.3162V38.3169V38.3175V38.3182V38.3189V38.3196V38.3203V38.321V38.3217V38.3224V38.3231V38.3237V38.3244V38.3251V38.3258V38.3265V38.3272V38.3279V38.3286V38.3293V38.3299V38.3306V38.3313V38.332V38.3327V38.3334V38.3341V38.3348V38.3354V38.3361V38.3368V38.3375V38.3382V38.3389V38.3396V38.3403V38.341V38.3416V38.3423V38.343V38.3437V38.3444V38.3451V38.3458V38.3464V38.3471V38.3478V38.3485V38.3492V38.3499V38.3506V38.3513V38.3519V38.3526V38.3533V38.354V38.3547V38.3554V38.3561V38.3567V38.3574V38.3581V38.3588V38.3595V38.3602V38.3609V38.3616V38.3622V38.3629V38.3636V38.3643V38.365V38.3657V38.3664V38.367V38.3677V38.3684V38.3691V38.3698V38.3705V38.3712V38.3718V38.3725V38.3732V38.3739V38.3746V38.3753V38.3759V38.3766V38.3773V38.378V38.3787V38.3794V38.3801V38.3807V38.3814V38.3821V38.3828V38.3835V38.3842V38.3849V38.3855V38.3862V38.3869V38.3876V38.3883V38.389V38.3896V38.3903V38.391V38.3917V38.3924V38.3931V38.3937V38.3944V38.3951V38.3958V38.3965V38.3972V38.3979V38.3985V38.3992V38.3999V38.4006V38.4013V38.402V38.4026V38.4033V38.404V38.4047V38.4054V38.4061V38.4067V38.4074V38.4081V38.4088V38.4095V38.4102V38.4108V38.4115V38.4122V38.4129V38.4136V38.4143V38.4149V38.4156V38.4163V38.417V38.4177V38.4184V38.419V38.4197V38.4204V38.4211V38.4218V38.4225V38.4231V38.4238V38.4245V38.4252V38.4259V38.4265V38.4272V38.4279V38.4286V38.4293V38.43V38.4306V38.4313V38.432V38.4327V38.4334V38.4341V38.4347V38.4354V38.4361V38.4368V38.4375V38.4381V38.4388V38.4395V38.4402V38.4409V38.4416V38.4422V38.4429V38.4436V38.4443V38.445V38.4456V38.4463V38.447V38.4477V38.4484V38.4491V38.4497V38.4504V38.4511V38.4518V38.4525V38.4531V38.4538V38.4545V38.4552V38.4559V38.4566V38.4572V38.4579V38.4586V38.4593V38.46V38.4606V38.4613V38.462V38.4627V38.4634V38.464V38.4647V38.4654V38.4661V38.4668V38.4675V38.4681V38.4688V38.4695V38.4702V38.4709V38.4715V38.4722V38.4729V38.4736V38.4743V38.4749V38.4756V38.4763V38.477V38.4777V38.4783V38.479V38.4797V38.4804V38.4811V38.4817V38.4824V38.4831V38.4838V38.4845V38.4852V38.4858V38.4865V38.4872V38.4879V38.4886V38.4892V38.4899V38.4906V38.4913V38.492V38.4926V38.4933V38.494V38.4947V38.4954V38.496V38.4967V38.4974V38.4981V38.4988V38.4994V38.5001V38.5008V38.5015V38.5022V38.5028V38.5035V38.5042V38.5049V38.5056V38.5062V38.5069V38.5076V38.5083V38.509V38.5096V38.5103V38.511V38.5117V38.5121C52.058 39.4189 50.6622 39.8099 49.3699 39.8588C49.3204 39.8183 49.2841 39.7881 49.2561 39.762C49.2233 39.7316 49.2072 39.7117 49.1975 39.6947Z" fill="white" stroke="white" stroke-width="0.2"/>
<path id="Vector_4" d="M34.831 12.757V12.757L35.2222 12.7579L35.2225 12.7579L35.6372 12.7561L35.6373 12.7561C36.0908 12.7545 36.5441 12.7546 36.9973 12.7548C36.9973 12.7548 36.9974 12.7548 36.9974 12.7548L37.7036 12.7537L37.7037 12.8537L37.7036 12.7537C38.4439 12.7524 39.1843 12.7524 39.9246 12.7531C40.6868 12.7538 41.4491 12.7524 42.2114 12.7499L42.2114 12.7499C42.8672 12.7478 43.523 12.7471 44.1788 12.7475C44.5698 12.7477 44.9607 12.7472 45.3516 12.7458L45.3517 12.7458C45.7883 12.7443 46.2248 12.7451 46.6612 12.7465C46.6614 12.7465 46.6615 12.7465 46.6617 12.7465L47.0507 12.7438L47.0521 12.7437C47.7522 12.7486 48.2853 12.7962 48.9165 13.1547L48.9378 13.1668L48.9511 13.1872C49.0668 13.3657 49.1323 13.5117 49.1647 13.6698C49.1966 13.8254 49.1951 13.9869 49.1868 14.1906L49.1863 14.203L49.1827 14.215C49.1206 14.4236 49.0552 14.5725 48.9591 14.7045C48.864 14.8353 48.7426 14.9441 48.5786 15.0771L48.5595 15.0926L48.5354 15.0975L48.5297 15.0986C48.3897 15.1269 48.3123 15.1425 48.2292 15.1504C48.1467 15.1582 48.0593 15.1582 47.8993 15.1582L47.8934 15.1582H47.893L47.5115 15.1617L47.5097 15.1617V15.1617L47.0933 15.1583L47.0927 15.1583L46.652 15.1602L46.6519 15.1602C46.2525 15.1614 45.8534 15.1605 45.4542 15.1586C45.4542 15.1586 45.4541 15.1586 45.4541 15.1586L45.4546 15.0586C45.0897 15.0572 44.7249 15.0576 44.3601 15.058C44.3072 15.058 44.2544 15.0581 44.2015 15.0581L34.831 12.757ZM34.831 12.757L34.8301 12.757M34.831 12.757L34.8301 12.757M34.8301 12.757L34.4702 12.7595L34.4704 12.8595L34.4697 12.7595L34.47 12.7595C33.8907 12.7609 33.4053 12.8327 32.9865 13.3073L32.9748 13.3206L32.9684 13.3371C32.8688 13.5915 32.8308 13.7954 32.836 14.0047C32.8411 14.2105 32.8881 14.4169 32.9497 14.6714L32.9563 14.6989L32.9763 14.7188C33.1041 14.846 33.2145 14.9396 33.342 15.0075C33.4702 15.0759 33.6094 15.115 33.7911 15.1429L33.7985 15.144L33.806 15.144L34.1374 15.1449L34.138 15.1449L34.5197 15.1484V15.1484L34.521 15.1484L34.9382 15.1468L34.8301 12.757Z" fill="white" stroke="white" stroke-width="0.2"/>
</g>
<defs>
<clipPath id="clip0_2899_535">
<rect width="60" height="60" fill="white"/>
</clipPath>
</defs>
</svg>
