<svg width="60" height="60" viewBox="0 0 60 60" fill="none" xmlns="http://www.w3.org/2000/svg">
<g clip-path="url(#clip0_3346_1221)">
<path d="M59.2971 11.133C59.7076 11.3687 59.9352 11.5039 60.073 11.9597C60.106 12.3493 60.0797 12.6555 59.8581 12.985C59.795 13.0534 59.7319 13.1219 59.667 13.1924C59.5923 13.2738 59.5176 13.3551 59.4406 13.4388C58.9177 13.985 58.3878 14.5238 57.8542 15.0594C57.7216 15.1929 57.5891 15.3264 57.4566 15.46C57.0242 15.8954 56.5912 16.3302 56.1582 16.7649C56.0082 16.9155 55.8583 17.0661 55.7083 17.2167C55.084 17.8435 54.4594 18.4703 53.8345 19.0965C52.9434 19.9896 52.0532 20.8836 51.1645 21.779C50.5369 22.4111 49.9082 23.0421 49.2787 23.6723C48.9039 24.0475 48.5296 24.4231 48.1566 24.8C47.8051 25.155 47.4523 25.5085 47.0984 25.8611C46.9699 25.9896 46.8418 26.1185 46.7144 26.2481C44.9331 28.0569 42.8713 29.2449 40.2733 29.3186C39.8966 29.3165 39.5708 29.2699 39.2077 29.1707C38.3024 28.8912 38.3024 28.8912 37.4088 29.0518C36.962 29.4143 36.6518 29.8809 36.3283 30.3518C36.1894 30.5152 36.0482 30.6767 35.9035 30.8352C35.8416 30.9074 35.7797 30.9796 35.7158 31.054C35.5546 31.2365 35.3881 31.4145 35.2196 31.5905C35.1214 31.6941 35.0233 31.7977 34.9221 31.9045C34.8302 31.9994 34.7384 32.0942 34.6438 32.192C34.4326 32.4381 34.4326 32.4381 34.4456 32.6951C34.6267 33.0355 34.8739 33.2406 35.1638 33.4939C35.2222 33.5454 35.2807 33.597 35.3409 33.6501C35.513 33.8016 35.6863 33.9517 35.8596 34.1018C36.0183 34.2409 36.177 34.3801 36.3357 34.5192C36.4095 34.5834 36.4834 34.6476 36.5595 34.7138C36.8363 34.9565 37.1097 35.2028 37.383 35.4494C37.7323 35.7646 38.0829 36.0779 38.4377 36.3869C38.8942 36.7845 39.3433 37.1899 39.7927 37.5954C40.0425 37.8196 40.294 38.0415 40.5471 38.2619C40.9019 38.5709 41.2525 38.8842 41.6018 39.1994C42.2256 39.7618 42.8543 40.3175 43.4946 40.8611C44.2658 41.5167 45.0234 42.1827 45.7642 42.8725C46.169 43.2494 46.5792 43.618 46.9974 43.9798C47.272 44.2193 47.5423 44.4631 47.8127 44.7072C48.162 45.0224 48.5126 45.3357 48.8674 45.6447C49.3239 46.0423 49.773 46.4477 50.2224 46.8532C50.4722 47.0774 50.7237 47.2993 50.9768 47.5197C51.0515 47.5854 51.1263 47.6512 51.2034 47.7189C51.3793 47.8722 51.5568 48.0236 51.7353 48.1739C52.9608 49.2293 53.7613 50.4126 54.0236 52.0314C54.142 53.7267 53.789 55.2203 52.7204 56.5624C51.6807 57.6925 50.3097 58.3855 48.7745 58.5015C47.1842 58.555 45.7261 58.0986 44.5241 57.0485C43.944 56.5012 43.4129 55.9151 42.8908 55.3127C42.7541 55.1564 42.6174 55.0002 42.4807 54.8439C42.4154 54.769 42.3502 54.6941 42.2829 54.6169C42.0386 54.3389 41.7911 54.064 41.5432 53.7893C41.1607 53.3654 40.7829 52.938 40.4079 52.5075C40.1636 52.2295 39.9161 51.9546 39.6682 51.6799C39.2857 51.256 38.9079 50.8286 38.5329 50.3981C38.2886 50.1202 38.0411 49.8452 37.7932 49.5705C37.2308 48.9467 36.6751 48.3179 36.1315 47.6777C35.4759 46.9065 34.8099 46.1489 34.1201 45.4081C33.7432 45.0033 33.3746 44.593 33.0128 44.1749C32.7733 43.9003 32.5295 43.63 32.2854 43.3596C31.9029 42.9357 31.5251 42.5083 31.1501 42.0778C30.9058 41.7998 30.6583 41.5249 30.4104 41.2502C29.1406 39.8417 29.1406 39.8417 28.7111 39.258C28.255 39.4405 28.0008 39.7284 27.6784 40.093C27.6011 40.1799 27.6011 40.1799 27.5221 40.2685C27.3708 40.4388 27.2206 40.6101 27.0705 40.7814C26.9974 40.8647 26.9243 40.9479 26.849 41.0337C26.7185 41.1827 26.5884 41.3319 26.4585 41.4814C26.2158 41.7582 25.9695 42.0316 25.7229 42.3049C25.4076 42.6542 25.0944 43.0048 24.7854 43.3596C24.3878 43.816 23.9824 44.2652 23.5769 44.7146C23.3527 44.9644 23.1308 45.2158 22.9104 45.4689C22.6014 45.8237 22.2881 46.1743 21.9729 46.5236C21.4105 47.1475 20.8548 47.7762 20.3112 48.4165C19.6555 49.1877 18.9896 49.9452 18.2998 50.6861C17.9229 51.0909 17.5543 51.5011 17.1924 51.9193C16.953 52.1938 16.7092 52.4642 16.4651 52.7346C16.1498 53.0839 15.8366 53.4345 15.5276 53.7893C15.2185 54.1441 14.9053 54.4947 14.5901 54.8439C13.7803 55.7293 13.7803 55.7293 13.0218 56.6576C12.1924 57.6461 11.0732 58.1355 9.85128 58.4475C8.08112 58.592 6.42605 58.3149 5.0173 57.1657C4.05977 56.272 3.261 55.0038 3.14353 53.6712C3.08618 51.6897 3.37138 50.2677 4.76003 48.7713C5.29605 48.2194 5.85762 47.6963 6.44231 47.1965C6.72093 46.9571 6.99333 46.7114 7.26583 46.465C7.68967 46.0826 8.11707 45.7047 8.54757 45.3298C8.82556 45.0855 9.10047 44.838 9.37521 44.59C9.99904 44.0276 10.6278 43.472 11.2681 42.9284C12.0393 42.2727 12.7968 41.6068 13.5377 40.9169C13.9424 40.5401 14.3527 40.1715 14.7709 39.8096C15.0454 39.5702 15.3158 39.3264 15.5861 39.0822C16.0901 38.6283 16.5937 38.1749 17.1096 37.7346C17.1966 37.6577 17.2836 37.5808 17.3733 37.5016C17.7908 37.1496 18.0589 36.9336 18.6037 36.8337C19.0447 36.927 19.2538 37.0663 19.5705 37.383C19.7588 37.7596 19.7423 38.1463 19.6877 38.5549C19.4057 39.0367 18.9689 39.3723 18.5479 39.7323C18.2596 39.9799 17.9774 40.2335 17.6955 40.4885C17.2717 40.871 16.8443 41.2488 16.4138 41.6237C16.1358 41.868 15.8609 42.1155 15.5861 42.3635C15.1623 42.746 14.7349 43.1238 14.3044 43.4987C14.0264 43.743 13.7515 43.9905 13.4768 44.2385C13.0525 44.6213 12.6248 44.9996 12.1937 45.3746C11.9228 45.613 11.6562 45.8559 11.3894 46.0988C10.9936 46.4567 10.5902 46.7984 10.1735 47.1315C9.46347 47.7055 8.80451 48.3296 8.14062 48.9557C7.83023 49.2481 7.51529 49.5334 7.19259 49.8122C6.30524 50.5805 5.62937 51.2968 5.47781 52.5071C5.43056 53.3905 5.70463 54.2913 6.23312 55.0051C6.99247 55.7138 7.86211 56.0978 8.90646 56.133C10.2709 55.995 11.1225 55.2983 11.9753 54.2777C12.215 53.991 12.4641 53.7145 12.7151 53.4377C13.2774 52.8139 13.8331 52.1851 14.3767 51.5448C15.0324 50.7737 15.6983 50.0161 16.3881 49.2753C16.765 48.8705 17.1336 48.4602 17.4955 48.042C17.7349 47.7675 17.9787 47.4971 18.2229 47.2268C18.5381 46.8775 18.8514 46.5269 19.1604 46.1721C19.5579 45.7156 19.9633 45.2665 20.3689 44.8171C20.6604 44.4922 20.9476 44.1637 21.234 43.8343C21.4724 43.5634 21.7153 43.2968 21.9582 43.03C22.3161 42.6343 22.6577 42.2308 22.9909 41.8142C23.5654 41.1033 24.1904 40.4438 24.8169 39.7789C25.1616 39.413 25.496 39.0397 25.824 38.6588C26.0602 38.3865 26.3016 38.1192 26.5432 37.8518C26.8584 37.5025 27.1717 37.1519 27.4807 36.7971C27.8782 36.3406 28.2836 35.8915 28.6892 35.4421C28.9134 35.1923 29.1352 34.9408 29.3557 34.6877C29.6647 34.3329 29.978 33.9823 30.2932 33.633C30.8556 33.0092 31.4112 32.3804 31.9549 31.7402C32.6105 30.969 33.2765 30.2114 33.9663 29.4706C34.3426 29.0663 34.7107 28.6566 35.0722 28.2392C35.32 27.9548 35.5712 27.6736 35.823 27.3928C35.908 27.2979 35.9931 27.203 36.0807 27.1053C36.1624 27.0165 36.2441 26.9277 36.3283 26.8361C36.4064 26.7485 36.4845 26.6609 36.565 26.5706C36.9018 26.2756 37.1159 26.3029 37.5478 26.3198C37.888 26.3731 38.1751 26.4782 38.4963 26.6018C39.7345 27.044 41.0737 26.9783 42.3044 26.5386C43.4924 25.9608 44.362 25.1948 45.279 24.2631C45.4205 24.1211 45.5621 23.9792 45.7038 23.8374C46.0069 23.5336 46.3092 23.2291 46.6109 22.9241C47.0879 22.4419 47.5666 21.9613 48.0454 21.481C48.8021 20.7217 49.5576 19.9613 50.3126 19.2005C51.6668 17.8359 53.0224 16.4726 54.3791 15.1105C54.8552 14.6325 55.3305 14.1538 55.8054 13.6746C56.1 13.3775 56.3951 13.0808 56.6904 12.7843C56.8275 12.6464 56.9643 12.5083 57.101 12.37C57.287 12.1817 57.4738 11.9942 57.6608 11.8068C57.7652 11.7015 57.8697 11.5962 57.9773 11.4878C58.3907 11.1173 58.7564 11.0694 59.2971 11.133ZM32.3536 34.6767C32.2658 34.777 32.178 34.8773 32.0876 34.9807C31.9464 35.1413 31.9464 35.1413 31.8024 35.3052C31.7104 35.4108 31.6184 35.5164 31.5236 35.6252C31.4092 35.7528 31.4092 35.7528 31.2925 35.8829C30.8643 36.3619 30.4814 36.8535 30.1174 37.383C30.1925 37.4652 30.2676 37.5474 30.3449 37.632C30.8693 38.2073 31.3907 38.7845 31.9013 39.372C32.144 39.6488 32.3903 39.9222 32.6369 40.1955C33.0194 40.6194 33.3972 41.0467 33.7722 41.4772C34.0165 41.7552 34.264 42.0301 34.5119 42.3049C34.8944 42.7287 35.2722 43.1561 35.6472 43.5866C35.8915 43.8646 36.139 44.1395 36.3869 44.4143C36.7694 44.8381 37.1472 45.2655 37.5222 45.696C37.7665 45.974 38.014 46.2489 38.2619 46.5236C38.8243 47.1475 39.38 47.7762 39.9236 48.4165C40.5792 49.1877 41.2452 49.9452 41.935 50.6861C42.3119 51.0909 42.6805 51.5011 43.0424 51.9193C43.2818 52.1938 43.5256 52.4642 43.7697 52.7346C44.085 53.0839 44.3982 53.4345 44.7072 53.7893C44.7727 53.8637 44.8381 53.9382 44.9055 54.0149C45.0616 54.194 45.2161 54.3746 45.3696 54.556C46.1692 55.4813 46.835 56.0542 48.0704 56.2319C49.0003 56.2838 49.7903 56.0196 50.508 55.4299C51.2655 54.7059 51.7136 53.9478 51.7962 52.8893C51.8001 51.7345 51.2518 50.8908 50.4641 50.0832C50.1046 49.7402 49.732 49.4126 49.3558 49.088C49.0727 48.8421 48.7941 48.5915 48.5158 48.34C48.0916 47.9572 47.6639 47.5789 47.2327 47.2039C46.9618 46.9655 46.6953 46.7226 46.4284 46.4797C46.0327 46.1218 45.6293 45.7802 45.2126 45.447C44.5018 44.8725 43.8422 44.2476 43.1774 43.621C42.8114 43.2763 42.4382 42.9419 42.0572 42.6139C41.785 42.3777 41.5177 42.1363 41.2502 41.8947C40.9009 41.5795 40.5503 41.2662 40.1955 40.9572C39.7391 40.5597 39.2899 40.1543 38.8405 39.7487C38.5907 39.5245 38.3393 39.3027 38.0861 39.0822C37.7314 38.7732 37.3808 38.4599 37.0315 38.1447C36.1928 37.3886 35.3394 36.6509 34.4803 35.9181C33.9809 35.4912 33.4911 35.0551 33.0086 34.609C32.7037 34.3668 32.6277 34.4042 32.3536 34.6767Z" fill="black"/>
<path d="M49.6872 1.52398C50.1113 1.79605 50.342 1.97632 50.5149 2.45415C50.5 3.17993 50.0756 3.64009 49.5801 4.13115C49.5224 4.18882 49.4647 4.2465 49.4052 4.30593C49.2128 4.49781 49.0192 4.68841 48.8256 4.87904C48.6869 5.01686 48.5483 5.15477 48.4097 5.29275C48.1117 5.58923 47.8132 5.88517 47.5143 6.18071C47.0409 6.6487 46.5691 7.1181 46.0974 7.58773C44.9253 8.75425 43.7516 9.919 42.5772 11.0832C41.6649 11.9877 40.7531 12.8927 39.8429 13.7994C39.3748 14.2656 38.9056 14.7307 38.4355 15.1949C38.1423 15.485 37.8501 15.7761 37.5581 16.0674C37.4233 16.2015 37.2881 16.3352 37.1525 16.4685C35.7683 17.8292 34.7651 19.3025 34.6652 21.2994C34.6767 22.05 34.8321 22.7721 35.112 23.4673C35.2713 23.9017 35.3423 24.1555 35.2732 24.6099C34.9918 25.1609 34.5986 25.5168 34.1333 25.9086C33.8433 26.1532 33.5621 26.406 33.281 26.6607C32.8567 27.0435 32.429 27.4218 31.9979 27.7969C31.727 28.0353 31.4604 28.2781 31.1936 28.521C30.7978 28.8789 30.3944 29.2206 29.9777 29.5538C29.2669 30.1283 28.6073 30.7532 27.9425 31.3798C27.5773 31.7237 27.2051 32.0576 26.8247 32.3846C26.4395 32.7192 26.0641 33.0648 25.6871 33.4086C25.1972 33.8358 24.9118 33.9217 24.2813 33.9034C23.6322 33.8137 23.2478 33.1981 22.8458 32.7279C22.5981 32.4396 22.3445 32.1574 22.0896 31.8755C21.7082 31.4529 21.3314 31.0268 20.9575 30.5975C20.5387 30.1209 20.1126 29.6509 19.6872 29.1802C19.6217 29.2002 19.5561 29.2201 19.4885 29.2406C18.8819 29.424 18.2742 29.6038 17.6657 29.7808C17.4654 29.8393 17.4654 29.8393 17.2611 29.8989C14.5758 30.6052 11.5535 30.0905 9.16832 28.7091C7.71543 27.8167 6.48452 26.6103 5.39034 25.313C5.3372 25.2503 5.28407 25.1875 5.22932 25.1228C4.28355 23.9973 3.46297 22.8157 2.69503 21.563C2.65154 21.4932 2.60805 21.4233 2.56325 21.3513C0.587146 18.1562 -0.575616 14.2174 0.0802809 10.4536C0.613077 8.31573 1.84527 6.58627 3.71309 5.42778C6.30495 3.98282 9.41077 4.15059 12.1872 4.92241C13.6232 5.36119 14.9683 5.97138 16.2888 6.68023C16.4217 6.74956 16.5546 6.8189 16.6916 6.89034C18.4375 7.83804 20.0071 9.06627 21.445 10.4302C21.6055 10.5677 21.7666 10.7044 21.9284 10.8404C23.9538 12.6183 25.2698 15.0265 25.6638 17.6958C25.7951 19.7719 25.7215 21.7804 24.7894 23.6747C24.7057 23.9052 24.7057 23.9052 24.7867 24.1293C25.0391 24.4865 25.3541 24.7668 25.6784 25.0567C25.7473 25.1192 25.8161 25.1817 25.8871 25.2461C26.3194 25.6375 26.7553 26.025 27.1964 26.4066C27.6267 26.7801 28.0509 27.1605 28.4763 27.5396C29.0384 27.1885 29.5063 26.7878 29.9851 26.3311C30.1301 26.1946 30.2752 26.0582 30.4204 25.9219C30.4894 25.8569 30.5584 25.792 30.6295 25.7251C30.8626 25.5077 31.0999 25.2956 31.34 25.086C31.4098 25.0244 31.4796 24.9627 31.5515 24.8992C31.7575 24.7271 31.7575 24.7271 32.0001 24.555C32.2252 24.3891 32.4085 24.2467 32.5778 24.024C32.5778 23.6454 32.5532 23.4362 32.4607 23.0865C32.0295 20.9212 32.4047 18.7173 33.6325 16.8755C34.329 15.9387 35.1245 15.1156 35.9492 14.2942C36.086 14.1571 36.2227 14.0199 36.3595 13.8827C36.7276 13.5134 37.0965 13.1449 37.4656 12.7766C37.8528 12.39 38.2395 12.0028 38.6262 11.6157C39.2748 10.9667 39.9238 10.3182 40.5731 9.67005C41.3236 8.9208 42.0733 8.1707 42.8225 7.42017C43.4671 6.77451 44.1122 6.12931 44.7576 5.48449C45.1426 5.09988 45.5274 4.71511 45.9118 4.32993C46.2726 3.9685 46.6339 3.60764 46.9957 3.24722C47.1283 3.11487 47.2608 2.98231 47.3931 2.84954C47.5735 2.6685 47.7546 2.4882 47.9359 2.30807C48.037 2.20697 48.1382 2.10587 48.2425 2.00171C48.7065 1.58788 49.0606 1.43625 49.6872 1.52398ZM3.39815 8.67241C2.22155 10.0993 2.10522 12.063 2.22628 13.8287C2.73868 18.0687 5.30523 21.7458 8.08565 24.8443C8.16587 24.9345 8.24608 25.0247 8.32872 25.1176C9.87807 26.7644 12.0117 27.7526 14.26 27.9241C16.1401 27.9711 17.7443 27.4843 19.3906 26.6241C19.9155 26.4476 20.1238 26.4892 20.6247 26.7193C20.9048 26.9456 21.1365 27.2019 21.3718 27.4737C21.4379 27.5475 21.5041 27.6212 21.5723 27.6973C22.0409 28.2241 22.4877 28.7679 22.9282 29.3185C23.4616 29.9603 24.0378 30.5644 24.6091 31.1724C25.7499 30.2065 25.7499 30.2065 26.8357 29.1802C26.3938 28.7112 25.9332 28.286 25.4294 27.8838C24.787 27.3676 24.1874 26.8132 23.5899 26.2459C23.2601 25.9335 22.9308 25.6304 22.5757 25.3469C22.1771 25.0024 22.0938 24.7788 22.031 24.2583C22.14 23.977 22.2537 23.7099 22.3825 23.438C23.4746 21.0691 23.8131 18.7915 22.9607 16.2717C21.4985 12.5221 17.3911 9.59978 13.8278 7.96929C10.4039 6.51912 6.24082 5.67267 3.39815 8.67241Z" fill="black"/>
<path d="M56.1323 7.73372C56.4962 7.95008 56.5819 8.0277 56.7183 8.43685C56.7809 8.83638 56.8106 9.12529 56.571 9.4674C56.4725 9.57533 56.4725 9.57533 56.3719 9.68544C56.297 9.76755 56.2221 9.84965 56.1449 9.93424C55.7099 10.393 55.2664 10.8424 54.8189 11.2889C54.714 11.394 54.6091 11.4991 54.501 11.6074C54.2161 11.8928 53.9308 12.1779 53.6454 12.4629C53.346 12.762 53.0469 13.0614 52.7477 13.3608C52.2463 13.8625 51.7445 14.3639 51.2427 14.8652C50.6623 15.4449 50.0824 16.0251 49.5027 16.6054C49.004 17.1047 48.505 17.6037 48.0059 18.1025C47.7082 18.4001 47.4105 18.6977 47.1131 18.9955C46.7824 19.3266 46.4512 19.6572 46.12 19.9878C46.0213 20.0867 45.9226 20.1856 45.8209 20.2876C45.7311 20.3771 45.6412 20.4666 45.5487 20.5588C45.4704 20.637 45.3922 20.7152 45.3116 20.7957C45.0222 21.0633 44.8975 21.092 44.4941 21.1224C44.0317 21.091 43.8301 21.0349 43.4761 20.7415C43.2835 20.4177 43.2427 20.2018 43.2344 19.826C43.5495 18.8807 44.5514 18.1248 45.242 17.4333C45.3967 17.2777 45.3967 17.2777 45.5547 17.1189C45.835 16.8371 46.1157 16.5556 46.3965 16.2742C46.5722 16.0982 46.7479 15.922 46.9235 15.7459C47.474 15.1937 48.0248 14.6418 48.5759 14.0903C49.2105 13.4551 49.8444 12.8192 50.4775 12.1827C50.9686 11.6891 51.4603 11.1962 51.9525 10.7038C52.2459 10.4103 52.539 10.1165 52.8314 9.82198C53.1569 9.4942 53.4838 9.16782 53.8108 8.84157C53.9072 8.74417 54.0035 8.64676 54.1027 8.54641C54.1921 8.45771 54.2814 8.36902 54.3735 8.27763C54.4505 8.20043 54.5275 8.12322 54.6069 8.04367C55.1098 7.63351 55.5105 7.56172 56.1323 7.73372Z" fill="black"/>
<path d="M52.9687 4.68746C53.2913 4.89789 53.4991 5.04519 53.6718 5.39059C53.7355 5.78862 53.7632 6.08013 53.5247 6.42148C53.459 6.49325 53.3933 6.56502 53.3256 6.63897C53.2133 6.76203 53.2133 6.76203 53.0987 6.88758C52.6614 7.34894 52.2174 7.80283 51.7691 8.25342C51.6638 8.35966 51.5585 8.46591 51.45 8.57538C51.1045 8.92397 50.7583 9.27195 50.4121 9.61987C50.2923 9.7403 50.1725 9.86074 50.0526 9.98118C49.5546 10.4818 49.0563 10.9822 48.5576 11.4823C47.8452 12.1965 47.1339 12.9118 46.4239 13.6284C45.9229 14.1339 45.4208 14.6383 44.9179 15.1419C44.6181 15.4421 44.3188 15.7428 44.0207 16.0448C43.6888 16.3808 43.3547 16.7145 43.0203 17.048C42.9222 17.148 42.8241 17.248 42.723 17.351C42.6316 17.4416 42.5401 17.5321 42.4458 17.6253C42.3672 17.7044 42.2885 17.7834 42.2075 17.8648C41.8861 18.0947 41.6414 18.1362 41.2499 18.164C40.7952 18.0124 40.595 17.8787 40.3124 17.4902C40.1659 17.014 40.2082 16.7235 40.4296 16.289C40.7581 15.8765 41.1308 15.5127 41.5067 15.1435C41.6197 15.0306 41.7324 14.9175 41.8451 14.8043C42.1503 14.4984 42.4573 14.1944 42.7647 13.8907C43.0862 13.5724 43.4061 13.2525 43.7262 12.9327C44.2635 12.3965 44.8019 11.8613 45.3411 11.3269C46.102 10.5727 46.8608 9.81644 47.6194 9.05981C48.1446 8.536 48.6704 8.01266 49.1962 7.48942C49.3238 7.36247 49.4514 7.23552 49.5789 7.10855C49.9422 6.74695 50.3058 6.38566 50.6698 6.02485C50.8329 5.86307 50.9958 5.70101 51.1586 5.53893C51.2552 5.44333 51.3518 5.34772 51.4514 5.24922C51.5776 5.12394 51.5776 5.12394 51.7064 4.99614C52.1077 4.62597 52.4333 4.64209 52.9687 4.68746Z" fill="black"/>
</g>
<defs>
<clipPath id="clip0_3346_1221">
<rect width="60" height="60" fill="white"/>
</clipPath>
</defs>
</svg>
