<svg width="60" height="60" viewBox="0 0 60 60" fill="none" xmlns="http://www.w3.org/2000/svg">
<g clip-path="url(#clip0_3346_1212)">
<mask id="mask0_3346_1212" style="mask-type:luminance" maskUnits="userSpaceOnUse" x="0" y="0" width="60" height="60">
<path d="M60 0H0V60H60V0Z" fill="white"/>
</mask>
<g mask="url(#mask0_3346_1212)">
<path d="M1.41599 28.8668C1.49725 28.8656 1.57852 28.8644 1.66225 28.8631C1.93011 28.8599 2.19774 28.8611 2.46561 28.8625C2.6532 28.8618 2.8408 28.861 3.02839 28.86C3.42175 28.8586 3.81504 28.8594 4.2084 28.8616C4.70898 28.8643 5.20931 28.8612 5.70986 28.8564C6.09767 28.8533 6.48542 28.8537 6.87324 28.8549C7.05753 28.8551 7.24183 28.8542 7.42611 28.8522C8.68702 28.8407 9.80825 28.973 10.7848 29.8642C11.1512 30.2579 11.3641 30.6903 11.6021 31.171C11.7754 31.1721 11.7754 31.1721 11.9522 31.1731C13.0469 31.1799 14.1415 31.1884 15.2361 31.1987C15.7987 31.2039 16.3613 31.2085 16.9239 31.2116C17.4679 31.2147 18.012 31.2195 18.556 31.2253C18.7624 31.2273 18.9689 31.2286 19.1753 31.2293C20.6715 31.2352 22.1 31.3107 23.4527 32.0206C23.5275 32.0596 23.6023 32.0985 23.6794 32.1386C23.9521 32.2822 24.2225 32.4293 24.4927 32.5773C24.6092 32.6409 24.7257 32.7045 24.8457 32.77C26.3648 33.6022 27.8743 34.4512 29.3726 35.3203C29.4662 35.3744 29.5598 35.4284 29.6563 35.4841C29.7374 35.5312 29.8186 35.5783 29.9021 35.6268C30.3738 35.8773 30.7696 35.8737 31.2956 35.8752C31.3793 35.8756 31.463 35.876 31.5492 35.8764C31.7311 35.8773 31.9129 35.8779 32.0948 35.8783C32.3836 35.8791 32.6725 35.881 32.9613 35.8831C33.7827 35.8893 34.604 35.8949 35.4253 35.8967C35.928 35.8979 36.4307 35.9014 36.9333 35.9063C37.1239 35.9077 37.3145 35.9083 37.5051 35.908C39.1103 35.9064 40.3996 36.1168 41.6021 37.2648C42.5147 38.2207 42.9286 39.2072 42.9026 40.5305C42.9018 40.6112 42.901 40.6919 42.9001 40.7751C42.898 40.9722 42.8947 41.1693 42.8912 41.3663C43.0113 41.3241 43.1314 41.2819 43.2552 41.2385C45.9394 40.2961 48.6278 39.3667 51.3214 38.4513C51.459 38.4045 51.5966 38.3576 51.7384 38.3094C52.1302 38.1761 52.522 38.0431 52.9139 37.9102C53.0314 37.8703 53.1488 37.8303 53.2699 37.7891C53.3781 37.7525 53.4863 37.7159 53.5978 37.6782C53.6919 37.6463 53.786 37.6144 53.8829 37.5815C55.1629 37.1734 56.5657 37.2622 57.774 37.8507C58.8079 38.481 59.5385 39.3558 59.9186 40.509C60.1999 41.8429 60.1499 43.2358 59.4146 44.4132C58.4443 45.7477 57.1228 46.2709 55.6573 46.9254C55.4958 46.9979 55.3343 47.0705 55.1729 47.143C53.9265 47.702 52.6758 48.2509 51.4236 48.7966C50.1034 49.3721 48.7859 49.9535 47.4688 50.5363C45.6111 51.3581 43.7522 52.1772 41.8912 52.9917C40.9503 53.4038 40.0104 53.8179 39.0729 54.2377C38.6214 54.4399 38.1696 54.6415 37.7179 54.843C37.5042 54.9386 37.2906 55.0346 37.0772 55.131C32.6958 57.1091 28.2835 57.9041 23.6445 56.1896C21.5603 55.3555 19.6402 54.0542 17.7307 52.8851C17.6572 52.8402 17.5838 52.7953 17.5081 52.7491C17.1579 52.5349 16.8081 52.32 16.4595 52.1032C15.4021 51.4526 14.3559 50.8986 13.1475 50.5949C13.0042 50.558 12.8608 50.5211 12.7131 50.4832C12.3438 50.3986 11.9765 50.3299 11.6021 50.2726C11.5538 50.349 11.5054 50.4255 11.4556 50.5042C10.7356 51.594 10.1165 52.1269 8.84002 52.4283C8.13283 52.5529 7.43092 52.5492 6.71457 52.5459C6.55303 52.5461 6.39148 52.5464 6.22993 52.5469C5.89419 52.5474 5.55848 52.5466 5.22275 52.545C4.79433 52.543 4.36598 52.5442 3.93755 52.5462C3.60507 52.5475 3.27261 52.5471 2.94013 52.5462C2.706 52.5459 2.47186 52.5469 2.23774 52.548C0.879206 52.5375 0.879206 52.5375 0.234929 52.1476C-0.0496521 51.7207 -0.0332119 51.4058 -0.0315731 50.9124C-0.0321868 50.8216 -0.0328005 50.7308 -0.0334328 50.6372C-0.0351952 50.332 -0.0352733 50.0268 -0.0353514 49.7215C-0.0362443 49.503 -0.0372318 49.2846 -0.0383072 49.0661C-0.0408829 48.4719 -0.0419106 47.8778 -0.0425057 47.2836C-0.0429322 46.9126 -0.0436632 46.5415 -0.044498 46.1705C-0.0473698 44.8766 -0.0488983 43.5827 -0.0493132 42.2888C-0.0497394 41.0819 -0.0532434 39.875 -0.0581497 38.668C-0.062212 37.6325 -0.0640259 36.597 -0.0641077 35.5614C-0.0642008 34.9426 -0.0652319 34.3239 -0.0685605 33.7051C-0.071621 33.1232 -0.0718913 32.5413 -0.0700072 31.9593C-0.0697939 31.7457 -0.070584 31.532 -0.0724468 31.3183C-0.0748342 31.0267 -0.0736143 30.7354 -0.0714844 30.4438C-0.0730312 30.3591 -0.0745781 30.2744 -0.0761719 30.1872C-0.0686364 29.736 -0.00963902 29.5433 0.273915 29.1851C0.676422 28.8753 0.911156 28.8696 1.41599 28.8668ZM2.3443 31.4054C2.3443 37.5542 2.3443 43.7031 2.3443 50.0382C5.80184 50.361 5.80184 50.361 9.02399 49.6867C9.50371 48.9501 9.42512 48.1338 9.42105 47.2802C9.42152 47.1198 9.42215 46.9593 9.42291 46.7989C9.42451 46.365 9.4239 45.9312 9.42278 45.4973C9.42189 45.0422 9.42272 44.5872 9.42327 44.1321C9.42391 43.3681 9.42307 42.6041 9.42139 41.84C9.41948 40.9579 9.4201 40.0759 9.42203 39.1938C9.42363 38.4351 9.42385 37.6764 9.42293 36.9177C9.42238 36.4652 9.42231 36.0127 9.42347 35.5601C9.42449 35.1346 9.42378 34.7091 9.42175 34.2835C9.42107 34.0538 9.42211 33.824 9.4232 33.5942C9.41792 32.8588 9.40654 32.279 9.02399 31.6398C7.17024 30.404 4.57224 31.4054 2.3443 31.4054ZM11.7193 33.7492C11.7193 38.3511 11.7193 42.9531 11.7193 47.6945C12.3803 47.8833 13.0364 48.0453 13.7092 48.1806C15.3146 48.536 16.7046 49.2993 18.0914 50.1481C18.2546 50.2466 18.4179 50.345 18.5813 50.4432C18.9905 50.6896 19.3989 50.9374 19.8069 51.1857C20.2969 51.4838 20.7876 51.7805 21.2786 52.0767C21.5176 52.2209 21.7562 52.3657 21.9944 52.5113C23.3659 53.3418 24.708 53.9477 26.2506 54.3742C26.3999 54.4159 26.3999 54.4159 26.5522 54.4584C27.9687 54.7946 29.4748 54.7892 30.9088 54.5939C31.0027 54.5816 31.0966 54.5694 31.1934 54.5567C32.9582 54.2821 34.5827 53.4963 36.1968 52.7702C36.4189 52.671 36.6409 52.572 36.8631 52.4731C37.3202 52.2695 37.7772 52.0655 38.2341 51.8614C39.1635 51.4467 40.0955 51.0378 41.0277 50.6294C41.3256 50.4989 41.6235 50.3682 41.9214 50.2375C42.6173 49.9321 43.3134 49.6269 44.0094 49.3217C45.9493 48.4709 47.8892 47.62 49.8272 46.7648C49.9361 46.7167 50.045 46.6686 50.1572 46.6191C50.697 46.3808 51.2366 46.1421 51.7759 45.9027C53.4964 45.1392 53.4964 45.1392 54.3159 44.792C54.543 44.6958 54.7697 44.5988 54.9963 44.5015C55.2598 44.3888 55.524 44.2778 55.7891 44.1688C56.494 43.8652 57.0108 43.5535 57.4224 42.8898C57.6285 42.2717 57.6613 41.5926 57.4417 40.9727C57.1566 40.4637 56.8208 40.1733 56.3037 39.9125C55.2496 39.6574 54.3589 39.9987 53.3694 40.3451C53.2138 40.3982 53.0582 40.4513 52.9026 40.5042C52.4874 40.6457 52.0731 40.7892 51.6588 40.9331C51.2286 41.0822 50.7978 41.2294 50.3671 41.3769C49.4353 41.6964 48.5043 42.0186 47.5736 42.3415C47.2244 42.4626 46.875 42.5835 46.5257 42.7043C45.2032 43.1622 43.8818 43.623 42.562 44.0884C42.2953 44.1823 42.0286 44.276 41.7619 44.3697C41.5853 44.4318 41.4088 44.4939 41.2322 44.556C41.1534 44.5837 41.0745 44.6114 40.9933 44.6399C40.9177 44.6665 40.8421 44.6932 40.7642 44.7206C40.6897 44.7467 40.6153 44.7729 40.5386 44.7998C40.3848 44.8558 40.2321 44.9148 40.0804 44.9763C40.0029 45.0075 39.9253 45.0387 39.8455 45.0708C39.7776 45.0991 39.7098 45.1275 39.6399 45.1566C38.8502 45.3864 38.0263 45.3681 37.2114 45.3677C37.0326 45.3683 37.0326 45.3683 36.8501 45.3689C36.4586 45.37 36.067 45.3703 35.6755 45.3704C35.4023 45.3708 35.1292 45.3712 34.8561 45.3716C34.2848 45.3723 33.7136 45.3725 33.1424 45.3724C32.4102 45.3724 31.6781 45.374 30.9459 45.376C30.3824 45.3773 29.819 45.3776 29.2555 45.3775C28.9855 45.3777 28.7155 45.3782 28.4454 45.3791C28.0685 45.3802 27.6915 45.3799 27.3145 45.3792C27.2031 45.3798 27.0916 45.3805 26.9767 45.3812C26.3435 45.3782 25.8285 45.3683 25.335 44.9259C25.1373 44.5305 25.0759 44.1341 25.1959 43.7101C25.4348 43.3825 25.6262 43.1572 26.0344 43.0705C26.3548 43.0505 26.6706 43.0494 26.9915 43.0543C27.1132 43.0538 27.2348 43.0534 27.3602 43.0529C27.624 43.0522 27.8879 43.0529 28.1518 43.0548C28.5702 43.0578 28.9884 43.0573 29.4067 43.0558C30.2956 43.0534 31.1844 43.0557 32.0733 43.0582C33.1016 43.0607 34.1298 43.0612 35.158 43.0582C35.5689 43.0578 35.9798 43.0603 36.3907 43.0629C36.6446 43.0626 36.8986 43.0622 37.1525 43.0616C37.2657 43.0632 37.3789 43.0647 37.4956 43.0662C38.3156 43.0602 39.1653 42.9268 39.804 42.3686C40.3705 41.7141 40.4975 41.1746 40.482 40.3249C40.3769 39.5838 39.9923 39.1167 39.4201 38.6608C38.7012 38.262 37.8213 38.3708 37.0222 38.3735C36.837 38.3723 36.6518 38.3709 36.4666 38.3693C35.9802 38.3655 35.4939 38.3643 35.0075 38.3638C34.2304 38.3628 33.4534 38.3586 32.6763 38.353C32.4067 38.3515 32.1371 38.3516 31.8675 38.3519C30.5362 38.3483 29.4397 38.2284 28.2647 37.5724C28.1699 37.521 28.0751 37.4696 27.9774 37.4167C27.1636 36.9727 26.3599 36.5105 25.5561 36.0488C24.7868 35.6071 24.0158 35.1686 23.2403 34.7379C23.1367 34.6793 23.0331 34.6206 22.9264 34.5601C22.7765 34.4775 22.7765 34.4775 22.6237 34.3932C22.5375 34.3451 22.4513 34.297 22.3625 34.2474C21.1624 33.715 20.037 33.7024 18.746 33.7148C18.5657 33.7153 18.3854 33.7157 18.205 33.7159C17.5421 33.7177 16.8793 33.7226 16.2164 33.7272C14.7323 33.7344 13.2483 33.7417 11.7193 33.7492Z" fill="white"/>
<path d="M31.7577 4.21807C32.8624 5.00187 33.6716 5.9308 34.453 7.03057C34.5697 7.18716 34.6867 7.34357 34.8046 7.49932C34.8543 7.41714 34.904 7.33496 34.9552 7.2503C36.2849 5.09943 38.0746 3.65345 40.5478 3.00059C41.1429 2.87905 41.7282 2.87174 42.3339 2.87774C42.5267 2.87932 42.5267 2.87932 42.7234 2.88094C44.9422 2.92809 46.8695 3.73118 48.44 5.29976C50.4513 7.40613 51.2809 9.93536 51.2355 12.8304C51.1202 16.1505 49.2641 18.8907 47.0621 21.2354C46.7902 21.527 46.5277 21.8242 46.267 22.1258C45.9116 22.5281 45.5343 22.8782 45.1249 23.2244C44.856 23.4602 44.6062 23.7094 44.3554 23.9642C43.8858 24.4385 43.3986 24.8793 42.8905 25.3118C42.7699 25.4151 42.6494 25.5184 42.5289 25.6217C42.3223 25.7989 42.1157 25.9759 41.909 26.1529C41.1001 26.8454 40.2961 27.5435 39.4921 28.2415C38.9794 28.6865 38.4665 29.1313 37.9531 29.5754C37.8049 29.7037 37.6569 29.8322 37.509 29.9609C37.289 30.1523 37.0686 30.3432 36.848 30.534C36.7825 30.5912 36.7169 30.6485 36.6493 30.7075C35.4256 31.7632 35.4256 31.7632 34.6247 31.7205C34.0559 31.5619 33.659 31.1481 33.2328 30.7553C32.9625 30.5083 32.6845 30.2704 32.407 30.0316C32.181 29.8369 31.956 29.6413 31.7311 29.4454C30.8774 28.7033 30.0141 27.9727 29.1356 27.2601C27.9954 26.3312 26.8916 25.3578 25.8022 24.3702C25.5704 24.1612 25.336 23.9559 25.1 23.7518C20.749 19.9424 20.749 19.9424 20.6542 18.5369C20.6891 18.1497 20.7531 18.0301 20.9838 17.6946C21.3983 17.4124 21.6474 17.3431 22.1483 17.3431C22.7103 17.5667 23.0077 17.832 23.3715 18.3099C23.7423 18.7831 24.1209 19.2143 24.5534 19.631C24.7264 19.804 24.7264 19.804 24.9535 20.097C25.2202 20.4202 25.5105 20.6721 25.8287 20.9434C26.225 21.2913 26.6063 21.654 26.9896 22.0159C27.6019 22.592 28.2248 23.1376 28.8816 23.6625C29.1854 23.9104 29.4758 24.1687 29.7655 24.4329C30.2601 24.8831 30.771 25.3073 31.2908 25.7279C31.6859 26.0522 32.0737 26.3843 32.4608 26.7181C33.6519 27.7654 33.6519 27.7654 34.9218 28.7103C35.0212 28.6251 35.1206 28.5399 35.223 28.4521C38.6132 25.5462 38.6132 25.5462 38.8182 25.3705C38.9551 25.2531 39.0919 25.1358 39.2287 25.0183C39.568 24.7271 39.908 24.4367 40.2497 24.1482C41.0616 23.4607 41.8503 22.7539 42.6243 22.0239C43.019 21.6517 43.4178 21.2872 43.828 20.9319C44.2186 20.5879 44.5615 20.2241 44.8969 19.8264C45.1573 19.5227 45.4302 19.2323 45.703 18.9397C47.5166 16.9451 48.7172 14.6404 48.6606 11.9053C48.533 9.97891 47.7589 8.08718 46.2889 6.79619C45.0194 5.80772 43.5335 5.29428 41.9223 5.4197C40.2428 5.63622 38.824 6.43067 37.7343 7.73369C37.0431 8.66202 36.538 9.61358 36.1385 10.7002C35.9596 11.1764 35.7989 11.5227 35.3905 11.8353C34.9437 11.9978 34.5628 11.9963 34.1234 11.8206C33.6473 11.4125 33.4646 10.9011 33.2665 10.3191C32.5685 8.47741 31.3303 6.84944 29.5311 5.97588C28.0028 5.29396 26.5305 5.23865 24.9462 5.82207C23.0896 6.64018 21.9994 7.90368 21.2548 9.76983C21.2122 9.88433 21.1696 9.99884 21.1257 10.1168C20.9623 10.4586 20.7987 10.6569 20.5077 10.8978C20.042 11.0271 19.7694 11.0402 19.3065 10.8978C18.9858 10.6645 18.798 10.4791 18.6666 10.0999C18.485 8.72302 19.5733 7.09745 20.3759 6.04912C23.2187 2.7215 28.0195 1.78781 31.7577 4.21807Z" fill="white"/>
<path d="M6.4445 33.6336C6.81071 33.8533 6.81071 33.8533 7.03044 34.2196C7.11066 34.6273 7.11341 34.9839 7.03044 35.3914C6.75282 35.7915 6.56462 35.9356 6.10759 36.0946C5.63555 36.0946 5.33441 35.9656 4.92106 35.743C4.58831 35.2439 4.59998 34.805 4.68669 34.2196C5.10289 33.5259 5.70092 33.4873 6.4445 33.6336Z" fill="white"/>
<path d="M20.3898 13.243C20.756 13.4627 20.756 13.4627 20.9758 13.8289C21.056 14.2367 21.0587 14.5933 20.9758 15.0008C20.6981 15.4009 20.5099 15.545 20.0529 15.7039C19.5809 15.7039 19.2797 15.5749 18.8664 15.3524C18.5336 14.8532 18.5453 14.4144 18.632 13.8289C19.0482 13.1353 19.6462 13.0967 20.3898 13.243Z" fill="white"/>
</g>
</g>
<defs>
<clipPath id="clip0_3346_1212">
<rect width="60" height="60" fill="white"/>
</clipPath>
</defs>
</svg>
