<svg width="60" height="60" viewBox="0 0 60 60" fill="none" xmlns="http://www.w3.org/2000/svg">
<g id="Simplification" clip-path="url(#clip0_2899_506)">
<path id="Vector" d="M3.92922 2.31248C4.05594 2.31137 4.18267 2.31025 4.31324 2.3091C4.44899 2.30921 4.58474 2.30931 4.72461 2.30942C4.86517 2.30892 5.00574 2.30842 5.15056 2.3079C5.44754 2.30723 5.74453 2.30717 6.04151 2.30768C6.49544 2.30805 6.94929 2.3053 7.40321 2.30233C7.69199 2.30206 7.98076 2.30198 8.26953 2.3021C8.40505 2.30102 8.54056 2.29994 8.68019 2.29883C9.4609 2.30331 10.0545 2.3213 10.6359 2.9008C10.8322 3.25516 10.9181 3.5999 11.0143 3.99354C11.0347 4.07579 11.0551 4.15805 11.0761 4.2428C11.1428 4.51315 11.2079 4.78387 11.2729 5.05463C11.3188 5.24255 11.3648 5.43045 11.4109 5.61834C11.5305 6.10775 11.6485 6.59753 11.7659 7.08748C11.8361 7.38066 11.9067 7.67377 11.9773 7.96687C12.1096 8.5169 12.2409 9.06719 12.3716 9.61762C12.4024 9.74716 12.4024 9.74716 12.4339 9.87932C12.4919 10.123 12.5492 10.3667 12.6064 10.6105C12.6389 10.7487 12.6715 10.887 12.7051 11.0294C12.7744 11.3681 12.7744 11.3681 12.7744 11.7197C12.8713 11.7195 12.9682 11.7194 13.068 11.7193C18.8083 11.7114 24.5487 11.7054 30.289 11.7017C30.978 11.7013 31.667 11.7008 32.3559 11.7004C32.5617 11.7002 32.5617 11.7002 32.7716 11.7001C34.9937 11.6985 37.2157 11.6958 39.4378 11.6925C41.7172 11.6893 43.9966 11.6873 46.276 11.6866C47.6829 11.6861 49.0899 11.6846 50.4968 11.6817C51.4611 11.6799 52.4254 11.6793 53.3897 11.6798C53.9464 11.68 54.503 11.6796 55.0597 11.6778C55.5692 11.6761 56.0788 11.676 56.5883 11.6772C56.7727 11.6773 56.9571 11.6769 57.1415 11.6758C57.3922 11.6744 57.6428 11.6751 57.8935 11.6764C58.0328 11.6763 58.172 11.6761 58.3155 11.676C58.9024 11.7406 59.3561 11.9267 59.8178 12.3056C60.4076 13.4379 59.7869 14.9848 59.4937 16.144C59.4396 16.363 59.3855 16.582 59.3316 16.8011C59.1862 17.3902 59.0391 17.9789 58.8915 18.5675C58.7377 19.1821 58.5853 19.7971 58.4329 20.4121C58.3708 20.6625 58.3087 20.913 58.2466 21.1634C58.2157 21.2882 58.1848 21.413 58.1529 21.5415C58.0582 21.9233 57.9632 22.305 57.8683 22.6867C57.4746 24.2701 57.0889 25.8552 56.7107 27.4423C56.6304 27.779 56.5498 28.1157 56.4692 28.4523C56.4431 28.561 56.4171 28.6698 56.3902 28.7818C56.3385 28.9976 56.2868 29.2134 56.2351 29.4292C56.1101 29.951 55.9858 30.4731 55.863 30.9954C55.748 31.4839 55.6314 31.9719 55.5135 32.4596C55.4711 32.6364 55.4293 32.8135 55.3882 32.9907C54.9946 34.6875 54.3908 36.1595 52.869 37.1283C51.6332 37.791 50.4084 37.8877 49.0254 37.882C48.8094 37.8825 48.8094 37.8825 48.589 37.883C48.1929 37.8838 47.7968 37.8835 47.4007 37.8827C46.9721 37.8822 46.5435 37.883 46.115 37.8837C45.3734 37.8847 44.6319 37.8849 43.8903 37.8846C42.8172 37.8843 41.744 37.8856 40.6709 37.8875C38.9281 37.8905 37.1854 37.8929 35.4426 37.8945C35.3385 37.8946 35.2343 37.8947 35.127 37.8948C33.6476 37.8961 32.1682 37.8967 30.6888 37.897C30.5845 37.8971 30.4802 37.8971 30.3728 37.8971C30.2687 37.8971 30.1645 37.8972 30.0572 37.8972C28.3203 37.8976 26.5834 37.8999 24.8465 37.9036C23.776 37.9058 22.7056 37.9065 21.6351 37.9052C20.902 37.9045 20.1688 37.9054 19.4356 37.9077C19.0128 37.9089 18.59 37.9094 18.1671 37.9079C17.7085 37.9062 17.2499 37.9081 16.7912 37.9104C16.5915 37.9088 16.5915 37.9088 16.3877 37.9072C15.5515 37.9153 14.8675 38.0176 14.2371 38.6039C13.6628 39.2495 13.5387 39.8516 13.559 40.6906C13.6267 41.3088 13.8328 41.7415 14.291 42.1637C14.8677 42.6119 15.2776 42.7889 16.0157 42.7896C16.1547 42.7901 16.2937 42.7905 16.4369 42.7909C16.6671 42.7907 16.6671 42.7907 16.9019 42.7905C17.066 42.7908 17.23 42.7911 17.3941 42.7915C17.846 42.7924 18.2979 42.7926 18.7498 42.7927C19.2368 42.7929 19.7238 42.7938 20.2107 42.7946C21.055 42.796 21.8992 42.797 22.7435 42.7977C24.0778 42.7989 25.4121 42.8013 26.7463 42.8039C27.2027 42.8048 27.659 42.8057 28.1153 42.8065C28.2864 42.8069 28.2864 42.8069 28.4609 42.8072C29.7596 42.8097 31.0583 42.8119 32.3571 42.8139C32.5352 42.8142 32.5352 42.8142 32.7169 42.8145C34.6411 42.8176 36.5653 42.8198 38.4896 42.8218C40.4644 42.8238 42.4393 42.8272 44.4141 42.8317C45.6326 42.8344 46.851 42.8361 48.0695 42.8363C48.9045 42.8366 49.7396 42.8381 50.5746 42.8406C51.0565 42.842 51.5384 42.8428 52.0203 42.8421C52.4615 42.8415 52.9028 42.8425 53.344 42.8448C53.5791 42.8456 53.8141 42.8446 54.0492 42.8436C54.8901 42.8499 55.575 42.8604 56.2363 43.4335C56.4411 43.866 56.499 44.2894 56.4853 44.7665C56.2885 45.2587 55.9885 45.5343 55.5478 45.8212C55.204 45.8927 54.8655 45.9027 54.5151 45.9091C54.3765 45.9143 54.3765 45.9143 54.2352 45.9196C54.0087 45.9279 53.7822 45.9334 53.5556 45.9384C53.6307 45.9881 53.7058 46.0378 53.7831 46.089C55.2705 47.0976 56.3652 48.3373 56.7197 50.1572C57.0101 51.9045 56.7081 53.5765 55.7016 55.0351C54.6392 56.4223 53.2552 57.3586 51.4957 57.5967C49.6848 57.7277 48.0648 57.4299 46.6434 56.2257C46.5655 56.1567 46.4875 56.0877 46.4072 56.0165C46.3365 55.9608 46.2658 55.9051 46.193 55.8476C45.2589 55.0419 44.508 53.496 44.415 52.2665C44.2984 50.4475 44.6447 48.8232 45.8652 47.4326C46.4291 46.8358 46.9591 46.307 47.6963 45.9384C39.1498 45.9384 30.6033 45.9384 21.7978 45.9384C22.1459 46.1704 22.4939 46.4025 22.8525 46.6415C23.1674 46.9272 23.1674 46.9272 23.4384 47.2275C23.4948 47.2861 23.5511 47.3447 23.6092 47.4051C24.7467 48.6377 25.1569 50.2133 25.1116 51.8633C24.9735 53.577 24.2285 55.0194 22.9825 56.1983C21.5745 57.3073 19.9144 57.7487 18.1389 57.6324C16.4127 57.3914 15.0119 56.5616 13.8991 55.2278C12.7989 53.6649 12.4889 51.9594 12.7996 50.0935C13.1677 48.4727 14.0574 47.3013 15.3525 46.29C15.5459 46.1696 15.7407 46.0515 15.9384 45.9384C15.818 45.9212 15.6977 45.904 15.5736 45.8862C13.9333 45.63 12.5488 45.0418 11.5146 43.6752C10.5906 42.2338 10.323 40.7009 10.6073 39.0253C10.9727 37.6772 11.8008 36.4557 12.9868 35.7065C14.1206 35.0974 15.0938 34.8533 16.3805 34.8643C16.5986 34.8634 16.5986 34.8634 16.8212 34.8624C17.2214 34.8612 17.6214 34.8619 18.0216 34.8636C18.4545 34.8649 18.8873 34.8635 19.3202 34.8624C20.0692 34.8609 20.8183 34.861 21.5673 34.8623C22.6513 34.864 23.7352 34.8629 24.8192 34.8609C26.5795 34.8578 28.3398 34.8566 30.1001 34.8567C30.2579 34.8567 30.2579 34.8567 30.4189 34.8567C30.8452 34.8567 31.2716 34.8568 31.6979 34.8568C32.8723 34.8569 34.0467 34.8568 35.2211 34.8564C35.3263 34.8564 35.4315 34.8564 35.5399 34.8564C37.2942 34.8558 39.0486 34.8539 40.803 34.8511C41.8843 34.8495 42.9655 34.8492 44.0467 34.8505C44.7873 34.8514 45.5279 34.851 46.2685 34.8497C46.6956 34.849 47.1226 34.8489 47.5497 34.8503C48.013 34.8518 48.4762 34.8506 48.9395 34.8492C49.074 34.8501 49.2086 34.851 49.3472 34.8519C50.2402 34.846 50.9265 34.7582 51.6587 34.205C52.1702 33.5328 52.3213 32.6461 52.5134 31.8338C52.5356 31.7417 52.5578 31.6495 52.5806 31.5546C52.6286 31.3552 52.6763 31.1557 52.7239 30.9562C52.8013 30.6315 52.8793 30.307 52.9574 29.9825C53.1256 29.2832 53.293 28.5837 53.4604 27.8842C53.6765 26.9819 53.893 26.0796 54.11 25.1775C54.1363 25.0683 54.1625 24.9591 54.1896 24.8466C54.7027 22.7163 55.2317 20.5902 55.7643 18.4647C55.8727 18.0323 55.9809 17.5999 56.0891 17.1675C56.2992 16.3281 56.5094 15.4887 56.7197 14.6494C56.6017 14.6496 56.4837 14.6498 56.3621 14.65C51.162 14.6598 45.962 14.6688 40.7619 14.6742C40.6832 14.6742 40.6045 14.6743 40.5234 14.6744C38.813 14.6762 37.1026 14.6778 35.3922 14.6793C34.5535 14.68 33.7147 14.6808 32.8759 14.6815C32.7925 14.6816 32.709 14.6817 32.623 14.6818C29.9167 14.6843 27.2105 14.6887 24.5042 14.6941C21.7236 14.6996 18.943 14.7032 16.1623 14.7044C14.3701 14.7052 12.578 14.7076 10.7858 14.7126C9.61188 14.7157 8.43794 14.7166 7.26399 14.7159C6.58606 14.7155 5.90817 14.7161 5.23024 14.7192C4.61 14.722 3.98983 14.7222 3.36959 14.7202C3.14482 14.7199 2.92005 14.7207 2.69529 14.7225C2.39037 14.7249 2.08568 14.7236 1.78076 14.7215C1.64901 14.7238 1.64901 14.7238 1.5146 14.7261C0.844103 14.7153 0.571314 14.523 0.118133 14.0634C-0.100663 13.6258 -0.063367 13.1337 0.000945605 12.6572C0.19949 12.2361 0.473953 12.0014 0.906105 11.8202C1.33444 11.708 1.70168 11.6915 2.14437 11.6931C2.26796 11.693 2.26796 11.693 2.39406 11.693C2.66418 11.6931 2.93426 11.6949 3.20438 11.6968C3.39254 11.6972 3.58071 11.6976 3.76887 11.6978C4.26245 11.6987 4.75602 11.701 5.24959 11.7036C5.8427 11.7064 6.4358 11.7075 7.02891 11.7088C7.92845 11.7111 8.82796 11.7156 9.72751 11.7197C9.22477 9.63139 8.72204 7.54311 8.20407 5.39155C6.50026 5.37621 6.50026 5.37621 4.79642 5.3672C4.5819 5.3641 4.36738 5.36078 4.15286 5.35721C4.0426 5.35768 3.93233 5.35815 3.81872 5.35863C3.29409 5.34731 2.92728 5.32823 2.51001 4.99086C2.07266 4.52264 2.06327 4.20437 2.06958 3.58063C2.13688 3.0876 2.32668 2.90756 2.69626 2.57905C3.11967 2.37211 3.46024 2.31476 3.92922 2.31248ZM16.4237 49.2851C15.7346 50.071 15.6178 50.829 15.6523 51.8637C15.7728 52.8017 16.222 53.5023 16.9588 54.0857C17.7686 54.6072 18.5472 54.8173 19.504 54.6822C20.3962 54.4696 21.1404 53.9888 21.644 53.2187C22.0967 52.4444 22.2546 51.7536 22.1494 50.8603C21.9135 49.9609 21.4951 49.1834 20.6882 48.6919C19.1196 47.8822 17.7063 48.0288 16.4237 49.2851ZM48.0478 49.3369C47.5504 50.1555 47.2269 50.9433 47.3447 51.915C47.6477 53.0358 48.0766 53.7189 49.0613 54.3411C49.866 54.7849 50.6716 54.8037 51.5634 54.6103C52.5293 54.254 53.1785 53.572 53.6582 52.6767C53.9617 51.7324 53.9779 50.9361 53.5593 50.0281C53.0929 49.2118 52.4596 48.5833 51.5561 48.2895C50.2862 47.9807 48.9027 48.2861 48.0478 49.3369Z" fill="white"/>
<path id="Vector_2" d="M10.3687 19.3937C10.5946 19.3917 10.5946 19.3917 10.8252 19.3896C10.9907 19.3906 11.1561 19.3915 11.3216 19.3925C11.4971 19.3919 11.6725 19.3911 11.8479 19.39C12.3232 19.3879 12.7985 19.3887 13.2738 19.3902C13.7718 19.3914 14.2699 19.3903 14.7679 19.3896C15.6044 19.3887 16.4409 19.3898 17.2773 19.3921C18.2434 19.3946 19.2093 19.3938 20.1754 19.3912C21.0057 19.3891 21.836 19.3888 22.6664 19.39C23.1619 19.3907 23.6574 19.3908 24.1529 19.3893C24.6189 19.3879 25.0849 19.3889 25.551 19.3916C25.7216 19.3922 25.8923 19.392 26.063 19.391C27.6698 19.3821 27.6698 19.3821 28.3589 19.9219C28.7085 20.4018 28.6689 20.9939 28.5933 21.5625C28.3447 21.9888 28.1099 22.2033 27.6558 22.3829C27.3164 22.413 27.3164 22.413 26.9146 22.4142C26.6859 22.4157 26.6859 22.4157 26.4526 22.4172C26.2839 22.4171 26.1151 22.417 25.9464 22.4169C25.7685 22.4176 25.5906 22.4184 25.4127 22.4193C24.9297 22.4214 24.4466 22.4219 23.9636 22.4221C23.6618 22.4222 23.3599 22.4227 23.0581 22.4234C22.0049 22.4255 20.9517 22.4265 19.8986 22.4263C18.9171 22.4262 17.9357 22.4286 16.9542 22.4323C16.1113 22.4354 15.2685 22.4366 14.4256 22.4365C13.9223 22.4364 13.419 22.4371 12.9157 22.4396C12.4422 22.4419 11.9688 22.4419 11.4954 22.4402C11.3218 22.4399 11.1483 22.4405 10.9747 22.4419C10.7374 22.4437 10.5001 22.4423 10.2627 22.4408C10.13 22.4409 9.99736 22.4411 9.86065 22.4412C9.34197 22.3592 8.95332 22.1237 8.6275 21.709C8.47805 21.171 8.47703 20.6967 8.6861 20.1856C9.16349 19.6127 9.63042 19.3947 10.3687 19.3937Z" fill="white"/>
<path id="Vector_3" d="M2.60799 27.1576C2.83398 27.1564 2.83398 27.1564 3.06454 27.1551C3.23126 27.1554 3.39798 27.1557 3.56469 27.156C3.74046 27.1555 3.91622 27.1549 4.09198 27.1542C4.56921 27.1526 5.04642 27.1525 5.52364 27.1528C5.92204 27.1529 6.32044 27.1524 6.71884 27.1518C7.65871 27.1505 8.59858 27.1505 9.53845 27.1512C10.5081 27.1519 11.4777 27.1504 12.4473 27.1479C13.2798 27.1459 14.1123 27.1452 14.9448 27.1456C15.442 27.1458 15.9392 27.1455 16.4364 27.1438C16.904 27.1424 17.3716 27.1426 17.8391 27.1441C18.0107 27.1444 18.1822 27.1441 18.3537 27.1431C18.588 27.1419 18.8223 27.143 19.0566 27.1443C19.1877 27.1443 19.3187 27.1443 19.4538 27.1442C19.9933 27.2118 20.3959 27.4759 20.7421 27.8913C20.8835 28.3154 20.8971 28.6169 20.8593 29.0632C20.5882 29.5852 20.3291 29.8601 19.8046 30.1178C19.4563 30.1621 19.4563 30.1621 19.0626 30.1625C18.9129 30.1635 18.7633 30.1645 18.6091 30.1655C18.4441 30.1648 18.2791 30.1641 18.1141 30.1633C17.9396 30.1638 17.7652 30.1644 17.5908 30.1652C17.1177 30.1668 16.6446 30.1662 16.1715 30.1651C15.676 30.1642 15.1805 30.165 14.6851 30.1656C13.8529 30.1662 13.0208 30.1654 12.1887 30.1637C11.2272 30.1618 10.2658 30.1624 9.3044 30.1643C8.47845 30.1659 7.6525 30.1661 6.82655 30.1652C6.33346 30.1647 5.84039 30.1646 5.34731 30.1658C4.88358 30.1668 4.41989 30.1661 3.95616 30.164C3.78619 30.1636 3.61622 30.1637 3.44625 30.1645C3.21381 30.1655 2.98136 30.164 2.74892 30.1625C2.554 30.1623 2.554 30.1623 2.35514 30.1621C1.82254 30.0972 1.42561 29.9212 1.06922 29.5173C0.883766 29.0433 0.856927 28.6279 0.937387 28.1257C1.34571 27.3236 1.73627 27.1592 2.60799 27.1576Z" fill="white"/>
</g>
<defs>
<clipPath id="clip0_2899_506">
<rect width="60" height="60" fill="white"/>
</clipPath>
</defs>
</svg>
