<svg width="70" height="70" viewBox="0 0 70 70" fill="none" xmlns="http://www.w3.org/2000/svg">
<g id="Simplification" clip-path="url(#clip0_2899_549)">
<g id="Vector">
<mask id="path-1-outside-1_2899_549" maskUnits="userSpaceOnUse" x="-0.441406" y="-0.316406" width="71" height="71" fill="black">
<rect fill="white" x="-0.441406" y="-0.316406" width="71" height="71"/>
<path d="M38.2981 1.85352C38.6349 1.97391 38.9718 2.09396 39.3089 2.21354C39.9843 2.45371 40.6587 2.6964 41.3325 2.94106C42.1403 3.23435 42.9495 3.5232 43.76 3.80871C43.989 3.88943 44.218 3.97015 44.447 4.05087C44.5583 4.09011 44.6697 4.12936 44.7844 4.16979C45.2414 4.33123 45.698 4.49386 46.1546 4.65645C48.0657 5.33668 49.9807 6.00493 51.8958 6.67341C54.3241 7.52117 56.7523 8.36937 59.1773 9.22699C59.4152 9.31113 59.6532 9.39518 59.8912 9.47913C60.5162 9.69967 61.1405 9.92174 61.7638 10.147C61.9642 10.2194 62.1647 10.2914 62.3653 10.3631C62.6636 10.4702 62.9612 10.579 63.2587 10.6884C63.3473 10.72 63.436 10.7515 63.5273 10.784C64.2592 11.0572 64.6153 11.3592 65.0192 12.0305C65.162 12.4687 65.1743 12.8826 65.1815 13.3423C65.1841 13.4955 65.1868 13.6488 65.1896 13.8067C65.193 14.0536 65.193 14.0536 65.1964 14.3056C65.1992 14.4748 65.202 14.6439 65.2049 14.8182C65.2122 15.2668 65.219 15.7155 65.2255 16.1641C65.2322 16.6223 65.2397 17.0806 65.2472 17.5388C65.2616 18.4371 65.2753 19.3354 65.2884 20.2337C65.3796 20.2771 65.4707 20.3204 65.5646 20.3652C65.7449 20.4534 65.7449 20.4534 65.9289 20.5434C66.0478 20.6009 66.1667 20.6584 66.2892 20.7176C67.0956 21.1837 67.6835 21.997 68.0265 22.8655C68.3009 24.0266 68.2971 25.3471 67.7078 26.4004C67.4558 26.899 67.41 27.2309 67.5667 27.7754C67.6317 27.935 67.6966 28.0945 67.7636 28.2589C67.7983 28.3458 67.8331 28.4326 67.8689 28.5221C67.9803 28.7991 68.094 29.0751 68.2079 29.3511C68.282 29.5339 68.3558 29.7168 68.4296 29.8998C68.823 30.8754 68.823 30.8754 69.2283 31.8459C69.6621 32.8856 69.8737 33.9771 69.4678 35.0719C68.9607 35.9455 68.3165 36.3831 67.3818 36.6898C66.8014 36.8365 66.233 36.8351 65.6376 36.8311C65.5077 36.8315 65.3779 36.8319 65.244 36.8323C64.9712 36.8326 64.6983 36.8318 64.4255 36.8301C64.0107 36.8279 63.5961 36.8301 63.1814 36.8327C62.9148 36.8324 62.6482 36.8319 62.3816 36.8311C62.1979 36.8323 62.1979 36.8323 62.0105 36.8336C61.0045 36.8225 60.001 36.6706 59.2307 35.9563C58.7822 38.6932 58.7905 40.9348 59.5 43.6126C59.7514 43.6395 59.7514 43.6395 60.0079 43.667C60.8335 43.7556 61.4037 44.1345 61.9567 44.7405C62.6163 45.5805 62.8003 46.3816 62.7307 47.4407C62.6891 47.6238 62.6451 47.8063 62.5961 47.9876C62.771 47.9763 62.946 47.965 63.1262 47.9534C63.9817 47.9588 64.6543 48.2026 65.2953 48.7854C66.1163 49.6866 66.2956 50.468 66.2733 51.6827C66.1758 52.6135 65.7189 53.2716 65.0192 53.8665C64.4188 54.2862 63.8409 54.4925 63.1346 54.6868C62.3149 57.5636 62.4195 59.9753 63.1346 62.8899C63.2928 62.9012 63.4511 62.9125 63.6142 62.9241C64.5779 63.0518 65.2085 63.5316 65.7969 64.2886C66.3462 65.0959 66.3266 66.0446 66.2307 66.9915C65.9916 67.9 65.3631 68.519 64.6154 69.0422C64.0674 69.314 63.6204 69.3501 63.0137 69.3509C62.9214 69.3513 62.8292 69.3518 62.7342 69.3523C62.4245 69.3536 62.1149 69.3529 61.8052 69.3522C61.5811 69.3528 61.3571 69.3534 61.1331 69.3541C60.5169 69.3558 59.9007 69.3558 59.2845 69.3554C58.6201 69.3554 57.9558 69.3569 57.2914 69.3582C55.9892 69.3605 54.687 69.3612 53.3849 69.3614C52.326 69.3615 51.2672 69.3621 50.2083 69.3629C47.2055 69.3653 44.2028 69.3666 41.2 69.3664C40.9571 69.3664 40.9571 69.3664 40.7093 69.3663C40.5472 69.3663 40.385 69.3663 40.218 69.3663C37.5927 69.3662 34.9674 69.3688 32.3421 69.3727C29.6457 69.3766 26.9494 69.3785 24.2531 69.3783C22.7397 69.3782 21.2262 69.3789 19.7127 69.3819C18.4235 69.3844 17.1343 69.3849 15.845 69.3831C15.1877 69.3822 14.5305 69.3822 13.8731 69.3846C13.2702 69.3867 12.6674 69.3863 12.0645 69.3839C11.8475 69.3835 11.6305 69.384 11.4136 69.3855C9.61634 69.3974 7.9283 69.1387 6.31008 68.2817C6.22155 68.2354 6.13303 68.1891 6.04183 68.1414C3.4874 66.7428 1.76675 64.3273 0.883393 61.5483C0.190899 58.6316 0.613311 55.6265 2.0781 53.0451C2.5822 52.2131 3.21324 51.5327 3.90383 50.8587C3.99198 50.7681 4.08013 50.6775 4.17095 50.5841C5.36714 49.4264 6.90596 48.7062 8.48075 48.261C8.12485 47.8886 7.77192 47.5476 7.37017 47.2271C5.53292 45.6288 4.49526 43.1326 4.17306 40.7415C3.97828 37.5638 4.73936 34.604 6.83171 32.1624C8.3728 30.5243 10.5461 29.1694 12.7884 28.8469C13.055 28.8469 13.3215 28.8469 13.5961 28.8469C13.5961 25.5083 13.5961 22.1696 13.5961 18.7297C13.1075 18.5944 12.6188 18.459 12.1154 18.3196C11.8134 18.2226 11.5123 18.1226 11.2127 18.0181C11.0523 17.9625 10.8919 17.9068 10.7267 17.8494C10.5568 17.7899 10.3869 17.7303 10.2171 17.6707C10.038 17.6082 9.85891 17.5457 9.67982 17.4833C9.30706 17.3532 8.93442 17.2227 8.56186 17.092C8.08767 16.9257 7.61316 16.7603 7.13856 16.5952C6.76954 16.4667 6.40071 16.3376 6.03192 16.2084C5.85714 16.1473 5.6823 16.0863 5.50741 16.0255C2.45059 14.9616 2.45059 14.9616 1.86987 13.9606C1.60356 13.3177 1.68149 12.6416 1.90142 11.9963C2.46069 11.1633 3.13351 10.818 4.04633 10.5127C4.15351 10.4753 4.26069 10.4378 4.37112 10.3992C4.72803 10.2748 5.08574 10.1529 5.44349 10.031C5.69808 9.94277 5.95261 9.85435 6.20708 9.76575C6.75823 9.5741 7.3097 9.38339 7.86137 9.19328C9.1116 8.7618 10.3589 8.32191 11.6066 7.88297C12.2461 7.65803 12.8857 7.43377 13.5256 7.21019C14.839 6.75119 16.1519 6.29182 17.459 5.81463C17.6433 5.74788 17.8276 5.68118 18.012 5.61452C18.3298 5.49913 18.6471 5.38212 18.9636 5.26305C19.7069 4.99457 20.2304 4.83276 21 5.05787C21.3796 5.3812 21.4009 5.58124 21.4627 6.08326C21.3915 6.66221 21.3092 6.75263 20.8654 7.10865C20.4939 7.28425 20.1102 7.41089 19.7206 7.53857C19.6057 7.57772 19.4907 7.61688 19.3723 7.65722C19.1233 7.74187 18.874 7.82579 18.6245 7.90905C18.0896 8.08755 17.5559 8.26956 17.0221 8.45136C16.7443 8.54593 16.4664 8.64031 16.1885 8.73452C14.899 9.172 13.6152 9.62503 12.3325 10.0822C11.7371 10.2943 11.1414 10.5055 10.5457 10.7167C10.3725 10.7782 10.3725 10.7782 10.1958 10.8409C9.05585 11.2452 7.91563 11.6488 6.7742 12.0489C6.56763 12.1215 6.36113 12.1942 6.15472 12.2672C5.87297 12.3667 5.59096 12.4655 5.30887 12.564C5.15044 12.6197 4.99201 12.6754 4.82878 12.7328C4.44229 12.8508 4.44229 12.8508 4.03844 12.8508C4.03844 12.9411 4.03844 13.0313 4.03844 13.1243C4.21164 13.1603 4.38485 13.1963 4.5633 13.2334C5.24265 13.3871 5.88922 13.6034 6.5446 13.8394C6.72565 13.9037 6.72565 13.9037 6.91036 13.9693C7.16501 14.0598 7.41955 14.1507 7.67398 14.242C8.05414 14.3783 8.43462 14.5136 8.81518 14.6487C10.4148 15.2182 12.0075 15.8054 13.5961 16.4055C13.6031 16.322 13.6101 16.2384 13.6173 16.1523C13.6277 16.0422 13.638 15.932 13.6487 15.8186C13.6585 15.7096 13.6682 15.6007 13.6783 15.4884C13.8081 14.713 14.3388 14.2431 14.9423 13.8079C16.2014 13.3623 17.5949 13.2415 18.9134 13.0559C19.0159 13.0413 19.1184 13.0267 19.2241 13.0117C29.1529 11.6028 39.1386 11.7146 49.0505 13.2012C49.1435 13.2148 49.2365 13.2285 49.3323 13.2426C51.9929 13.6373 51.9929 13.6373 52.7692 14.4915C53.0913 15.1339 53.3077 15.68 53.3077 16.4055C53.4524 16.3505 53.5971 16.2955 53.7462 16.2388C55.5898 15.5417 57.4467 14.8861 59.3065 14.2351C59.7571 14.0773 60.2076 13.9194 60.6581 13.7613C60.9356 13.6639 61.2133 13.5666 61.4909 13.4696C61.6147 13.4261 61.7385 13.3827 61.866 13.338C61.9749 13.2999 62.0838 13.2618 62.1959 13.2225C62.4665 13.1282 62.4665 13.1282 62.7307 12.9876C62.6586 12.9622 62.5864 12.9368 62.5121 12.9107C62.4089 12.8744 62.3056 12.8381 62.1992 12.8007C62.0814 12.7593 61.9636 12.7178 61.8422 12.6752C61.5724 12.5803 61.3026 12.4855 61.0328 12.3906C60.2587 12.1185 59.4845 11.8463 58.7103 11.5741C57.1294 11.0184 55.5485 10.4625 53.9676 9.90658C51.6089 9.0771 49.2501 8.24774 46.8908 7.42001C46.7373 7.36614 46.5838 7.31228 46.4256 7.25678C45.6537 6.98594 44.8816 6.71527 44.1095 6.44492C42.6847 5.94588 41.2606 5.44529 39.8384 4.93882C39.1913 4.70839 38.5439 4.47872 37.8964 4.24907C37.5895 4.13992 37.2826 4.03038 36.9759 3.92043C36.5519 3.76846 36.1275 3.61782 35.703 3.46745C35.579 3.42257 35.455 3.3777 35.3272 3.33147C34.2259 2.94397 33.3563 2.75874 32.2156 3.14114C32.0697 3.18735 32.0697 3.18735 31.9209 3.2345C30.5217 3.68432 29.1381 4.1873 27.7559 4.6878C27.3959 4.81785 27.0352 4.94575 26.6743 5.07336C26.5663 5.11308 26.4584 5.1528 26.3471 5.19373C25.6576 5.43541 25.0956 5.52557 24.3654 5.46803C24.0288 5.2544 24.0288 5.2544 23.8269 4.92115C23.7554 4.41253 23.7204 4.10953 24.0288 3.68848C24.4871 3.31917 24.9598 3.16104 25.5106 2.97398C25.6237 2.93421 25.7367 2.89445 25.8531 2.85348C26.2149 2.72659 26.5773 2.60193 26.9399 2.4773C27.1764 2.39467 27.4128 2.31189 27.6492 2.22897C28.12 2.06401 28.5916 1.90198 29.0639 1.7415C29.5056 1.59057 29.9416 1.43055 30.3761 1.25952C33.2617 0.145954 35.4689 0.813743 38.2981 1.85352ZM18.0216 15.3972C17.9287 15.4115 17.8358 15.4257 17.7401 15.4404C17.48 15.4806 17.2202 15.5227 16.9605 15.5649C16.8138 15.5886 16.6672 15.6124 16.5161 15.6368C16.1266 15.7055 16.1266 15.7055 15.75 15.9954C15.691 16.3097 15.691 16.3097 15.7041 16.679C15.7042 16.8213 15.7042 16.9637 15.7042 17.1103C15.7063 17.2644 15.7084 17.4185 15.7105 17.5772C15.7111 17.7347 15.7117 17.8921 15.7123 18.0543C15.7145 18.5586 15.7196 19.0628 15.7247 19.5671C15.7268 19.9084 15.7286 20.2497 15.7303 20.5909C15.7347 21.4289 15.7415 22.2668 15.75 23.1047C15.8771 23.1052 16.0043 23.1056 16.1353 23.1061C19.2271 23.1172 22.3188 23.1298 25.4106 23.1441C26.9057 23.1509 28.4009 23.1573 29.896 23.1624C31.199 23.1669 32.5019 23.1724 33.8048 23.179C34.4949 23.1824 35.185 23.1854 35.8751 23.1872C36.5244 23.189 37.1736 23.192 37.8228 23.196C38.0614 23.1972 38.2999 23.198 38.5385 23.1983C38.8637 23.1987 39.1889 23.2009 39.5141 23.2034C39.6089 23.2031 39.7037 23.2029 39.8014 23.2026C40.2839 23.2082 40.6549 23.231 41.0577 23.5149C41.2467 23.899 41.2258 24.1832 41.1923 24.6087C41.0507 24.9044 41.0507 24.9044 40.7884 25.1555C40.4369 25.2109 40.1412 25.2304 39.7893 25.2265C39.6867 25.2275 39.5841 25.2285 39.4784 25.2296C39.1336 25.2324 38.7889 25.2313 38.4441 25.2302C38.1974 25.2314 37.9507 25.2328 37.7039 25.2344C37.0331 25.2383 36.3623 25.2387 35.6915 25.2386C34.9908 25.239 34.2901 25.2425 33.5895 25.2457C32.2622 25.2512 30.9349 25.254 29.6077 25.2558C28.0968 25.258 26.5859 25.2632 25.0751 25.2687C21.9667 25.28 18.8584 25.2873 15.75 25.2922C15.75 26.4202 15.75 27.5481 15.75 28.7102C27.4332 28.7102 39.1165 28.7102 51.1538 28.7102C51.1538 27.5823 51.1538 26.4544 51.1538 25.2922C50.6726 25.2887 50.1914 25.2852 49.6957 25.2816C49.2305 25.2763 48.7654 25.2701 48.3003 25.2639C47.9766 25.26 47.6529 25.2571 47.3292 25.2552C46.8644 25.2523 46.3997 25.2459 45.9348 25.2388C45.7897 25.2387 45.6446 25.2385 45.495 25.2383C45.3603 25.2356 45.2256 25.2329 45.0868 25.2302C44.9681 25.2289 44.8494 25.2277 44.7271 25.2265C44.4231 25.1555 44.4231 25.1555 44.1828 24.9036C43.9617 24.505 43.9626 24.2387 44.0192 23.7883C44.2272 23.5099 44.3856 23.3972 44.6923 23.2415C44.8998 23.2253 45.1079 23.2173 45.316 23.2134C45.4453 23.2107 45.5747 23.2079 45.708 23.2051C45.9179 23.2017 45.9179 23.2017 46.132 23.1982C46.2751 23.1954 46.4181 23.1925 46.5655 23.1896C47.0236 23.1806 47.4817 23.1726 47.9399 23.1646C48.25 23.1587 48.56 23.1527 48.8701 23.1467C49.6313 23.132 50.3926 23.1181 51.1538 23.1047C51.164 22.1193 51.1711 21.1338 51.176 20.1482C51.178 19.8128 51.1808 19.4775 51.1843 19.1421C51.1892 18.6605 51.1915 18.179 51.1933 17.6974C51.1953 17.547 51.1974 17.3966 51.1996 17.2416C51.1996 17.1021 51.1996 16.9625 51.1997 16.8187C51.2006 16.6958 51.2015 16.5728 51.2024 16.4461C51.1772 16.1255 51.1772 16.1255 50.9789 15.8913C50.5921 15.6051 50.133 15.582 49.6699 15.5169C49.5616 15.5003 49.4533 15.4838 49.3417 15.4668C48.9868 15.4132 48.6317 15.3624 48.2764 15.3118C48.0296 15.2756 47.7828 15.2394 47.536 15.2032C45.516 14.9103 43.4956 14.6599 41.4615 14.4915C41.2966 14.4774 41.1316 14.4633 40.9617 14.4488C33.3094 13.8223 25.6025 14.2168 18.0216 15.3972ZM62.2916 15.5078C62.1691 15.5508 62.0466 15.5938 61.9204 15.6381C61.7861 15.6855 61.6518 15.7329 61.5134 15.7817C61.3742 15.8307 61.235 15.8797 61.0916 15.9302C60.7943 16.0349 60.497 16.1398 60.1997 16.2447C59.7558 16.4014 59.3117 16.5575 58.8676 16.7137C58.5773 16.816 58.2869 16.9184 57.9966 17.0208C57.868 17.066 57.7394 17.1111 57.607 17.1577C56.1681 17.6664 54.74 18.2007 53.3077 18.7297C53.3077 22.0233 53.3077 25.3169 53.3077 28.7102C55.5732 28.7102 57.8388 28.7102 60.173 28.7102C60.9483 27.5061 60.9483 27.5061 60.7115 26.7962C60.6255 26.5894 60.5356 26.3844 60.4423 26.1809C59.9394 25.0843 59.8772 24.0421 60.2488 22.8826C60.8205 21.453 61.6225 20.9967 63 20.2337C63 18.6094 63 16.9852 63 15.3118C62.7532 15.3118 62.5224 15.4265 62.2916 15.5078ZM62.3243 23.2682C62.0718 23.7402 62.0266 24.2146 62.0577 24.7454C62.2726 25.4132 62.6574 25.9117 63.2692 26.2493C63.8707 26.4277 64.3323 26.4372 64.9267 26.2322C65.395 25.9004 65.7063 25.5373 65.9615 25.0188C66.0338 24.3494 66.0321 23.8064 65.7512 23.1902C65.2603 22.6533 64.8029 22.3312 64.0685 22.2246C63.323 22.3374 62.7879 22.6555 62.3243 23.2682ZM65.0435 28.3676C64.58 28.4768 64.1125 28.4508 63.6394 28.4453C63.5391 28.4447 63.4388 28.4441 63.3355 28.4435C63.089 28.4418 62.8426 28.4394 62.5961 28.4368C62.3038 29.1438 62.0139 29.8516 61.726 30.5605C61.6278 30.8014 61.5289 31.0421 61.4295 31.2825C61.2865 31.6284 61.1458 31.9751 61.0055 32.322C60.9606 32.4292 60.9157 32.5363 60.8695 32.6467C60.6949 33.0837 60.5754 33.4096 60.5838 33.8849C60.7567 34.283 60.859 34.3986 61.25 34.5891C61.6738 34.6483 62.0932 34.6466 62.5204 34.6436C62.7056 34.6442 62.7056 34.6442 62.8945 34.6448C63.1552 34.6451 63.4159 34.6443 63.6766 34.6426C64.0755 34.6404 64.4742 34.6426 64.873 34.6452C65.1265 34.6449 65.3799 34.6444 65.6334 34.6436C65.7526 34.6444 65.8718 34.6453 65.9946 34.6461C66.4546 34.6408 66.8266 34.6176 67.2609 34.4575C67.525 34.052 67.4572 33.7479 67.3828 33.2786C67.266 32.7651 67.0876 32.2945 66.8823 31.8115C66.8406 31.7101 66.799 31.6086 66.7561 31.5041C66.6245 31.1845 66.4908 30.866 66.3569 30.5474C66.2666 30.3291 66.1764 30.1108 66.0864 29.8923C65.8669 29.3609 65.6455 28.8302 65.423 28.3001C65.2678 28.2941 65.2678 28.2941 65.0435 28.3676ZM20.4615 35.2727C20.4615 36.5811 20.4615 37.8895 20.4615 39.2376C21.2872 39.0102 21.2872 39.0102 22.0769 38.6907C22.3256 38.6928 22.3256 38.6928 22.6238 38.7249C22.7677 38.7386 22.7677 38.7386 22.9146 38.7526C23.4561 38.8609 23.9764 39.0603 24.5 39.2376C24.5 37.9292 24.5 36.6208 24.5 35.2727C23.1673 35.2727 21.8346 35.2727 20.4615 35.2727ZM8.27725 33.8863C6.77748 35.83 6.10999 37.9952 6.3269 40.468C6.67052 42.7786 7.74538 44.8255 9.59974 46.2529C11.5725 47.611 13.4618 48.0518 15.8302 48.0406C16.0206 48.0411 16.2111 48.0419 16.4016 48.0428C16.9195 48.0447 17.4373 48.0442 17.9551 48.0432C18.5156 48.0425 19.0762 48.0442 19.6368 48.0456C20.7323 48.048 21.8279 48.0481 22.9235 48.0474C23.8137 48.0468 24.7039 48.047 25.5941 48.0478C25.721 48.0479 25.848 48.048 25.9788 48.0481C26.2367 48.0483 26.4946 48.0485 26.7526 48.0487C29.1667 48.0506 31.5809 48.0498 33.995 48.0483C36.2042 48.0469 38.4134 48.0487 40.6226 48.052C42.8927 48.0553 45.1628 48.0566 47.4329 48.0557C48.7067 48.0552 49.9806 48.0555 51.2544 48.0579C52.3377 48.0599 53.421 48.06 54.5043 48.0576C55.0571 48.0565 55.6098 48.0562 56.1625 48.0583C56.6682 48.0602 57.1739 48.0595 57.6796 48.0569C57.9496 48.0561 58.2197 48.058 58.4897 48.0601C58.7298 48.058 58.7298 48.058 58.9748 48.056C59.182 48.056 59.182 48.056 59.3934 48.0559C59.8723 47.9688 60.0977 47.7834 60.4423 47.4407C60.6101 47.0446 60.6101 47.0446 60.5769 46.6204C60.3386 46.2448 60.1646 46.0008 59.7692 45.8001C59.5901 45.7872 59.4104 45.7827 59.2309 45.7826C59.0611 45.782 59.0611 45.782 58.8878 45.7814C58.7628 45.7816 58.6377 45.7819 58.5088 45.7821C58.3103 45.7817 58.3103 45.7817 58.1078 45.7812C57.6616 45.7804 57.2153 45.7805 56.7691 45.7807C56.4503 45.7802 56.1315 45.7798 55.8127 45.7792C55.1248 45.7781 54.4369 45.7774 53.749 45.777C52.662 45.7762 51.575 45.7739 50.488 45.7713C50.1163 45.7705 49.7446 45.7696 49.3729 45.7687C49.28 45.7685 49.1871 45.7683 49.0914 45.7681C48.0334 45.7656 46.9755 45.7634 45.9176 45.7614C45.8209 45.7612 45.7242 45.761 45.6245 45.7608C44.0567 45.7578 42.4889 45.7563 40.9211 45.7553C39.3123 45.7542 37.7035 45.751 36.0947 45.746C35.191 45.7433 34.2874 45.7415 33.3838 45.7423C32.5341 45.7429 31.6845 45.7411 30.8348 45.7372C30.5224 45.7363 30.2101 45.7363 29.8977 45.7373C29.4722 45.7385 29.0469 45.7364 28.6215 45.7334C28.497 45.7345 28.3725 45.7357 28.2443 45.7369C27.4129 45.7261 27.4129 45.7261 26.981 45.4112C26.7167 45.0067 26.7103 44.7721 26.7884 44.2962C26.9869 44.0015 26.9869 44.0015 27.3269 43.7493C27.7426 43.6951 28.1104 43.6745 28.5262 43.6783C28.7099 43.6768 28.7099 43.6768 28.8974 43.6752C29.3087 43.6724 29.72 43.6735 30.1313 43.6746C30.4258 43.6734 30.7204 43.672 31.0149 43.6704C31.8153 43.6665 32.6157 43.6661 33.4161 43.6662C34.2522 43.6658 35.0884 43.6623 35.9245 43.6591C37.3282 43.6542 38.7319 43.6512 40.1356 43.6496C41.5814 43.648 43.0272 43.6452 44.473 43.6409C44.5621 43.6407 44.6513 43.6404 44.7431 43.6401C45.1902 43.6388 45.6373 43.6374 46.0844 43.6361C49.7934 43.6248 53.5025 43.6174 57.2115 43.6126C57.1834 43.4728 57.1554 43.3331 57.1264 43.1892C57.0894 43.0035 57.0524 42.8177 57.0154 42.632C56.9969 42.5402 56.9784 42.4484 56.9594 42.3538C56.4764 39.9227 56.7348 37.6936 57.2115 35.2727C47.1275 35.2727 37.0434 35.2727 26.6538 35.2727C26.6094 37.2579 26.565 39.243 26.5192 41.2883C25.9807 41.8352 25.9807 41.8352 25.4675 41.8523C24.764 41.7431 24.1202 41.4517 23.4776 41.1511C22.6896 40.7986 22.1949 40.912 21.4207 41.2077C21.1415 41.32 20.8634 41.4344 20.5856 41.5503C20.037 41.7699 19.5792 41.931 18.9807 41.8352C18.6935 41.6437 18.6935 41.6437 18.4423 41.2883C18.3585 40.8329 18.3608 40.3814 18.3603 39.919C18.358 39.7863 18.3558 39.6535 18.3535 39.5167C18.347 39.0933 18.3441 38.6699 18.3413 38.2463C18.3375 37.959 18.3335 37.6717 18.3292 37.3844C18.3193 36.6805 18.3126 35.9767 18.3077 35.2727C17.6997 35.2591 17.0918 35.2492 16.4837 35.2427C16.2774 35.2399 16.0711 35.2362 15.8649 35.2315C14.3323 35.1969 12.9725 35.2746 11.7925 36.3878C10.86 37.4781 10.5832 38.4528 10.5973 39.8677C10.6867 40.9781 11.1672 41.9127 11.9807 42.6555C12.8716 43.3359 13.7011 43.6463 14.8259 43.6475C14.9184 43.648 15.0108 43.6485 15.1061 43.649C15.3055 43.6499 15.5049 43.6503 15.7043 43.6501C16.0201 43.6499 16.3358 43.6517 16.6516 43.654C17.5488 43.6603 18.4461 43.6637 19.3433 43.6646C19.8933 43.6653 20.4432 43.6686 20.9931 43.6736C21.2023 43.6749 21.4116 43.6752 21.6208 43.6745C21.913 43.6735 22.2051 43.6759 22.4974 43.679C22.7466 43.6796 22.7466 43.6796 23.0009 43.6802C23.502 43.7622 23.662 43.8867 23.9615 44.2962C24.0288 44.7063 24.0288 44.7063 23.9615 45.1165C23.6623 45.5251 23.5023 45.6503 23.0021 45.7328C22.7536 45.7334 22.7536 45.7334 22.5 45.7341C22.4082 45.7351 22.3164 45.736 22.2218 45.737C21.9184 45.7394 21.6152 45.7378 21.3118 45.736C21.0995 45.7363 20.8871 45.7369 20.6748 45.7376C20.229 45.7384 19.7833 45.7372 19.3376 45.7346C18.7709 45.7315 18.2044 45.7333 17.6377 45.7366C17.1985 45.7386 16.7593 45.7379 16.32 45.7365C16.1115 45.7362 15.9029 45.7366 15.6943 45.7379C13.6157 45.7479 11.8313 45.3422 10.2271 43.917C8.87721 42.495 8.55873 40.7519 8.58644 38.86C8.63953 37.3398 9.34164 35.961 10.347 34.8513C11.8744 33.4588 13.6286 33.1597 15.6106 33.1674C15.7968 33.1667 15.983 33.1657 16.1692 33.1647C16.6769 33.1622 17.1847 33.1623 17.6924 33.1628C18.2414 33.1629 18.7904 33.1606 19.3394 33.1586C20.2893 33.1555 21.2392 33.1539 22.1891 33.1532C23.5624 33.1524 24.9358 33.1492 26.3092 33.1455C28.5376 33.1396 30.7661 33.1355 32.9946 33.1326C35.1587 33.1297 37.3228 33.126 39.4869 33.1211C39.6204 33.1208 39.7539 33.1205 39.8915 33.1202C40.5613 33.1187 41.2311 33.1171 41.9009 33.1156C47.4531 33.1029 53.0054 33.0931 58.5577 33.0852C58.8242 32.3633 59.0907 31.6415 59.3654 30.8977C53.6056 30.8852 47.8458 30.8756 42.0861 30.8698C41.4054 30.8691 40.7247 30.8684 40.044 30.8677C39.9085 30.8675 39.773 30.8674 39.6333 30.8672C37.442 30.8649 35.2507 30.8606 33.0594 30.8555C30.8093 30.8504 28.5591 30.8474 26.309 30.8463C24.9217 30.8455 23.5343 30.8431 22.147 30.8387C21.1943 30.8358 20.2417 30.8349 19.2891 30.8356C18.7403 30.836 18.1915 30.8355 17.6427 30.8325C14.0862 30.8144 10.807 30.9614 8.27725 33.8863ZM4.56481 53.3538C2.92163 55.3403 2.63856 57.6632 2.8269 60.1555C2.9201 60.7815 3.11843 61.3527 3.36536 61.9329C3.411 62.0494 3.45664 62.1659 3.50366 62.2859C4.40179 64.3472 6.17818 65.8812 8.21152 66.718C9.79749 67.2641 11.3663 67.285 13.0228 67.2832C13.2382 67.2834 13.4537 67.2837 13.6691 67.2841C14.2591 67.285 14.849 67.2849 15.4389 67.2848C16.076 67.2847 16.713 67.2855 17.35 67.2861C18.5969 67.2873 19.8438 67.2877 21.0908 67.2877C22.1039 67.2878 23.1171 67.2881 24.1303 67.2885C27.0026 67.2897 29.8749 67.2904 32.7472 67.2903C32.9019 67.2902 33.0567 67.2902 33.2161 67.2902C33.3711 67.2902 33.526 67.2902 33.6856 67.2902C36.1995 67.2902 38.7134 67.2915 41.2273 67.2934C43.8083 67.2954 46.3893 67.2963 48.9703 67.2962C50.4195 67.2961 51.8687 67.2965 53.3178 67.298C54.5509 67.2992 55.784 67.2995 57.0171 67.2986C57.6464 67.2982 58.2758 67.2981 58.9051 67.2993C59.4808 67.3004 60.0565 67.3002 60.6323 67.299C60.8409 67.2988 61.0495 67.2991 61.2581 67.2998C61.541 67.3008 61.824 67.3001 62.1069 67.2989C62.3429 67.299 62.3429 67.299 62.5837 67.299C63.1039 67.2564 63.4886 67.1207 63.917 66.8206C64.1674 66.4458 64.1465 66.2029 64.0769 65.761C63.8545 65.4088 63.7555 65.2727 63.4038 65.0774C62.8099 64.975 62.2208 64.9854 61.6196 64.9903C61.3537 64.9882 61.0878 64.986 60.8219 64.9838C60.4503 64.9815 60.0788 64.9823 59.7072 64.983C59.0564 64.9839 58.4057 64.9808 57.7549 64.9764C57.4086 64.9743 57.0624 64.9738 56.7162 64.975C56.5594 64.9745 56.4026 64.974 56.241 64.9734C56.1032 64.9737 55.9653 64.9739 55.8233 64.9742C55.4522 64.9398 55.2334 64.873 54.923 64.6672C54.734 64.2832 54.7549 63.9989 54.7884 63.5735C54.9127 63.2786 54.9127 63.2786 55.1923 63.0266C55.6161 62.9395 56.0372 62.9439 56.4685 62.9433C56.6559 62.9399 56.6559 62.9399 56.847 62.9365C57.2462 62.9298 57.6453 62.9269 58.0444 62.9241C58.315 62.9202 58.5855 62.9161 58.8561 62.9118C59.5194 62.9017 60.1827 62.8949 60.8461 62.8899C60.8181 62.7405 60.79 62.5911 60.761 62.4372C60.724 62.2388 60.687 62.0405 60.65 61.8421C60.6315 61.7439 60.613 61.6457 60.594 61.5446C60.1473 59.1437 60.3247 56.9332 60.8461 54.5501C57.6921 54.5501 54.5381 54.5501 51.2884 54.5501C51.2655 56.5051 51.2655 56.5051 51.2483 58.4603C51.2444 58.7057 51.2402 58.951 51.2359 59.1964C51.2357 59.3234 51.2355 59.4505 51.2354 59.5815C51.2158 60.4767 51.2158 60.4767 50.9065 60.9207C50.4679 61.2097 50.1887 61.1779 49.673 61.1126C49.1723 60.9426 48.7004 60.7113 48.223 60.4837C47.3938 60.1084 46.9011 60.1637 46.0553 60.485C45.7761 60.5973 45.498 60.7118 45.2202 60.8276C44.6716 61.0472 44.2138 61.2084 43.6154 61.1126C43.3281 60.921 43.3281 60.921 43.0769 60.5657C42.9931 60.1102 42.9955 59.6587 42.9949 59.1964C42.9926 59.0636 42.9904 58.9309 42.9881 58.7941C42.9816 58.3706 42.9787 57.9472 42.9759 57.5237C42.9721 57.2364 42.9681 56.949 42.9638 56.6617C42.9539 55.9578 42.9472 55.254 42.9423 54.5501C38.7979 54.5376 34.6536 54.5279 30.5093 54.5221C30.0196 54.5214 29.53 54.5207 29.0404 54.52C28.8941 54.5198 28.8941 54.5198 28.745 54.5196C27.1681 54.5172 25.5913 54.5129 24.0144 54.5079C22.3956 54.5027 20.7767 54.4997 19.1579 54.4986C18.249 54.4979 17.34 54.4963 16.4311 54.4922C15.5753 54.4885 14.7194 54.4874 13.8636 54.4882C13.5498 54.488 13.236 54.487 12.9223 54.4849C12.493 54.4821 12.0638 54.4828 11.6345 54.4843C11.5111 54.4827 11.3878 54.4811 11.2607 54.4795C10.2347 54.489 9.38758 54.7835 8.5144 55.3276C7.58796 56.2947 7.09075 57.3811 6.9495 58.72C7.09362 60.0861 7.58328 61.0651 8.56962 62.0103C9.66928 62.8948 11.0004 62.9497 12.3474 62.9407C12.5153 62.9413 12.6833 62.9418 12.8564 62.9423C13.3192 62.9434 13.7819 62.9426 14.2447 62.941C14.745 62.9398 15.2454 62.941 15.7458 62.9419C16.6116 62.9431 17.4775 62.943 18.3434 62.9419C19.5957 62.9403 20.848 62.9416 22.1003 62.9436C24.1329 62.9468 26.1656 62.9487 28.1982 62.9492C28.3805 62.9493 28.3805 62.9493 28.5664 62.9493C29.9236 62.9497 31.2808 62.9497 32.638 62.9496C33.131 62.9496 33.624 62.9495 34.1169 62.9495C34.2386 62.9495 34.3602 62.9495 34.4856 62.9495C36.512 62.9494 38.5384 62.9514 40.5648 62.9551C41.8146 62.9572 43.0643 62.9575 44.3141 62.9555C45.1694 62.9542 46.0246 62.9548 46.8798 62.957C47.3736 62.9582 47.8674 62.9585 48.3612 62.9564C48.8957 62.9541 49.4301 62.9561 49.9646 62.9584C50.2003 62.9564 50.2003 62.9564 50.4407 62.9544C50.6545 62.9563 50.6545 62.9563 50.8726 62.9583C50.9961 62.9583 51.1195 62.9583 51.2467 62.9583C51.5577 63.0266 51.5577 63.0266 51.7998 63.2782C52.0164 63.6738 52.0082 63.9477 51.9615 64.3938C51.6923 64.804 51.6923 64.804 51.2884 64.9407C51.0614 64.9535 50.834 64.9583 50.6066 64.9586C50.4648 64.9592 50.323 64.9597 50.1769 64.9602C49.9424 64.9601 49.9424 64.9601 49.7032 64.9599C49.4547 64.9605 49.4547 64.9605 49.2011 64.9611C48.7404 64.9621 48.2796 64.9625 47.8188 64.9626C47.3222 64.9628 46.8255 64.9638 46.3289 64.9648C45.2422 64.9666 44.1555 64.9674 43.0687 64.968C42.3899 64.9684 41.711 64.969 41.0321 64.9696C39.1519 64.9713 37.2717 64.9727 35.3915 64.9732C35.2109 64.9732 35.2109 64.9732 35.0267 64.9733C34.906 64.9733 34.7853 64.9733 34.661 64.9733C34.4165 64.9734 34.1719 64.9735 33.9274 64.9735C33.8061 64.9736 33.6848 64.9736 33.5598 64.9736C31.5968 64.9742 29.6337 64.9765 27.6706 64.9797C25.6543 64.983 23.638 64.9847 21.6216 64.9848C20.4899 64.985 19.3582 64.9857 18.2265 64.9882C17.2622 64.9903 16.298 64.991 15.3337 64.9899C14.8422 64.9894 14.3507 64.9895 13.8592 64.9914C13.3248 64.9935 12.7905 64.9923 12.2562 64.9909C12.1029 64.992 11.9495 64.9931 11.7916 64.9943C9.92545 64.9827 8.2488 64.5677 6.82277 63.2952C5.60972 62.0071 5.00779 60.4319 4.93868 58.6687C4.97931 57.0233 5.57514 55.3136 6.73075 54.1399C7.94578 53.1531 9.15313 52.4828 10.7238 52.4815C10.8142 52.4812 10.9047 52.4809 10.9978 52.4807C11.3022 52.4799 11.6065 52.4802 11.9109 52.4804C12.1308 52.4801 12.3506 52.4797 12.5705 52.4792C13.1758 52.4782 13.781 52.478 14.3863 52.4779C15.0387 52.4776 15.691 52.4766 16.3434 52.4756C17.4741 52.474 18.6049 52.4729 19.7356 52.472C21.5222 52.4706 23.3087 52.4678 25.0952 52.4648C25.7062 52.4637 26.3171 52.4627 26.9281 52.4617C27.0808 52.4615 27.2335 52.4612 27.3908 52.461C29.1292 52.4581 30.8676 52.4555 32.6061 52.4531C32.765 52.4529 32.9239 52.4526 33.0877 52.4524C35.6647 52.4488 38.2418 52.4463 40.8188 52.444C43.4631 52.4416 46.1074 52.4377 48.7516 52.4324C50.3836 52.4292 52.0155 52.4273 53.6474 52.427C54.7652 52.4267 55.8829 52.4249 57.0007 52.422C57.6461 52.4204 58.2915 52.4194 58.9369 52.4202C59.5274 52.4209 60.1178 52.4198 60.7083 52.4171C60.9222 52.4165 61.1362 52.4165 61.3502 52.4174C61.6404 52.4184 61.9305 52.4169 62.2207 52.4148C62.3821 52.4146 62.5435 52.4144 62.7098 52.4142C63.3095 52.3413 63.6557 52.1068 64.0769 51.679C64.1556 51.2863 64.1556 51.2863 64.0769 50.8587C63.7328 50.4167 63.5304 50.2005 62.9794 50.0897C62.7376 50.0897 62.7376 50.0897 62.4909 50.0898C62.4004 50.0889 62.3098 50.088 62.2166 50.087C61.9126 50.0848 61.6088 50.0875 61.3049 50.0901C61.085 50.0895 60.8651 50.0886 60.6453 50.0874C60.0406 50.0851 59.4359 50.0871 58.8312 50.0897C58.1792 50.0918 57.5272 50.09 56.8752 50.0886C55.5975 50.0867 54.3198 50.0883 53.042 50.0913C51.5538 50.0945 50.0656 50.0943 48.5774 50.0939C45.9212 50.0934 43.265 50.0963 40.6088 50.101C38.0323 50.1055 35.4559 50.1074 32.8794 50.1066C30.0742 50.1056 27.2691 50.106 24.4639 50.1087C24.3154 50.1088 24.1669 50.1089 24.014 50.1091C23.7158 50.1094 23.4176 50.1097 23.1194 50.11C22.0826 50.1109 21.0458 50.111 20.009 50.1108C18.7444 50.1106 17.4797 50.1119 16.2151 50.1152C15.5701 50.1168 14.9251 50.1178 14.2801 50.117C13.689 50.1163 13.0978 50.1175 12.5067 50.1201C12.2935 50.1208 12.0803 50.1208 11.8672 50.12C8.79841 50.1095 6.62971 51.0959 4.56481 53.3538ZM45.0961 54.5501C45.0961 55.8585 45.0961 57.1669 45.0961 58.5149C45.5404 58.3795 45.9846 58.2442 46.4423 58.1047C47.2628 57.8775 47.7845 58.0748 48.5483 58.3905C48.8506 58.5313 48.8506 58.5313 49.1346 58.5149C49.1346 57.2065 49.1346 55.8981 49.1346 54.5501C47.8019 54.5501 46.4692 54.5501 45.0961 54.5501Z"/>
</mask>
<path d="M38.2981 1.85352C38.6349 1.97391 38.9718 2.09396 39.3089 2.21354C39.9843 2.45371 40.6587 2.6964 41.3325 2.94106C42.1403 3.23435 42.9495 3.5232 43.76 3.80871C43.989 3.88943 44.218 3.97015 44.447 4.05087C44.5583 4.09011 44.6697 4.12936 44.7844 4.16979C45.2414 4.33123 45.698 4.49386 46.1546 4.65645C48.0657 5.33668 49.9807 6.00493 51.8958 6.67341C54.3241 7.52117 56.7523 8.36937 59.1773 9.22699C59.4152 9.31113 59.6532 9.39518 59.8912 9.47913C60.5162 9.69967 61.1405 9.92174 61.7638 10.147C61.9642 10.2194 62.1647 10.2914 62.3653 10.3631C62.6636 10.4702 62.9612 10.579 63.2587 10.6884C63.3473 10.72 63.436 10.7515 63.5273 10.784C64.2592 11.0572 64.6153 11.3592 65.0192 12.0305C65.162 12.4687 65.1743 12.8826 65.1815 13.3423C65.1841 13.4955 65.1868 13.6488 65.1896 13.8067C65.193 14.0536 65.193 14.0536 65.1964 14.3056C65.1992 14.4748 65.202 14.6439 65.2049 14.8182C65.2122 15.2668 65.219 15.7155 65.2255 16.1641C65.2322 16.6223 65.2397 17.0806 65.2472 17.5388C65.2616 18.4371 65.2753 19.3354 65.2884 20.2337C65.3796 20.2771 65.4707 20.3204 65.5646 20.3652C65.7449 20.4534 65.7449 20.4534 65.9289 20.5434C66.0478 20.6009 66.1667 20.6584 66.2892 20.7176C67.0956 21.1837 67.6835 21.997 68.0265 22.8655C68.3009 24.0266 68.2971 25.3471 67.7078 26.4004C67.4558 26.899 67.41 27.2309 67.5667 27.7754C67.6317 27.935 67.6966 28.0945 67.7636 28.2589C67.7983 28.3458 67.8331 28.4326 67.8689 28.5221C67.9803 28.7991 68.094 29.0751 68.2079 29.3511C68.282 29.5339 68.3558 29.7168 68.4296 29.8998C68.823 30.8754 68.823 30.8754 69.2283 31.8459C69.6621 32.8856 69.8737 33.9771 69.4678 35.0719C68.9607 35.9455 68.3165 36.3831 67.3818 36.6898C66.8014 36.8365 66.233 36.8351 65.6376 36.8311C65.5077 36.8315 65.3779 36.8319 65.244 36.8323C64.9712 36.8326 64.6983 36.8318 64.4255 36.8301C64.0107 36.8279 63.5961 36.8301 63.1814 36.8327C62.9148 36.8324 62.6482 36.8319 62.3816 36.8311C62.1979 36.8323 62.1979 36.8323 62.0105 36.8336C61.0045 36.8225 60.001 36.6706 59.2307 35.9563C58.7822 38.6932 58.7905 40.9348 59.5 43.6126C59.7514 43.6395 59.7514 43.6395 60.0079 43.667C60.8335 43.7556 61.4037 44.1345 61.9567 44.7405C62.6163 45.5805 62.8003 46.3816 62.7307 47.4407C62.6891 47.6238 62.6451 47.8063 62.5961 47.9876C62.771 47.9763 62.946 47.965 63.1262 47.9534C63.9817 47.9588 64.6543 48.2026 65.2953 48.7854C66.1163 49.6866 66.2956 50.468 66.2733 51.6827C66.1758 52.6135 65.7189 53.2716 65.0192 53.8665C64.4188 54.2862 63.8409 54.4925 63.1346 54.6868C62.3149 57.5636 62.4195 59.9753 63.1346 62.8899C63.2928 62.9012 63.4511 62.9125 63.6142 62.9241C64.5779 63.0518 65.2085 63.5316 65.7969 64.2886C66.3462 65.0959 66.3266 66.0446 66.2307 66.9915C65.9916 67.9 65.3631 68.519 64.6154 69.0422C64.0674 69.314 63.6204 69.3501 63.0137 69.3509C62.9214 69.3513 62.8292 69.3518 62.7342 69.3523C62.4245 69.3536 62.1149 69.3529 61.8052 69.3522C61.5811 69.3528 61.3571 69.3534 61.1331 69.3541C60.5169 69.3558 59.9007 69.3558 59.2845 69.3554C58.6201 69.3554 57.9558 69.3569 57.2914 69.3582C55.9892 69.3605 54.687 69.3612 53.3849 69.3614C52.326 69.3615 51.2672 69.3621 50.2083 69.3629C47.2055 69.3653 44.2028 69.3666 41.2 69.3664C40.9571 69.3664 40.9571 69.3664 40.7093 69.3663C40.5472 69.3663 40.385 69.3663 40.218 69.3663C37.5927 69.3662 34.9674 69.3688 32.3421 69.3727C29.6457 69.3766 26.9494 69.3785 24.2531 69.3783C22.7397 69.3782 21.2262 69.3789 19.7127 69.3819C18.4235 69.3844 17.1343 69.3849 15.845 69.3831C15.1877 69.3822 14.5305 69.3822 13.8731 69.3846C13.2702 69.3867 12.6674 69.3863 12.0645 69.3839C11.8475 69.3835 11.6305 69.384 11.4136 69.3855C9.61634 69.3974 7.9283 69.1387 6.31008 68.2817C6.22155 68.2354 6.13303 68.1891 6.04183 68.1414C3.4874 66.7428 1.76675 64.3273 0.883393 61.5483C0.190899 58.6316 0.613311 55.6265 2.0781 53.0451C2.5822 52.2131 3.21324 51.5327 3.90383 50.8587C3.99198 50.7681 4.08013 50.6775 4.17095 50.5841C5.36714 49.4264 6.90596 48.7062 8.48075 48.261C8.12485 47.8886 7.77192 47.5476 7.37017 47.2271C5.53292 45.6288 4.49526 43.1326 4.17306 40.7415C3.97828 37.5638 4.73936 34.604 6.83171 32.1624C8.3728 30.5243 10.5461 29.1694 12.7884 28.8469C13.055 28.8469 13.3215 28.8469 13.5961 28.8469C13.5961 25.5083 13.5961 22.1696 13.5961 18.7297C13.1075 18.5944 12.6188 18.459 12.1154 18.3196C11.8134 18.2226 11.5123 18.1226 11.2127 18.0181C11.0523 17.9625 10.8919 17.9068 10.7267 17.8494C10.5568 17.7899 10.3869 17.7303 10.2171 17.6707C10.038 17.6082 9.85891 17.5457 9.67982 17.4833C9.30706 17.3532 8.93442 17.2227 8.56186 17.092C8.08767 16.9257 7.61316 16.7603 7.13856 16.5952C6.76954 16.4667 6.40071 16.3376 6.03192 16.2084C5.85714 16.1473 5.6823 16.0863 5.50741 16.0255C2.45059 14.9616 2.45059 14.9616 1.86987 13.9606C1.60356 13.3177 1.68149 12.6416 1.90142 11.9963C2.46069 11.1633 3.13351 10.818 4.04633 10.5127C4.15351 10.4753 4.26069 10.4378 4.37112 10.3992C4.72803 10.2748 5.08574 10.1529 5.44349 10.031C5.69808 9.94277 5.95261 9.85435 6.20708 9.76575C6.75823 9.5741 7.3097 9.38339 7.86137 9.19328C9.1116 8.7618 10.3589 8.32191 11.6066 7.88297C12.2461 7.65803 12.8857 7.43377 13.5256 7.21019C14.839 6.75119 16.1519 6.29182 17.459 5.81463C17.6433 5.74788 17.8276 5.68118 18.012 5.61452C18.3298 5.49913 18.6471 5.38212 18.9636 5.26305C19.7069 4.99457 20.2304 4.83276 21 5.05787C21.3796 5.3812 21.4009 5.58124 21.4627 6.08326C21.3915 6.66221 21.3092 6.75263 20.8654 7.10865C20.4939 7.28425 20.1102 7.41089 19.7206 7.53857C19.6057 7.57772 19.4907 7.61688 19.3723 7.65722C19.1233 7.74187 18.874 7.82579 18.6245 7.90905C18.0896 8.08755 17.5559 8.26956 17.0221 8.45136C16.7443 8.54593 16.4664 8.64031 16.1885 8.73452C14.899 9.172 13.6152 9.62503 12.3325 10.0822C11.7371 10.2943 11.1414 10.5055 10.5457 10.7167C10.3725 10.7782 10.3725 10.7782 10.1958 10.8409C9.05585 11.2452 7.91563 11.6488 6.7742 12.0489C6.56763 12.1215 6.36113 12.1942 6.15472 12.2672C5.87297 12.3667 5.59096 12.4655 5.30887 12.564C5.15044 12.6197 4.99201 12.6754 4.82878 12.7328C4.44229 12.8508 4.44229 12.8508 4.03844 12.8508C4.03844 12.9411 4.03844 13.0313 4.03844 13.1243C4.21164 13.1603 4.38485 13.1963 4.5633 13.2334C5.24265 13.3871 5.88922 13.6034 6.5446 13.8394C6.72565 13.9037 6.72565 13.9037 6.91036 13.9693C7.16501 14.0598 7.41955 14.1507 7.67398 14.242C8.05414 14.3783 8.43462 14.5136 8.81518 14.6487C10.4148 15.2182 12.0075 15.8054 13.5961 16.4055C13.6031 16.322 13.6101 16.2384 13.6173 16.1523C13.6277 16.0422 13.638 15.932 13.6487 15.8186C13.6585 15.7096 13.6682 15.6007 13.6783 15.4884C13.8081 14.713 14.3388 14.2431 14.9423 13.8079C16.2014 13.3623 17.5949 13.2415 18.9134 13.0559C19.0159 13.0413 19.1184 13.0267 19.2241 13.0117C29.1529 11.6028 39.1386 11.7146 49.0505 13.2012C49.1435 13.2148 49.2365 13.2285 49.3323 13.2426C51.9929 13.6373 51.9929 13.6373 52.7692 14.4915C53.0913 15.1339 53.3077 15.68 53.3077 16.4055C53.4524 16.3505 53.5971 16.2955 53.7462 16.2388C55.5898 15.5417 57.4467 14.8861 59.3065 14.2351C59.7571 14.0773 60.2076 13.9194 60.6581 13.7613C60.9356 13.6639 61.2133 13.5666 61.4909 13.4696C61.6147 13.4261 61.7385 13.3827 61.866 13.338C61.9749 13.2999 62.0838 13.2618 62.1959 13.2225C62.4665 13.1282 62.4665 13.1282 62.7307 12.9876C62.6586 12.9622 62.5864 12.9368 62.5121 12.9107C62.4089 12.8744 62.3056 12.8381 62.1992 12.8007C62.0814 12.7593 61.9636 12.7178 61.8422 12.6752C61.5724 12.5803 61.3026 12.4855 61.0328 12.3906C60.2587 12.1185 59.4845 11.8463 58.7103 11.5741C57.1294 11.0184 55.5485 10.4625 53.9676 9.90658C51.6089 9.0771 49.2501 8.24774 46.8908 7.42001C46.7373 7.36614 46.5838 7.31228 46.4256 7.25678C45.6537 6.98594 44.8816 6.71527 44.1095 6.44492C42.6847 5.94588 41.2606 5.44529 39.8384 4.93882C39.1913 4.70839 38.5439 4.47872 37.8964 4.24907C37.5895 4.13992 37.2826 4.03038 36.9759 3.92043C36.5519 3.76846 36.1275 3.61782 35.703 3.46745C35.579 3.42257 35.455 3.3777 35.3272 3.33147C34.2259 2.94397 33.3563 2.75874 32.2156 3.14114C32.0697 3.18735 32.0697 3.18735 31.9209 3.2345C30.5217 3.68432 29.1381 4.1873 27.7559 4.6878C27.3959 4.81785 27.0352 4.94575 26.6743 5.07336C26.5663 5.11308 26.4584 5.1528 26.3471 5.19373C25.6576 5.43541 25.0956 5.52557 24.3654 5.46803C24.0288 5.2544 24.0288 5.2544 23.8269 4.92115C23.7554 4.41253 23.7204 4.10953 24.0288 3.68848C24.4871 3.31917 24.9598 3.16104 25.5106 2.97398C25.6237 2.93421 25.7367 2.89445 25.8531 2.85348C26.2149 2.72659 26.5773 2.60193 26.9399 2.4773C27.1764 2.39467 27.4128 2.31189 27.6492 2.22897C28.12 2.06401 28.5916 1.90198 29.0639 1.7415C29.5056 1.59057 29.9416 1.43055 30.3761 1.25952C33.2617 0.145954 35.4689 0.813743 38.2981 1.85352ZM18.0216 15.3972C17.9287 15.4115 17.8358 15.4257 17.7401 15.4404C17.48 15.4806 17.2202 15.5227 16.9605 15.5649C16.8138 15.5886 16.6672 15.6124 16.5161 15.6368C16.1266 15.7055 16.1266 15.7055 15.75 15.9954C15.691 16.3097 15.691 16.3097 15.7041 16.679C15.7042 16.8213 15.7042 16.9637 15.7042 17.1103C15.7063 17.2644 15.7084 17.4185 15.7105 17.5772C15.7111 17.7347 15.7117 17.8921 15.7123 18.0543C15.7145 18.5586 15.7196 19.0628 15.7247 19.5671C15.7268 19.9084 15.7286 20.2497 15.7303 20.5909C15.7347 21.4289 15.7415 22.2668 15.75 23.1047C15.8771 23.1052 16.0043 23.1056 16.1353 23.1061C19.2271 23.1172 22.3188 23.1298 25.4106 23.1441C26.9057 23.1509 28.4009 23.1573 29.896 23.1624C31.199 23.1669 32.5019 23.1724 33.8048 23.179C34.4949 23.1824 35.185 23.1854 35.8751 23.1872C36.5244 23.189 37.1736 23.192 37.8228 23.196C38.0614 23.1972 38.2999 23.198 38.5385 23.1983C38.8637 23.1987 39.1889 23.2009 39.5141 23.2034C39.6089 23.2031 39.7037 23.2029 39.8014 23.2026C40.2839 23.2082 40.6549 23.231 41.0577 23.5149C41.2467 23.899 41.2258 24.1832 41.1923 24.6087C41.0507 24.9044 41.0507 24.9044 40.7884 25.1555C40.4369 25.2109 40.1412 25.2304 39.7893 25.2265C39.6867 25.2275 39.5841 25.2285 39.4784 25.2296C39.1336 25.2324 38.7889 25.2313 38.4441 25.2302C38.1974 25.2314 37.9507 25.2328 37.7039 25.2344C37.0331 25.2383 36.3623 25.2387 35.6915 25.2386C34.9908 25.239 34.2901 25.2425 33.5895 25.2457C32.2622 25.2512 30.9349 25.254 29.6077 25.2558C28.0968 25.258 26.5859 25.2632 25.0751 25.2687C21.9667 25.28 18.8584 25.2873 15.75 25.2922C15.75 26.4202 15.75 27.5481 15.75 28.7102C27.4332 28.7102 39.1165 28.7102 51.1538 28.7102C51.1538 27.5823 51.1538 26.4544 51.1538 25.2922C50.6726 25.2887 50.1914 25.2852 49.6957 25.2816C49.2305 25.2763 48.7654 25.2701 48.3003 25.2639C47.9766 25.26 47.6529 25.2571 47.3292 25.2552C46.8644 25.2523 46.3997 25.2459 45.9348 25.2388C45.7897 25.2387 45.6446 25.2385 45.495 25.2383C45.3603 25.2356 45.2256 25.2329 45.0868 25.2302C44.9681 25.2289 44.8494 25.2277 44.7271 25.2265C44.4231 25.1555 44.4231 25.1555 44.1828 24.9036C43.9617 24.505 43.9626 24.2387 44.0192 23.7883C44.2272 23.5099 44.3856 23.3972 44.6923 23.2415C44.8998 23.2253 45.1079 23.2173 45.316 23.2134C45.4453 23.2107 45.5747 23.2079 45.708 23.2051C45.9179 23.2017 45.9179 23.2017 46.132 23.1982C46.2751 23.1954 46.4181 23.1925 46.5655 23.1896C47.0236 23.1806 47.4817 23.1726 47.9399 23.1646C48.25 23.1587 48.56 23.1527 48.8701 23.1467C49.6313 23.132 50.3926 23.1181 51.1538 23.1047C51.164 22.1193 51.1711 21.1338 51.176 20.1482C51.178 19.8128 51.1808 19.4775 51.1843 19.1421C51.1892 18.6605 51.1915 18.179 51.1933 17.6974C51.1953 17.547 51.1974 17.3966 51.1996 17.2416C51.1996 17.1021 51.1996 16.9625 51.1997 16.8187C51.2006 16.6958 51.2015 16.5728 51.2024 16.4461C51.1772 16.1255 51.1772 16.1255 50.9789 15.8913C50.5921 15.6051 50.133 15.582 49.6699 15.5169C49.5616 15.5003 49.4533 15.4838 49.3417 15.4668C48.9868 15.4132 48.6317 15.3624 48.2764 15.3118C48.0296 15.2756 47.7828 15.2394 47.536 15.2032C45.516 14.9103 43.4956 14.6599 41.4615 14.4915C41.2966 14.4774 41.1316 14.4633 40.9617 14.4488C33.3094 13.8223 25.6025 14.2168 18.0216 15.3972ZM62.2916 15.5078C62.1691 15.5508 62.0466 15.5938 61.9204 15.6381C61.7861 15.6855 61.6518 15.7329 61.5134 15.7817C61.3742 15.8307 61.235 15.8797 61.0916 15.9302C60.7943 16.0349 60.497 16.1398 60.1997 16.2447C59.7558 16.4014 59.3117 16.5575 58.8676 16.7137C58.5773 16.816 58.2869 16.9184 57.9966 17.0208C57.868 17.066 57.7394 17.1111 57.607 17.1577C56.1681 17.6664 54.74 18.2007 53.3077 18.7297C53.3077 22.0233 53.3077 25.3169 53.3077 28.7102C55.5732 28.7102 57.8388 28.7102 60.173 28.7102C60.9483 27.5061 60.9483 27.5061 60.7115 26.7962C60.6255 26.5894 60.5356 26.3844 60.4423 26.1809C59.9394 25.0843 59.8772 24.0421 60.2488 22.8826C60.8205 21.453 61.6225 20.9967 63 20.2337C63 18.6094 63 16.9852 63 15.3118C62.7532 15.3118 62.5224 15.4265 62.2916 15.5078ZM62.3243 23.2682C62.0718 23.7402 62.0266 24.2146 62.0577 24.7454C62.2726 25.4132 62.6574 25.9117 63.2692 26.2493C63.8707 26.4277 64.3323 26.4372 64.9267 26.2322C65.395 25.9004 65.7063 25.5373 65.9615 25.0188C66.0338 24.3494 66.0321 23.8064 65.7512 23.1902C65.2603 22.6533 64.8029 22.3312 64.0685 22.2246C63.323 22.3374 62.7879 22.6555 62.3243 23.2682ZM65.0435 28.3676C64.58 28.4768 64.1125 28.4508 63.6394 28.4453C63.5391 28.4447 63.4388 28.4441 63.3355 28.4435C63.089 28.4418 62.8426 28.4394 62.5961 28.4368C62.3038 29.1438 62.0139 29.8516 61.726 30.5605C61.6278 30.8014 61.5289 31.0421 61.4295 31.2825C61.2865 31.6284 61.1458 31.9751 61.0055 32.322C60.9606 32.4292 60.9157 32.5363 60.8695 32.6467C60.6949 33.0837 60.5754 33.4096 60.5838 33.8849C60.7567 34.283 60.859 34.3986 61.25 34.5891C61.6738 34.6483 62.0932 34.6466 62.5204 34.6436C62.7056 34.6442 62.7056 34.6442 62.8945 34.6448C63.1552 34.6451 63.4159 34.6443 63.6766 34.6426C64.0755 34.6404 64.4742 34.6426 64.873 34.6452C65.1265 34.6449 65.3799 34.6444 65.6334 34.6436C65.7526 34.6444 65.8718 34.6453 65.9946 34.6461C66.4546 34.6408 66.8266 34.6176 67.2609 34.4575C67.525 34.052 67.4572 33.7479 67.3828 33.2786C67.266 32.7651 67.0876 32.2945 66.8823 31.8115C66.8406 31.7101 66.799 31.6086 66.7561 31.5041C66.6245 31.1845 66.4908 30.866 66.3569 30.5474C66.2666 30.3291 66.1764 30.1108 66.0864 29.8923C65.8669 29.3609 65.6455 28.8302 65.423 28.3001C65.2678 28.2941 65.2678 28.2941 65.0435 28.3676ZM20.4615 35.2727C20.4615 36.5811 20.4615 37.8895 20.4615 39.2376C21.2872 39.0102 21.2872 39.0102 22.0769 38.6907C22.3256 38.6928 22.3256 38.6928 22.6238 38.7249C22.7677 38.7386 22.7677 38.7386 22.9146 38.7526C23.4561 38.8609 23.9764 39.0603 24.5 39.2376C24.5 37.9292 24.5 36.6208 24.5 35.2727C23.1673 35.2727 21.8346 35.2727 20.4615 35.2727ZM8.27725 33.8863C6.77748 35.83 6.10999 37.9952 6.3269 40.468C6.67052 42.7786 7.74538 44.8255 9.59974 46.2529C11.5725 47.611 13.4618 48.0518 15.8302 48.0406C16.0206 48.0411 16.2111 48.0419 16.4016 48.0428C16.9195 48.0447 17.4373 48.0442 17.9551 48.0432C18.5156 48.0425 19.0762 48.0442 19.6368 48.0456C20.7323 48.048 21.8279 48.0481 22.9235 48.0474C23.8137 48.0468 24.7039 48.047 25.5941 48.0478C25.721 48.0479 25.848 48.048 25.9788 48.0481C26.2367 48.0483 26.4946 48.0485 26.7526 48.0487C29.1667 48.0506 31.5809 48.0498 33.995 48.0483C36.2042 48.0469 38.4134 48.0487 40.6226 48.052C42.8927 48.0553 45.1628 48.0566 47.4329 48.0557C48.7067 48.0552 49.9806 48.0555 51.2544 48.0579C52.3377 48.0599 53.421 48.06 54.5043 48.0576C55.0571 48.0565 55.6098 48.0562 56.1625 48.0583C56.6682 48.0602 57.1739 48.0595 57.6796 48.0569C57.9496 48.0561 58.2197 48.058 58.4897 48.0601C58.7298 48.058 58.7298 48.058 58.9748 48.056C59.182 48.056 59.182 48.056 59.3934 48.0559C59.8723 47.9688 60.0977 47.7834 60.4423 47.4407C60.6101 47.0446 60.6101 47.0446 60.5769 46.6204C60.3386 46.2448 60.1646 46.0008 59.7692 45.8001C59.5901 45.7872 59.4104 45.7827 59.2309 45.7826C59.0611 45.782 59.0611 45.782 58.8878 45.7814C58.7628 45.7816 58.6377 45.7819 58.5088 45.7821C58.3103 45.7817 58.3103 45.7817 58.1078 45.7812C57.6616 45.7804 57.2153 45.7805 56.7691 45.7807C56.4503 45.7802 56.1315 45.7798 55.8127 45.7792C55.1248 45.7781 54.4369 45.7774 53.749 45.777C52.662 45.7762 51.575 45.7739 50.488 45.7713C50.1163 45.7705 49.7446 45.7696 49.3729 45.7687C49.28 45.7685 49.1871 45.7683 49.0914 45.7681C48.0334 45.7656 46.9755 45.7634 45.9176 45.7614C45.8209 45.7612 45.7242 45.761 45.6245 45.7608C44.0567 45.7578 42.4889 45.7563 40.9211 45.7553C39.3123 45.7542 37.7035 45.751 36.0947 45.746C35.191 45.7433 34.2874 45.7415 33.3838 45.7423C32.5341 45.7429 31.6845 45.7411 30.8348 45.7372C30.5224 45.7363 30.2101 45.7363 29.8977 45.7373C29.4722 45.7385 29.0469 45.7364 28.6215 45.7334C28.497 45.7345 28.3725 45.7357 28.2443 45.7369C27.4129 45.7261 27.4129 45.7261 26.981 45.4112C26.7167 45.0067 26.7103 44.7721 26.7884 44.2962C26.9869 44.0015 26.9869 44.0015 27.3269 43.7493C27.7426 43.6951 28.1104 43.6745 28.5262 43.6783C28.7099 43.6768 28.7099 43.6768 28.8974 43.6752C29.3087 43.6724 29.72 43.6735 30.1313 43.6746C30.4258 43.6734 30.7204 43.672 31.0149 43.6704C31.8153 43.6665 32.6157 43.6661 33.4161 43.6662C34.2522 43.6658 35.0884 43.6623 35.9245 43.6591C37.3282 43.6542 38.7319 43.6512 40.1356 43.6496C41.5814 43.648 43.0272 43.6452 44.473 43.6409C44.5621 43.6407 44.6513 43.6404 44.7431 43.6401C45.1902 43.6388 45.6373 43.6374 46.0844 43.6361C49.7934 43.6248 53.5025 43.6174 57.2115 43.6126C57.1834 43.4728 57.1554 43.3331 57.1264 43.1892C57.0894 43.0035 57.0524 42.8177 57.0154 42.632C56.9969 42.5402 56.9784 42.4484 56.9594 42.3538C56.4764 39.9227 56.7348 37.6936 57.2115 35.2727C47.1275 35.2727 37.0434 35.2727 26.6538 35.2727C26.6094 37.2579 26.565 39.243 26.5192 41.2883C25.9807 41.8352 25.9807 41.8352 25.4675 41.8523C24.764 41.7431 24.1202 41.4517 23.4776 41.1511C22.6896 40.7986 22.1949 40.912 21.4207 41.2077C21.1415 41.32 20.8634 41.4344 20.5856 41.5503C20.037 41.7699 19.5792 41.931 18.9807 41.8352C18.6935 41.6437 18.6935 41.6437 18.4423 41.2883C18.3585 40.8329 18.3608 40.3814 18.3603 39.919C18.358 39.7863 18.3558 39.6535 18.3535 39.5167C18.347 39.0933 18.3441 38.6699 18.3413 38.2463C18.3375 37.959 18.3335 37.6717 18.3292 37.3844C18.3193 36.6805 18.3126 35.9767 18.3077 35.2727C17.6997 35.2591 17.0918 35.2492 16.4837 35.2427C16.2774 35.2399 16.0711 35.2362 15.8649 35.2315C14.3323 35.1969 12.9725 35.2746 11.7925 36.3878C10.86 37.4781 10.5832 38.4528 10.5973 39.8677C10.6867 40.9781 11.1672 41.9127 11.9807 42.6555C12.8716 43.3359 13.7011 43.6463 14.8259 43.6475C14.9184 43.648 15.0108 43.6485 15.1061 43.649C15.3055 43.6499 15.5049 43.6503 15.7043 43.6501C16.0201 43.6499 16.3358 43.6517 16.6516 43.654C17.5488 43.6603 18.4461 43.6637 19.3433 43.6646C19.8933 43.6653 20.4432 43.6686 20.9931 43.6736C21.2023 43.6749 21.4116 43.6752 21.6208 43.6745C21.913 43.6735 22.2051 43.6759 22.4974 43.679C22.7466 43.6796 22.7466 43.6796 23.0009 43.6802C23.502 43.7622 23.662 43.8867 23.9615 44.2962C24.0288 44.7063 24.0288 44.7063 23.9615 45.1165C23.6623 45.5251 23.5023 45.6503 23.0021 45.7328C22.7536 45.7334 22.7536 45.7334 22.5 45.7341C22.4082 45.7351 22.3164 45.736 22.2218 45.737C21.9184 45.7394 21.6152 45.7378 21.3118 45.736C21.0995 45.7363 20.8871 45.7369 20.6748 45.7376C20.229 45.7384 19.7833 45.7372 19.3376 45.7346C18.7709 45.7315 18.2044 45.7333 17.6377 45.7366C17.1985 45.7386 16.7593 45.7379 16.32 45.7365C16.1115 45.7362 15.9029 45.7366 15.6943 45.7379C13.6157 45.7479 11.8313 45.3422 10.2271 43.917C8.87721 42.495 8.55873 40.7519 8.58644 38.86C8.63953 37.3398 9.34164 35.961 10.347 34.8513C11.8744 33.4588 13.6286 33.1597 15.6106 33.1674C15.7968 33.1667 15.983 33.1657 16.1692 33.1647C16.6769 33.1622 17.1847 33.1623 17.6924 33.1628C18.2414 33.1629 18.7904 33.1606 19.3394 33.1586C20.2893 33.1555 21.2392 33.1539 22.1891 33.1532C23.5624 33.1524 24.9358 33.1492 26.3092 33.1455C28.5376 33.1396 30.7661 33.1355 32.9946 33.1326C35.1587 33.1297 37.3228 33.126 39.4869 33.1211C39.6204 33.1208 39.7539 33.1205 39.8915 33.1202C40.5613 33.1187 41.2311 33.1171 41.9009 33.1156C47.4531 33.1029 53.0054 33.0931 58.5577 33.0852C58.8242 32.3633 59.0907 31.6415 59.3654 30.8977C53.6056 30.8852 47.8458 30.8756 42.0861 30.8698C41.4054 30.8691 40.7247 30.8684 40.044 30.8677C39.9085 30.8675 39.773 30.8674 39.6333 30.8672C37.442 30.8649 35.2507 30.8606 33.0594 30.8555C30.8093 30.8504 28.5591 30.8474 26.309 30.8463C24.9217 30.8455 23.5343 30.8431 22.147 30.8387C21.1943 30.8358 20.2417 30.8349 19.2891 30.8356C18.7403 30.836 18.1915 30.8355 17.6427 30.8325C14.0862 30.8144 10.807 30.9614 8.27725 33.8863ZM4.56481 53.3538C2.92163 55.3403 2.63856 57.6632 2.8269 60.1555C2.9201 60.7815 3.11843 61.3527 3.36536 61.9329C3.411 62.0494 3.45664 62.1659 3.50366 62.2859C4.40179 64.3472 6.17818 65.8812 8.21152 66.718C9.79749 67.2641 11.3663 67.285 13.0228 67.2832C13.2382 67.2834 13.4537 67.2837 13.6691 67.2841C14.2591 67.285 14.849 67.2849 15.4389 67.2848C16.076 67.2847 16.713 67.2855 17.35 67.2861C18.5969 67.2873 19.8438 67.2877 21.0908 67.2877C22.1039 67.2878 23.1171 67.2881 24.1303 67.2885C27.0026 67.2897 29.8749 67.2904 32.7472 67.2903C32.9019 67.2902 33.0567 67.2902 33.2161 67.2902C33.3711 67.2902 33.526 67.2902 33.6856 67.2902C36.1995 67.2902 38.7134 67.2915 41.2273 67.2934C43.8083 67.2954 46.3893 67.2963 48.9703 67.2962C50.4195 67.2961 51.8687 67.2965 53.3178 67.298C54.5509 67.2992 55.784 67.2995 57.0171 67.2986C57.6464 67.2982 58.2758 67.2981 58.9051 67.2993C59.4808 67.3004 60.0565 67.3002 60.6323 67.299C60.8409 67.2988 61.0495 67.2991 61.2581 67.2998C61.541 67.3008 61.824 67.3001 62.1069 67.2989C62.3429 67.299 62.3429 67.299 62.5837 67.299C63.1039 67.2564 63.4886 67.1207 63.917 66.8206C64.1674 66.4458 64.1465 66.2029 64.0769 65.761C63.8545 65.4088 63.7555 65.2727 63.4038 65.0774C62.8099 64.975 62.2208 64.9854 61.6196 64.9903C61.3537 64.9882 61.0878 64.986 60.8219 64.9838C60.4503 64.9815 60.0788 64.9823 59.7072 64.983C59.0564 64.9839 58.4057 64.9808 57.7549 64.9764C57.4086 64.9743 57.0624 64.9738 56.7162 64.975C56.5594 64.9745 56.4026 64.974 56.241 64.9734C56.1032 64.9737 55.9653 64.9739 55.8233 64.9742C55.4522 64.9398 55.2334 64.873 54.923 64.6672C54.734 64.2832 54.7549 63.9989 54.7884 63.5735C54.9127 63.2786 54.9127 63.2786 55.1923 63.0266C55.6161 62.9395 56.0372 62.9439 56.4685 62.9433C56.6559 62.9399 56.6559 62.9399 56.847 62.9365C57.2462 62.9298 57.6453 62.9269 58.0444 62.9241C58.315 62.9202 58.5855 62.9161 58.8561 62.9118C59.5194 62.9017 60.1827 62.8949 60.8461 62.8899C60.8181 62.7405 60.79 62.5911 60.761 62.4372C60.724 62.2388 60.687 62.0405 60.65 61.8421C60.6315 61.7439 60.613 61.6457 60.594 61.5446C60.1473 59.1437 60.3247 56.9332 60.8461 54.5501C57.6921 54.5501 54.5381 54.5501 51.2884 54.5501C51.2655 56.5051 51.2655 56.5051 51.2483 58.4603C51.2444 58.7057 51.2402 58.951 51.2359 59.1964C51.2357 59.3234 51.2355 59.4505 51.2354 59.5815C51.2158 60.4767 51.2158 60.4767 50.9065 60.9207C50.4679 61.2097 50.1887 61.1779 49.673 61.1126C49.1723 60.9426 48.7004 60.7113 48.223 60.4837C47.3938 60.1084 46.9011 60.1637 46.0553 60.485C45.7761 60.5973 45.498 60.7118 45.2202 60.8276C44.6716 61.0472 44.2138 61.2084 43.6154 61.1126C43.3281 60.921 43.3281 60.921 43.0769 60.5657C42.9931 60.1102 42.9955 59.6587 42.9949 59.1964C42.9926 59.0636 42.9904 58.9309 42.9881 58.7941C42.9816 58.3706 42.9787 57.9472 42.9759 57.5237C42.9721 57.2364 42.9681 56.949 42.9638 56.6617C42.9539 55.9578 42.9472 55.254 42.9423 54.5501C38.7979 54.5376 34.6536 54.5279 30.5093 54.5221C30.0196 54.5214 29.53 54.5207 29.0404 54.52C28.8941 54.5198 28.8941 54.5198 28.745 54.5196C27.1681 54.5172 25.5913 54.5129 24.0144 54.5079C22.3956 54.5027 20.7767 54.4997 19.1579 54.4986C18.249 54.4979 17.34 54.4963 16.4311 54.4922C15.5753 54.4885 14.7194 54.4874 13.8636 54.4882C13.5498 54.488 13.236 54.487 12.9223 54.4849C12.493 54.4821 12.0638 54.4828 11.6345 54.4843C11.5111 54.4827 11.3878 54.4811 11.2607 54.4795C10.2347 54.489 9.38758 54.7835 8.5144 55.3276C7.58796 56.2947 7.09075 57.3811 6.9495 58.72C7.09362 60.0861 7.58328 61.0651 8.56962 62.0103C9.66928 62.8948 11.0004 62.9497 12.3474 62.9407C12.5153 62.9413 12.6833 62.9418 12.8564 62.9423C13.3192 62.9434 13.7819 62.9426 14.2447 62.941C14.745 62.9398 15.2454 62.941 15.7458 62.9419C16.6116 62.9431 17.4775 62.943 18.3434 62.9419C19.5957 62.9403 20.848 62.9416 22.1003 62.9436C24.1329 62.9468 26.1656 62.9487 28.1982 62.9492C28.3805 62.9493 28.3805 62.9493 28.5664 62.9493C29.9236 62.9497 31.2808 62.9497 32.638 62.9496C33.131 62.9496 33.624 62.9495 34.1169 62.9495C34.2386 62.9495 34.3602 62.9495 34.4856 62.9495C36.512 62.9494 38.5384 62.9514 40.5648 62.9551C41.8146 62.9572 43.0643 62.9575 44.3141 62.9555C45.1694 62.9542 46.0246 62.9548 46.8798 62.957C47.3736 62.9582 47.8674 62.9585 48.3612 62.9564C48.8957 62.9541 49.4301 62.9561 49.9646 62.9584C50.2003 62.9564 50.2003 62.9564 50.4407 62.9544C50.6545 62.9563 50.6545 62.9563 50.8726 62.9583C50.9961 62.9583 51.1195 62.9583 51.2467 62.9583C51.5577 63.0266 51.5577 63.0266 51.7998 63.2782C52.0164 63.6738 52.0082 63.9477 51.9615 64.3938C51.6923 64.804 51.6923 64.804 51.2884 64.9407C51.0614 64.9535 50.834 64.9583 50.6066 64.9586C50.4648 64.9592 50.323 64.9597 50.1769 64.9602C49.9424 64.9601 49.9424 64.9601 49.7032 64.9599C49.4547 64.9605 49.4547 64.9605 49.2011 64.9611C48.7404 64.9621 48.2796 64.9625 47.8188 64.9626C47.3222 64.9628 46.8255 64.9638 46.3289 64.9648C45.2422 64.9666 44.1555 64.9674 43.0687 64.968C42.3899 64.9684 41.711 64.969 41.0321 64.9696C39.1519 64.9713 37.2717 64.9727 35.3915 64.9732C35.2109 64.9732 35.2109 64.9732 35.0267 64.9733C34.906 64.9733 34.7853 64.9733 34.661 64.9733C34.4165 64.9734 34.1719 64.9735 33.9274 64.9735C33.8061 64.9736 33.6848 64.9736 33.5598 64.9736C31.5968 64.9742 29.6337 64.9765 27.6706 64.9797C25.6543 64.983 23.638 64.9847 21.6216 64.9848C20.4899 64.985 19.3582 64.9857 18.2265 64.9882C17.2622 64.9903 16.298 64.991 15.3337 64.9899C14.8422 64.9894 14.3507 64.9895 13.8592 64.9914C13.3248 64.9935 12.7905 64.9923 12.2562 64.9909C12.1029 64.992 11.9495 64.9931 11.7916 64.9943C9.92545 64.9827 8.2488 64.5677 6.82277 63.2952C5.60972 62.0071 5.00779 60.4319 4.93868 58.6687C4.97931 57.0233 5.57514 55.3136 6.73075 54.1399C7.94578 53.1531 9.15313 52.4828 10.7238 52.4815C10.8142 52.4812 10.9047 52.4809 10.9978 52.4807C11.3022 52.4799 11.6065 52.4802 11.9109 52.4804C12.1308 52.4801 12.3506 52.4797 12.5705 52.4792C13.1758 52.4782 13.781 52.478 14.3863 52.4779C15.0387 52.4776 15.691 52.4766 16.3434 52.4756C17.4741 52.474 18.6049 52.4729 19.7356 52.472C21.5222 52.4706 23.3087 52.4678 25.0952 52.4648C25.7062 52.4637 26.3171 52.4627 26.9281 52.4617C27.0808 52.4615 27.2335 52.4612 27.3908 52.461C29.1292 52.4581 30.8676 52.4555 32.6061 52.4531C32.765 52.4529 32.9239 52.4526 33.0877 52.4524C35.6647 52.4488 38.2418 52.4463 40.8188 52.444C43.4631 52.4416 46.1074 52.4377 48.7516 52.4324C50.3836 52.4292 52.0155 52.4273 53.6474 52.427C54.7652 52.4267 55.8829 52.4249 57.0007 52.422C57.6461 52.4204 58.2915 52.4194 58.9369 52.4202C59.5274 52.4209 60.1178 52.4198 60.7083 52.4171C60.9222 52.4165 61.1362 52.4165 61.3502 52.4174C61.6404 52.4184 61.9305 52.4169 62.2207 52.4148C62.3821 52.4146 62.5435 52.4144 62.7098 52.4142C63.3095 52.3413 63.6557 52.1068 64.0769 51.679C64.1556 51.2863 64.1556 51.2863 64.0769 50.8587C63.7328 50.4167 63.5304 50.2005 62.9794 50.0897C62.7376 50.0897 62.7376 50.0897 62.4909 50.0898C62.4004 50.0889 62.3098 50.088 62.2166 50.087C61.9126 50.0848 61.6088 50.0875 61.3049 50.0901C61.085 50.0895 60.8651 50.0886 60.6453 50.0874C60.0406 50.0851 59.4359 50.0871 58.8312 50.0897C58.1792 50.0918 57.5272 50.09 56.8752 50.0886C55.5975 50.0867 54.3198 50.0883 53.042 50.0913C51.5538 50.0945 50.0656 50.0943 48.5774 50.0939C45.9212 50.0934 43.265 50.0963 40.6088 50.101C38.0323 50.1055 35.4559 50.1074 32.8794 50.1066C30.0742 50.1056 27.2691 50.106 24.4639 50.1087C24.3154 50.1088 24.1669 50.1089 24.014 50.1091C23.7158 50.1094 23.4176 50.1097 23.1194 50.11C22.0826 50.1109 21.0458 50.111 20.009 50.1108C18.7444 50.1106 17.4797 50.1119 16.2151 50.1152C15.5701 50.1168 14.9251 50.1178 14.2801 50.117C13.689 50.1163 13.0978 50.1175 12.5067 50.1201C12.2935 50.1208 12.0803 50.1208 11.8672 50.12C8.79841 50.1095 6.62971 51.0959 4.56481 53.3538ZM45.0961 54.5501C45.0961 55.8585 45.0961 57.1669 45.0961 58.5149C45.5404 58.3795 45.9846 58.2442 46.4423 58.1047C47.2628 57.8775 47.7845 58.0748 48.5483 58.3905C48.8506 58.5313 48.8506 58.5313 49.1346 58.5149C49.1346 57.2065 49.1346 55.8981 49.1346 54.5501C47.8019 54.5501 46.4692 54.5501 45.0961 54.5501Z" fill="white"/>
<path d="M38.2981 1.85352C38.6349 1.97391 38.9718 2.09396 39.3089 2.21354C39.9843 2.45371 40.6587 2.6964 41.3325 2.94106C42.1403 3.23435 42.9495 3.5232 43.76 3.80871C43.989 3.88943 44.218 3.97015 44.447 4.05087C44.5583 4.09011 44.6697 4.12936 44.7844 4.16979C45.2414 4.33123 45.698 4.49386 46.1546 4.65645C48.0657 5.33668 49.9807 6.00493 51.8958 6.67341C54.3241 7.52117 56.7523 8.36937 59.1773 9.22699C59.4152 9.31113 59.6532 9.39518 59.8912 9.47913C60.5162 9.69967 61.1405 9.92174 61.7638 10.147C61.9642 10.2194 62.1647 10.2914 62.3653 10.3631C62.6636 10.4702 62.9612 10.579 63.2587 10.6884C63.3473 10.72 63.436 10.7515 63.5273 10.784C64.2592 11.0572 64.6153 11.3592 65.0192 12.0305C65.162 12.4687 65.1743 12.8826 65.1815 13.3423C65.1841 13.4955 65.1868 13.6488 65.1896 13.8067C65.193 14.0536 65.193 14.0536 65.1964 14.3056C65.1992 14.4748 65.202 14.6439 65.2049 14.8182C65.2122 15.2668 65.219 15.7155 65.2255 16.1641C65.2322 16.6223 65.2397 17.0806 65.2472 17.5388C65.2616 18.4371 65.2753 19.3354 65.2884 20.2337C65.3796 20.2771 65.4707 20.3204 65.5646 20.3652C65.7449 20.4534 65.7449 20.4534 65.9289 20.5434C66.0478 20.6009 66.1667 20.6584 66.2892 20.7176C67.0956 21.1837 67.6835 21.997 68.0265 22.8655C68.3009 24.0266 68.2971 25.3471 67.7078 26.4004C67.4558 26.899 67.41 27.2309 67.5667 27.7754C67.6317 27.935 67.6966 28.0945 67.7636 28.2589C67.7983 28.3458 67.8331 28.4326 67.8689 28.5221C67.9803 28.7991 68.094 29.0751 68.2079 29.3511C68.282 29.5339 68.3558 29.7168 68.4296 29.8998C68.823 30.8754 68.823 30.8754 69.2283 31.8459C69.6621 32.8856 69.8737 33.9771 69.4678 35.0719C68.9607 35.9455 68.3165 36.3831 67.3818 36.6898C66.8014 36.8365 66.233 36.8351 65.6376 36.8311C65.5077 36.8315 65.3779 36.8319 65.244 36.8323C64.9712 36.8326 64.6983 36.8318 64.4255 36.8301C64.0107 36.8279 63.5961 36.8301 63.1814 36.8327C62.9148 36.8324 62.6482 36.8319 62.3816 36.8311C62.1979 36.8323 62.1979 36.8323 62.0105 36.8336C61.0045 36.8225 60.001 36.6706 59.2307 35.9563C58.7822 38.6932 58.7905 40.9348 59.5 43.6126C59.7514 43.6395 59.7514 43.6395 60.0079 43.667C60.8335 43.7556 61.4037 44.1345 61.9567 44.7405C62.6163 45.5805 62.8003 46.3816 62.7307 47.4407C62.6891 47.6238 62.6451 47.8063 62.5961 47.9876C62.771 47.9763 62.946 47.965 63.1262 47.9534C63.9817 47.9588 64.6543 48.2026 65.2953 48.7854C66.1163 49.6866 66.2956 50.468 66.2733 51.6827C66.1758 52.6135 65.7189 53.2716 65.0192 53.8665C64.4188 54.2862 63.8409 54.4925 63.1346 54.6868C62.3149 57.5636 62.4195 59.9753 63.1346 62.8899C63.2928 62.9012 63.4511 62.9125 63.6142 62.9241C64.5779 63.0518 65.2085 63.5316 65.7969 64.2886C66.3462 65.0959 66.3266 66.0446 66.2307 66.9915C65.9916 67.9 65.3631 68.519 64.6154 69.0422C64.0674 69.314 63.6204 69.3501 63.0137 69.3509C62.9214 69.3513 62.8292 69.3518 62.7342 69.3523C62.4245 69.3536 62.1149 69.3529 61.8052 69.3522C61.5811 69.3528 61.3571 69.3534 61.1331 69.3541C60.5169 69.3558 59.9007 69.3558 59.2845 69.3554C58.6201 69.3554 57.9558 69.3569 57.2914 69.3582C55.9892 69.3605 54.687 69.3612 53.3849 69.3614C52.326 69.3615 51.2672 69.3621 50.2083 69.3629C47.2055 69.3653 44.2028 69.3666 41.2 69.3664C40.9571 69.3664 40.9571 69.3664 40.7093 69.3663C40.5472 69.3663 40.385 69.3663 40.218 69.3663C37.5927 69.3662 34.9674 69.3688 32.3421 69.3727C29.6457 69.3766 26.9494 69.3785 24.2531 69.3783C22.7397 69.3782 21.2262 69.3789 19.7127 69.3819C18.4235 69.3844 17.1343 69.3849 15.845 69.3831C15.1877 69.3822 14.5305 69.3822 13.8731 69.3846C13.2702 69.3867 12.6674 69.3863 12.0645 69.3839C11.8475 69.3835 11.6305 69.384 11.4136 69.3855C9.61634 69.3974 7.9283 69.1387 6.31008 68.2817C6.22155 68.2354 6.13303 68.1891 6.04183 68.1414C3.4874 66.7428 1.76675 64.3273 0.883393 61.5483C0.190899 58.6316 0.613311 55.6265 2.0781 53.0451C2.5822 52.2131 3.21324 51.5327 3.90383 50.8587C3.99198 50.7681 4.08013 50.6775 4.17095 50.5841C5.36714 49.4264 6.90596 48.7062 8.48075 48.261C8.12485 47.8886 7.77192 47.5476 7.37017 47.2271C5.53292 45.6288 4.49526 43.1326 4.17306 40.7415C3.97828 37.5638 4.73936 34.604 6.83171 32.1624C8.3728 30.5243 10.5461 29.1694 12.7884 28.8469C13.055 28.8469 13.3215 28.8469 13.5961 28.8469C13.5961 25.5083 13.5961 22.1696 13.5961 18.7297C13.1075 18.5944 12.6188 18.459 12.1154 18.3196C11.8134 18.2226 11.5123 18.1226 11.2127 18.0181C11.0523 17.9625 10.8919 17.9068 10.7267 17.8494C10.5568 17.7899 10.3869 17.7303 10.2171 17.6707C10.038 17.6082 9.85891 17.5457 9.67982 17.4833C9.30706 17.3532 8.93442 17.2227 8.56186 17.092C8.08767 16.9257 7.61316 16.7603 7.13856 16.5952C6.76954 16.4667 6.40071 16.3376 6.03192 16.2084C5.85714 16.1473 5.6823 16.0863 5.50741 16.0255C2.45059 14.9616 2.45059 14.9616 1.86987 13.9606C1.60356 13.3177 1.68149 12.6416 1.90142 11.9963C2.46069 11.1633 3.13351 10.818 4.04633 10.5127C4.15351 10.4753 4.26069 10.4378 4.37112 10.3992C4.72803 10.2748 5.08574 10.1529 5.44349 10.031C5.69808 9.94277 5.95261 9.85435 6.20708 9.76575C6.75823 9.5741 7.3097 9.38339 7.86137 9.19328C9.1116 8.7618 10.3589 8.32191 11.6066 7.88297C12.2461 7.65803 12.8857 7.43377 13.5256 7.21019C14.839 6.75119 16.1519 6.29182 17.459 5.81463C17.6433 5.74788 17.8276 5.68118 18.012 5.61452C18.3298 5.49913 18.6471 5.38212 18.9636 5.26305C19.7069 4.99457 20.2304 4.83276 21 5.05787C21.3796 5.3812 21.4009 5.58124 21.4627 6.08326C21.3915 6.66221 21.3092 6.75263 20.8654 7.10865C20.4939 7.28425 20.1102 7.41089 19.7206 7.53857C19.6057 7.57772 19.4907 7.61688 19.3723 7.65722C19.1233 7.74187 18.874 7.82579 18.6245 7.90905C18.0896 8.08755 17.5559 8.26956 17.0221 8.45136C16.7443 8.54593 16.4664 8.64031 16.1885 8.73452C14.899 9.172 13.6152 9.62503 12.3325 10.0822C11.7371 10.2943 11.1414 10.5055 10.5457 10.7167C10.3725 10.7782 10.3725 10.7782 10.1958 10.8409C9.05585 11.2452 7.91563 11.6488 6.7742 12.0489C6.56763 12.1215 6.36113 12.1942 6.15472 12.2672C5.87297 12.3667 5.59096 12.4655 5.30887 12.564C5.15044 12.6197 4.99201 12.6754 4.82878 12.7328C4.44229 12.8508 4.44229 12.8508 4.03844 12.8508C4.03844 12.9411 4.03844 13.0313 4.03844 13.1243C4.21164 13.1603 4.38485 13.1963 4.5633 13.2334C5.24265 13.3871 5.88922 13.6034 6.5446 13.8394C6.72565 13.9037 6.72565 13.9037 6.91036 13.9693C7.16501 14.0598 7.41955 14.1507 7.67398 14.242C8.05414 14.3783 8.43462 14.5136 8.81518 14.6487C10.4148 15.2182 12.0075 15.8054 13.5961 16.4055C13.6031 16.322 13.6101 16.2384 13.6173 16.1523C13.6277 16.0422 13.638 15.932 13.6487 15.8186C13.6585 15.7096 13.6682 15.6007 13.6783 15.4884C13.8081 14.713 14.3388 14.2431 14.9423 13.8079C16.2014 13.3623 17.5949 13.2415 18.9134 13.0559C19.0159 13.0413 19.1184 13.0267 19.2241 13.0117C29.1529 11.6028 39.1386 11.7146 49.0505 13.2012C49.1435 13.2148 49.2365 13.2285 49.3323 13.2426C51.9929 13.6373 51.9929 13.6373 52.7692 14.4915C53.0913 15.1339 53.3077 15.68 53.3077 16.4055C53.4524 16.3505 53.5971 16.2955 53.7462 16.2388C55.5898 15.5417 57.4467 14.8861 59.3065 14.2351C59.7571 14.0773 60.2076 13.9194 60.6581 13.7613C60.9356 13.6639 61.2133 13.5666 61.4909 13.4696C61.6147 13.4261 61.7385 13.3827 61.866 13.338C61.9749 13.2999 62.0838 13.2618 62.1959 13.2225C62.4665 13.1282 62.4665 13.1282 62.7307 12.9876C62.6586 12.9622 62.5864 12.9368 62.5121 12.9107C62.4089 12.8744 62.3056 12.8381 62.1992 12.8007C62.0814 12.7593 61.9636 12.7178 61.8422 12.6752C61.5724 12.5803 61.3026 12.4855 61.0328 12.3906C60.2587 12.1185 59.4845 11.8463 58.7103 11.5741C57.1294 11.0184 55.5485 10.4625 53.9676 9.90658C51.6089 9.0771 49.2501 8.24774 46.8908 7.42001C46.7373 7.36614 46.5838 7.31228 46.4256 7.25678C45.6537 6.98594 44.8816 6.71527 44.1095 6.44492C42.6847 5.94588 41.2606 5.44529 39.8384 4.93882C39.1913 4.70839 38.5439 4.47872 37.8964 4.24907C37.5895 4.13992 37.2826 4.03038 36.9759 3.92043C36.5519 3.76846 36.1275 3.61782 35.703 3.46745C35.579 3.42257 35.455 3.3777 35.3272 3.33147C34.2259 2.94397 33.3563 2.75874 32.2156 3.14114C32.0697 3.18735 32.0697 3.18735 31.9209 3.2345C30.5217 3.68432 29.1381 4.1873 27.7559 4.6878C27.3959 4.81785 27.0352 4.94575 26.6743 5.07336C26.5663 5.11308 26.4584 5.1528 26.3471 5.19373C25.6576 5.43541 25.0956 5.52557 24.3654 5.46803C24.0288 5.2544 24.0288 5.2544 23.8269 4.92115C23.7554 4.41253 23.7204 4.10953 24.0288 3.68848C24.4871 3.31917 24.9598 3.16104 25.5106 2.97398C25.6237 2.93421 25.7367 2.89445 25.8531 2.85348C26.2149 2.72659 26.5773 2.60193 26.9399 2.4773C27.1764 2.39467 27.4128 2.31189 27.6492 2.22897C28.12 2.06401 28.5916 1.90198 29.0639 1.7415C29.5056 1.59057 29.9416 1.43055 30.3761 1.25952C33.2617 0.145954 35.4689 0.813743 38.2981 1.85352ZM18.0216 15.3972C17.9287 15.4115 17.8358 15.4257 17.7401 15.4404C17.48 15.4806 17.2202 15.5227 16.9605 15.5649C16.8138 15.5886 16.6672 15.6124 16.5161 15.6368C16.1266 15.7055 16.1266 15.7055 15.75 15.9954C15.691 16.3097 15.691 16.3097 15.7041 16.679C15.7042 16.8213 15.7042 16.9637 15.7042 17.1103C15.7063 17.2644 15.7084 17.4185 15.7105 17.5772C15.7111 17.7347 15.7117 17.8921 15.7123 18.0543C15.7145 18.5586 15.7196 19.0628 15.7247 19.5671C15.7268 19.9084 15.7286 20.2497 15.7303 20.5909C15.7347 21.4289 15.7415 22.2668 15.75 23.1047C15.8771 23.1052 16.0043 23.1056 16.1353 23.1061C19.2271 23.1172 22.3188 23.1298 25.4106 23.1441C26.9057 23.1509 28.4009 23.1573 29.896 23.1624C31.199 23.1669 32.5019 23.1724 33.8048 23.179C34.4949 23.1824 35.185 23.1854 35.8751 23.1872C36.5244 23.189 37.1736 23.192 37.8228 23.196C38.0614 23.1972 38.2999 23.198 38.5385 23.1983C38.8637 23.1987 39.1889 23.2009 39.5141 23.2034C39.6089 23.2031 39.7037 23.2029 39.8014 23.2026C40.2839 23.2082 40.6549 23.231 41.0577 23.5149C41.2467 23.899 41.2258 24.1832 41.1923 24.6087C41.0507 24.9044 41.0507 24.9044 40.7884 25.1555C40.4369 25.2109 40.1412 25.2304 39.7893 25.2265C39.6867 25.2275 39.5841 25.2285 39.4784 25.2296C39.1336 25.2324 38.7889 25.2313 38.4441 25.2302C38.1974 25.2314 37.9507 25.2328 37.7039 25.2344C37.0331 25.2383 36.3623 25.2387 35.6915 25.2386C34.9908 25.239 34.2901 25.2425 33.5895 25.2457C32.2622 25.2512 30.9349 25.254 29.6077 25.2558C28.0968 25.258 26.5859 25.2632 25.0751 25.2687C21.9667 25.28 18.8584 25.2873 15.75 25.2922C15.75 26.4202 15.75 27.5481 15.75 28.7102C27.4332 28.7102 39.1165 28.7102 51.1538 28.7102C51.1538 27.5823 51.1538 26.4544 51.1538 25.2922C50.6726 25.2887 50.1914 25.2852 49.6957 25.2816C49.2305 25.2763 48.7654 25.2701 48.3003 25.2639C47.9766 25.26 47.6529 25.2571 47.3292 25.2552C46.8644 25.2523 46.3997 25.2459 45.9348 25.2388C45.7897 25.2387 45.6446 25.2385 45.495 25.2383C45.3603 25.2356 45.2256 25.2329 45.0868 25.2302C44.9681 25.2289 44.8494 25.2277 44.7271 25.2265C44.4231 25.1555 44.4231 25.1555 44.1828 24.9036C43.9617 24.505 43.9626 24.2387 44.0192 23.7883C44.2272 23.5099 44.3856 23.3972 44.6923 23.2415C44.8998 23.2253 45.1079 23.2173 45.316 23.2134C45.4453 23.2107 45.5747 23.2079 45.708 23.2051C45.9179 23.2017 45.9179 23.2017 46.132 23.1982C46.2751 23.1954 46.4181 23.1925 46.5655 23.1896C47.0236 23.1806 47.4817 23.1726 47.9399 23.1646C48.25 23.1587 48.56 23.1527 48.8701 23.1467C49.6313 23.132 50.3926 23.1181 51.1538 23.1047C51.164 22.1193 51.1711 21.1338 51.176 20.1482C51.178 19.8128 51.1808 19.4775 51.1843 19.1421C51.1892 18.6605 51.1915 18.179 51.1933 17.6974C51.1953 17.547 51.1974 17.3966 51.1996 17.2416C51.1996 17.1021 51.1996 16.9625 51.1997 16.8187C51.2006 16.6958 51.2015 16.5728 51.2024 16.4461C51.1772 16.1255 51.1772 16.1255 50.9789 15.8913C50.5921 15.6051 50.133 15.582 49.6699 15.5169C49.5616 15.5003 49.4533 15.4838 49.3417 15.4668C48.9868 15.4132 48.6317 15.3624 48.2764 15.3118C48.0296 15.2756 47.7828 15.2394 47.536 15.2032C45.516 14.9103 43.4956 14.6599 41.4615 14.4915C41.2966 14.4774 41.1316 14.4633 40.9617 14.4488C33.3094 13.8223 25.6025 14.2168 18.0216 15.3972ZM62.2916 15.5078C62.1691 15.5508 62.0466 15.5938 61.9204 15.6381C61.7861 15.6855 61.6518 15.7329 61.5134 15.7817C61.3742 15.8307 61.235 15.8797 61.0916 15.9302C60.7943 16.0349 60.497 16.1398 60.1997 16.2447C59.7558 16.4014 59.3117 16.5575 58.8676 16.7137C58.5773 16.816 58.2869 16.9184 57.9966 17.0208C57.868 17.066 57.7394 17.1111 57.607 17.1577C56.1681 17.6664 54.74 18.2007 53.3077 18.7297C53.3077 22.0233 53.3077 25.3169 53.3077 28.7102C55.5732 28.7102 57.8388 28.7102 60.173 28.7102C60.9483 27.5061 60.9483 27.5061 60.7115 26.7962C60.6255 26.5894 60.5356 26.3844 60.4423 26.1809C59.9394 25.0843 59.8772 24.0421 60.2488 22.8826C60.8205 21.453 61.6225 20.9967 63 20.2337C63 18.6094 63 16.9852 63 15.3118C62.7532 15.3118 62.5224 15.4265 62.2916 15.5078ZM62.3243 23.2682C62.0718 23.7402 62.0266 24.2146 62.0577 24.7454C62.2726 25.4132 62.6574 25.9117 63.2692 26.2493C63.8707 26.4277 64.3323 26.4372 64.9267 26.2322C65.395 25.9004 65.7063 25.5373 65.9615 25.0188C66.0338 24.3494 66.0321 23.8064 65.7512 23.1902C65.2603 22.6533 64.8029 22.3312 64.0685 22.2246C63.323 22.3374 62.7879 22.6555 62.3243 23.2682ZM65.0435 28.3676C64.58 28.4768 64.1125 28.4508 63.6394 28.4453C63.5391 28.4447 63.4388 28.4441 63.3355 28.4435C63.089 28.4418 62.8426 28.4394 62.5961 28.4368C62.3038 29.1438 62.0139 29.8516 61.726 30.5605C61.6278 30.8014 61.5289 31.0421 61.4295 31.2825C61.2865 31.6284 61.1458 31.9751 61.0055 32.322C60.9606 32.4292 60.9157 32.5363 60.8695 32.6467C60.6949 33.0837 60.5754 33.4096 60.5838 33.8849C60.7567 34.283 60.859 34.3986 61.25 34.5891C61.6738 34.6483 62.0932 34.6466 62.5204 34.6436C62.7056 34.6442 62.7056 34.6442 62.8945 34.6448C63.1552 34.6451 63.4159 34.6443 63.6766 34.6426C64.0755 34.6404 64.4742 34.6426 64.873 34.6452C65.1265 34.6449 65.3799 34.6444 65.6334 34.6436C65.7526 34.6444 65.8718 34.6453 65.9946 34.6461C66.4546 34.6408 66.8266 34.6176 67.2609 34.4575C67.525 34.052 67.4572 33.7479 67.3828 33.2786C67.266 32.7651 67.0876 32.2945 66.8823 31.8115C66.8406 31.7101 66.799 31.6086 66.7561 31.5041C66.6245 31.1845 66.4908 30.866 66.3569 30.5474C66.2666 30.3291 66.1764 30.1108 66.0864 29.8923C65.8669 29.3609 65.6455 28.8302 65.423 28.3001C65.2678 28.2941 65.2678 28.2941 65.0435 28.3676ZM20.4615 35.2727C20.4615 36.5811 20.4615 37.8895 20.4615 39.2376C21.2872 39.0102 21.2872 39.0102 22.0769 38.6907C22.3256 38.6928 22.3256 38.6928 22.6238 38.7249C22.7677 38.7386 22.7677 38.7386 22.9146 38.7526C23.4561 38.8609 23.9764 39.0603 24.5 39.2376C24.5 37.9292 24.5 36.6208 24.5 35.2727C23.1673 35.2727 21.8346 35.2727 20.4615 35.2727ZM8.27725 33.8863C6.77748 35.83 6.10999 37.9952 6.3269 40.468C6.67052 42.7786 7.74538 44.8255 9.59974 46.2529C11.5725 47.611 13.4618 48.0518 15.8302 48.0406C16.0206 48.0411 16.2111 48.0419 16.4016 48.0428C16.9195 48.0447 17.4373 48.0442 17.9551 48.0432C18.5156 48.0425 19.0762 48.0442 19.6368 48.0456C20.7323 48.048 21.8279 48.0481 22.9235 48.0474C23.8137 48.0468 24.7039 48.047 25.5941 48.0478C25.721 48.0479 25.848 48.048 25.9788 48.0481C26.2367 48.0483 26.4946 48.0485 26.7526 48.0487C29.1667 48.0506 31.5809 48.0498 33.995 48.0483C36.2042 48.0469 38.4134 48.0487 40.6226 48.052C42.8927 48.0553 45.1628 48.0566 47.4329 48.0557C48.7067 48.0552 49.9806 48.0555 51.2544 48.0579C52.3377 48.0599 53.421 48.06 54.5043 48.0576C55.0571 48.0565 55.6098 48.0562 56.1625 48.0583C56.6682 48.0602 57.1739 48.0595 57.6796 48.0569C57.9496 48.0561 58.2197 48.058 58.4897 48.0601C58.7298 48.058 58.7298 48.058 58.9748 48.056C59.182 48.056 59.182 48.056 59.3934 48.0559C59.8723 47.9688 60.0977 47.7834 60.4423 47.4407C60.6101 47.0446 60.6101 47.0446 60.5769 46.6204C60.3386 46.2448 60.1646 46.0008 59.7692 45.8001C59.5901 45.7872 59.4104 45.7827 59.2309 45.7826C59.0611 45.782 59.0611 45.782 58.8878 45.7814C58.7628 45.7816 58.6377 45.7819 58.5088 45.7821C58.3103 45.7817 58.3103 45.7817 58.1078 45.7812C57.6616 45.7804 57.2153 45.7805 56.7691 45.7807C56.4503 45.7802 56.1315 45.7798 55.8127 45.7792C55.1248 45.7781 54.4369 45.7774 53.749 45.777C52.662 45.7762 51.575 45.7739 50.488 45.7713C50.1163 45.7705 49.7446 45.7696 49.3729 45.7687C49.28 45.7685 49.1871 45.7683 49.0914 45.7681C48.0334 45.7656 46.9755 45.7634 45.9176 45.7614C45.8209 45.7612 45.7242 45.761 45.6245 45.7608C44.0567 45.7578 42.4889 45.7563 40.9211 45.7553C39.3123 45.7542 37.7035 45.751 36.0947 45.746C35.191 45.7433 34.2874 45.7415 33.3838 45.7423C32.5341 45.7429 31.6845 45.7411 30.8348 45.7372C30.5224 45.7363 30.2101 45.7363 29.8977 45.7373C29.4722 45.7385 29.0469 45.7364 28.6215 45.7334C28.497 45.7345 28.3725 45.7357 28.2443 45.7369C27.4129 45.7261 27.4129 45.7261 26.981 45.4112C26.7167 45.0067 26.7103 44.7721 26.7884 44.2962C26.9869 44.0015 26.9869 44.0015 27.3269 43.7493C27.7426 43.6951 28.1104 43.6745 28.5262 43.6783C28.7099 43.6768 28.7099 43.6768 28.8974 43.6752C29.3087 43.6724 29.72 43.6735 30.1313 43.6746C30.4258 43.6734 30.7204 43.672 31.0149 43.6704C31.8153 43.6665 32.6157 43.6661 33.4161 43.6662C34.2522 43.6658 35.0884 43.6623 35.9245 43.6591C37.3282 43.6542 38.7319 43.6512 40.1356 43.6496C41.5814 43.648 43.0272 43.6452 44.473 43.6409C44.5621 43.6407 44.6513 43.6404 44.7431 43.6401C45.1902 43.6388 45.6373 43.6374 46.0844 43.6361C49.7934 43.6248 53.5025 43.6174 57.2115 43.6126C57.1834 43.4728 57.1554 43.3331 57.1264 43.1892C57.0894 43.0035 57.0524 42.8177 57.0154 42.632C56.9969 42.5402 56.9784 42.4484 56.9594 42.3538C56.4764 39.9227 56.7348 37.6936 57.2115 35.2727C47.1275 35.2727 37.0434 35.2727 26.6538 35.2727C26.6094 37.2579 26.565 39.243 26.5192 41.2883C25.9807 41.8352 25.9807 41.8352 25.4675 41.8523C24.764 41.7431 24.1202 41.4517 23.4776 41.1511C22.6896 40.7986 22.1949 40.912 21.4207 41.2077C21.1415 41.32 20.8634 41.4344 20.5856 41.5503C20.037 41.7699 19.5792 41.931 18.9807 41.8352C18.6935 41.6437 18.6935 41.6437 18.4423 41.2883C18.3585 40.8329 18.3608 40.3814 18.3603 39.919C18.358 39.7863 18.3558 39.6535 18.3535 39.5167C18.347 39.0933 18.3441 38.6699 18.3413 38.2463C18.3375 37.959 18.3335 37.6717 18.3292 37.3844C18.3193 36.6805 18.3126 35.9767 18.3077 35.2727C17.6997 35.2591 17.0918 35.2492 16.4837 35.2427C16.2774 35.2399 16.0711 35.2362 15.8649 35.2315C14.3323 35.1969 12.9725 35.2746 11.7925 36.3878C10.86 37.4781 10.5832 38.4528 10.5973 39.8677C10.6867 40.9781 11.1672 41.9127 11.9807 42.6555C12.8716 43.3359 13.7011 43.6463 14.8259 43.6475C14.9184 43.648 15.0108 43.6485 15.1061 43.649C15.3055 43.6499 15.5049 43.6503 15.7043 43.6501C16.0201 43.6499 16.3358 43.6517 16.6516 43.654C17.5488 43.6603 18.4461 43.6637 19.3433 43.6646C19.8933 43.6653 20.4432 43.6686 20.9931 43.6736C21.2023 43.6749 21.4116 43.6752 21.6208 43.6745C21.913 43.6735 22.2051 43.6759 22.4974 43.679C22.7466 43.6796 22.7466 43.6796 23.0009 43.6802C23.502 43.7622 23.662 43.8867 23.9615 44.2962C24.0288 44.7063 24.0288 44.7063 23.9615 45.1165C23.6623 45.5251 23.5023 45.6503 23.0021 45.7328C22.7536 45.7334 22.7536 45.7334 22.5 45.7341C22.4082 45.7351 22.3164 45.736 22.2218 45.737C21.9184 45.7394 21.6152 45.7378 21.3118 45.736C21.0995 45.7363 20.8871 45.7369 20.6748 45.7376C20.229 45.7384 19.7833 45.7372 19.3376 45.7346C18.7709 45.7315 18.2044 45.7333 17.6377 45.7366C17.1985 45.7386 16.7593 45.7379 16.32 45.7365C16.1115 45.7362 15.9029 45.7366 15.6943 45.7379C13.6157 45.7479 11.8313 45.3422 10.2271 43.917C8.87721 42.495 8.55873 40.7519 8.58644 38.86C8.63953 37.3398 9.34164 35.961 10.347 34.8513C11.8744 33.4588 13.6286 33.1597 15.6106 33.1674C15.7968 33.1667 15.983 33.1657 16.1692 33.1647C16.6769 33.1622 17.1847 33.1623 17.6924 33.1628C18.2414 33.1629 18.7904 33.1606 19.3394 33.1586C20.2893 33.1555 21.2392 33.1539 22.1891 33.1532C23.5624 33.1524 24.9358 33.1492 26.3092 33.1455C28.5376 33.1396 30.7661 33.1355 32.9946 33.1326C35.1587 33.1297 37.3228 33.126 39.4869 33.1211C39.6204 33.1208 39.7539 33.1205 39.8915 33.1202C40.5613 33.1187 41.2311 33.1171 41.9009 33.1156C47.4531 33.1029 53.0054 33.0931 58.5577 33.0852C58.8242 32.3633 59.0907 31.6415 59.3654 30.8977C53.6056 30.8852 47.8458 30.8756 42.0861 30.8698C41.4054 30.8691 40.7247 30.8684 40.044 30.8677C39.9085 30.8675 39.773 30.8674 39.6333 30.8672C37.442 30.8649 35.2507 30.8606 33.0594 30.8555C30.8093 30.8504 28.5591 30.8474 26.309 30.8463C24.9217 30.8455 23.5343 30.8431 22.147 30.8387C21.1943 30.8358 20.2417 30.8349 19.2891 30.8356C18.7403 30.836 18.1915 30.8355 17.6427 30.8325C14.0862 30.8144 10.807 30.9614 8.27725 33.8863ZM4.56481 53.3538C2.92163 55.3403 2.63856 57.6632 2.8269 60.1555C2.9201 60.7815 3.11843 61.3527 3.36536 61.9329C3.411 62.0494 3.45664 62.1659 3.50366 62.2859C4.40179 64.3472 6.17818 65.8812 8.21152 66.718C9.79749 67.2641 11.3663 67.285 13.0228 67.2832C13.2382 67.2834 13.4537 67.2837 13.6691 67.2841C14.2591 67.285 14.849 67.2849 15.4389 67.2848C16.076 67.2847 16.713 67.2855 17.35 67.2861C18.5969 67.2873 19.8438 67.2877 21.0908 67.2877C22.1039 67.2878 23.1171 67.2881 24.1303 67.2885C27.0026 67.2897 29.8749 67.2904 32.7472 67.2903C32.9019 67.2902 33.0567 67.2902 33.2161 67.2902C33.3711 67.2902 33.526 67.2902 33.6856 67.2902C36.1995 67.2902 38.7134 67.2915 41.2273 67.2934C43.8083 67.2954 46.3893 67.2963 48.9703 67.2962C50.4195 67.2961 51.8687 67.2965 53.3178 67.298C54.5509 67.2992 55.784 67.2995 57.0171 67.2986C57.6464 67.2982 58.2758 67.2981 58.9051 67.2993C59.4808 67.3004 60.0565 67.3002 60.6323 67.299C60.8409 67.2988 61.0495 67.2991 61.2581 67.2998C61.541 67.3008 61.824 67.3001 62.1069 67.2989C62.3429 67.299 62.3429 67.299 62.5837 67.299C63.1039 67.2564 63.4886 67.1207 63.917 66.8206C64.1674 66.4458 64.1465 66.2029 64.0769 65.761C63.8545 65.4088 63.7555 65.2727 63.4038 65.0774C62.8099 64.975 62.2208 64.9854 61.6196 64.9903C61.3537 64.9882 61.0878 64.986 60.8219 64.9838C60.4503 64.9815 60.0788 64.9823 59.7072 64.983C59.0564 64.9839 58.4057 64.9808 57.7549 64.9764C57.4086 64.9743 57.0624 64.9738 56.7162 64.975C56.5594 64.9745 56.4026 64.974 56.241 64.9734C56.1032 64.9737 55.9653 64.9739 55.8233 64.9742C55.4522 64.9398 55.2334 64.873 54.923 64.6672C54.734 64.2832 54.7549 63.9989 54.7884 63.5735C54.9127 63.2786 54.9127 63.2786 55.1923 63.0266C55.6161 62.9395 56.0372 62.9439 56.4685 62.9433C56.6559 62.9399 56.6559 62.9399 56.847 62.9365C57.2462 62.9298 57.6453 62.9269 58.0444 62.9241C58.315 62.9202 58.5855 62.9161 58.8561 62.9118C59.5194 62.9017 60.1827 62.8949 60.8461 62.8899C60.8181 62.7405 60.79 62.5911 60.761 62.4372C60.724 62.2388 60.687 62.0405 60.65 61.8421C60.6315 61.7439 60.613 61.6457 60.594 61.5446C60.1473 59.1437 60.3247 56.9332 60.8461 54.5501C57.6921 54.5501 54.5381 54.5501 51.2884 54.5501C51.2655 56.5051 51.2655 56.5051 51.2483 58.4603C51.2444 58.7057 51.2402 58.951 51.2359 59.1964C51.2357 59.3234 51.2355 59.4505 51.2354 59.5815C51.2158 60.4767 51.2158 60.4767 50.9065 60.9207C50.4679 61.2097 50.1887 61.1779 49.673 61.1126C49.1723 60.9426 48.7004 60.7113 48.223 60.4837C47.3938 60.1084 46.9011 60.1637 46.0553 60.485C45.7761 60.5973 45.498 60.7118 45.2202 60.8276C44.6716 61.0472 44.2138 61.2084 43.6154 61.1126C43.3281 60.921 43.3281 60.921 43.0769 60.5657C42.9931 60.1102 42.9955 59.6587 42.9949 59.1964C42.9926 59.0636 42.9904 58.9309 42.9881 58.7941C42.9816 58.3706 42.9787 57.9472 42.9759 57.5237C42.9721 57.2364 42.9681 56.949 42.9638 56.6617C42.9539 55.9578 42.9472 55.254 42.9423 54.5501C38.7979 54.5376 34.6536 54.5279 30.5093 54.5221C30.0196 54.5214 29.53 54.5207 29.0404 54.52C28.8941 54.5198 28.8941 54.5198 28.745 54.5196C27.1681 54.5172 25.5913 54.5129 24.0144 54.5079C22.3956 54.5027 20.7767 54.4997 19.1579 54.4986C18.249 54.4979 17.34 54.4963 16.4311 54.4922C15.5753 54.4885 14.7194 54.4874 13.8636 54.4882C13.5498 54.488 13.236 54.487 12.9223 54.4849C12.493 54.4821 12.0638 54.4828 11.6345 54.4843C11.5111 54.4827 11.3878 54.4811 11.2607 54.4795C10.2347 54.489 9.38758 54.7835 8.5144 55.3276C7.58796 56.2947 7.09075 57.3811 6.9495 58.72C7.09362 60.0861 7.58328 61.0651 8.56962 62.0103C9.66928 62.8948 11.0004 62.9497 12.3474 62.9407C12.5153 62.9413 12.6833 62.9418 12.8564 62.9423C13.3192 62.9434 13.7819 62.9426 14.2447 62.941C14.745 62.9398 15.2454 62.941 15.7458 62.9419C16.6116 62.9431 17.4775 62.943 18.3434 62.9419C19.5957 62.9403 20.848 62.9416 22.1003 62.9436C24.1329 62.9468 26.1656 62.9487 28.1982 62.9492C28.3805 62.9493 28.3805 62.9493 28.5664 62.9493C29.9236 62.9497 31.2808 62.9497 32.638 62.9496C33.131 62.9496 33.624 62.9495 34.1169 62.9495C34.2386 62.9495 34.3602 62.9495 34.4856 62.9495C36.512 62.9494 38.5384 62.9514 40.5648 62.9551C41.8146 62.9572 43.0643 62.9575 44.3141 62.9555C45.1694 62.9542 46.0246 62.9548 46.8798 62.957C47.3736 62.9582 47.8674 62.9585 48.3612 62.9564C48.8957 62.9541 49.4301 62.9561 49.9646 62.9584C50.2003 62.9564 50.2003 62.9564 50.4407 62.9544C50.6545 62.9563 50.6545 62.9563 50.8726 62.9583C50.9961 62.9583 51.1195 62.9583 51.2467 62.9583C51.5577 63.0266 51.5577 63.0266 51.7998 63.2782C52.0164 63.6738 52.0082 63.9477 51.9615 64.3938C51.6923 64.804 51.6923 64.804 51.2884 64.9407C51.0614 64.9535 50.834 64.9583 50.6066 64.9586C50.4648 64.9592 50.323 64.9597 50.1769 64.9602C49.9424 64.9601 49.9424 64.9601 49.7032 64.9599C49.4547 64.9605 49.4547 64.9605 49.2011 64.9611C48.7404 64.9621 48.2796 64.9625 47.8188 64.9626C47.3222 64.9628 46.8255 64.9638 46.3289 64.9648C45.2422 64.9666 44.1555 64.9674 43.0687 64.968C42.3899 64.9684 41.711 64.969 41.0321 64.9696C39.1519 64.9713 37.2717 64.9727 35.3915 64.9732C35.2109 64.9732 35.2109 64.9732 35.0267 64.9733C34.906 64.9733 34.7853 64.9733 34.661 64.9733C34.4165 64.9734 34.1719 64.9735 33.9274 64.9735C33.8061 64.9736 33.6848 64.9736 33.5598 64.9736C31.5968 64.9742 29.6337 64.9765 27.6706 64.9797C25.6543 64.983 23.638 64.9847 21.6216 64.9848C20.4899 64.985 19.3582 64.9857 18.2265 64.9882C17.2622 64.9903 16.298 64.991 15.3337 64.9899C14.8422 64.9894 14.3507 64.9895 13.8592 64.9914C13.3248 64.9935 12.7905 64.9923 12.2562 64.9909C12.1029 64.992 11.9495 64.9931 11.7916 64.9943C9.92545 64.9827 8.2488 64.5677 6.82277 63.2952C5.60972 62.0071 5.00779 60.4319 4.93868 58.6687C4.97931 57.0233 5.57514 55.3136 6.73075 54.1399C7.94578 53.1531 9.15313 52.4828 10.7238 52.4815C10.8142 52.4812 10.9047 52.4809 10.9978 52.4807C11.3022 52.4799 11.6065 52.4802 11.9109 52.4804C12.1308 52.4801 12.3506 52.4797 12.5705 52.4792C13.1758 52.4782 13.781 52.478 14.3863 52.4779C15.0387 52.4776 15.691 52.4766 16.3434 52.4756C17.4741 52.474 18.6049 52.4729 19.7356 52.472C21.5222 52.4706 23.3087 52.4678 25.0952 52.4648C25.7062 52.4637 26.3171 52.4627 26.9281 52.4617C27.0808 52.4615 27.2335 52.4612 27.3908 52.461C29.1292 52.4581 30.8676 52.4555 32.6061 52.4531C32.765 52.4529 32.9239 52.4526 33.0877 52.4524C35.6647 52.4488 38.2418 52.4463 40.8188 52.444C43.4631 52.4416 46.1074 52.4377 48.7516 52.4324C50.3836 52.4292 52.0155 52.4273 53.6474 52.427C54.7652 52.4267 55.8829 52.4249 57.0007 52.422C57.6461 52.4204 58.2915 52.4194 58.9369 52.4202C59.5274 52.4209 60.1178 52.4198 60.7083 52.4171C60.9222 52.4165 61.1362 52.4165 61.3502 52.4174C61.6404 52.4184 61.9305 52.4169 62.2207 52.4148C62.3821 52.4146 62.5435 52.4144 62.7098 52.4142C63.3095 52.3413 63.6557 52.1068 64.0769 51.679C64.1556 51.2863 64.1556 51.2863 64.0769 50.8587C63.7328 50.4167 63.5304 50.2005 62.9794 50.0897C62.7376 50.0897 62.7376 50.0897 62.4909 50.0898C62.4004 50.0889 62.3098 50.088 62.2166 50.087C61.9126 50.0848 61.6088 50.0875 61.3049 50.0901C61.085 50.0895 60.8651 50.0886 60.6453 50.0874C60.0406 50.0851 59.4359 50.0871 58.8312 50.0897C58.1792 50.0918 57.5272 50.09 56.8752 50.0886C55.5975 50.0867 54.3198 50.0883 53.042 50.0913C51.5538 50.0945 50.0656 50.0943 48.5774 50.0939C45.9212 50.0934 43.265 50.0963 40.6088 50.101C38.0323 50.1055 35.4559 50.1074 32.8794 50.1066C30.0742 50.1056 27.2691 50.106 24.4639 50.1087C24.3154 50.1088 24.1669 50.1089 24.014 50.1091C23.7158 50.1094 23.4176 50.1097 23.1194 50.11C22.0826 50.1109 21.0458 50.111 20.009 50.1108C18.7444 50.1106 17.4797 50.1119 16.2151 50.1152C15.5701 50.1168 14.9251 50.1178 14.2801 50.117C13.689 50.1163 13.0978 50.1175 12.5067 50.1201C12.2935 50.1208 12.0803 50.1208 11.8672 50.12C8.79841 50.1095 6.62971 51.0959 4.56481 53.3538ZM45.0961 54.5501C45.0961 55.8585 45.0961 57.1669 45.0961 58.5149C45.5404 58.3795 45.9846 58.2442 46.4423 58.1047C47.2628 57.8775 47.7845 58.0748 48.5483 58.3905C48.8506 58.5313 48.8506 58.5313 49.1346 58.5149C49.1346 57.2065 49.1346 55.8981 49.1346 54.5501C47.8019 54.5501 46.4692 54.5501 45.0961 54.5501Z" stroke="white" stroke-width="0.6" mask="url(#path-1-outside-1_2899_549)"/>
</g>
</g>
<defs>
<clipPath id="clip0_2899_549">
<rect width="70" height="70" fill="white"/>
</clipPath>
</defs>
</svg>
