<svg width="32" height="32" viewBox="0 0 32 32" fill="none" xmlns="http://www.w3.org/2000/svg">
  <circle cx="16" cy="16" r="15.5" stroke="black" />
  <path
    d="M23.6955 22.6029C23.5433 22.9259 23.3572 23.231 23.1204 23.5182C22.6975 24.0027 22.2407 24.3616 21.7333 24.577C21.2258 24.8103 20.6676 24.918 20.0756 24.918C19.2129 24.918 18.2826 24.7026 17.3184 24.254C16.3373 23.8053 15.3732 23.2131 14.409 22.4773C13.4279 21.7235 12.5144 20.8801 11.6348 19.9648C10.7552 19.0316 9.97706 18.0445 9.26661 17.0216C8.57308 15.9987 8.0149 14.9758 7.60893 13.9528C7.20296 12.9299 7 11.9429 7 11.0097C7 10.3995 7.10148 9.8073 7.30447 9.26891C7.50745 8.71258 7.82887 8.21009 8.28559 7.76144C8.82688 7.18716 9.41889 6.91797 10.0448 6.91797C10.2816 6.91797 10.5183 6.9718 10.7382 7.07948C10.9581 7.18715 11.1612 7.34867 11.3134 7.58197L13.2756 10.5251C13.4278 10.7584 13.5462 10.9558 13.6139 11.1532C13.6985 11.3506 13.7323 11.5301 13.7323 11.7096C13.7323 11.9249 13.6647 12.1403 13.5463 12.3557C13.4279 12.571 13.2756 12.7863 13.0726 13.0017L12.4298 13.7195C12.3283 13.8272 12.2945 13.9349 12.2945 14.0785C12.2945 14.1503 12.3114 14.222 12.3283 14.2938C12.3621 14.3656 12.3791 14.4195 12.396 14.4733C12.5483 14.7784 12.8189 15.1552 13.191 15.6218C13.5801 16.0884 13.9861 16.573 14.4259 17.0396C14.8826 17.5241 15.3224 17.9548 15.7791 18.3676C16.2189 18.7624 16.591 19.0316 16.8786 19.1931C16.9293 19.2111 16.9801 19.2469 17.0308 19.2649C17.0985 19.3008 17.1662 19.3008 17.2508 19.3008C17.403 19.3008 17.5045 19.247 17.606 19.1393L18.2487 18.4573C18.4686 18.224 18.6717 18.0625 18.8577 17.9548C19.0607 17.8292 19.2468 17.7574 19.4667 17.7574C19.6358 17.7574 19.805 17.7933 19.991 17.883C20.1771 17.9728 20.3801 18.0805 20.583 18.242L23.3911 20.3596C23.611 20.5211 23.7632 20.7186 23.8646 20.9339C23.9492 21.1672 24 21.3825 24 21.6338C23.8985 21.9389 23.8309 22.2799 23.6955 22.6029Z"
    fill="black" />
  <path
    d="M23.6955 22.6029C23.5433 22.9259 23.3572 23.231 23.1204 23.5182C22.6975 24.0027 22.2407 24.3616 21.7333 24.577C21.2258 24.8103 20.6676 24.918 20.0756 24.918C19.2129 24.918 18.2826 24.7026 17.3184 24.254C16.3373 23.8053 15.3732 23.2131 14.409 22.4773C13.4279 21.7235 12.5144 20.8801 11.6348 19.9648C10.7552 19.0316 9.97706 18.0445 9.26661 17.0216C8.57308 15.9987 8.0149 14.9758 7.60893 13.9528C7.20296 12.9299 7 11.9429 7 11.0097C7 10.3995 7.10148 9.8073 7.30447 9.26891C7.50745 8.71258 7.82887 8.21009 8.28559 7.76144C8.82688 7.18716 9.41889 6.91797 10.0448 6.91797C10.2816 6.91797 10.5183 6.9718 10.7382 7.07948C10.9581 7.18715 11.1612 7.34867 11.3134 7.58197L13.2756 10.5251C13.4278 10.7584 13.5462 10.9558 13.6139 11.1532C13.6985 11.3506 13.7323 11.5301 13.7323 11.7096C13.7323 11.9249 13.6647 12.1403 13.5463 12.3557C13.4279 12.571 13.2756 12.7863 13.0726 13.0017L12.4298 13.7195C12.3283 13.8272 12.2945 13.9349 12.2945 14.0785C12.2945 14.1503 12.3114 14.222 12.3283 14.2938C12.3621 14.3656 12.3791 14.4195 12.396 14.4733C12.5483 14.7784 12.8189 15.1552 13.191 15.6218C13.5801 16.0884 13.9861 16.573 14.4259 17.0396C14.8826 17.5241 15.3224 17.9548 15.7791 18.3676C16.2189 18.7624 16.591 19.0316 16.8786 19.1931C16.9293 19.2111 16.9801 19.2469 17.0308 19.2649C17.0985 19.3008 17.1662 19.3008 17.2508 19.3008C17.403 19.3008 17.5045 19.247 17.606 19.1393L18.2487 18.4573C18.4686 18.224 18.6717 18.0625 18.8577 17.9548C19.0607 17.8292 19.2468 17.7574 19.4667 17.7574C19.6358 17.7574 19.805 17.7933 19.991 17.883C20.1771 17.9728 20.3801 18.0805 20.583 18.242L23.3911 20.3596C23.611 20.5211 23.7632 20.7186 23.8646 20.9339C23.9492 21.1672 24 21.3825 24 21.6338C23.8985 21.9389 23.8309 22.2799 23.6955 22.6029Z"
    fill="black" />
  <path
    d="M17.4163 6.81755C17.4757 6.82374 17.4757 6.82374 17.5363 6.83006C19.3633 7.04006 21.0209 7.95141 22.1775 9.38295C22.9414 10.3664 23.4129 11.4858 23.5839 12.718C23.592 12.7727 23.6001 12.8273 23.6084 12.8836C23.7512 13.9046 23.7512 13.9046 23.5045 14.2411C23.3363 14.419 23.2116 14.4912 22.9658 14.5206C22.7685 14.5232 22.5891 14.4714 22.4399 14.3395C22.2764 14.1436 22.2119 13.937 22.2113 13.6813C22.2023 12.2468 21.632 10.8601 20.6192 9.84484C19.6398 8.90096 18.4418 8.36754 17.0854 8.2507C17.0538 8.24785 17.0221 8.245 16.9895 8.24206C16.9018 8.2346 16.814 8.22847 16.7262 8.22243C16.5023 8.17791 16.3815 8.06848 16.2371 7.89696C16.1262 7.69434 16.1162 7.53838 16.1535 7.31208C16.3687 6.75667 16.9002 6.7625 17.4163 6.81755Z"
    fill="black" />
  <path
    d="M18.3744 9.84775C19.4696 10.3202 20.2134 11.1584 20.6596 12.2517C20.7682 12.541 20.8222 12.818 20.8647 13.1234C20.8711 13.166 20.8775 13.2086 20.8841 13.2525C20.9731 13.8868 20.9731 13.8868 20.7875 14.1534C20.7698 14.1799 20.7521 14.2064 20.7339 14.2337C20.5798 14.4133 20.4228 14.4425 20.1953 14.4685C19.9913 14.4759 19.8628 14.4177 19.706 14.2921C19.5589 14.1263 19.4899 13.9891 19.4685 13.7682C19.4638 13.7259 19.4592 13.6836 19.4544 13.64C19.4496 13.5954 19.4448 13.5507 19.4398 13.5048C19.34 12.7046 19.0347 12.0592 18.3968 11.5446C17.9492 11.203 17.4141 11.0407 16.8582 10.9907C16.6007 10.9668 16.4362 10.9236 16.2414 10.7453C16.1132 10.5299 16.066 10.3377 16.1046 10.0891C16.1834 9.89508 16.2722 9.75604 16.4394 9.62802C17.0268 9.38802 17.8145 9.61972 18.3744 9.84775Z"
    fill="black" />
</svg>