<svg width="32" height="32" viewBox="0 0 32 32" fill="none" xmlns="http://www.w3.org/2000/svg">
  <circle cx="16" cy="16" r="15.5" stroke="black" />
  <path
    d="M25.4518 9.33681L25.4516 9.33754L22.1326 22.9113C22.0295 23.3025 21.8778 23.4284 21.7714 23.4706C21.651 23.5182 21.4207 23.5273 21.0293 23.3421L15.9959 20.1256L15.6874 19.9285L15.4063 20.163L12.9657 22.1992L12.9656 22.1991L12.9584 22.2053C12.9079 22.2491 12.8654 22.2856 12.8275 22.3164L13.1136 18.8041L22.3138 11.5946C22.3144 11.5942 22.3149 11.5938 22.3154 11.5934C22.4403 11.4967 22.6457 11.3046 22.6576 11.0148C22.6734 10.6284 22.365 10.4496 22.1966 10.3975C22.02 10.3429 21.8296 10.351 21.6643 10.3836C21.492 10.4176 21.3093 10.4854 21.1302 10.5883L9.72134 16.8184L4.92563 15.5164L4.92525 15.5163C4.75419 15.47 4.63865 15.4196 4.56588 15.3773C4.56887 15.375 4.57197 15.3726 4.57519 15.3701C4.68475 15.2863 4.87751 15.1828 5.18058 15.0799C5.18093 15.0797 5.18129 15.0796 5.18164 15.0795L24.6923 8.56074C24.693 8.56054 24.6936 8.56034 24.6942 8.56015C25.0468 8.44603 25.2695 8.51399 25.3654 8.59458C25.4411 8.6581 25.5725 8.84634 25.4518 9.33681Z"
    fill="black" stroke="black" />
</svg>