<svg width="32" height="32" viewBox="0 0 32 32" fill="none" xmlns="http://www.w3.org/2000/svg">
  <g clip-path="url(#clip0_3328_8806)">
    <path
      d="M11.0272 7.99612C11.0355 7.99614 11.0439 7.99616 11.0525 7.99618C11.1734 7.99668 11.2913 7.99901 11.4091 8.02924C11.4209 8.03222 11.4209 8.03222 11.433 8.03526C11.8321 8.13898 12.1395 8.35879 12.3734 8.6967C12.3984 8.73271 12.4237 8.76847 12.4491 8.80424C12.4591 8.81841 12.4691 8.83258 12.4791 8.84674C12.484 8.85376 12.489 8.86077 12.4941 8.86799C12.7791 9.27174 12.7791 9.27174 12.7941 9.29299C12.8041 9.30717 12.8141 9.32134 12.8241 9.33552C12.849 9.37079 12.8739 9.40607 12.8987 9.44139C12.9498 9.51397 13.0013 9.5862 13.0534 9.65799C13.1037 9.72721 13.1523 9.79744 13.2003 9.86821C13.2423 9.92989 13.2857 9.99047 13.3296 10.0508C13.3882 10.1315 13.4452 10.2134 13.5023 10.2952C13.5282 10.3323 13.5542 10.3692 13.5803 10.4061C13.5876 10.4165 13.5876 10.4165 13.5951 10.427C13.6048 10.4408 13.6146 10.4547 13.6244 10.4685C13.6493 10.5037 13.6742 10.539 13.6991 10.5742C13.7091 10.5884 13.7191 10.6026 13.7291 10.6167C13.8291 10.7584 13.9291 10.9001 14.0291 11.0417C14.034 11.0488 14.039 11.0558 14.044 11.063C14.0541 11.0772 14.0641 11.0914 14.0741 11.1056C14.1037 11.1475 14.1334 11.1895 14.163 11.2315C14.178 11.2526 14.1928 11.2737 14.2077 11.2949C14.2295 11.3258 14.2515 11.3566 14.2735 11.3874C14.3548 11.5013 14.4295 11.6177 14.4991 11.7392C14.5031 11.7462 14.5072 11.7532 14.5113 11.7603C14.6328 11.97 14.7304 12.2146 14.7391 12.4592C14.7395 12.4685 14.7399 12.4778 14.7403 12.4873C14.7449 12.6935 14.6885 12.8903 14.5896 13.07C14.579 13.0893 14.5687 13.1088 14.5585 13.1284C14.425 13.3791 14.2325 13.5981 14.0313 13.7967C14.0115 13.8167 13.993 13.8372 13.9747 13.8586C13.946 13.8921 13.9154 13.9233 13.8841 13.9542C13.8531 13.9848 13.8229 14.0155 13.7947 14.0486C13.7597 14.0897 13.7215 14.1271 13.6831 14.165C13.6495 14.1983 13.618 14.2327 13.5874 14.2688C13.5644 14.2944 13.5399 14.3183 13.5153 14.3424C13.3969 14.4596 13.3092 14.5707 13.3059 14.7424C13.3059 14.9684 13.4175 15.1753 13.5391 15.3592C13.5435 15.366 13.5479 15.3727 13.5525 15.3796C13.694 15.5927 13.8526 15.7933 14.0143 15.9912C14.0273 16.0071 14.0402 16.023 14.0531 16.0389C14.1357 16.1406 14.2209 16.24 14.3089 16.337C14.3275 16.3576 14.3458 16.3783 14.3641 16.3992C14.398 16.4382 14.4326 16.4766 14.4673 16.5149C14.486 16.5358 14.5044 16.5568 14.5228 16.578C14.5573 16.6177 14.593 16.6563 14.6286 16.695C14.6541 16.7228 14.6794 16.7507 14.7041 16.7792C14.7466 16.8283 14.7908 16.8759 14.8348 16.9237C14.8573 16.9482 14.8797 16.9728 14.9022 16.9974C15.029 17.1362 15.029 17.1362 15.1606 17.2705C15.1776 17.2878 15.1933 17.3055 15.2089 17.324C15.2589 17.3814 15.313 17.4346 15.3668 17.4883C15.3782 17.4997 15.3896 17.5111 15.4009 17.5225C15.4246 17.5462 15.4484 17.5699 15.4721 17.5936C15.5023 17.6238 15.5325 17.654 15.5627 17.6842C15.5861 17.7077 15.6096 17.7311 15.6331 17.7546C15.6442 17.7657 15.6553 17.7768 15.6664 17.788C15.7204 17.8421 15.7744 17.8956 15.8327 17.9451C15.8596 17.9684 15.8842 17.9938 15.9091 18.0192C15.9484 18.0591 15.9884 18.0972 16.0311 18.1335C16.0496 18.1497 16.0668 18.1667 16.0841 18.1842C16.1066 18.2072 16.1297 18.2289 16.1541 18.2499C16.1951 18.2852 16.2346 18.3222 16.2741 18.3592C16.3188 18.4012 16.3637 18.4429 16.4103 18.483C16.4329 18.5026 16.455 18.5228 16.4772 18.543C16.5118 18.5743 16.5471 18.6043 16.5834 18.6336C16.6215 18.6644 16.6581 18.6961 16.6941 18.7292C16.7421 18.7734 16.7918 18.8149 16.8426 18.8558C16.8615 18.8713 16.8804 18.8869 16.8992 18.9025C16.9788 18.9685 17.0586 19.0338 17.1414 19.0959C17.1537 19.1052 17.166 19.1145 17.1783 19.1239C17.7026 19.5387 17.7026 19.5387 18.3291 19.6792C18.5362 19.6428 18.678 19.462 18.8195 19.3201C18.8423 19.2973 18.8651 19.2745 18.8879 19.2518C18.9026 19.237 18.9173 19.2223 18.9321 19.2076C18.9388 19.2009 18.9455 19.1942 18.9524 19.1873C18.9909 19.1486 19.0275 19.1087 19.0632 19.0674C19.0836 19.0441 19.105 19.022 19.1268 19.0001C19.1353 18.9917 19.1437 18.9832 19.1524 18.9745C19.161 18.966 19.1696 18.9574 19.1784 18.9486C19.187 18.94 19.1955 18.9314 19.2043 18.9226C19.2488 18.8782 19.2939 18.8353 19.3416 18.7944C19.3657 18.7735 19.3885 18.7513 19.4116 18.7292C19.7027 18.4591 20.0944 18.223 20.5012 18.2278C20.8817 18.2423 21.2466 18.4394 21.5491 18.6592C21.5637 18.6698 21.5783 18.6803 21.5929 18.6908C21.6233 18.7127 21.6537 18.7347 21.684 18.7567C21.7273 18.7881 21.7709 18.819 21.8147 18.8499C21.8217 18.8548 21.8286 18.8597 21.8358 18.8648C21.8569 18.8796 21.878 18.8944 21.8991 18.9092C21.9937 18.9758 22.088 19.0428 22.1817 19.1107C22.2392 19.1523 22.2971 19.1933 22.3552 19.2341C22.4061 19.27 22.4567 19.3064 22.5072 19.343C22.5707 19.3891 22.6347 19.4344 22.6991 19.4792C22.771 19.5294 22.8423 19.5802 22.9133 19.6317C22.9702 19.673 23.0276 19.7136 23.0852 19.7541C23.1364 19.7901 23.1871 19.8268 23.2378 19.8636C23.2996 19.9085 23.3621 19.9521 23.4253 19.9949C23.4912 20.0395 23.5552 20.0858 23.6185 20.1341C23.6692 20.1725 23.7213 20.2086 23.7741 20.2442C23.8411 20.2895 23.9063 20.3365 23.9706 20.3855C24.0155 20.4195 24.0612 20.452 24.1078 20.4836C24.1962 20.5437 24.2828 20.6062 24.3691 20.6692C24.375 20.6736 24.3809 20.6779 24.387 20.6823C24.4583 20.7341 24.525 20.7887 24.5891 20.8492C24.6012 20.8604 24.6012 20.8604 24.6136 20.8719C24.85 21.0971 24.9586 21.4007 24.9991 21.7192C24.9999 21.7257 25.0007 21.7321 25.0016 21.7387C25.0202 21.9078 24.9652 22.0556 24.9114 22.213C24.8907 22.2738 24.8717 22.335 24.8532 22.3965C24.7988 22.5768 24.7387 22.7532 24.6496 22.9196C24.6425 22.9327 24.6356 22.946 24.6287 22.9592C24.3589 23.4797 23.948 23.9223 23.4791 24.2692C23.4691 24.2767 23.4691 24.2767 23.4588 24.2844C22.7833 24.7871 21.9243 25.0082 21.0914 25.0031C21.0705 25.003 21.0496 25.0029 21.0287 25.0029C20.8207 25.0022 20.6154 24.9964 20.4091 24.9692C20.3951 24.9675 20.3811 24.9658 20.3671 24.964C19.9249 24.9091 19.4922 24.8085 19.0691 24.6692C19.0596 24.6661 19.0596 24.6661 19.0499 24.6629C18.7349 24.5595 18.4304 24.4341 18.1284 24.2979C18.1105 24.2899 18.0927 24.2819 18.0748 24.2739C17.9062 24.1983 17.7407 24.1161 17.5753 24.0336C17.5648 24.0284 17.5542 24.0231 17.5433 24.0177C17.4046 23.9486 17.2675 23.877 17.1319 23.8019C17.1122 23.791 17.0926 23.7802 17.0729 23.7694C16.9162 23.6835 16.7633 23.5921 16.611 23.4987C16.574 23.4762 16.5368 23.454 16.4996 23.4318C16.107 23.1983 15.7277 22.9387 15.3591 22.6692C15.3515 22.6638 15.344 22.6583 15.3363 22.6526C15.2092 22.5599 15.0839 22.4649 14.9591 22.3692C14.9466 22.3598 14.9342 22.3503 14.9218 22.3408C14.8095 22.2547 14.6983 22.1672 14.5887 22.0776C14.5455 22.0424 14.5018 22.0078 14.4578 21.9736C14.4037 21.9315 14.3513 21.8875 14.2994 21.8426C14.2649 21.8128 14.2301 21.7835 14.1947 21.7549C14.1378 21.7087 14.0827 21.6607 14.0275 21.6126C13.9905 21.5804 13.9532 21.5486 13.9159 21.5167C13.8671 21.475 13.8189 21.4325 13.7713 21.3894C13.7507 21.3708 13.73 21.3525 13.7091 21.3342C13.6701 21.3003 13.6317 21.2657 13.5934 21.231C13.5725 21.2123 13.5515 21.1939 13.5303 21.1755C13.4809 21.1325 13.4328 21.088 13.3847 21.0436C13.3646 21.0252 13.3445 21.0068 13.3245 20.9884C13.3045 20.9702 13.2846 20.9519 13.2647 20.9336C13.2539 20.9237 13.2431 20.9138 13.2323 20.9039C13.1754 20.8518 13.1188 20.7998 13.0648 20.7447C13.0483 20.7285 13.0311 20.7136 13.0134 20.6986C12.9671 20.6588 12.9245 20.6153 12.8818 20.5716C12.8529 20.5423 12.8236 20.5141 12.7922 20.4874C12.7472 20.4482 12.7049 20.4065 12.6628 20.3643C12.6548 20.3564 12.6469 20.3484 12.6387 20.3403C12.6221 20.3236 12.6054 20.307 12.5888 20.2903C12.5635 20.2649 12.5382 20.2397 12.5128 20.2144C12.4966 20.1981 12.4803 20.1818 12.464 20.1655C12.4565 20.1581 12.4491 20.1506 12.4413 20.1429C12.4008 20.1022 12.3619 20.0607 12.3246 20.017C12.2992 19.988 12.2716 19.9612 12.2441 19.9342C12.2024 19.8931 12.1624 19.8515 12.1244 19.8068C12.1084 19.7885 12.0915 19.7714 12.0741 19.7542C12.0511 19.7317 12.0294 19.7086 12.0084 19.6842C11.9731 19.6432 11.9361 19.6037 11.8991 19.5642C11.8571 19.5194 11.8154 19.4746 11.7753 19.428C11.7557 19.4054 11.7355 19.3833 11.7153 19.3611C11.6842 19.3267 11.6544 19.2916 11.6253 19.2555C11.5929 19.2154 11.5592 19.177 11.5241 19.1392C11.4817 19.0937 11.4418 19.0468 11.4028 18.9984C11.3755 18.9648 11.3473 18.932 11.3191 18.8992C11.2766 18.8499 11.2348 18.8001 11.1937 18.7496C11.1747 18.7261 11.1555 18.7028 11.1362 18.6796C11.0767 18.6076 11.0176 18.5354 10.9602 18.4617C10.9252 18.4168 10.8894 18.3727 10.8534 18.3286C10.7973 18.2598 10.7429 18.1899 10.6891 18.1192C10.6736 18.0992 10.6582 18.0792 10.6428 18.0592C10.6249 18.0359 10.607 18.0126 10.5891 17.9892C10.5803 17.9778 10.5803 17.9778 10.5713 17.9661C10.4758 17.8415 10.3816 17.7161 10.2891 17.5892C10.2837 17.582 10.2784 17.5747 10.2729 17.5672C10.2347 17.5148 10.1967 17.4621 10.1591 17.4092C10.1535 17.4014 10.1479 17.3936 10.1422 17.3856C10.0455 17.2497 9.95329 17.111 9.86155 16.9717C9.85304 16.9588 9.85304 16.9588 9.84436 16.9457C9.73504 16.7798 9.62822 16.6123 9.5253 16.4424C9.51998 16.4336 9.51998 16.4336 9.51455 16.4246C9.34461 16.144 9.1836 15.8589 9.03352 15.5672C9.01649 15.5343 8.99907 15.5017 8.9816 15.4691C8.59791 14.7505 8.29598 13.9679 7.99702 12.0565C7.997 12.0499 7.99697 12.0434 7.99694 12.0366C7.99679 12.0018 7.9967 11.9671 7.99665 11.9323C7.99661 11.9043 7.99647 11.8763 7.99624 11.8484C7.98923 10.9755 8.23034 10.0736 8.75905 9.36924C8.76335 9.36346 8.76765 9.35767 8.77208 9.35171C8.90577 9.17219 9.0571 9.00941 9.2154 8.85159C9.23604 8.83101 9.25662 8.81037 9.2772 8.78973C9.29056 8.77638 9.30393 8.76302 9.3173 8.74967C9.32332 8.74363 9.32934 8.73759 9.33555 8.73136C9.37844 8.6887 9.42313 8.6486 9.46905 8.60924C9.47844 8.60119 9.47844 8.60119 9.48801 8.59297C9.64441 8.4593 9.81625 8.34371 9.99905 8.24924C10.0068 8.24523 10.0145 8.24121 10.0225 8.23707C10.3363 8.07577 10.6749 7.99448 11.0272 7.99612Z"
      fill="black" />
    <path
      d="M15.9325 -0.00185617C15.9925 -0.00174224 16.0524 -0.00181012 16.1123 -0.00192495C16.4053 -0.00240098 16.697 0.00307287 16.9895 0.0207513C17.0022 0.0215074 17.0148 0.0222635 17.0279 0.0230425C17.0993 0.027419 17.1706 0.0325585 17.242 0.0382513C17.2525 0.0390783 17.2631 0.0399053 17.2739 0.0407574C18.4175 0.131238 19.5498 0.340505 22.6695 1.44075C22.6808 1.44589 22.6921 1.45103 22.7038 1.45633C22.8724 1.53306 23.0387 1.61433 23.2045 1.697C23.214 1.70175 23.2236 1.70651 23.2334 1.7114C23.3652 1.77697 23.4949 1.84551 23.6237 1.9166C23.6604 1.93677 23.6973 1.95665 23.7342 1.97653C23.861 2.04495 23.9855 2.11725 24.1095 2.19075C24.1154 2.19424 24.1213 2.19774 24.1273 2.20134C24.1655 2.22398 24.2037 2.24669 24.2418 2.26946C24.254 2.27674 24.2662 2.28401 24.2784 2.29127C24.4636 2.4016 24.6442 2.51949 24.8242 2.63807C24.8521 2.65645 24.88 2.67476 24.908 2.69308C25.0171 2.76479 25.124 2.8389 25.2293 2.91611C25.2639 2.9412 25.2989 2.96565 25.3339 2.99013C25.4812 3.09382 25.6251 3.20182 25.7668 3.31303C25.7901 3.33126 25.8135 3.3494 25.8369 3.36751C25.9187 3.43085 25.9998 3.49477 26.0795 3.56075C26.0974 3.57534 26.1153 3.58992 26.1332 3.6045C26.1796 3.64244 26.2254 3.68103 26.2711 3.71987C26.3056 3.74918 26.3405 3.77792 26.3757 3.80638C26.4233 3.84511 26.4688 3.88583 26.5139 3.92735C26.542 3.95303 26.5705 3.97804 26.5992 4.00298C26.6316 4.03133 26.6634 4.06024 26.6953 4.08907C26.7155 4.10716 26.7358 4.12495 26.7564 4.14263C26.8141 4.19294 26.8696 4.24576 26.9254 4.29823C26.943 4.3147 26.9608 4.33105 26.9786 4.34733C27.0989 4.45772 27.2138 4.57354 27.3291 4.68909C27.3588 4.71877 27.3884 4.74841 27.4181 4.77804C27.4413 4.80117 27.4644 4.82432 27.4875 4.84748C27.4985 4.85842 27.5094 4.86935 27.5204 4.88027C27.574 4.93379 27.627 4.98744 27.6761 5.04516C27.6929 5.06474 27.7109 5.08282 27.7295 5.10075C27.7609 5.13179 27.7902 5.16394 27.819 5.19743C27.8453 5.22738 27.8724 5.25655 27.8995 5.28575C27.9436 5.33341 27.9872 5.38144 28.0295 5.43075C28.0337 5.4356 28.0378 5.44046 28.0421 5.44545C28.0674 5.47486 28.0926 5.5043 28.1178 5.53376C28.1381 5.55753 28.1585 5.58126 28.179 5.60493C28.2573 5.69569 28.3336 5.78796 28.4095 5.88075C28.4152 5.8877 28.4209 5.89464 28.4267 5.9018C28.49 5.97905 28.5525 6.05678 28.613 6.13622C28.6325 6.16168 28.6521 6.18695 28.6719 6.21216C28.7565 6.32019 28.8387 6.42979 28.9195 6.54075C28.9249 6.54823 28.9304 6.5557 28.936 6.5634C28.9741 6.61567 29.0119 6.66815 29.0495 6.72075C29.0545 6.72769 29.0594 6.73464 29.0646 6.74179C29.6019 7.4927 30.0667 8.29813 30.6795 9.60075C30.6825 9.6077 30.6855 9.61465 30.6886 9.62181C31.0518 10.4576 31.3411 11.3225 31.8395 13.6608C31.8409 13.6703 31.8423 13.6798 31.8437 13.6895C31.8927 14.0272 31.9302 14.3662 31.9585 14.7062C31.9592 14.7134 31.9598 14.7206 31.9604 14.728C31.9923 15.1205 32.0033 15.5124 32.0027 15.9061C32.0026 15.9419 32.0026 15.9778 32.0026 16.0136C32.0022 16.3496 31.9993 16.6843 31.972 17.0194C31.9693 17.0525 31.9668 17.0856 31.9643 17.1186C31.9247 17.6326 31.8594 18.1432 31.7695 18.6508C31.7678 18.6604 31.7661 18.6701 31.7643 18.6801C31.5887 19.6679 31.3147 20.6442 30.0295 23.5408C30.0212 23.5557 30.0212 23.5557 30.0128 23.5709C29.9308 23.719 29.8466 23.8656 29.7595 24.0108C29.753 24.0216 29.7465 24.0324 29.7398 24.0435C29.4851 24.468 29.2116 24.8812 28.9195 25.2808C28.911 25.2923 28.911 25.2923 28.9024 25.3042C28.8196 25.4175 28.7353 25.5297 28.6495 25.6408C28.6438 25.6481 28.6381 25.6555 28.6323 25.6631C28.5542 25.7643 28.4748 25.8644 28.3938 25.9633C28.3809 25.979 28.3681 25.9948 28.3552 26.0106C28.3109 26.0651 28.2659 26.1189 28.2204 26.1724C28.1911 26.2069 28.1623 26.2418 28.1339 26.277C28.0957 26.324 28.0553 26.3686 28.0143 26.4131C27.9894 26.4408 27.9659 26.4693 27.9426 26.4983C27.9122 26.5359 27.8808 26.5706 27.8461 26.6042C27.829 26.6212 27.8133 26.6388 27.7976 26.657C27.7515 26.7104 27.7033 26.7619 27.6552 26.8137C27.64 26.8302 27.6248 26.8468 27.6096 26.8634C27.5532 26.9253 27.4957 26.9856 27.4358 27.0441C27.4087 27.0707 27.3831 27.0979 27.3584 27.1268C27.3121 27.1803 27.2619 27.2299 27.2118 27.2798C27.1951 27.2963 27.1786 27.313 27.162 27.3296C27.1118 27.3798 27.0613 27.429 27.0073 27.4752C26.9765 27.5022 26.9481 27.5315 26.9195 27.5608C26.8778 27.6033 26.8352 27.6437 26.7901 27.6826C26.754 27.7143 26.7193 27.7476 26.6845 27.7808C26.6363 27.8266 26.5876 27.8717 26.5373 27.9153C26.515 27.9347 26.4932 27.9546 26.4714 27.9745C26.4277 28.014 26.3825 28.0512 26.3367 28.0883C26.3103 28.1101 26.2848 28.1327 26.2595 28.1558C26.217 28.1944 26.1732 28.2309 26.1285 28.267C26.0974 28.2924 26.0669 28.3184 26.0364 28.3445C25.9805 28.3921 25.9232 28.4377 25.8653 28.4827C25.8354 28.506 25.8059 28.5297 25.7764 28.5535C25.7048 28.6114 25.6317 28.6672 25.5578 28.7222C25.5138 28.7549 25.4701 28.7879 25.4267 28.8213C25.336 28.8912 25.2449 28.9595 25.1495 29.023C25.1017 29.055 25.0552 29.0885 25.0089 29.1228C24.9302 29.181 24.8493 29.2355 24.7676 29.2895C24.753 29.2992 24.7384 29.3089 24.7238 29.3186C24.6234 29.3852 24.5228 29.4516 24.4214 29.5167C24.4069 29.526 24.3924 29.5353 24.378 29.5447C24.218 29.648 24.0537 29.7443 23.8895 29.8408C23.8799 29.8464 23.8704 29.852 23.8605 29.8578C23.8071 29.8891 23.7534 29.9201 23.6995 29.9508C23.6861 29.9584 23.6861 29.9584 23.6725 29.9661C23.2453 30.2091 22.807 30.4361 22.3571 30.6341C22.3261 30.6478 22.2951 30.6617 22.2642 30.6756C21.3447 31.0896 20.3767 31.4054 16.2827 32.0024C16.2597 32.0025 16.2366 32.0025 16.2135 32.0025C16.1655 32.0026 16.1174 32.0026 16.0693 32.0026C16.021 32.0026 15.9727 32.0027 15.9244 32.0028C15.6189 32.0037 15.3145 31.9994 15.0095 31.9808C14.9966 31.98 14.9838 31.9792 14.9705 31.9784C14.8976 31.9738 14.8248 31.9685 14.752 31.9626C14.7413 31.9618 14.7306 31.9609 14.7196 31.9601C13.6647 31.8763 12.6192 31.6922 10.7395 31.1308C10.729 31.1272 10.729 31.1272 10.7183 31.1235C9.94409 30.8595 9.17683 30.5304 8.38503 30.0949C8.35706 30.0794 8.32892 30.0643 8.30073 30.0492C8.29067 30.0438 8.28061 30.0384 8.27025 30.0328C8.24984 30.0219 8.22937 30.0111 8.20883 30.0005C8.14933 29.9691 8.09686 29.9356 8.04556 29.8919C7.96169 29.8354 7.96169 29.8354 7.86348 29.8237C7.82243 29.8329 7.78277 29.8443 7.74265 29.8569C7.72762 29.8613 7.71258 29.8656 7.69753 29.8699C7.66654 29.8789 7.63562 29.888 7.60473 29.8973C7.56278 29.9099 7.52065 29.9217 7.4784 29.9333C7.47188 29.935 7.46536 29.9368 7.45864 29.9387C7.44549 29.9423 7.43234 29.9458 7.41919 29.9494C7.38539 29.9587 7.35163 29.9681 7.31788 29.9776C7.30391 29.9815 7.28993 29.9854 7.27596 29.9893C7.26888 29.9912 7.26181 29.9932 7.25452 29.9953C7.19199 30.0127 7.12944 30.0301 7.0669 30.0475C7.0504 30.0521 7.03391 30.0567 7.01741 30.0613C6.82543 30.1147 6.63333 30.1678 6.44121 30.2207C6.41372 30.2283 6.38624 30.2359 6.35875 30.2434C6.26595 30.269 6.17315 30.2946 6.08034 30.3202C5.90882 30.3675 5.73731 30.4148 5.5658 30.4621C5.54782 30.467 5.52985 30.472 5.51188 30.4769C5.21771 30.5581 4.92359 30.6394 4.62948 30.7208C4.39667 30.7852 4.16386 30.8496 3.93101 30.9138C3.92171 30.9164 3.91242 30.919 3.90285 30.9216C3.80225 30.9494 3.70165 30.9771 3.60104 31.0048C3.56578 31.0145 3.53052 31.0242 3.49526 31.034C3.48665 31.0363 3.47804 31.0387 3.46917 31.0411C3.35854 31.0716 3.24797 31.1023 3.13744 31.1331C3.08135 31.1488 3.02524 31.1644 2.96913 31.18C2.9321 31.1903 2.89509 31.2006 2.85809 31.211C2.65354 31.2686 2.46037 31.317 2.24698 31.3151C2.23944 31.3151 2.2319 31.3151 2.22413 31.315C2.09609 31.3143 1.97362 31.3041 1.84948 31.2708C1.83802 31.2677 1.83802 31.2677 1.82632 31.2646C1.50002 31.1739 1.19381 30.9715 0.989482 30.7008C0.977842 30.6859 0.977842 30.6859 0.965966 30.6708C0.775134 30.4219 0.659365 30.1049 0.649482 29.7908C0.649082 29.7796 0.648683 29.7684 0.648271 29.7569C0.645754 29.6176 0.659846 29.4824 0.692958 29.3471C0.695513 29.3366 0.698067 29.326 0.700699 29.3152C0.744006 29.1393 0.792014 28.9645 0.839153 28.7896C0.85359 28.736 0.867988 28.6824 0.88239 28.6288C0.906302 28.5398 0.930237 28.4509 0.954189 28.3619C0.987292 28.2389 1.02035 28.1159 1.05339 27.9929C1.09468 27.8392 1.136 27.6855 1.17733 27.5318C1.21888 27.3774 1.26042 27.2229 1.30194 27.0684C1.30452 27.0588 1.3071 27.0492 1.30976 27.0393C1.32279 26.9909 1.33582 26.9424 1.34885 26.8939C1.37229 26.8067 1.39573 26.7195 1.41917 26.6323C1.43219 26.5839 1.44521 26.5354 1.45823 26.487C1.46344 26.4676 1.46865 26.4483 1.47386 26.4289C1.47644 26.4193 1.47901 26.4097 1.48167 26.3998C1.48948 26.3708 1.49729 26.3417 1.50511 26.3126C1.50769 26.303 1.51026 26.2934 1.51292 26.2836C1.51813 26.2642 1.52334 26.2448 1.52854 26.2254C1.54157 26.177 1.5546 26.1285 1.56762 26.0801C1.59099 25.9931 1.61436 25.9062 1.63773 25.8193C1.65066 25.7712 1.66358 25.7231 1.67651 25.675C1.67908 25.6655 1.68164 25.6559 1.68428 25.6461C1.71934 25.5157 1.75439 25.3853 1.78943 25.2548C1.80057 25.2134 1.81171 25.1719 1.82285 25.1305C1.82837 25.11 1.83388 25.0894 1.83939 25.0689C1.8421 25.0588 1.84481 25.0488 1.84761 25.0384C1.86369 24.9785 1.87975 24.9187 1.8958 24.8588C1.94153 24.6884 1.98728 24.5179 2.0344 24.3479C2.04077 24.3248 2.04713 24.3017 2.0535 24.2787C2.06448 24.2388 2.07562 24.1991 2.08687 24.1593C2.09153 24.1425 2.09617 24.1257 2.10081 24.1089C2.10291 24.1017 2.10501 24.0945 2.10717 24.087C2.12178 24.0333 2.12079 23.9954 2.09756 23.9448C2.09257 23.9362 2.08759 23.9275 2.08245 23.9186C2.07684 23.9088 2.07122 23.899 2.06544 23.8888C2.0563 23.8731 2.0563 23.8731 2.04698 23.857C2.03409 23.8344 2.02121 23.8118 2.00835 23.7891C2.00182 23.7777 1.99529 23.7662 1.98856 23.7544C1.88368 23.5694 1.78616 23.3802 1.68948 23.1908C1.68381 23.1796 1.67813 23.1685 1.67228 23.1571C1.3403 22.5047 1.06409 21.8237 0.829482 21.1308C0.826639 21.1224 0.823797 21.114 0.820869 21.1053C0.479763 20.0976 0.243497 19.054 0.0316815 17.1708C0.0295094 17.1411 0.0272186 17.1114 0.0249066 17.0817C-0.0301057 16.3612 -0.0289035 15.6207 0.0272039 14.9002C0.0295135 14.8704 0.0317012 14.8405 0.0338617 14.8106C0.0810924 14.1631 0.167288 13.5183 0.289482 12.8808C0.291235 12.8716 0.292989 12.8624 0.294796 12.8529C0.394571 12.333 0.524234 11.8169 0.679482 11.3108C0.682352 11.3014 0.685223 11.292 0.688181 11.2824C0.868184 10.6961 1.07957 10.1209 1.32948 9.56075C1.33425 9.55004 1.33425 9.55004 1.33912 9.53912C1.42881 9.33784 1.52205 9.13841 1.61948 8.94075C1.62314 8.93333 1.62679 8.92592 1.63055 8.91827C1.72171 8.73336 1.81312 8.54879 1.91385 8.36886C1.93178 8.33662 1.94943 8.30424 1.96706 8.27185C2.04869 8.1221 2.13352 7.97481 2.22227 7.82912C2.23853 7.80232 2.25461 7.77544 2.27061 7.74849C2.34439 7.62427 2.42129 7.50223 2.49948 7.38075C2.5073 7.36855 2.5073 7.36855 2.51528 7.35609C2.69478 7.07607 2.8835 6.80154 3.08185 6.53456C3.09983 6.51028 3.1177 6.48592 3.13554 6.46153C3.20092 6.37219 3.26733 6.28396 3.3363 6.19736C3.34967 6.18052 3.36293 6.1636 3.37616 6.14665C3.44134 6.06319 3.50777 5.9808 3.57476 5.89879C3.58771 5.88292 3.60061 5.86702 3.61351 5.8511C3.65976 5.79414 3.70713 5.73826 3.75505 5.6827C3.78569 5.64711 3.81564 5.61108 3.84511 5.5745C3.88611 5.52397 3.92964 5.47622 3.97386 5.42853C4.00052 5.39963 4.02644 5.3702 4.05222 5.34052C4.12317 5.25929 4.19634 5.18 4.26948 5.10075C4.27779 5.09175 4.27779 5.09175 4.28626 5.08256C4.35393 5.00932 4.42209 4.93696 4.49351 4.86735C4.51334 4.84704 4.53177 4.82666 4.55019 4.80513C4.59534 4.75306 4.64411 4.70463 4.69291 4.65602C4.70883 4.64016 4.72469 4.62424 4.74056 4.60831C4.78949 4.55934 4.83889 4.51153 4.89154 4.46652C4.92236 4.43944 4.95082 4.41007 4.97948 4.38075C5.02112 4.33817 5.06373 4.2978 5.10882 4.25888C5.14497 4.22717 5.17964 4.19388 5.21448 4.16075C5.29033 4.08863 5.36858 4.01986 5.44823 3.952C5.4898 3.91651 5.53094 3.88068 5.57136 3.84388C5.61322 3.8059 5.65648 3.77005 5.70042 3.7345C5.73152 3.70909 5.76207 3.68309 5.79261 3.657C5.84249 3.61451 5.89342 3.57361 5.94513 3.53337C5.98981 3.49854 6.03378 3.4629 6.07761 3.427C6.16011 3.35964 6.24447 3.29491 6.32948 3.23075C6.33743 3.22474 6.34537 3.21873 6.35356 3.21254C6.60443 3.02289 6.86123 2.84216 7.12198 2.66638C7.13137 2.66005 7.14076 2.65371 7.15043 2.64719C7.28235 2.55831 7.4147 2.47068 7.55074 2.38819C7.57702 2.37225 7.60324 2.35619 7.62943 2.3401C8.19311 1.99394 8.77746 1.67511 9.3822 1.40631C9.42481 1.38736 9.46726 1.36809 9.50964 1.3486C9.8071 1.21238 10.112 1.0909 10.4191 0.978213C10.4333 0.973013 10.4475 0.967803 10.4617 0.962586C11.4711 0.590931 12.5162 0.326729 14.7226 0.0411028C14.7301 0.0404756 14.7376 0.0398483 14.7454 0.039202C15.1408 0.00748973 15.536 -0.00261686 15.9325 -0.00185617ZM14.8407 0.978251C14.8247 0.979492 14.8247 0.979492 14.8082 0.980757C14.22 1.02649 13.6344 1.10265 13.0553 1.21572C13.0299 1.22067 13.0045 1.22556 12.9792 1.23044C12.0899 1.40264 11.2115 1.66508 10.2195 2.07075C10.2131 2.07341 10.2067 2.07606 10.2002 2.0788C9.89473 2.20629 9.59479 2.34552 9.29789 2.4917C9.28036 2.50032 9.26283 2.50892 9.24529 2.51751C9.11168 2.5831 8.98016 2.65176 8.84998 2.7239C8.81637 2.74247 8.78267 2.7609 8.74897 2.77931C8.60079 2.86036 8.45412 2.94349 8.30948 3.03075C8.30019 3.03634 8.29089 3.04193 8.28131 3.04769C7.94623 3.24934 7.61745 3.46298 7.29948 3.69075C7.29206 3.69606 7.28464 3.70136 7.27699 3.70683C7.2243 3.74454 7.17183 3.78257 7.11948 3.82075C7.11155 3.82653 7.10362 3.83231 7.09544 3.83826C6.99758 3.90964 6.90084 3.9821 6.80609 4.05757C6.78925 4.07094 6.77233 4.0842 6.75538 4.09743C6.67193 4.16259 6.58956 4.22901 6.50757 4.29599C6.49156 4.30906 6.47552 4.32209 6.45948 4.33513C6.38869 4.39275 6.31896 4.45156 6.24948 4.51075C6.24361 4.51575 6.23773 4.52075 6.23168 4.52589C6.16421 4.58331 6.09728 4.64117 6.03167 4.70071C6.01155 4.71888 5.99122 4.73675 5.97073 4.7545C5.9316 4.78858 5.89339 4.82364 5.85522 4.85878C5.82251 4.88889 5.78953 4.91866 5.75636 4.94825C5.72223 4.97884 5.68955 5.01035 5.65748 5.04308C5.64031 5.05993 5.62261 5.07549 5.60427 5.09105C5.55014 5.13815 5.49978 5.18901 5.44913 5.23978C5.43865 5.25025 5.42817 5.26072 5.41769 5.27119C5.39585 5.29301 5.37403 5.31486 5.35221 5.33672C5.32446 5.36453 5.29665 5.3923 5.26884 5.42006C5.24723 5.44163 5.22564 5.46323 5.20406 5.48484C5.19382 5.49508 5.18358 5.50531 5.17333 5.51554C5.12155 5.56723 5.0706 5.61922 5.0231 5.67493C5.00618 5.69458 4.98813 5.71275 4.96948 5.73075C4.93802 5.76179 4.90875 5.79394 4.87995 5.82743C4.85367 5.85738 4.82659 5.88655 4.79948 5.91575C4.75533 5.96341 4.71179 6.01144 4.66948 6.06075C4.66531 6.0656 4.66115 6.07046 4.65685 6.07545C4.63165 6.10478 4.60649 6.13414 4.58136 6.16353C4.56036 6.18807 4.53932 6.21257 4.51823 6.23704C4.46612 6.29756 4.41453 6.35838 4.36421 6.4204C4.34502 6.44396 4.32572 6.46741 4.30632 6.49079C4.2403 6.57043 4.17566 6.65069 4.11306 6.73304C4.09788 6.75284 4.08253 6.77249 4.06714 6.79212C3.98246 6.90015 3.90028 7.00979 3.81948 7.12075C3.81146 7.13172 3.81146 7.13172 3.80329 7.14292C3.58357 7.44381 3.37478 7.75342 3.17948 8.07075C3.17323 8.0809 3.16698 8.09105 3.16054 8.1015C3.05726 8.26958 2.95675 8.43911 2.85948 8.61075C2.85024 8.62704 2.85024 8.62704 2.84082 8.64366C2.75479 8.79583 2.67285 8.94974 2.59315 9.10528C2.57008 9.1503 2.54666 9.19509 2.52268 9.23962C2.4643 9.3481 2.41171 9.45921 2.35948 9.57075C2.35328 9.58393 2.34708 9.59711 2.34088 9.61028C1.94541 10.4518 1.63236 11.3296 0.979833 14.7918C0.979206 14.7993 0.978579 14.8067 0.977933 14.8143C0.947277 15.1929 0.935991 15.5724 0.936874 15.9521C0.936988 16.0015 0.936921 16.0509 0.936806 16.1003C0.936105 16.4573 0.947797 16.8136 0.976982 17.1695C0.977805 17.1798 0.978629 17.19 0.979478 17.2006C1.0603 18.2009 1.23623 19.1925 2.25948 22.1908C2.26416 22.2011 2.26884 22.2114 2.27366 22.222C2.44475 22.5991 2.62625 22.9729 2.83296 23.3318C2.86133 23.3815 2.88893 23.4317 2.91662 23.4819C3.00892 23.6584 3.00892 23.6584 3.11776 23.8246C3.14482 23.885 3.11533 23.9638 3.09845 24.0253C3.09523 24.0373 3.09523 24.0373 3.09196 24.0495C3.08484 24.076 3.07763 24.1025 3.07042 24.129C3.06529 24.1481 3.06016 24.1671 3.05504 24.1862C3.04117 24.2378 3.02721 24.2893 3.01324 24.3409C2.99845 24.3955 2.98374 24.4502 2.96902 24.5049C2.94457 24.5956 2.92009 24.6863 2.89558 24.777C2.86208 24.9011 2.8287 25.0251 2.79538 25.1492C2.79022 25.1684 2.78506 25.1876 2.7799 25.2068C2.77221 25.2354 2.76453 25.2641 2.75684 25.2927C2.72846 25.3983 2.70005 25.504 2.67163 25.6097C2.66128 25.6482 2.65092 25.6867 2.64057 25.7251C2.63801 25.7347 2.63545 25.7442 2.6328 25.754C2.6042 25.8604 2.57561 25.9667 2.54702 26.0731C2.54444 26.0827 2.54186 26.0923 2.5392 26.1022C2.52618 26.1506 2.51315 26.1991 2.50012 26.2476C2.47668 26.3348 2.45323 26.422 2.42979 26.5092C2.41677 26.5576 2.40375 26.6061 2.39073 26.6545C2.38552 26.6739 2.38032 26.6933 2.37511 26.7126C2.37253 26.7222 2.36995 26.7318 2.36729 26.7417C2.35948 26.7708 2.35167 26.7998 2.34386 26.8289C2.33999 26.8433 2.33999 26.8433 2.33604 26.8579C2.33084 26.8773 2.32563 26.8967 2.32042 26.9161C2.3074 26.9645 2.29437 27.013 2.28135 27.0614C2.25794 27.1485 2.23452 27.2356 2.21111 27.3227C2.19812 27.371 2.18513 27.4193 2.17214 27.4677C2.16956 27.4772 2.16699 27.4868 2.16434 27.4967C2.13008 27.6241 2.09583 27.7515 2.06158 27.879C2.04296 27.9483 2.02433 28.0176 2.0057 28.0869C1.99259 28.1357 1.97947 28.1845 1.96636 28.2333C1.91309 28.4315 1.85978 28.6297 1.8063 28.8279C1.79893 28.8553 1.79155 28.8826 1.78418 28.9099C1.78179 28.9188 1.7794 28.9276 1.77694 28.9368C1.7722 28.9544 1.76745 28.972 1.7627 28.9896C1.75137 29.0316 1.74004 29.0736 1.72868 29.1156C1.70532 29.202 1.68204 29.2885 1.65901 29.375C1.65297 29.3977 1.6469 29.4204 1.6408 29.443C1.60336 29.5792 1.60336 29.5792 1.59386 29.7195C1.59403 29.7282 1.5942 29.7369 1.59438 29.7459C1.60113 29.9314 1.68644 30.0853 1.81948 30.2108C1.96025 30.3305 2.12297 30.3835 2.3076 30.3728C2.34206 30.3696 2.37528 30.3618 2.40877 30.3534C2.41609 30.3517 2.42341 30.3499 2.43095 30.348C2.51217 30.3281 2.59278 30.3059 2.67335 30.2835C2.69001 30.2789 2.70668 30.2743 2.72335 30.2697C2.76829 30.2573 2.81322 30.2448 2.85814 30.2323C2.90623 30.219 2.95433 30.2057 3.00243 30.1924C3.08367 30.1699 3.16491 30.1474 3.24614 30.1249C3.36585 30.0918 3.48557 30.0586 3.6053 30.0255C3.63456 30.0174 3.66381 30.0093 3.69307 30.0012C3.71256 29.9959 3.73206 29.9905 3.75156 29.9851C3.82037 29.966 3.88919 29.947 3.95801 29.928C4.22159 29.855 4.48521 29.7822 4.74886 29.7095C4.75778 29.707 4.7667 29.7046 4.77589 29.702C4.91936 29.6625 5.06283 29.6229 5.20631 29.5834C5.34091 29.5462 5.47551 29.5091 5.61011 29.472C5.61902 29.4695 5.62794 29.4671 5.63713 29.4646C5.95084 29.378 6.26449 29.2913 6.57813 29.2045C6.79782 29.1437 7.01754 29.083 7.23729 29.0224C7.24737 29.0196 7.25744 29.0168 7.26782 29.014C7.36472 28.9873 7.46161 28.9605 7.55852 28.9339C7.59364 28.9242 7.62876 28.9145 7.66388 28.9048C7.67997 28.9004 7.69607 28.8959 7.71216 28.8915C7.72715 28.8874 7.74214 28.8833 7.75713 28.8791C7.77126 28.8752 7.78539 28.8714 7.79952 28.8675C7.83286 28.8583 7.86603 28.8488 7.89906 28.8386C7.91139 28.8348 7.92371 28.8311 7.93642 28.8272C7.94717 28.8238 7.95793 28.8204 7.96901 28.8169C8.02863 28.8049 8.06899 28.8232 8.11964 28.8536C8.12528 28.857 8.13092 28.8603 8.13673 28.8638C8.14887 28.871 8.16097 28.8783 8.17306 28.8856C8.19234 28.8972 8.21168 28.9087 8.23104 28.9202C8.2577 28.9361 8.28433 28.9519 8.31095 28.9678C8.59173 29.1352 8.87807 29.2926 9.16948 29.4406C9.19032 29.4512 9.21114 29.4618 9.23196 29.4724C9.44526 29.581 9.66038 29.6844 9.87948 29.7808C9.88643 29.7838 9.89338 29.7869 9.90054 29.79C10.7093 30.146 11.5468 30.4287 14.8257 31.0233C14.8402 31.0244 14.8402 31.0244 14.855 31.0256C15.2184 31.0542 15.5823 31.0646 15.9468 31.0639C15.977 31.0639 16.0072 31.0639 16.0374 31.0638C16.3556 31.0635 16.6722 31.0569 16.9895 31.033C17.0192 31.0308 17.0489 31.0286 17.0785 31.0265C18.137 30.9502 19.1869 30.7473 21.6295 29.9208C21.636 29.918 21.6425 29.9152 21.6492 29.9124C21.8378 29.8325 22.0243 29.7483 22.2095 29.6608C22.2197 29.6559 22.2299 29.6511 22.2405 29.6461C22.4941 29.5262 22.7468 29.4031 22.9918 29.2662C23.0222 29.2492 23.0528 29.2324 23.0834 29.2157C23.2441 29.1273 23.4023 29.0353 23.5595 28.9408C23.5694 28.9348 23.5794 28.9288 23.5896 28.9227C23.8069 28.7922 24.0194 28.6551 24.2295 28.5133C24.2372 28.5081 24.2449 28.5029 24.2528 28.4975C24.3627 28.4233 24.4715 28.3476 24.5795 28.2708C24.5883 28.2645 24.5972 28.2582 24.6063 28.2517C24.7122 28.1764 24.8159 28.0983 24.9191 28.0193C24.9568 27.9904 24.9948 27.9618 25.033 27.9335C25.1003 27.8835 25.166 27.8318 25.2309 27.7786C25.2735 27.7437 25.3166 27.7095 25.3601 27.6758C25.4169 27.6316 25.4714 27.5852 25.5255 27.5378C25.5621 27.5057 25.5991 27.4744 25.637 27.4439C25.6836 27.4062 25.7277 27.3662 25.7718 27.3256C25.7995 27.3007 25.828 27.2772 25.857 27.2539C25.8947 27.2235 25.9294 27.192 25.963 27.1573C25.9796 27.1407 25.9967 27.1254 26.0145 27.1101C26.0668 27.0649 26.117 27.0175 26.1674 26.9701C26.1928 26.9463 26.2183 26.9226 26.2438 26.899C26.3582 26.7932 26.4685 26.6833 26.5785 26.573C26.605 26.5464 26.6316 26.5199 26.6582 26.4934C26.679 26.4726 26.6998 26.4518 26.7205 26.431C26.7303 26.4212 26.7401 26.4114 26.7499 26.4017C26.8003 26.3514 26.8495 26.3008 26.8957 26.2467C26.9127 26.2271 26.9308 26.2088 26.9495 26.1908C26.9809 26.1597 27.0102 26.1276 27.039 26.0941C27.0653 26.0641 27.0924 26.035 27.1195 26.0058C27.1886 25.9311 27.2551 25.8544 27.3212 25.7771C27.3538 25.7389 27.3867 25.7009 27.4197 25.663C27.4775 25.5966 27.5341 25.5293 27.5895 25.4608C27.5997 25.4483 27.6098 25.4358 27.62 25.4233C27.6858 25.3428 27.7508 25.2616 27.8148 25.1796C27.8306 25.1593 27.8466 25.139 27.8625 25.1187C27.947 25.0109 28.0289 24.9015 28.1095 24.7908C28.115 24.7831 28.1206 24.7755 28.1263 24.7676C28.3253 24.494 28.5171 24.2157 28.6995 23.9308C28.7043 23.9233 28.7091 23.9158 28.714 23.9081C28.7914 23.7869 28.8663 23.6644 28.9395 23.5408C28.9459 23.5299 28.9523 23.5191 28.9589 23.508C29.1012 23.2679 29.2379 23.0251 29.3659 22.777C29.383 22.744 29.4004 22.7112 29.4178 22.6784C29.5252 22.4757 29.6242 22.2694 29.7195 22.0608C29.7248 22.0492 29.7301 22.0377 29.7355 22.0258C30.1275 21.1683 30.4354 20.2731 31.0481 16.6771C31.049 16.6598 31.05 16.6426 31.0509 16.6253C31.0623 16.4262 31.0614 16.2268 31.0613 16.0275C31.0613 15.9879 31.0614 15.9484 31.0615 15.9088C31.0628 15.544 31.0512 15.1806 31.0214 14.817C31.0205 14.8066 31.0197 14.7961 31.0188 14.7854C30.9376 13.7805 30.7555 12.7859 30.2795 11.1808C30.2765 11.1718 30.2735 11.1629 30.2705 11.1538C30.1385 10.7593 29.9862 10.3718 29.8195 9.99075C29.8143 9.97889 29.8091 9.96703 29.8038 9.9548C29.6497 9.60326 29.4863 9.25372 29.3007 8.91763C29.2788 8.87779 29.2571 8.83778 29.2357 8.79763C29.157 8.64991 29.075 8.50461 28.9895 8.36075C28.9802 8.34506 28.9802 8.34506 28.9707 8.32905C28.8891 8.19159 28.8058 8.05531 28.7195 7.92075C28.7128 7.91026 28.7128 7.91026 28.7059 7.89955C28.5634 7.67693 28.416 7.45754 28.2606 7.24368C28.2418 7.21778 28.2231 7.1918 28.2046 7.16563C28.1291 7.05849 28.0493 6.95471 27.9695 6.85075C27.9599 6.83828 27.9504 6.82581 27.9409 6.81333C27.9172 6.78239 27.8934 6.75155 27.8695 6.72075C27.8653 6.71539 27.8612 6.71004 27.8569 6.70452C27.757 6.5758 27.6534 6.45015 27.5478 6.32611C27.5194 6.29261 27.4915 6.2587 27.4639 6.2245C27.4251 6.1769 27.3844 6.13147 27.3429 6.0863C27.3229 6.06448 27.3033 6.04245 27.2839 6.02013C27.2505 5.9818 27.2166 5.94404 27.1826 5.90634C27.1677 5.88983 27.1528 5.87329 27.138 5.85673C27.0131 5.71716 27.0131 5.71716 26.8818 5.58368C26.863 5.56438 26.8455 5.54471 26.828 5.5243C26.7906 5.4815 26.7513 5.44112 26.7111 5.40103C26.7038 5.39376 26.6966 5.38649 26.6891 5.379C26.6739 5.36376 26.6586 5.34852 26.6433 5.3333C26.6202 5.31019 26.5971 5.28703 26.574 5.26386C26.559 5.24895 26.5441 5.23405 26.5292 5.21915C26.5224 5.21233 26.5156 5.2055 26.5086 5.19847C26.4693 5.15933 26.4289 5.122 26.3868 5.08587C26.3632 5.06527 26.3413 5.04319 26.3195 5.02075C26.2853 4.98616 26.2504 4.95346 26.2134 4.92185C26.1798 4.8922 26.1472 4.86144 26.1145 4.83075C26.0636 4.7831 26.0125 4.73599 25.9595 4.69075C25.9493 4.682 25.9391 4.67325 25.9289 4.6645C25.9112 4.64934 25.8935 4.63419 25.8758 4.61905C25.8376 4.58639 25.7996 4.55353 25.7618 4.52054C25.6953 4.46269 25.628 4.40615 25.5595 4.35075C25.5474 4.34081 25.5352 4.33086 25.5231 4.32091C25.4473 4.25872 25.3705 4.19805 25.2923 4.13881C25.2459 4.10357 25.2003 4.06747 25.1551 4.03075C25.0873 3.97597 25.0172 3.92498 24.9463 3.87435C24.891 3.83481 24.8364 3.7943 24.782 3.75359C24.6477 3.65392 24.5075 3.56215 24.3684 3.46942C24.3415 3.45146 24.3146 3.43346 24.2877 3.41546C24.1286 3.30925 23.9674 3.20677 23.8039 3.10763C23.798 3.1041 23.7922 3.10057 23.7862 3.09694C23.5921 2.97932 23.3952 2.86705 23.195 2.75996C23.167 2.74491 23.1392 2.7296 23.1114 2.71425C22.9778 2.6407 22.8428 2.57061 22.7064 2.50263C22.696 2.49743 22.6855 2.49224 22.6748 2.48689C22.5016 2.40052 22.3273 2.31748 22.15 2.23977C22.1286 2.23036 22.1072 2.22089 22.0858 2.21142C21.8527 2.10836 21.6175 2.0118 21.3795 1.92075C21.373 1.91828 21.3665 1.9158 21.3599 1.91325C20.5427 1.60123 19.6983 1.36548 18.8395 1.20075C18.8252 1.19801 18.8252 1.19801 18.8106 1.1952C18.2675 1.09147 17.7193 1.02238 17.1682 0.978876C17.1584 0.978087 17.1487 0.977298 17.1386 0.976485C16.7822 0.9481 16.4254 0.937294 16.0679 0.938144C16.0198 0.938258 15.9716 0.93819 15.9235 0.938075C15.562 0.937347 15.2011 0.949942 14.8407 0.978251Z"
      fill="black" />
  </g>
  <defs>
    <clipPath id="clip0_3328_8806">
      <rect width="32" height="32" fill="black" />
    </clipPath>
  </defs>
</svg>