<svg width="60" height="60" viewBox="0 0 60 60" fill="none" xmlns="http://www.w3.org/2000/svg">
<path d="M38.3571 9.59329C39.5083 9.59329 40.6221 10.1284 41.45 11.0978C42.279 12.0684 42.75 13.3922 42.75 14.7793C42.75 16.1663 42.279 17.4901 41.45 18.4607C40.6221 19.4301 39.5083 19.9652 38.3571 19.9652C37.206 19.9652 36.0922 19.4301 35.2642 18.4607C34.4352 17.4901 33.9643 16.1663 33.9643 14.7793C33.9643 13.3922 34.4352 12.0684 35.2642 11.0978C36.0922 10.1284 37.206 9.59329 38.3571 9.59329ZM5.85714 17.2037H30.004C30.4596 19.3298 31.5008 21.2304 32.9766 22.6075C34.4999 24.0289 36.3969 24.8085 38.3581 24.8085C40.3192 24.8085 42.2162 24.0289 43.7395 22.6075C45.2153 21.2304 46.2566 19.3298 46.7121 17.2037H54.1429C54.7156 17.2037 55.2551 16.937 55.6462 16.4792C56.0361 16.0226 56.25 15.4106 56.25 14.7793C56.25 14.1479 56.0361 13.536 55.6462 13.0794C55.2551 12.6216 54.7156 12.3549 54.1429 12.3549H46.7121C46.2566 10.2287 45.2153 8.32811 43.7395 6.95099C42.2162 5.5296 40.3192 4.75 38.3581 4.75C36.3969 4.75 34.4999 5.5296 32.9766 6.95099C31.5008 8.32811 30.4596 10.2287 30.004 12.3549H5.85714C5.28443 12.3549 4.74486 12.6216 4.35384 13.0794C3.96387 13.536 3.75 14.1479 3.75 14.7793C3.75 15.4106 3.96387 16.0226 4.35384 16.4792C4.74486 16.937 5.28443 17.2037 5.85714 17.2037ZM18.55 41.5393C19.3779 40.5699 20.4917 40.0348 21.6429 40.0348C22.794 40.0348 23.9078 40.5699 24.7358 41.5393C25.5648 42.5099 26.0357 43.8337 26.0357 45.2207C26.0357 46.6078 25.5648 47.9316 24.7358 48.9022C23.9078 49.8716 22.794 50.4067 21.6429 50.4067C20.4917 50.4067 19.3779 49.8716 18.55 48.9022C17.721 47.9316 17.25 46.6078 17.25 45.2207C17.25 43.8337 17.721 42.5099 18.55 41.5393ZM27.0252 53.049C28.5011 51.6719 29.5423 49.7713 29.9978 47.6451H54.1429C54.7156 47.6451 55.2551 47.3784 55.6462 46.9206C56.0361 46.464 56.25 45.8521 56.25 45.2207C56.25 44.5894 56.0361 43.9774 55.6462 43.5208C55.2551 43.063 54.7156 42.7963 54.1429 42.7963H29.9978C29.5423 40.6702 28.5011 38.7696 27.0252 37.3925C25.5019 35.9711 23.605 35.1915 21.6438 35.1915C19.6826 35.1915 17.7856 35.9711 16.2624 37.3925C14.7865 38.7696 13.7453 40.6702 13.2897 42.7963H5.85714C5.28443 42.7963 4.74486 43.063 4.35384 43.5208C3.96387 43.9774 3.75 44.5894 3.75 45.2207C3.75 45.8521 3.96387 46.464 4.35384 46.9206C4.74486 47.3784 5.28443 47.6451 5.85714 47.6451H13.2897C13.7453 49.7713 14.7865 51.6719 16.2624 53.049C17.7856 54.4704 19.6826 55.25 21.6438 55.25C23.605 55.25 25.5019 54.4704 27.0252 53.049Z" fill="white" stroke="white" stroke-width="0.5"/>
</svg>
