<svg width="60" height="60" viewBox="0 0 60 60" fill="none" xmlns="http://www.w3.org/2000/svg">
<path d="M43.1335 49.7935C47.769 46.7225 51.18 42.1224 52.7722 36.7948C54.3644 31.4672 54.0368 25.7498 51.8465 20.6389C49.6562 15.528 45.7421 11.3476 40.7862 8.82625C35.8303 6.30485 30.1467 5.60228 24.726 6.84096M43.136 42.501V49.791L51.251 49.7935M16.806 10.251C12.1839 13.3325 8.78821 17.9367 7.2096 23.2629C5.63099 28.589 5.96934 34.3 8.1658 39.4025C10.3623 44.505 14.2778 48.6761 19.2315 51.1903C24.1851 53.7045 29.8633 54.4027 35.2785 53.1635M16.806 10.251V17.501M16.806 10.251H8.75101" stroke="white" stroke-width="4.5" stroke-linecap="round" stroke-linejoin="round"/>
<path d="M31.25 17.5L22.5 30H37.5L28.75 42.5" stroke="white" stroke-width="4.5" stroke-linecap="round" stroke-linejoin="round"/>
</svg>
