<svg width="60" height="60" viewBox="0 0 60 60" fill="none" xmlns="http://www.w3.org/2000/svg">
<path d="M41.6316 10C40.9755 10 40.3463 9.73661 39.8824 9.26777C39.4185 8.79893 39.1579 8.16304 39.1579 7.5C39.1579 6.83696 39.4185 6.20107 39.8824 5.73223C40.3463 5.26339 40.9755 5 41.6316 5H51.5263C52.1824 5 52.8116 5.26339 53.2755 5.73223C53.7394 6.20107 54 6.83696 54 7.5V17.5C54 18.163 53.7394 18.7989 53.2755 19.2678C52.8116 19.7366 52.1824 20 51.5263 20C50.8703 20 50.2411 19.7366 49.7772 19.2678C49.3132 18.7989 49.0526 18.163 49.0526 17.5V13.535L34.7226 28.0175C34.2587 28.4862 33.6296 28.7495 32.9737 28.7495C32.3178 28.7495 31.6887 28.4862 31.2248 28.0175L24.3158 21.035L11.2226 34.2675C10.756 34.7229 10.1312 34.9749 9.48259 34.9692C8.83399 34.9635 8.21356 34.7006 7.75492 34.237C7.29628 33.7735 7.03613 33.1465 7.03049 32.491C7.02485 31.8355 7.27419 31.204 7.72479 30.7325L22.5669 15.7325C23.0308 15.2638 23.6599 15.0005 24.3158 15.0005C24.9717 15.0005 25.6008 15.2638 26.0647 15.7325L32.9737 22.715L45.5548 10H41.6316ZM11.9474 45V52.5C11.9474 53.163 11.6867 53.7989 11.2228 54.2678C10.7589 54.7366 10.1297 55 9.47368 55C8.81762 55 8.18843 54.7366 7.72453 54.2678C7.26062 53.7989 7 53.163 7 52.5V45C7 44.337 7.26062 43.7011 7.72453 43.2322C8.18843 42.7634 8.81762 42.5 9.47368 42.5C10.1297 42.5 10.7589 42.7634 11.2228 43.2322C11.6867 43.7011 11.9474 44.337 11.9474 45ZM24.3158 35C24.3158 34.337 24.0552 33.7011 23.5913 33.2322C23.1274 32.7634 22.4982 32.5 21.8421 32.5C21.186 32.5 20.5569 32.7634 20.0929 33.2322C19.629 33.7011 19.3684 34.337 19.3684 35V52.5C19.3684 53.163 19.629 53.7989 20.0929 54.2678C20.5569 54.7366 21.186 55 21.8421 55C22.4982 55 23.1274 54.7366 23.5913 54.2678C24.0552 53.7989 24.3158 53.163 24.3158 52.5V35ZM34.2105 37.5C34.8666 37.5 35.4958 37.7634 35.9597 38.2322C36.4236 38.7011 36.6842 39.337 36.6842 40V52.5C36.6842 53.163 36.4236 53.7989 35.9597 54.2678C35.4958 54.7366 34.8666 55 34.2105 55C33.5545 55 32.9253 54.7366 32.4614 54.2678C31.9975 53.7989 31.7368 53.163 31.7368 52.5V40C31.7368 39.337 31.9975 38.7011 32.4614 38.2322C32.9253 37.7634 33.5545 37.5 34.2105 37.5ZM49.0526 27.5C49.0526 26.837 48.792 26.2011 48.3281 25.7322C47.8642 25.2634 47.235 25 46.5789 25C45.9229 25 45.2937 25.2634 44.8298 25.7322C44.3659 26.2011 44.1053 26.837 44.1053 27.5V52.5C44.1053 53.163 44.3659 53.7989 44.8298 54.2678C45.2937 54.7366 45.9229 55 46.5789 55C47.235 55 47.8642 54.7366 48.3281 54.2678C48.792 53.7989 49.0526 53.163 49.0526 52.5V27.5Z" fill="white"/>
</svg>
