<svg width="126" height="70" viewBox="0 0 126 70" fill="none" xmlns="http://www.w3.org/2000/svg">
<g clip-path="url(#clip0_5060_8051)">
<path d="M38.1253 62.914C37.1726 62.3742 36.7342 61.3342 36.3042 60.318L30.2424 45.3848L30.1918 45.2578H27.2326L28.2695 47.8141L22.7895 61.4215C21.9379 62.9775 20.9515 63.0569 20.9094 63.0648L20.707 63.0728V63.8508H26.4148V63.049L26.1956 63.0569C26.1871 63.0569 24.3745 63.1363 24.0288 61.9851C23.9192 61.612 23.9445 61.1595 24.1047 60.6593L25.5885 56.9518H31.9876L33.522 60.7626C33.6147 60.9769 33.6653 61.1595 33.6907 61.3659C33.775 61.8978 33.6822 62.3107 33.404 62.5964C32.9318 63.0887 32.055 63.0569 32.055 63.0569L31.8358 63.049V63.8508H38.7576V63.0966L38.4541 63.041C38.3529 63.0172 38.2434 62.9775 38.1253 62.914ZM25.9511 56.0627L28.7754 49.0526L31.3806 55.4594L31.6166 56.0627H25.9511Z" fill="white"/>
<path d="M107.27 62.8944C106.318 62.3546 105.879 61.3146 105.449 60.2984L99.3878 45.3653L99.3366 45.2383H96.3689L97.4063 47.7946L91.9263 61.402C91.0743 62.958 90.0798 63.0374 90.0459 63.0374L89.8438 63.0453V63.8233H95.5515V63.0215L95.3321 63.0294C95.3238 63.0294 93.5112 63.1088 93.1652 61.9577C93.0558 61.5845 93.0814 61.132 93.2413 60.6319L94.7251 56.9244H101.124L102.659 60.735C102.751 60.9494 102.802 61.132 102.828 61.3384C102.911 61.8704 102.819 62.2831 102.54 62.569C102.068 63.0611 101.191 63.0294 101.191 63.0294L100.973 63.0215V63.8233H107.894V63.0691L107.591 63.0135C107.49 62.9977 107.38 62.958 107.27 62.8944ZM95.0878 56.0432L97.9122 49.0331L100.517 55.4398L100.753 56.0432H95.0878Z" fill="white"/>
<path d="M49.7953 45.2051H41.9883V45.9593L42.2075 45.9434C42.2244 45.9434 43.8178 45.9037 44.1719 47.0946C44.214 47.2454 44.2478 47.4042 44.2478 47.5392C44.2478 52.1993 44.2478 56.8674 44.2478 61.5275C45.1751 62.2897 46.111 63.0439 47.0384 63.806V56.4307H49.3737C49.4749 56.4149 52.6871 56.4625 54.7527 54.5413C55.8571 53.5251 56.422 52.1199 56.422 50.4051C56.4304 45.5465 50.9166 45.213 49.7953 45.2051ZM53.4038 51.0084C53.4038 55.4225 49.8122 55.5416 49.3991 55.5416H47.0468V47.6265C47.0468 47.4995 47.0468 47.4201 47.0805 47.3169C47.2745 46.0228 48.8088 46.0228 49.3147 46.0466H49.3906C50.5119 46.0466 51.4309 46.3642 52.0969 46.9913C52.9653 47.8249 53.429 49.1904 53.4121 50.945V51.0084H53.4038Z" fill="white"/>
<path d="M65.2331 61.9104C65.1909 61.7675 65.1909 61.6008 65.1909 61.4658C65.1736 56.8057 65.1653 52.1455 65.1486 47.4933C64.2129 46.7312 63.2853 45.977 62.3495 45.2148V50.8197C62.3495 54.3685 62.3663 57.9171 62.3663 61.4658C62.3663 61.6088 62.3326 61.7755 62.3241 61.9104C61.9532 63.1092 60.4019 63.0615 60.326 63.0615L60.1152 63.0457V63.7999H67.4333V63.0457L67.2139 63.0615C67.2139 63.0695 65.5868 63.1251 65.2331 61.9104Z" fill="white"/>
<path d="M71.1016 50.9944H72.1639V50.7959C72.1639 47.5806 73.2602 46.0882 75.6209 46.0882H77.509C77.509 51.2326 77.509 56.377 77.509 61.5214C78.4454 62.2835 79.3728 63.0378 80.2996 63.7999V46.0961H82.1633C84.5241 46.0961 85.6197 47.5886 85.6197 50.8039V51.0024H86.6821V45.2148H71.1016V50.9944Z" fill="white"/>
<path d="M124.947 57.9227V58.1212C124.947 61.3364 123.843 62.8369 121.474 62.8369H118.649C118.219 62.8527 116.828 62.8051 116.642 61.6222C116.625 61.5825 116.625 61.4793 116.625 61.4158C116.625 56.7398 116.625 52.0716 116.625 47.3957C115.698 46.6335 114.762 45.8793 113.835 45.1172V61.3999C113.734 63.0274 111.853 62.9718 111.769 62.9877L111.559 62.9718V63.7261H126.001V57.9227H124.947Z" fill="white"/>
<path d="M16.0988 57.2483H14.969L14.9607 57.4388C14.9607 57.4706 14.8089 60.6541 13.0553 62.0513C12.7349 62.3054 12.347 62.488 11.9677 62.6706L11.8665 62.7182C11.4534 62.8929 11.0066 63.0357 10.5512 63.1549C9.64072 63.3613 8.78923 63.3533 8.01359 63.131C7.38122 62.9564 6.79107 62.6467 6.20935 62.1783C5.77094 61.829 5.36626 61.3527 4.93629 60.6859C4.59905 60.1222 4.31239 59.5268 4.08476 58.9472C4.0679 58.8837 4.04261 58.8282 4.01731 58.7725C4.00045 58.7408 3.98359 58.7091 3.97516 58.6535C3.3597 56.9069 3.1405 55.0651 3.32598 53.1836C3.86556 47.4596 6.63092 46.1894 7.4487 45.9433C8.94094 45.586 10.4417 45.7289 11.7484 46.3243C12.659 46.7134 13.3587 47.2611 13.8309 47.9518C13.9573 48.1424 14.0838 48.3328 14.185 48.5234C14.4295 48.9918 14.6234 49.5396 14.7752 50.2065C14.8258 50.5478 14.8763 50.8972 14.9101 51.2226V51.4926H15.9892L15.9639 48.6584L16.0482 45.2208H15.0534L15.045 45.4113C15.0281 45.84 14.8847 46.5863 14.5644 46.753C14.5222 46.7768 14.4042 46.8404 14.1007 46.6737C14.0585 46.6657 14.0164 46.634 13.9573 46.5863C12.4988 45.451 10.8126 44.8477 9.06745 44.8477H8.56159C8.4773 44.8477 0.0800781 45.1176 0.0800781 54.8507C0.0800781 59.1695 2.41544 64.2107 8.98315 64.2107H9.06745C10.8379 64.2107 12.6084 63.5836 14.0585 62.4483C14.3115 62.2657 14.5138 62.2022 14.6571 62.2657C14.9859 62.4086 15.1377 63.1707 15.1545 63.6233L15.163 63.8138H16.1579L16.1073 60.3842V57.2483H16.0988Z" fill="white"/>
<path d="M51.5039 23.069C54.1259 23.069 56.7479 23.069 59.3699 23.069C59.2434 22.7673 59.1254 22.4656 58.9989 22.1719H51.8748C51.7568 22.4656 51.6304 22.7673 51.5039 23.069Z" fill="white"/>
<path d="M85.2642 35.2399C84.5561 34.8351 83.9492 34.2634 83.4516 33.6363C82.5408 32.501 82.2459 31.6119 82.2459 31.6119C81.8244 30.5719 79.7675 25.8482 76.6559 18.7349C78.3764 15.5831 80.079 12.4314 81.7988 9.27963C83.1394 6.83444 84.3956 5.38161 85.8967 5.11963C85.9639 5.11169 86.04 5.10375 86.1155 5.10375C86.1833 5.10375 86.2421 5.09581 86.3009 5.09581C86.3009 4.81001 86.3009 4.52421 86.3009 4.23047C86.166 4.23047 86.031 4.23047 85.8967 4.23841H78.6456V5.12757C78.8817 5.13551 79.101 5.15138 79.337 5.15932C80.1634 5.27047 80.7454 5.49276 81.0908 5.88971C81.0908 5.88971 81.4535 6.31047 81.4451 6.97734C81.4362 7.69978 79.0671 12.2805 76.1755 17.6631C74.4723 13.7731 72.4915 9.23993 70.3079 4.24635H65.3082C65.6114 4.9291 65.9152 5.61184 66.21 6.27871C66.5055 6.93765 66.7921 7.59658 67.0869 8.25551C69.2199 13.0745 71.3025 17.9013 73.4189 22.7202C73.3261 22.8949 73.2251 23.0696 73.1323 23.2442C71.5724 26.0625 70.038 28.8173 68.7646 31.1117C66.345 25.0384 64.5241 20.6323 63.0993 17.163C61.8431 14.0668 60.0557 9.67657 57.8553 4.25429H52.822C53.4796 5.85795 54.1372 7.46161 54.7948 9.06527L50.3264 20.4973L45.7906 32.1834C44.0876 35.4225 41.9883 35.5178 41.9883 35.5178V36.2799H51.7344V35.5178C51.7344 35.5178 48.0838 35.7083 47.3503 33.1917C47.1564 32.4693 47.1564 31.5801 47.5021 30.4369L49.6941 24.7685C50.2506 23.3474 50.7986 21.9184 51.3466 20.4973L55.3091 10.3276C56.7002 13.7175 58.0829 17.0995 59.4739 20.4973L60.1316 22.1566C60.2665 22.4741 60.4098 22.7917 60.5447 23.1093L61.1939 24.7685C62.7536 28.6109 64.3047 32.4375 65.8563 36.272L67.1291 36.2641C67.4918 35.5892 67.8544 34.9144 68.2254 34.2396C68.5624 33.6204 68.9085 32.9932 69.2455 32.366C69.2455 32.3581 69.2538 32.3581 69.2538 32.3422C70.7121 29.6747 72.1538 27.0073 73.6127 24.3318C73.7054 24.1572 73.7982 23.9905 73.8909 23.8158C74.945 26.2213 76.0156 28.6188 77.0946 31.0164C77.1452 31.1276 77.2884 31.5722 77.3978 32.1676C77.6511 33.5966 77.1113 34.4381 76.4032 34.9065C75.3575 35.621 73.8826 35.5575 73.8826 35.5575V36.272H86.3009V35.5575L85.9978 35.5257C85.7618 35.4622 85.5085 35.367 85.2642 35.2399Z" fill="white"/>
<path d="M41.9824 22.1719H0.0722656V23.061H41.9824V22.1719Z" fill="white"/>
<path d="M126.002 22.1719H86.3086V23.061H126.002V22.1719Z" fill="white"/>
</g>
<defs>
<clipPath id="clip0_5060_8051">
<rect width="126" height="70" fill="white"/>
</clipPath>
</defs>
</svg>
