<svg width="20" height="20" viewBox="0 0 20 20" fill="none" xmlns="http://www.w3.org/2000/svg">
<path d="M5.10176 0.89895C6.19033 1.69228 7.03795 2.77514 7.76176 3.81133L8.18271 4.42466L8.57986 5.01038C8.77851 5.3006 8.86345 5.65376 8.81848 6.00257C8.77352 6.35137 8.6018 6.67145 8.33605 6.90181L6.47795 8.28181C6.38818 8.34663 6.32499 8.44183 6.30012 8.54973C6.27525 8.65763 6.29038 8.77089 6.34271 8.86847C6.76367 9.63323 7.51224 10.7723 8.36938 11.6294C9.22652 12.4866 10.4199 13.2847 11.238 13.7532C11.3405 13.8108 11.4613 13.8269 11.5753 13.7982C11.6894 13.7695 11.7882 13.6982 11.8513 13.5989L13.0608 11.758C13.2832 11.4626 13.6112 11.2647 13.9762 11.2058C14.3412 11.1469 14.7149 11.2314 15.0189 11.4418L15.6503 11.879C16.8303 12.698 18.098 13.6285 19.0675 14.8694C19.2212 15.0673 19.319 15.3029 19.3507 15.5515C19.3824 15.8001 19.3467 16.0526 19.2475 16.2828C18.4503 18.1428 16.4332 19.7266 14.3351 19.6494L14.0494 19.6332L13.8275 19.6142L13.5818 19.5856L13.3141 19.5494L13.0237 19.5018L12.8713 19.4732L12.5513 19.4047L12.3837 19.3666L12.0351 19.277L11.6684 19.1723L11.2856 19.0485C9.52748 18.4523 7.29605 17.2809 5.00652 14.9913C2.717 12.7018 1.54652 10.4713 0.950333 8.71323L0.826524 8.33038L0.721762 7.96371L0.632238 7.61514L0.557953 7.28562C0.536522 7.18241 0.51652 7.0789 0.497953 6.97514L0.450334 6.68466L0.412238 6.41705L0.384619 6.17133L0.365572 5.94943L0.350334 5.66371C0.273191 3.57228 1.87414 1.54085 3.72557 0.747521C3.94841 0.651299 4.19243 0.614665 4.4337 0.641212C4.67496 0.66776 4.90518 0.756577 5.10176 0.89895ZM12.8494 4.32276L12.9599 4.33514C13.6531 4.45742 14.2898 4.79604 14.7788 5.30245C15.2678 5.80887 15.5839 6.45708 15.6818 7.15419C15.7167 7.39531 15.6578 7.64064 15.5174 7.83972C15.3769 8.03879 15.1655 8.17646 14.9266 8.2244C14.6878 8.27235 14.4396 8.22692 14.2332 8.09747C14.0268 7.96802 13.8778 7.76439 13.817 7.52847L13.7951 7.41895C13.7568 7.14571 13.6402 6.88942 13.4593 6.68103C13.2785 6.47264 13.0412 6.32108 12.776 6.24466L12.6284 6.21133C12.3893 6.16894 12.1754 6.03679 12.0304 5.84191C11.8855 5.64702 11.8205 5.40412 11.8487 5.1629C11.8769 4.92167 11.9963 4.70034 12.1823 4.54417C12.3683 4.388 12.6069 4.3088 12.8494 4.32276ZM12.857 1.42752C14.3725 1.42752 15.826 2.02956 16.8976 3.1012C17.9692 4.17283 18.5713 5.62628 18.5713 7.14181C18.571 7.38455 18.4781 7.61803 18.3114 7.79454C18.1448 7.97105 17.917 8.07727 17.6747 8.0915C17.4324 8.10572 17.1938 8.02688 17.0076 7.87108C16.8215 7.71528 16.7019 7.49428 16.6732 7.25323L16.6665 7.14181C16.6664 6.17472 16.2985 5.24387 15.6374 4.53803C14.9763 3.83219 14.0715 3.4042 13.1065 3.34085L12.857 3.33228C12.6044 3.33228 12.3622 3.23194 12.1836 3.05334C12.005 2.87473 11.9046 2.63249 11.9046 2.3799C11.9046 2.12731 12.005 1.88507 12.1836 1.70647C12.3622 1.52786 12.6044 1.42752 12.857 1.42752Z" fill="white"/>
</svg>
