<svg width="28" height="28" viewBox="0 0 28 28" fill="none" xmlns="http://www.w3.org/2000/svg">
<path d="M10.5701 7.63161C11.3321 8.18694 11.9254 8.94494 12.4321 9.67028L12.7267 10.0996L13.0047 10.5096C13.1438 10.7128 13.2032 10.96 13.1718 11.2041C13.1403 11.4483 13.0201 11.6724 12.8341 11.8336L11.5334 12.7996C11.4706 12.845 11.4263 12.9116 11.4089 12.9872C11.3915 13.0627 11.4021 13.142 11.4387 13.2103C11.7334 13.7456 12.2574 14.5429 12.8574 15.1429C13.4574 15.7429 14.2927 16.3016 14.8654 16.6296C14.9372 16.6699 15.0217 16.6812 15.1016 16.6611C15.1814 16.641 15.2505 16.5911 15.2947 16.5216L16.1414 15.2329C16.2971 15.0262 16.5267 14.8877 16.7822 14.8464C17.0377 14.8051 17.2992 14.8643 17.5121 15.0116L17.9541 15.3176C18.7801 15.8909 19.6674 16.5423 20.3461 17.4109C20.4537 17.5495 20.5222 17.7144 20.5443 17.8884C20.5665 18.0624 20.5415 18.2392 20.4721 18.4003C19.9141 19.7023 18.5021 20.8109 17.0334 20.7569L16.8334 20.7456L16.6781 20.7323L16.5061 20.7123L16.3187 20.6869L16.1154 20.6536L16.0087 20.6336L15.7847 20.5856L15.6674 20.5589L15.4234 20.4963L15.1667 20.4229L14.8987 20.3363C13.6681 19.9189 12.1061 19.0989 10.5034 17.4963C8.90073 15.8936 8.08139 14.3323 7.66406 13.1016L7.57739 12.8336L7.50406 12.5769L7.44139 12.3329L7.38939 12.1023C7.37439 12.03 7.36039 11.9576 7.34739 11.8849L7.31406 11.6816L7.28739 11.4943L7.26806 11.3223L7.25473 11.1669L7.24406 10.9669C7.19006 9.50294 8.31073 8.08094 9.60673 7.52561C9.76271 7.45825 9.93353 7.43261 10.1024 7.45119C10.2713 7.46978 10.4325 7.53195 10.5701 7.63161ZM15.9934 10.0283L16.0707 10.0369C16.556 10.1225 17.0017 10.3596 17.344 10.7141C17.6863 11.0686 17.9075 11.5223 17.9761 12.0103C18.0005 12.1791 17.9593 12.3508 17.861 12.4901C17.7627 12.6295 17.6147 12.7259 17.4475 12.7594C17.2803 12.793 17.1065 12.7612 16.9621 12.6706C16.8176 12.58 16.7133 12.4374 16.6707 12.2723L16.6554 12.1956C16.6286 12.0043 16.5469 11.8249 16.4204 11.6791C16.2938 11.5332 16.1276 11.4271 15.9421 11.3736L15.8387 11.3503C15.6713 11.3206 15.5216 11.2281 15.4201 11.0917C15.3187 10.9553 15.2732 10.7852 15.2929 10.6164C15.3127 10.4475 15.3962 10.2926 15.5264 10.1833C15.6566 10.0739 15.8237 10.0185 15.9934 10.0283ZM15.9987 8.00161C17.0596 8.00161 18.077 8.42304 18.8272 9.17318C19.5773 9.92333 19.9987 10.9407 19.9987 12.0016C19.9985 12.1715 19.9335 12.335 19.8168 12.4585C19.7002 12.5821 19.5408 12.6564 19.3711 12.6664C19.2015 12.6763 19.0345 12.6212 18.9042 12.5121C18.7739 12.403 18.6901 12.2483 18.6701 12.0796L18.6654 12.0016C18.6653 11.3246 18.4078 10.6731 17.945 10.179C17.4823 9.68488 16.8489 9.38528 16.1734 9.34094L15.9987 9.33494C15.8219 9.33494 15.6523 9.2647 15.5273 9.13968C15.4023 9.01466 15.3321 8.84509 15.3321 8.66828C15.3321 8.49146 15.4023 8.32189 15.5273 8.19687C15.6523 8.07185 15.8219 8.00161 15.9987 8.00161Z" fill="black"/>
<path d="M0.469498 13.9668L0.469683 13.958L0.469541 13.9493C0.350833 6.64277 6.64355 0.426865 14.0686 0.466859C21.3115 0.505767 27.5658 6.59638 27.5332 14.068C27.5016 21.4013 21.3097 27.5918 13.8798 27.5329C6.51073 27.4718 0.315048 21.2703 0.469498 13.9668Z" stroke="black" stroke-width="0.933333"/>
</svg>
