<svg width="29" height="29" viewBox="0 0 29 29" fill="none" xmlns="http://www.w3.org/2000/svg">
<path d="M0.531998 14.1386L0.532183 14.1299L0.532041 14.1212C0.413333 6.81464 6.70605 0.59874 14.1311 0.638734C21.374 0.677642 27.6283 6.76825 27.5957 14.2399C27.5641 21.5732 21.3722 27.7637 13.9423 27.7048C6.57323 27.6437 0.377548 21.4422 0.531998 14.1386Z" stroke="black" stroke-width="0.933333"/>
<path d="M12.5209 20.2986C12.6411 20.1864 12.7628 20.0754 12.8846 19.9644C13.2194 19.6591 13.5543 19.3538 13.8587 19.021C14.1855 18.6663 14.4274 18.7207 14.7739 18.9862C15.7239 19.7153 16.6935 20.4183 17.6653 21.117M12.5209 20.2986L12.4612 20.2348C12.463 20.2166 12.4647 20.1946 12.4656 20.1713C12.4662 20.153 12.4665 20.1301 12.4651 20.1041C12.4759 19.9639 12.4867 19.8245 12.4975 19.6856M12.5209 20.2986C12.5053 20.3131 12.4896 20.3285 12.4736 20.3442C12.3693 20.4464 12.2531 20.5603 12.1058 20.5065M12.5209 20.2986L12.4612 20.2348C12.4604 20.2437 12.4596 20.2517 12.4588 20.2585C12.4578 20.2682 12.457 20.2755 12.4563 20.2816C12.4551 20.292 12.4543 20.2989 12.4535 20.3079C12.4529 20.3147 12.4527 20.3185 12.4526 20.3199C12.4526 20.3208 12.4526 20.3207 12.4526 20.3198V20.3197C12.4526 20.3174 12.4527 20.2656 12.4169 20.2018C12.4035 20.1778 12.3868 20.1554 12.3676 20.1357L12.2486 20.1265L12.1058 20.5065M12.4975 19.6856C12.5265 19.6591 12.5554 19.6328 12.5842 19.6066C12.9135 19.3063 13.2253 19.0221 13.5144 18.7061L13.5155 18.7048C13.7194 18.4835 13.9801 18.2987 14.3168 18.3044C14.623 18.3096 14.8746 18.4754 15.0577 18.6158L15.058 18.616C16.0017 19.3403 16.9661 20.0396 17.9372 20.7378M12.4975 19.6856C12.513 19.4863 12.5285 19.2882 12.5439 19.0911C12.587 18.5403 12.6295 17.9969 12.6703 17.4541L12.6703 17.4541C12.6754 17.3858 12.7 17.3331 12.7741 17.257C12.8156 17.2144 12.8663 17.1712 12.9346 17.1157C12.9448 17.1075 12.9555 17.0988 12.9668 17.0897C13.0242 17.0434 13.0943 16.9868 13.159 16.928C14.998 15.267 16.8374 13.6038 18.6771 11.9385C18.799 11.8403 18.9099 11.7292 19.0078 11.607L19.0187 11.5934L19.0286 11.579C19.1109 11.4589 19.2833 11.1556 19.0984 10.8454C19.0108 10.6984 18.8789 10.6232 18.7756 10.5859C18.6735 10.5491 18.5701 10.5379 18.4825 10.5363C18.2636 10.5322 18.0834 10.5992 17.9462 10.6699C17.8539 10.7174 17.7534 10.7833 17.6848 10.8282C17.6646 10.8414 17.6472 10.8528 17.6336 10.8614C17.3776 11.0221 17.1215 11.1829 16.8652 11.3438C14.7095 12.6969 12.5482 14.0535 10.4043 15.4241L10.3938 15.4308L10.3837 15.438C10.3027 15.4962 10.2082 15.533 10.1091 15.545C10.01 15.5571 9.90946 15.5439 9.8168 15.5069L9.80468 15.502L9.7923 15.4979C9.26294 15.3199 8.71455 15.1529 8.17375 14.9882C7.80478 14.8758 7.43936 14.7645 7.08592 14.6516C7.04353 14.6378 7.00218 14.6264 6.9672 14.617C6.9505 14.6125 6.93664 14.6089 6.92385 14.6055C6.90811 14.6014 6.89399 14.5977 6.87819 14.5934C6.88577 14.5899 6.89392 14.5862 6.90267 14.5824C6.94237 14.5651 6.97942 14.5509 7.025 14.5335C7.04452 14.526 7.0656 14.518 7.08911 14.5088C8.91452 13.7988 10.741 13.0916 12.5686 12.3874M12.4975 19.6856C12.4006 19.7741 12.3021 19.8644 12.2024 19.9575C12.1831 19.9755 12.1646 19.9936 12.1499 20.008L12.1479 20.01C12.133 20.0246 12.1214 20.0359 12.1099 20.0468C12.0851 20.0703 12.0742 20.0785 12.0713 20.0805C12.0688 20.0821 12.089 20.0675 12.1284 20.0591C12.1489 20.0547 12.1727 20.0525 12.1983 20.0542C12.2186 20.0555 12.237 20.0591 12.2532 20.0639L11.9968 20.1071M17.9372 20.7378L17.6653 21.117M17.9372 20.7378C17.9374 20.7379 17.9375 20.738 17.9377 20.7381L17.6653 21.117M17.9372 20.7378C18.0672 20.831 18.1645 20.8751 18.2297 20.8928C18.2895 20.909 18.3112 20.9006 18.3129 20.9L18.313 20.9L18.313 20.8999C18.3149 20.8993 18.3379 20.8911 18.3745 20.8384C18.414 20.7815 18.4608 20.6839 18.5013 20.5285M17.6653 21.117C18.3026 21.5741 18.7547 21.4065 18.953 20.6458M18.953 20.6458L18.5013 20.5285M18.953 20.6458C19.0383 20.3173 19.107 19.985 19.1758 19.6523C19.2098 19.4879 19.2438 19.3234 19.2799 19.1592M18.953 20.6458L18.5014 20.5281C18.5014 20.5282 18.5014 20.5283 18.5013 20.5285M18.5013 20.5285C18.5838 20.2109 18.6483 19.8986 18.7156 19.5732C18.75 19.4066 18.7851 19.2367 18.8237 19.0608M19.2799 19.1592L18.8233 19.0625C18.8235 19.0619 18.8236 19.0614 18.8237 19.0608M19.2799 19.1592C19.9335 16.0752 20.5872 12.9918 21.2409 9.90919M19.2799 19.1592L18.824 19.0592C18.8239 19.0597 18.8238 19.0602 18.8237 19.0608M18.8237 19.0608C19.4772 15.9775 20.1307 12.895 20.7842 9.81321M21.2409 9.90919L20.7842 9.81321M21.2409 9.90919C21.4206 9.05383 21.0012 8.69254 20.1732 8.96351C20.0825 8.99289 19.9936 9.02779 19.9048 9.06268C19.8752 9.07431 19.8455 9.08594 19.8159 9.09736C17.3464 10.0485 14.8748 11 12.401 11.9518M21.2409 9.90919L20.7844 9.81239C20.7843 9.81266 20.7843 9.81294 20.7842 9.81321M20.7842 9.81321C20.8211 9.63775 20.8202 9.51832 20.807 9.44513C20.8007 9.40996 20.7922 9.38924 20.7867 9.37852C20.7814 9.36853 20.7778 9.36532 20.7769 9.36451C20.7759 9.36365 20.7717 9.35999 20.7598 9.35557C20.7471 9.35087 20.724 9.34473 20.6868 9.34251C20.6096 9.3379 20.4888 9.35126 20.3184 9.40703L20.317 9.40746C20.2409 9.43212 20.1704 9.45979 20.0861 9.49289C20.0543 9.50539 20.0204 9.51866 19.9836 9.53284M19.9836 9.53284L19.8159 9.09738L19.9835 9.53288C19.9835 9.53287 19.9836 9.53286 19.9836 9.53284ZM19.9836 9.53284C17.5141 10.484 15.0424 11.4355 12.5686 12.3874M12.5686 12.3874C12.5687 12.3873 12.5687 12.3873 12.5688 12.3873L12.401 11.9518M12.5686 12.3874L12.401 11.9518M12.401 11.9518L18.3745 11.5829C16.5311 13.2515 14.6881 14.918 12.8455 16.5823C12.792 16.631 12.7346 16.6773 12.677 16.7239C12.4554 16.9028 12.23 17.0849 12.2049 17.4191C12.1642 17.9615 12.1218 18.5034 12.0788 19.0535C12.0516 19.4007 12.0242 19.7512 11.9968 20.1071M11.9968 20.1071L12.2446 20.1262L12.1058 20.5065M11.9968 20.1071C12.0024 20.1405 11.9979 20.1815 11.993 20.2248C11.981 20.3327 11.9674 20.4545 12.1058 20.5065" fill="black" stroke="black" stroke-width="0.933333"/>
</svg>
