          <svg width="28" height="28" viewBox="0 0 28 28" fill="none" xmlns="http://www.w3.org/2000/svg">
            <path
              d="M0.469498 13.9687L0.469683 13.96L0.469541 13.9513C0.350833 6.64472 6.64355 0.428818 14.0686 0.468812C21.3115 0.50772 27.5658 6.59833 27.5332 14.07C27.5016 21.4033 21.3097 27.5938 13.8798 27.5349C6.51073 27.4737 0.315048 21.2723 0.469498 13.9687Z"
              stroke="white" stroke-width="0.933333" />
            <path
              d="M12.4584 20.1365C12.5786 20.0242 12.7003 19.9133 12.8221 19.8023C13.1569 19.497 13.4918 19.1917 13.7962 18.8589C14.123 18.5042 14.3649 18.5586 14.7114 18.8241C15.6614 19.5532 16.631 20.2562 17.6028 20.9549M12.4584 20.1365L12.3987 20.0727C12.4005 20.0545 12.4022 20.0324 12.4031 20.0091C12.4037 19.9908 12.404 19.968 12.4026 19.942C12.4134 19.8018 12.4242 19.6624 12.435 19.5235M12.4584 20.1365C12.4428 20.151 12.4271 20.1664 12.4111 20.1821C12.3068 20.2843 12.1906 20.3982 12.0433 20.3444M12.4584 20.1365L12.3987 20.0727C12.3979 20.0816 12.3971 20.0896 12.3963 20.0964C12.3953 20.106 12.3945 20.1134 12.3938 20.1195C12.3926 20.1299 12.3918 20.1368 12.391 20.1458C12.3904 20.1526 12.3902 20.1563 12.3901 20.1577C12.3901 20.1587 12.3901 20.1586 12.3901 20.1577V20.1576C12.3901 20.1553 12.3902 20.1035 12.3544 20.0397C12.341 20.0156 12.3243 19.9933 12.3051 19.9735L12.1861 19.9644L12.0433 20.3444M12.435 19.5235C12.464 19.497 12.4929 19.4707 12.5217 19.4445C12.851 19.1442 13.1628 18.8599 13.4519 18.544L13.453 18.5427C13.6569 18.3214 13.9176 18.1366 14.2543 18.1423C14.5605 18.1475 14.8121 18.3133 14.9952 18.4537L14.9955 18.4539C15.9392 19.1782 16.9036 19.8774 17.8747 20.5757M12.435 19.5235C12.4505 19.3242 12.466 19.1261 12.4814 18.929C12.5245 18.3782 12.567 17.8348 12.6078 17.292L12.6078 17.292C12.6129 17.2237 12.6375 17.1709 12.7116 17.0949C12.7531 17.0523 12.8038 17.0091 12.8721 16.9536C12.8823 16.9454 12.893 16.9367 12.9043 16.9276C12.9617 16.8813 13.0318 16.8247 13.0965 16.7659C14.9355 15.1049 16.7749 13.4417 18.6146 11.7764C18.7365 11.6782 18.8474 11.5671 18.9453 11.4449L18.9562 11.4313L18.9661 11.4169C19.0484 11.2968 19.2208 10.9935 19.0359 10.6833C18.9483 10.5363 18.8164 10.4611 18.7131 10.4238C18.611 10.387 18.5076 10.3758 18.42 10.3742C18.2011 10.3701 18.0209 10.4371 17.8837 10.5078C17.7914 10.5553 17.6909 10.6212 17.6223 10.6661C17.6021 10.6793 17.5847 10.6907 17.5711 10.6993C17.3151 10.86 17.059 11.0208 16.8027 11.1817C14.647 12.5348 12.4857 13.8914 10.3418 15.262L10.3313 15.2687L10.3212 15.2759C10.2402 15.3341 10.1457 15.3709 10.0466 15.3829C9.94751 15.3949 9.84696 15.3818 9.7543 15.3448L9.74218 15.3399L9.7298 15.3358C9.20044 15.1578 8.65205 14.9908 8.11125 14.8261C7.74228 14.7137 7.37686 14.6024 7.02342 14.4895C6.98103 14.4757 6.93968 14.4643 6.9047 14.4549C6.888 14.4504 6.87414 14.4468 6.86135 14.4434C6.84561 14.4393 6.83149 14.4356 6.81569 14.4313C6.82327 14.4278 6.83142 14.4241 6.84017 14.4203C6.87987 14.403 6.91692 14.3888 6.9625 14.3714C6.98202 14.3639 7.0031 14.3559 7.02661 14.3467C8.85202 13.6367 10.6785 12.9295 12.5061 12.2252M12.435 19.5235C12.3381 19.612 12.2396 19.7023 12.1399 19.7954C12.1206 19.8134 12.1021 19.8315 12.0874 19.8459L12.0854 19.8479C12.0705 19.8625 12.0589 19.8738 12.0474 19.8847C12.0226 19.9082 12.0117 19.9164 12.0088 19.9184C12.0063 19.92 12.0265 19.9054 12.0659 19.897C12.0864 19.8926 12.1102 19.8904 12.1358 19.8921C12.1561 19.8934 12.1745 19.897 12.1907 19.9018L11.9343 19.945M17.8747 20.5757L17.6028 20.9549M17.8747 20.5757C17.8749 20.5758 17.875 20.5759 17.8752 20.576L17.6028 20.9549M17.8747 20.5757C18.0047 20.6689 18.102 20.713 18.1672 20.7307C18.227 20.7469 18.2487 20.7385 18.2504 20.7379L18.2505 20.7379L18.2505 20.7378C18.2524 20.7371 18.2754 20.7289 18.312 20.6763C18.3515 20.6194 18.3983 20.5218 18.4388 20.3664M17.6028 20.9549C18.2401 21.4119 18.6922 21.2444 18.8905 20.4837M18.8905 20.4837L18.4388 20.3664M18.8905 20.4837C18.9758 20.1552 19.0445 19.8228 19.1133 19.4902C19.1473 19.3258 19.1813 19.1613 19.2174 18.9971M18.8905 20.4837L18.4389 20.366C18.4389 20.3661 18.4389 20.3662 18.4388 20.3664M18.4388 20.3664C18.5213 20.0488 18.5858 19.7365 18.6531 19.4111C18.6875 19.2445 18.7226 19.0745 18.7612 18.8987M19.2174 18.9971L18.7608 18.9004C18.761 18.8998 18.7611 18.8992 18.7612 18.8987M19.2174 18.9971C19.871 15.9131 20.5247 12.8297 21.1784 9.74708M19.2174 18.9971L18.7615 18.8971C18.7614 18.8976 18.7613 18.8981 18.7612 18.8987M18.7612 18.8987C19.4147 15.8154 20.0682 12.7329 20.7217 9.6511M21.1784 9.74708L20.7217 9.6511M21.1784 9.74708C21.3581 8.89172 20.9387 8.53043 20.1107 8.8014C20.02 8.83078 19.9311 8.86568 19.8423 8.90057C19.8127 8.9122 19.783 8.92383 19.7534 8.93525C17.2839 9.88638 14.8123 10.8379 12.3385 11.7897M21.1784 9.74708L20.7219 9.65028C20.7218 9.65055 20.7218 9.65083 20.7217 9.6511M20.7217 9.6511C20.7586 9.47564 20.7577 9.35621 20.7445 9.28302C20.7382 9.24785 20.7297 9.22713 20.7242 9.21641C20.7189 9.20642 20.7153 9.20321 20.7144 9.2024C20.7134 9.20154 20.7092 9.19788 20.6973 9.19346C20.6846 9.18876 20.6615 9.18262 20.6243 9.1804C20.5471 9.17579 20.4263 9.18915 20.2559 9.24492L20.2545 9.24535C20.1784 9.27001 20.1079 9.29768 20.0236 9.33078C19.9918 9.34328 19.9579 9.35655 19.9211 9.37074M19.9211 9.37074L19.7534 8.93527L19.921 9.37077C19.921 9.37076 19.9211 9.37075 19.9211 9.37074ZM19.9211 9.37074C17.4516 10.3219 14.9799 11.2734 12.5061 12.2252M12.5061 12.2252C12.5062 12.2252 12.5062 12.2252 12.5063 12.2252L12.3385 11.7897M12.5061 12.2252L12.3385 11.7897M12.3385 11.7897L18.312 11.4208C16.4686 13.0894 14.6256 14.7559 12.783 16.4202C12.7295 16.4689 12.6721 16.5152 12.6145 16.5618C12.3929 16.7407 12.1675 16.9228 12.1424 17.257C12.1017 17.7994 12.0593 18.3413 12.0163 18.8913C11.9891 19.2386 11.9617 19.5891 11.9343 19.945M11.9343 19.945L12.1821 19.9641L12.0433 20.3444M11.9343 19.945C11.9399 19.9784 11.9354 20.0194 11.9305 20.0627C11.9185 20.1706 11.9049 20.2924 12.0433 20.3444"
              fill="white" stroke="white" stroke-width="0.933333" />
          </svg>