<svg width="29" height="29" viewBox="0 0 29 29" fill="none" xmlns="http://www.w3.org/2000/svg">
<path d="M27.5736 13.5688L27.5736 13.5689C28.0198 21.1688 21.6816 27.9005 14.0553 27.9005C11.5507 27.9005 9.21046 27.2238 7.20873 26.0469L7.03843 25.9468L6.84802 25.9994L2.28459 27.2594L2.28138 27.2603C1.59738 27.4544 0.950672 26.8254 1.13782 26.122C1.13786 26.1218 1.13791 26.1216 1.13796 26.1215L2.38356 21.4885L2.43378 21.3017L2.33717 21.1342C0.862517 18.577 0.185359 15.4784 0.700109 12.1999L0.700216 12.1992C1.57919 6.54614 6.11355 1.95741 11.7655 1.02427C19.9828 -0.329641 27.1135 5.71927 27.5736 13.5688ZM2.40879 27.7092L6.97222 26.4492L2.40879 27.7092Z" stroke="black" stroke-width="0.933333"/>
<path d="M21.1756 19.8998C21.0496 20.1518 20.8956 20.3898 20.6996 20.6138C20.3497 20.9918 19.9717 21.2718 19.5517 21.4398C19.1318 21.6218 18.6699 21.7058 18.1799 21.7058C17.466 21.7058 16.6961 21.5378 15.8982 21.1878C15.0863 20.8378 14.2885 20.3758 13.4906 19.8018C12.6787 19.2138 11.9228 18.5558 11.1949 17.8418C10.467 17.1138 9.82301 16.3438 9.23509 15.5459C8.66116 14.7479 8.19925 13.9499 7.86329 13.1519C7.52733 12.3539 7.35938 11.584 7.35938 10.856C7.35938 10.38 7.44335 9.91801 7.61133 9.49802C7.77931 9.06403 8.0453 8.67204 8.42325 8.32205C8.87119 7.87406 9.3611 7.66406 9.87903 7.66406C10.075 7.66406 10.2709 7.70606 10.4529 7.79005C10.6349 7.87405 10.8029 8.00005 10.9289 8.18204L12.5526 10.478C12.6786 10.66 12.7766 10.814 12.8326 10.968C12.9026 11.122 12.9306 11.262 12.9306 11.402C12.9306 11.57 12.8747 11.738 12.7767 11.906C12.6787 12.074 12.5527 12.2419 12.3847 12.4099L11.8527 12.9699C11.7688 13.0539 11.7408 13.1379 11.7408 13.2499C11.7408 13.3059 11.7548 13.3619 11.7688 13.4179C11.7967 13.4739 11.8108 13.5159 11.8248 13.5579C11.9508 13.7959 12.1747 14.0899 12.4827 14.4539C12.8046 14.8179 13.1406 15.1959 13.5046 15.5599C13.8826 15.9379 14.2465 16.2738 14.6244 16.5958C14.9884 16.9038 15.2963 17.1139 15.5343 17.2398C15.5763 17.2538 15.6183 17.2818 15.6603 17.2958C15.7163 17.3238 15.7723 17.3238 15.8423 17.3238C15.9683 17.3238 16.0523 17.2818 16.1363 17.1979L16.6681 16.6659C16.8501 16.4839 17.0181 16.3579 17.1721 16.2739C17.3401 16.1759 17.4941 16.1198 17.676 16.1198C17.816 16.1198 17.956 16.1479 18.11 16.2179C18.264 16.2879 18.4319 16.3719 18.5999 16.4979L20.9236 18.1498C21.1056 18.2758 21.2315 18.4298 21.3155 18.5978C21.3855 18.7798 21.4275 18.9478 21.4275 19.1438C21.3435 19.3818 21.2876 19.6478 21.1756 19.8998Z" fill="black"/>
<path d="M21.1756 19.8998C21.0496 20.1518 20.8956 20.3898 20.6996 20.6138C20.3497 20.9918 19.9717 21.2718 19.5517 21.4398C19.1318 21.6218 18.6699 21.7058 18.1799 21.7058C17.466 21.7058 16.6961 21.5378 15.8982 21.1878C15.0863 20.8378 14.2885 20.3758 13.4906 19.8018C12.6787 19.2138 11.9228 18.5558 11.1949 17.8418C10.467 17.1138 9.82301 16.3438 9.23509 15.5459C8.66116 14.7479 8.19925 13.9499 7.86329 13.1519C7.52733 12.3539 7.35938 11.584 7.35938 10.856C7.35938 10.38 7.44335 9.91801 7.61133 9.49802C7.77931 9.06403 8.0453 8.67204 8.42325 8.32205C8.87119 7.87406 9.3611 7.66406 9.87903 7.66406C10.075 7.66406 10.2709 7.70606 10.4529 7.79005C10.6349 7.87405 10.8029 8.00005 10.9289 8.18204L12.5526 10.478C12.6786 10.66 12.7766 10.814 12.8326 10.968C12.9026 11.122 12.9306 11.262 12.9306 11.402C12.9306 11.57 12.8747 11.738 12.7767 11.906C12.6787 12.074 12.5527 12.2419 12.3847 12.4099L11.8527 12.9699C11.7688 13.0539 11.7408 13.1379 11.7408 13.2499C11.7408 13.3059 11.7548 13.3619 11.7688 13.4179C11.7967 13.4739 11.8108 13.5159 11.8248 13.5579C11.9508 13.7959 12.1747 14.0899 12.4827 14.4539C12.8046 14.8179 13.1406 15.1959 13.5046 15.5599C13.8826 15.9379 14.2465 16.2738 14.6244 16.5958C14.9884 16.9038 15.2963 17.1139 15.5343 17.2398C15.5763 17.2538 15.6183 17.2818 15.6603 17.2958C15.7163 17.3238 15.7723 17.3238 15.8423 17.3238C15.9683 17.3238 16.0523 17.2818 16.1363 17.1979L16.6681 16.6659C16.8501 16.4839 17.0181 16.3579 17.1721 16.2739C17.3401 16.1759 17.4941 16.1198 17.676 16.1198C17.816 16.1198 17.956 16.1479 18.11 16.2179C18.264 16.2879 18.4319 16.3719 18.5999 16.4979L20.9236 18.1498C21.1056 18.2758 21.2315 18.4298 21.3155 18.5978C21.3855 18.7798 21.4275 18.9478 21.4275 19.1438C21.3435 19.3818 21.2876 19.6478 21.1756 19.8998Z" fill="black"/>
</svg>
