          <svg width="28" height="29" viewBox="0 0 28 29" fill="none" xmlns="http://www.w3.org/2000/svg">
            <path
              d="M27.5111 13.4028L27.5111 13.4029C27.9573 21.0028 21.6191 27.7345 13.9928 27.7345C11.4882 27.7345 9.14796 27.0577 7.14623 25.8809L6.97593 25.7808L6.78552 25.8334L2.22209 27.0933L2.21888 27.0942C1.53488 27.2884 0.888172 26.6593 1.07532 25.956C1.07536 25.9558 1.07541 25.9556 1.07546 25.9555L2.32106 21.3225L2.37128 21.1357L2.27467 20.9682C0.800017 18.411 0.122859 15.3124 0.637609 12.0339L0.637716 12.0332C1.51669 6.38012 6.05105 1.79139 11.703 0.858256C19.9203 -0.495657 27.051 5.55325 27.5111 13.4028ZM2.34629 27.5432L6.90972 26.2832L2.34629 27.5432Z"
              stroke="white" stroke-width="0.933333" />
            <path
              d="M21.1111 19.7357C20.9851 19.9877 20.8311 20.2257 20.6352 20.4497C20.2852 20.8277 19.9072 21.1077 19.4873 21.2757C19.0673 21.4577 18.6054 21.5417 18.1155 21.5417C17.4016 21.5417 16.6317 21.3737 15.8338 21.0237C15.0219 20.6737 14.224 20.2117 13.4261 19.6377C12.6142 19.0497 11.8583 18.3917 11.1304 17.6778C10.4025 16.9498 9.75856 16.1798 9.17063 15.3818C8.59671 14.5838 8.13479 13.7858 7.79884 12.9879C7.46288 12.1899 7.29492 11.4199 7.29492 10.6919C7.29492 10.2159 7.3789 9.75395 7.54688 9.33396C7.71486 8.89997 7.98085 8.50798 8.3588 8.15799C8.80674 7.71 9.29665 7.5 9.81458 7.5C10.0106 7.5 10.2065 7.54199 10.3885 7.62599C10.5704 7.70999 10.7385 7.83599 10.8644 8.01798L12.4882 10.3139C12.6142 10.4959 12.7122 10.6499 12.7682 10.8039C12.8382 10.9579 12.8662 11.0979 12.8662 11.2379C12.8662 11.4059 12.8102 11.5739 12.7122 11.7419C12.6142 11.9099 12.4882 12.0779 12.3202 12.2459L11.7883 12.8059C11.7043 12.8899 11.6764 12.9739 11.6764 13.0859C11.6764 13.1419 11.6903 13.1979 11.7043 13.2539C11.7323 13.3099 11.7464 13.3519 11.7603 13.3939C11.8863 13.6319 12.1103 13.9258 12.4182 14.2898C12.7402 14.6538 13.0762 15.0318 13.4401 15.3958C13.8181 15.7738 14.182 16.1098 14.56 16.4318C14.9239 16.7398 15.2318 16.9498 15.4698 17.0758C15.5118 17.0898 15.5538 17.1178 15.5958 17.1318C15.6518 17.1598 15.7078 17.1598 15.7778 17.1598C15.9038 17.1598 15.9878 17.1178 16.0718 17.0338L16.6037 16.5018C16.7856 16.3198 16.9537 16.1938 17.1077 16.1098C17.2756 16.0118 17.4296 15.9558 17.6116 15.9558C17.7516 15.9558 17.8915 15.9838 18.0455 16.0538C18.1995 16.1238 18.3674 16.2078 18.5354 16.3338L20.8592 17.9858C21.0411 18.1118 21.1671 18.2658 21.2511 18.4338C21.3211 18.6158 21.3631 18.7837 21.3631 18.9797C21.2791 19.2177 21.2231 19.4837 21.1111 19.7357Z"
              fill="white" />
            <path
              d="M21.1111 19.7357C20.9851 19.9877 20.8311 20.2257 20.6352 20.4497C20.2852 20.8277 19.9072 21.1077 19.4873 21.2757C19.0673 21.4577 18.6054 21.5417 18.1155 21.5417C17.4016 21.5417 16.6317 21.3737 15.8338 21.0237C15.0219 20.6737 14.224 20.2117 13.4261 19.6377C12.6142 19.0497 11.8583 18.3917 11.1304 17.6778C10.4025 16.9498 9.75856 16.1798 9.17063 15.3818C8.59671 14.5838 8.13479 13.7858 7.79884 12.9879C7.46288 12.1899 7.29492 11.4199 7.29492 10.6919C7.29492 10.2159 7.3789 9.75395 7.54688 9.33396C7.71486 8.89997 7.98085 8.50798 8.3588 8.15799C8.80674 7.71 9.29665 7.5 9.81458 7.5C10.0106 7.5 10.2065 7.54199 10.3885 7.62599C10.5704 7.70999 10.7385 7.83599 10.8644 8.01798L12.4882 10.3139C12.6142 10.4959 12.7122 10.6499 12.7682 10.8039C12.8382 10.9579 12.8662 11.0979 12.8662 11.2379C12.8662 11.4059 12.8102 11.5739 12.7122 11.7419C12.6142 11.9099 12.4882 12.0779 12.3202 12.2459L11.7883 12.8059C11.7043 12.8899 11.6764 12.9739 11.6764 13.0859C11.6764 13.1419 11.6903 13.1979 11.7043 13.2539C11.7323 13.3099 11.7464 13.3519 11.7603 13.3939C11.8863 13.6319 12.1103 13.9258 12.4182 14.2898C12.7402 14.6538 13.0762 15.0318 13.4401 15.3958C13.8181 15.7738 14.182 16.1098 14.56 16.4318C14.9239 16.7398 15.2318 16.9498 15.4698 17.0758C15.5118 17.0898 15.5538 17.1178 15.5958 17.1318C15.6518 17.1598 15.7078 17.1598 15.7778 17.1598C15.9038 17.1598 15.9878 17.1178 16.0718 17.0338L16.6037 16.5018C16.7856 16.3198 16.9537 16.1938 17.1077 16.1098C17.2756 16.0118 17.4296 15.9558 17.6116 15.9558C17.7516 15.9558 17.8915 15.9838 18.0455 16.0538C18.1995 16.1238 18.3674 16.2078 18.5354 16.3338L20.8592 17.9858C21.0411 18.1118 21.1671 18.2658 21.2511 18.4338C21.3211 18.6158 21.3631 18.7837 21.3631 18.9797C21.2791 19.2177 21.2231 19.4837 21.1111 19.7357Z"
              fill="white" />
          </svg>